<?xml version="1.0" encoding="UTF-8" standalone="no"?>
<!DOCTYPE svg PUBLIC "-//W3C//DTD SVG 1.1//EN" "http://www.w3.org/Graphics/SVG/1.1/DTD/svg11.dtd">
<!-- Created with Vectornator (http://vectornator.io/) -->
<svg height="100%" stroke-miterlimit="10" style="fill-rule:nonzero;clip-rule:evenodd;stroke-linecap:round;stroke-linejoin:round;" version="1.1" viewBox="0 0 1920 1080" width="100%" xml:space="preserve" xmlns="http://www.w3.org/2000/svg" xmlns:vectornator="http://vectornator.io" xmlns:xlink="http://www.w3.org/1999/xlink">
<defs/>
<g id="Слой-1" vectornator:layerName="Слой 1">
<path d="M362.954 393.485C362.954 410.381 363.663 427.288 363.663 444.199C363.663 467.288 363.176 490.405 365.083 513.418C366.17 526.539 366.502 540.009 366.502 553.167C366.502 558.421 366.502 563.675 366.502 568.929C366.502 569.843 366.502 570.757 366.502 571.671C366.502 572.356 366.502 574.412 366.502 573.727C366.502 571.899 366.502 570.071 366.502 568.244" fill="none" opacity="1" stroke="#FFFFFF" stroke-linecap="round" stroke-linejoin="round" stroke-width="7.5" vectornator:layerName="Кривая 1"/>
<path d="M364.373 393.485C369.092 391.966 374.307 392.965 379.278 392.8C393.172 392.337 407.303 390.589 421.153 389.373C436.754 388.004 452.321 388.003 467.997 388.003C471.177 388.003 474.783 388.437 477.933 388.003C479.734 387.754 480.265 386.697 482.192 387.317C486.332 388.65 490.759 394.455 494.257 396.912C501.408 401.933 506.907 407.704 512.001 414.73C514.55 418.246 516.308 422.327 519.099 425.696C521.734 428.876 524.984 430.893 526.906 434.605" fill="none" opacity="1" stroke="#FFFFFF" stroke-linecap="round" stroke-linejoin="round" stroke-width="7.5" vectornator:layerName="Кривая 2"/>
<path d="M524.777 443.514C525.25 442.6 525.94 441.764 526.196 440.773C526.311 440.33 526.196 438.945 526.196 439.402C526.196 455.877 526.906 472.285 526.906 488.746C526.906 507.474 526.478 526.266 527.616 544.943C528.321 556.515 530.455 567.595 530.455 579.209" fill="none" opacity="1" stroke="#FFFFFF" stroke-linecap="round" stroke-linejoin="round" stroke-width="7.5" vectornator:layerName="Кривая 3"/>
<path d="M363.663 582.636C386.375 582.636 409.087 582.636 431.799 582.636C441.84 582.636 452.309 581.83 462.319 582.636C478.409 583.931 494.38 584.006 510.582 584.006" fill="none" opacity="1" stroke="#FFFFFF" stroke-linecap="round" stroke-linejoin="round" stroke-width="7.5" vectornator:layerName="Кривая 4"/>
<path d="M479.353 396.227C479.353 394.856 479.353 393.485 479.353 392.115C479.353 391.429 479.353 389.373 479.353 390.059C479.353 401.693 477.005 413.414 475.804 425.01C475.728 425.741 473.629 433.566 475.094 433.92C477.418 434.48 484.486 431.465 487.16 431.178C495.535 430.28 504.263 430.493 512.711 430.493C516.974 430.493 522.317 429.991 526.196 431.864" fill="none" opacity="1" stroke="#FFFFFF" stroke-linecap="round" stroke-linejoin="round" stroke-width="7.5" vectornator:layerName="Кривая 5"/>
<path d="M385.666 455.165C389.844 453.147 403.527 454.479 408.378 454.479C425.968 454.479 444.068 455.689 461.609 454.479C470.436 453.871 479.821 454.851 488.579 453.794C489.339 453.702 495.854 452.079 496.387 453.109C496.686 453.687 495.44 454.023 494.967 454.479" fill="none" opacity="1" stroke="#FFFFFF" stroke-linecap="round" stroke-linejoin="round" stroke-width="7.5" vectornator:layerName="Кривая 6"/>
<path d="M384.956 492.858C384.483 492.629 383.016 492.264 383.536 492.172C386.571 491.64 389.68 491.592 392.763 491.487C403.169 491.135 413.588 491.212 423.992 490.802C446.484 489.915 468.911 488.06 491.418 488.06" fill="none" opacity="1" stroke="#FFFFFF" stroke-linecap="round" stroke-linejoin="round" stroke-width="7.5" vectornator:layerName="Кривая 7"/>
<path d="M383.536 527.81C390.478 526.134 398.427 527.124 405.539 527.124C423.801 527.124 442.634 529.413 460.899 527.81C468.882 527.109 476.998 525.754 485.031 525.754C488.016 525.754 490.771 524.919 493.548 524.383C494.708 524.159 497.096 524.383 497.096 524.383C497.096 524.383 496.15 524.383 495.677 524.383" fill="none" opacity="1" stroke="#FFFFFF" stroke-linecap="round" stroke-linejoin="round" stroke-width="7.5" vectornator:layerName="Кривая 8"/>
<path d="M346.512 643.461C346.643 644.882 346.182 644.923 346.512 646.197C346.895 647.678 349.11 649.206 350.762 648.249C356.703 644.808 345.744 635.149 346.512 643.461Z" fill="none" opacity="1" stroke="#FFFFFF" stroke-linecap="round" stroke-linejoin="round" stroke-width="7.5" vectornator:layerName="Кривая 9"/>
<path d="M386.889 627.046C387.967 624.964 385.557 624.966 383.347 625.678C377.94 627.418 369.071 641.165 371.305 646.197C374.927 654.359 395.356 647.582 401.056 644.829" fill="none" opacity="1" stroke="#FFFFFF" stroke-linecap="round" stroke-linejoin="round" stroke-width="7.5" vectornator:layerName="Кривая 10"/>
<path d="M408.14 608.578C407.668 607.666 407.779 605.842 406.723 605.842C405.519 605.842 406.015 608.099 406.015 609.262C406.015 612.641 405.747 616.159 406.015 619.522C406.91 630.757 408.848 642.505 408.848 653.721" fill="none" opacity="1" stroke="#FFFFFF" stroke-linecap="round" stroke-linejoin="round" stroke-width="7.5" vectornator:layerName="Кривая 11"/>
<path d="M444.267 629.782C442.891 627.125 440.758 625.916 437.891 624.994C429.143 622.178 425.141 634.301 425.141 640.725C425.141 642.389 424.767 644.631 425.849 646.197C433.306 656.998 449.711 635.579 445.683 629.098C443.595 625.737 441.638 632.102 441.433 633.886C440.821 639.209 440.442 646.472 443.558 650.985" fill="none" opacity="1" stroke="#FFFFFF" stroke-linecap="round" stroke-linejoin="round" stroke-width="7.5" vectornator:layerName="Кривая 12"/>
<path d="M480.393 630.466C480.393 629.702 480.816 626.974 480.393 626.362C477.366 621.977 465.155 626.314 466.226 632.518C467.295 638.712 487.011 640.525 488.186 646.197C488.614 648.264 482.796 649.498 481.81 649.617C477.884 650.091 465.279 651.209 463.393 647.565" fill="none" opacity="1" stroke="#FFFFFF" stroke-linecap="round" stroke-linejoin="round" stroke-width="7.5" vectornator:layerName="Кривая 13"/>
<path d="M519.354 629.098C519.83 628.178 521.479 626.003 521.479 624.994C521.479 619.315 507.607 622.882 506.603 627.73C505.511 633 512.51 636.017 515.812 638.674C517.821 640.291 518.949 642.386 520.77 644.145C521.902 645.238 524.625 647.921 521.479 648.933C519.687 649.51 517.701 648.933 515.812 648.933C514.631 648.933 513.451 648.933 512.27 648.933C510.853 648.933 509.433 649.031 508.02 648.933C506.121 648.802 504.253 648.364 502.353 648.249C499.525 648.079 496.686 648.249 493.852 648.249" fill="none" opacity="1" stroke="#FFFFFF" stroke-linecap="round" stroke-linejoin="round" stroke-width="7.5" vectornator:layerName="Кривая 14"/>
<path d="M581.69 466.991C595.621 466.991 609.553 466.991 623.484 466.991C627.543 466.991 632.176 466.501 636.235 466.991C637.201 467.108 638.108 467.521 639.068 467.675C639.534 467.75 640.819 467.998 640.485 467.675C639.957 467.165 639.068 467.219 638.36 466.991" fill="none" opacity="1" stroke="#FFFFFF" stroke-linecap="round" stroke-linejoin="round" stroke-width="7.5" vectornator:layerName="Кривая 15"/>
<path d="M579.565 490.247C586.109 488.141 595.261 489.563 602.233 489.563C615.175 489.563 628.444 490.247 641.193 490.247" fill="none" opacity="1" stroke="#FFFFFF" stroke-linecap="round" stroke-linejoin="round" stroke-width="7.5" vectornator:layerName="Кривая 16"/>
<path d="M631.276 442.367C628.92 437.817 644.312 448.479 645.443 449.207C651.68 453.222 657.831 457.285 663.861 461.519C665.276 462.513 669.395 464.277 670.236 466.307C671.178 468.582 661.618 481.526 660.319 483.407C655.558 490.303 650.788 497.008 646.152 503.927C642.186 509.845 637.168 514.903 634.818 521.711" fill="none" opacity="1" stroke="#FFFFFF" stroke-linecap="round" stroke-linejoin="round" stroke-width="7.5" vectornator:layerName="Кривая 17"/>
<path d="M727.614 387.648C727.614 402.222 726.345 416.799 726.906 431.423C727.37 443.524 729.292 455.578 729.739 467.675C730.671 492.874 731.156 518.422 731.156 543.598" fill="none" opacity="1" stroke="#FFFFFF" stroke-linecap="round" stroke-linejoin="round" stroke-width="7.5" vectornator:layerName="Кривая 18"/>
<path d="M733.989 385.596C732.395 382.518 738.391 384.228 740.365 384.228C747.448 384.228 754.532 384.228 761.616 384.228C775.888 384.228 789.896 383.334 804.118 382.86C830.578 381.979 856.978 378.756 883.455 378.756C891.323 378.756 907.489 376.68 914.623 380.124" fill="none" opacity="1" stroke="#FFFFFF" stroke-linecap="round" stroke-linejoin="round" stroke-width="7.5" vectornator:layerName="Кривая 19"/>
<path d="M773.658 418.428C776.421 413.091 770.835 408.393 765.158 410.22C762.603 411.042 760.105 414.332 758.782 416.376C754.304 423.295 752.289 438.691 760.199 444.419C766.227 448.784 775.785 448.864 782.158 445.787" fill="none" opacity="1" stroke="#FFFFFF" stroke-linecap="round" stroke-linejoin="round" stroke-width="7.5" vectornator:layerName="Кривая 20"/>
<path d="M791.367 407.484C787.83 414.314 795.537 433.734 797.034 441.683C797.566 444.51 797.685 449.18 800.576 450.575" fill="none" opacity="1" stroke="#FFFFFF" stroke-linecap="round" stroke-linejoin="round" stroke-width="7.5" vectornator:layerName="Кривая 21"/>
<path d="M821.827 428.004C822.879 425.971 825.846 421.401 824.661 419.112C823.393 416.664 816.095 416.323 814.035 417.744C808.219 421.755 804.71 438.398 810.493 443.051C818.569 449.549 830.064 432.282 826.786 425.952C825.971 424.378 823.367 428.093 823.244 428.688C822.453 432.507 821.188 447.155 827.494 447.155" fill="none" opacity="1" stroke="#FFFFFF" stroke-linecap="round" stroke-linejoin="round" stroke-width="7.5" vectornator:layerName="Кривая 22"/>
<path d="M855.829 421.164C858.504 418.581 859.052 414.4 853.704 415.692C849.154 416.79 840.712 420.719 838.828 425.268C837.425 428.655 842.216 430.006 844.495 430.74C849.15 432.238 855.088 433.046 859.371 435.527C860.393 436.12 863.895 438.683 862.204 440.315C861.15 441.333 855.303 442.058 853.704 442.367C852.168 442.664 850.317 442.367 848.745 442.367" fill="none" opacity="1" stroke="#FFFFFF" stroke-linecap="round" stroke-linejoin="round" stroke-width="7.5" vectornator:layerName="Кривая 23"/>
<path d="M891.956 419.796C895.774 408.735 876.66 416.02 874.246 421.848C873.969 422.516 873.873 427.403 874.246 428.004C876.403 431.474 898.542 441.654 883.455 443.735C882.52 443.864 881.559 443.622 880.622 443.735C878.733 443.963 876.858 444.419 874.955 444.419" fill="none" opacity="1" stroke="#FFFFFF" stroke-linecap="round" stroke-linejoin="round" stroke-width="7.5" vectornator:layerName="Кривая 24"/>
<path d="M746.032 471.779C746.032 471.323 746.504 470.411 746.032 470.411C744.362 470.411 745.323 473.587 745.323 475.199C745.323 478.163 745.323 481.127 745.323 484.091C745.323 491.465 745.447 498.646 746.032 505.979C746.127 507.177 745.733 513.358 747.448 514.187C748.525 514.707 748.157 511.929 748.157 510.767" fill="none" opacity="1" stroke="#FFFFFF" stroke-linecap="round" stroke-linejoin="round" stroke-width="7.5" vectornator:layerName="Кривая 25"/>
<path d="M745.323 479.987C741.073 467.675 759.926 470.656 764.449 477.935C769.126 485.461 759.438 490.956 753.824 493.667C752.19 494.456 750.021 494.245 749.573 496.403C749.014 499.105 751.5 499.665 753.824 500.507C759.001 502.382 764.283 504.619 768.699 508.031C770.264 509.239 771.121 510.568 772.95 511.451" fill="none" opacity="1" stroke="#FFFFFF" stroke-linecap="round" stroke-linejoin="round" stroke-width="7.5" vectornator:layerName="Кривая 26"/>
<path d="M775.783 494.351C781.324 497.026 790.376 493.784 795.617 491.615C797.463 490.851 800.619 487.553 798.451 485.459C787.713 475.091 765.771 497.264 780.742 505.295C783.959 507.02 787.798 508.025 791.367 508.715C794.889 509.395 797.818 509.83 801.284 508.715" fill="none" opacity="1" stroke="#FFFFFF" stroke-linecap="round" stroke-linejoin="round" stroke-width="7.5" vectornator:layerName="Кривая 27"/>
<path d="M828.202 491.615C828.202 486.635 821.76 483.425 816.868 484.775C810.186 486.619 806.167 498.308 809.076 503.927C812.873 511.258 826.918 508.809 831.036 503.243C832.514 501.245 833.641 498.663 834.578 496.403C834.774 495.93 835.814 495.035 835.286 495.035C833.221 495.035 832.834 504.4 833.161 505.979C833.413 507.194 834.451 507.909 835.286 508.715" fill="none" opacity="1" stroke="#FFFFFF" stroke-linecap="round" stroke-linejoin="round" stroke-width="7.5" vectornator:layerName="Кривая 28"/>
<path d="M861.85 497.087C862.25 494.128 861.393 491.121 860.787 488.195C859.47 481.834 851.857 482.319 848.745 486.827C845.701 491.236 844.608 498.068 845.203 503.243C845.946 509.702 852.541 511.322 857.245 507.347C858.251 506.497 859.712 505.851 860.079 504.611C861.189 500.858 861.739 497.91 861.85 497.087Z" fill="none" opacity="1" stroke="#FFFFFF" stroke-linecap="round" stroke-linejoin="round" stroke-width="7.5" vectornator:layerName="Кривая 29"/>
<path d="M865.038 466.307C859.743 463.751 861.496 474.138 861.496 476.567C861.496 483.071 863.143 489.253 863.621 495.719C863.823 498.448 863.339 501.204 863.621 503.927C863.906 506.684 863.704 510.123 866.454 511.451" fill="none" opacity="1" stroke="#FFFFFF" stroke-linecap="round" stroke-linejoin="round" stroke-width="7.5" vectornator:layerName="Кривая 30"/>
<path d="M881.33 492.983C887.42 492.983 892.381 491.888 896.914 487.511C899.683 484.837 901.914 478.629 896.206 477.251C881.867 473.79 872.418 509.693 895.497 505.979C897.499 505.657 903.137 503.258 904.706 502.559C908.055 501.066 910.626 499.579 913.207 497.087" fill="none" opacity="1" stroke="#FFFFFF" stroke-linecap="round" stroke-linejoin="round" stroke-width="7.5" vectornator:layerName="Кривая 31"/>
<path d="M916.04 477.251C912.548 482.309 914.769 497.261 915.332 503.243C915.504 505.073 914.234 508.133 916.04 508.715C918.437 509.486 918.165 501.509 918.165 501.191" fill="none" opacity="1" stroke="#FFFFFF" stroke-linecap="round" stroke-linejoin="round" stroke-width="7.5" vectornator:layerName="Кривая 32"/>
<path d="M919.582 480.671C919.582 477.731 918.531 472.794 920.999 470.411C926.156 465.431 930.98 473.582 931.624 477.935C932.529 484.053 930.459 487.798 924.54 490.247C924.358 490.323 914.344 492.713 916.04 494.351C918.871 497.084 925.926 498.098 929.499 499.823C933.147 501.584 936.258 504.223 939.416 506.663" fill="none" opacity="1" stroke="#FFFFFF" stroke-linecap="round" stroke-linejoin="round" stroke-width="7.5" vectornator:layerName="Кривая 33"/>
<path d="M733.989 547.018C745.778 547.018 757.596 545.734 769.408 546.334C791.552 547.46 813.809 548.386 835.994 548.386C852.469 548.386 869.159 546.263 885.58 547.018C895.049 547.454 904.448 549.273 913.915 549.754C923.858 550.26 933.739 550.323 943.666 551.122C949.272 551.573 962.674 553.574 967.751 551.122C969.598 550.231 966.575 546.128 966.334 544.966C965.33 540.12 966 533.396 966.334 528.551C967.247 515.329 968.517 502.19 967.751 488.879C967.12 477.904 965.57 467.114 966.334 456.047C966.744 450.106 968.097 444.213 968.459 438.263C969.108 427.619 967.043 417.373 967.043 406.8C967.043 401.784 967.043 396.768 967.043 391.752C967.043 391.296 967.465 390.588 967.043 390.384C966.57 390.156 966.098 390.84 965.626 391.068" fill="none" opacity="1" stroke="#FFFFFF" stroke-linecap="round" stroke-linejoin="round" stroke-width="7.5" vectornator:layerName="Кривая 34"/>
</g>
<g id="Layer-1" vectornator:layerName="Layer 1">
<path d="M819.763 342.658C819.763 325.013 822.577 307.341 823.788 289.794C825.382 266.716 823.566 243.61 825.399 220.604C826.003 213.015 825.856 204.599 824.593 197.281C824.34 195.814 822.6 191.814 823.788 190.285C825.089 188.61 832.314 188.293 834.255 187.952C843.293 186.366 852.497 184.947 861.629 184.065C874.747 182.799 888.019 182.217 901.08 180.956C919.937 179.135 938.494 175.607 957.438 174.736C978.074 173.788 998.743 173.959 1019.43 173.959C1025.58 173.959 1040.05 172.254 1045.2 174.736" fill="none" opacity="1" stroke="#FFFFFF" stroke-linecap="round" stroke-linejoin="round" stroke-width="7.5" vectornator:layerName="Кривая 141"/>
<path d="M841.501 340.326C839.533 334.627 842.508 329.441 843.916 324C846.589 313.678 847.157 301.965 847.942 291.349C849.391 271.763 848.747 251.943 848.747 232.265C848.747 229.022 845.59 215.878 847.942 213.607C850.219 211.409 857.927 212.83 860.824 212.83C873.74 212.83 886.635 212.652 899.47 211.275C925.441 208.489 951.527 205.072 977.566 203.501C997.784 202.281 1018.48 203.501 1038.76 203.501" fill="none" opacity="1" stroke="#FFFFFF" stroke-linecap="round" stroke-linejoin="round" stroke-width="7.5" vectornator:layerName="Кривая 142"/>
<path d="M1052.44 145.972C1050.22 141.683 1061.61 149.058 1062.91 149.859C1064.54 150.862 1066.17 151.87 1067.74 152.969C1074.39 157.642 1086.86 163.654 1088.67 172.404C1089.77 177.706 1078.69 182.483 1075.79 186.398C1072 191.525 1069.27 197.169 1066.13 202.723C1061.93 210.163 1056.83 217.21 1054.05 225.268" fill="none" opacity="1" stroke="#FFFFFF" stroke-linecap="round" stroke-linejoin="round" stroke-width="7.5" vectornator:layerName="Кривая 143"/>
<path d="M1177.1 113.924C1177.1 113.41 1177.63 112.381 1177.1 112.381C1175.22 112.381 1176.3 115.964 1176.3 117.783C1176.3 119.584 1176.3 121.385 1176.3 123.186C1176.3 125.501 1176.3 127.817 1176.3 130.132C1176.3 137.335 1176.3 144.539 1176.3 151.742C1176.3 168.988 1177.1 186.191 1177.1 203.451C1177.1 209.804 1176.52 219.315 1179.5 225.061" fill="none" opacity="1" stroke="#FFFFFF" stroke-linecap="round" stroke-linejoin="round" stroke-width="7.5" vectornator:layerName="Кривая 144"/>
<path d="M1233.05 122.414C1231.11 116.797 1223.41 113.195 1217.86 117.783C1210.85 123.588 1204.97 137.77 1213.87 144.796C1218.4 148.374 1228.49 148.184 1233.85 148.655C1238.25 149.041 1240.9 147.987 1244.24 145.568" fill="none" opacity="1" stroke="#FFFFFF" stroke-linecap="round" stroke-linejoin="round" stroke-width="7.5" vectornator:layerName="Кривая 145"/>
<path d="M1253.03 110.066C1253.03 109.551 1252.79 108.062 1253.03 108.522C1254.99 112.305 1256.25 118.29 1257.03 122.414C1258.47 130.059 1261.03 138.649 1261.03 146.339" fill="none" opacity="1" stroke="#FFFFFF" stroke-linecap="round" stroke-linejoin="round" stroke-width="7.5" vectornator:layerName="Кривая 146"/>
<path d="M1283.41 135.149C1285.04 131.207 1285.04 126.355 1283.41 122.414C1281.28 117.282 1273.89 116.123 1270.62 120.871C1267.65 125.164 1264.88 135.893 1266.62 140.937C1267.65 143.921 1271.82 143.202 1273.81 142.48C1278.48 140.793 1282.1 133.431 1284.2 129.36C1284.42 128.936 1285.74 126.979 1285 126.273C1282.08 123.446 1282.61 136.892 1282.61 137.85C1282.61 138.91 1283.41 141.998 1283.41 140.937C1283.41 136.556 1282.25 137.937 1283.41 135.149Z" fill="none" opacity="1" stroke="#FFFFFF" stroke-linecap="round" stroke-linejoin="round" stroke-width="7.5" vectornator:layerName="Кривая 147"/>
<path d="M1309.78 120.099C1305.94 112.687 1298.01 119.93 1293.8 123.186C1292.51 124.182 1289.81 127.586 1290.6 129.36C1291.58 131.564 1295.06 131.98 1296.99 132.447C1300.16 133.212 1315.36 136.994 1316.18 140.165C1316.71 142.234 1308.44 143.183 1308.18 143.252C1306.56 143.699 1305.02 144.401 1303.39 144.796" fill="none" opacity="1" stroke="#FFFFFF" stroke-linecap="round" stroke-linejoin="round" stroke-width="7.5" vectornator:layerName="Кривая 148"/>
<path d="M1343.35 117.783C1342.09 116.56 1340.48 114.234 1338.56 113.924C1332.44 112.94 1322.49 121.489 1325.77 127.817C1328.04 132.211 1334.2 135.961 1337.76 139.393C1338.7 140.303 1341.55 140.558 1340.95 141.709C1340.33 142.915 1329.54 142.48 1328.17 142.48" fill="none" opacity="1" stroke="#FFFFFF" stroke-linecap="round" stroke-linejoin="round" stroke-width="7.5" vectornator:layerName="Кривая 149"/>
<path d="M1195.48 179.526C1195.17 177.997 1194.45 174.215 1193.89 172.58C1193.7 172.034 1193.09 170.461 1193.09 171.036C1193.09 174.284 1196.06 178.875 1197.08 181.841C1199.11 187.718 1200.79 193.682 1202.68 199.592C1203.77 203.017 1205.01 206.421 1206.67 209.626C1207.21 210.655 1207.74 213.742 1208.27 212.713C1209.21 210.897 1209.36 203.103 1209.87 200.364C1211.19 193.371 1213.46 187.565 1216.27 181.07C1218.31 176.323 1220.29 169.493 1226.66 169.493" fill="none" opacity="1" stroke="#FFFFFF" stroke-linecap="round" stroke-linejoin="round" stroke-width="7.5" vectornator:layerName="Кривая 150"/>
<path d="M1241.04 184.929C1240.51 186.999 1239.22 207.864 1241.04 209.626C1241.46 210.032 1241.58 208.597 1241.84 208.082" fill="none" opacity="1" stroke="#FFFFFF" stroke-linecap="round" stroke-linejoin="round" stroke-width="7.5" vectornator:layerName="Кривая 151"/>
<path d="M1241.04 171.808C1241.04 171.294 1241.04 170.779 1241.04 170.265" fill="none" opacity="1" stroke="#FFFFFF" stroke-linecap="round" stroke-linejoin="round" stroke-width="7.5" vectornator:layerName="Кривая 152"/>
<path d="M1269.82 184.929C1269.82 174.556 1253.42 181.566 1252.23 189.559C1251.14 196.918 1264.36 200.258 1269.82 201.136C1270.74 201.285 1275.23 202.177 1273.81 204.223C1273.16 205.165 1269.15 205.466 1268.22 205.767C1266.62 206.281 1265.02 206.796 1263.42 207.31C1260.53 208.241 1258.5 209.626 1255.43 209.626" fill="none" opacity="1" stroke="#FFFFFF" stroke-linecap="round" stroke-linejoin="round" stroke-width="7.5" vectornator:layerName="Кривая 153"/>
<path d="M1285.8 179.526C1284.38 185.008 1285 190.868 1285 196.505C1285 196.506 1285 206.715 1285 201.908" fill="none" opacity="1" stroke="#FFFFFF" stroke-linecap="round" stroke-linejoin="round" stroke-width="7.5" vectornator:layerName="Кривая 154"/>
<path d="M1305.79 164.09C1308.51 177.222 1308.18 190.874 1308.18 204.223" fill="none" opacity="1" stroke="#FFFFFF" stroke-linecap="round" stroke-linejoin="round" stroke-width="7.5" vectornator:layerName="Кривая 155"/>
<path d="M1292.2 183.385C1300.4 183.385 1309.93 182.403 1317.77 184.929" fill="none" opacity="1" stroke="#FFFFFF" stroke-linecap="round" stroke-linejoin="round" stroke-width="7.5" vectornator:layerName="Кривая 156"/>
<path d="M1324.57 186.472C1325.23 187.527 1323.41 190.824 1324.17 192.646C1324.96 194.545 1328.08 197.734 1329.76 198.821C1337.04 203.504 1345.42 197.949 1346.55 190.331C1348.21 179.106 1342.96 175.667 1332.16 175.667C1328.73 175.667 1329.19 175.096 1326.57 177.211C1324.03 179.253 1323.1 181.834 1322.57 184.929C1322.44 185.69 1321.86 187.589 1322.57 187.244C1324.1 186.507 1323.6 184.927 1324.57 186.472Z" fill="none" opacity="1" stroke="#FFFFFF" stroke-linecap="round" stroke-linejoin="round" stroke-width="7.5" vectornator:layerName="Кривая 157"/>
<path d="M1361.74 170.265C1363.62 173.905 1362.19 178.634 1362.53 182.613C1363.25 190.865 1363.33 199.008 1363.33 207.31" fill="none" opacity="1" stroke="#FFFFFF" stroke-linecap="round" stroke-linejoin="round" stroke-width="7.5" vectornator:layerName="Кривая 158"/>
<path d="M1363.33 171.808C1359.63 161.082 1368.54 164.413 1372.93 169.493C1375.98 173.029 1376.84 177.569 1377.72 181.841C1378.87 187.404 1373.6 188.04 1369.73 188.787C1368.03 189.116 1363.71 190.69 1365.73 192.646C1368.72 195.536 1373.12 195.658 1376.92 196.505C1382.82 197.82 1388.63 199.717 1394.51 201.136" fill="none" opacity="1" stroke="#FFFFFF" stroke-linecap="round" stroke-linejoin="round" stroke-width="7.5" vectornator:layerName="Кривая 159"/>
<path d="M1175.5 104.663C1178.13 102.126 1197.44 102.348 1201.88 102.348C1222.42 102.348 1242.97 101.056 1263.42 99.2606C1302.1 95.8656 1340.85 97.0894 1379.32 100.804C1385.96 101.446 1395.07 101.871 1401.7 100.804C1405.58 100.18 1409.85 100.773 1413.69 100.032C1414.27 99.9196 1414.72 99.0787 1415.29 99.2606C1416.11 99.5244 1416.66 104.119 1416.89 104.663C1419.9 111.934 1420.08 121.586 1420.08 129.36C1420.08 144.877 1419.25 160.197 1418.49 175.667C1418.06 184.339 1416.93 193.192 1417.69 201.908C1418.16 207.446 1420.88 212.589 1420.88 218.115" fill="none" opacity="1" stroke="#FFFFFF" stroke-linecap="round" stroke-linejoin="round" stroke-width="7.5" vectornator:layerName="Кривая 160"/>
<path d="M1173.9 235.866C1178.53 235.866 1182.93 234.662 1187.49 234.323C1193.82 233.853 1200.33 233.911 1206.67 233.551C1236.41 231.862 1266.47 235.345 1296.19 233.551C1302.23 233.187 1307.91 231.273 1313.78 230.464C1319.59 229.662 1326.26 229.3 1332.16 228.92C1351.61 227.668 1371.1 229.08 1390.51 227.377C1396.29 226.87 1402.36 228.168 1408.09 227.377C1411.85 226.859 1415.54 225.061 1419.28 225.061" fill="none" opacity="1" stroke="#FFFFFF" stroke-linecap="round" stroke-linejoin="round" stroke-width="7.5" vectornator:layerName="Кривая 161"/>
<path d="M843.798 140.937C841.758 139.952 839.928 132.818 836.604 133.219C827.878 134.272 823.261 153.522 828.611 158.688C833.667 163.57 841.793 148.471 843.798 145.568C845.12 143.653 846.995 139.393 846.995 139.393C846.995 139.393 846.196 142.977 846.196 144.796C846.196 146.597 846.196 148.397 846.196 150.198C846.196 152.514 846.196 154.829 846.196 157.144" fill="none" opacity="1" stroke="#FFFFFF" stroke-linecap="round" stroke-linejoin="round" stroke-width="7.5" vectornator:layerName="Кривая 162"/>
<path d="M871.773 137.078C876.734 127.496 867.581 130.395 863.78 135.534C859.73 141.009 854.1 153.234 862.181 157.916C864.009 158.975 866.444 157.916 868.576 157.916C870.46 157.916 872.486 157.958 874.171 157.144" fill="none" opacity="1" stroke="#FFFFFF" stroke-linecap="round" stroke-linejoin="round" stroke-width="7.5" vectornator:layerName="Кривая 163"/>
<path d="M899.748 130.904C896.173 124.001 891.582 130.091 888.558 134.763C884.785 140.592 884.131 149.624 890.956 153.285C893.095 154.433 895.826 154.057 898.149 154.057" fill="none" opacity="1" stroke="#FFFFFF" stroke-linecap="round" stroke-linejoin="round" stroke-width="7.5" vectornator:layerName="Кривая 164"/>
<path d="M912.536 141.709C916.86 141.709 924.028 139.029 926.924 135.534C929.192 132.796 929.657 127.667 925.325 126.273C921.598 125.073 918.71 126.946 915.734 128.588C912.558 130.34 911.646 129.878 909.339 133.219C908.344 134.66 907.954 137.544 907.741 139.393C906.662 148.769 911.72 155.41 922.927 154.057C925.977 153.689 928.424 152.577 930.92 150.97" fill="none" opacity="1" stroke="#FFFFFF" stroke-linecap="round" stroke-linejoin="round" stroke-width="7.5" vectornator:layerName="Кривая 165"/>
<path d="M941.311 128.588C941.311 133.471 941.609 138.416 942.11 143.252C942.567 147.661 944.508 152.069 944.508 156.373" fill="none" opacity="1" stroke="#FFFFFF" stroke-linecap="round" stroke-linejoin="round" stroke-width="7.5" vectornator:layerName="Кривая 166"/>
<path d="M942.909 127.817C942.909 126.756 941.619 125.678 942.11 124.729C943.581 121.888 949.882 123.372 951.702 123.958C956.185 125.401 968.079 135.54 962.092 140.165C961.56 140.576 956.721 141.647 956.497 141.709C953.882 142.43 952.058 143.252 949.304 143.252" fill="none" opacity="1" stroke="#FFFFFF" stroke-linecap="round" stroke-linejoin="round" stroke-width="7.5" vectornator:layerName="Кривая 167"/>
<path d="M986.87 109.294C986.87 122.845 994.335 136.801 990.867 150.198" fill="none" opacity="1" stroke="#FFFFFF" stroke-linecap="round" stroke-linejoin="round" stroke-width="7.5" vectornator:layerName="Кривая 168"/>
<path d="M971.684 133.991C981.21 130.925 991.769 134.763 1001.26 134.763" fill="none" opacity="1" stroke="#FFFFFF" stroke-linecap="round" stroke-linejoin="round" stroke-width="7.5" vectornator:layerName="Кривая 169"/>
<path d="M1043.62 95.4017C1039.8 95.4017 1036.6 103.908 1035.63 106.978C1031.3 120.554 1027.86 132.45 1035.63 145.568" fill="none" opacity="1" stroke="#FFFFFF" stroke-linecap="round" stroke-linejoin="round" stroke-width="7.5" vectornator:layerName="Кривая 170"/>
<path d="M1096.45 100.809C1100.62 92.743 1115.47 111.449 1117.28 115.289C1122.94 127.322 1113.1 135.21 1103.95 141.836" fill="none" opacity="1" stroke="#FFFFFF" stroke-linecap="round" stroke-linejoin="round" stroke-width="7.5" vectornator:layerName="Кривая 171"/>
</g>
<g id="Layer-2" vectornator:layerName="Layer 2">
<path d="M1301.4 277.789C1298.06 282.621 1298.27 288.356 1297.23 293.878C1294.68 307.398 1293.58 321.235 1292.23 334.905C1288.4 373.699 1288.52 412.682 1286.4 451.55C1285.9 460.669 1284.46 469.786 1283.9 478.902C1282.85 496.1 1282.34 513.29 1280.57 530.387C1280.02 535.652 1279.73 541.185 1279.73 546.476C1279.73 547.817 1280.72 549.55 1279.73 550.498C1278.75 551.446 1277.86 548.48 1277.23 547.28C1275.57 544.062 1274.49 541.05 1273.07 537.627C1270.49 531.403 1267.17 525.389 1264.74 519.124C1264.03 517.297 1263.82 515.306 1263.07 513.493C1262.84 512.937 1262.24 511.285 1262.24 511.884C1262.24 515.201 1264.96 519.557 1266.4 522.342C1268.83 527.027 1269.25 532.769 1271.4 537.627C1271.95 538.862 1273.23 546.425 1275.57 545.671C1276.87 545.251 1276.27 542.102 1276.4 541.649C1277.48 538.012 1280.01 533.461 1282.23 530.387C1285.43 525.983 1289.33 521.484 1293.06 517.516C1297.21 513.11 1302.77 509.235 1305.56 503.84" fill="none" opacity="1" stroke="#FFFFFF" stroke-linecap="round" stroke-linejoin="round" stroke-width="7.5" vectornator:layerName="Кривая 141"/>
<path d="M1349.72 297.9C1350.55 297.9 1351.63 298.469 1352.22 297.9C1353.18 296.966 1350.87 297.096 1348.05 297.096C1346.11 297.096 1344.14 296.83 1342.22 297.096C1337.04 297.81 1328.77 299.45 1323.89 297.096" fill="none" opacity="1" stroke="#FFFFFF" stroke-linecap="round" stroke-linejoin="round" stroke-width="7.5" vectornator:layerName="Кривая 142"/>
<path d="M1349.72 270.549C1350.59 269.286 1351.94 266.258 1353.05 267.331C1353.26 267.538 1353.88 276.959 1353.88 277.789C1353.88 286.906 1353.88 296.023 1353.88 305.14C1353.88 307.553 1353.88 309.967 1353.88 312.38C1353.88 313.185 1353.88 315.598 1353.88 314.793C1353.88 313.721 1353.88 312.648 1353.88 311.576" fill="none" opacity="1" stroke="#FFFFFF" stroke-linecap="round" stroke-linejoin="round" stroke-width="7.5" vectornator:layerName="Кривая 143"/>
<path d="M1359.71 319.62C1357.46 320.706 1354.72 320.238 1352.22 320.425C1345.49 320.924 1329.89 323.322 1323.89 320.425" fill="none" opacity="1" stroke="#FFFFFF" stroke-linecap="round" stroke-linejoin="round" stroke-width="7.5" vectornator:layerName="Кривая 144"/>
<path d="M1355.55 318.816C1369.7 318.816 1356.02 334.031 1348.05 332.491C1341.03 331.137 1340.16 321.142 1337.22 316.402C1336.58 315.374 1334.77 313.945 1333.89 314.793C1330.68 317.894 1332.39 332.96 1329.72 338.123" fill="none" opacity="1" stroke="#FFFFFF" stroke-linecap="round" stroke-linejoin="round" stroke-width="7.5" vectornator:layerName="Кривая 145"/>
<path d="M1323.89 344.558C1329.49 341.855 1346.54 353.402 1353.05 355.821C1356.03 356.927 1359.04 357.85 1362.21 358.234C1363.04 358.334 1365.55 358.234 1364.71 358.234C1354.32 358.234 1344.16 358.85 1333.89 359.843C1328.44 360.369 1323.54 363.061 1318.06 363.061" fill="none" opacity="1" stroke="#FFFFFF" stroke-linecap="round" stroke-linejoin="round" stroke-width="7.5" vectornator:layerName="Кривая 146"/>
<path d="M1336.39 343.754C1340.75 345.86 1336.39 357.74 1336.39 362.256" fill="none" opacity="1" stroke="#FFFFFF" stroke-linecap="round" stroke-linejoin="round" stroke-width="7.5" vectornator:layerName="Кривая 147"/>
<path d="M1358.05 376.736C1365.23 376.736 1350.87 379.861 1349.72 379.954C1347.78 380.11 1345.82 379.81 1343.88 379.954C1335.06 380.61 1326.1 381.563 1317.22 381.563" fill="none" opacity="1" stroke="#FFFFFF" stroke-linecap="round" stroke-linejoin="round" stroke-width="7.5" vectornator:layerName="Кривая 148"/>
<path d="M1357.21 379.15C1358.33 378.882 1359.52 378.84 1360.55 378.345C1361.04 378.105 1359.44 378.345 1358.88 378.345C1357.77 378.345 1356.63 378.085 1355.55 378.345C1352.29 379.131 1348.78 380.431 1345.55 381.563C1338.89 383.903 1332.15 386.256 1325.56 388.803C1324.14 389.35 1317.75 391.682 1318.89 394.434C1321.35 400.379 1343.04 399.261 1348.05 399.261C1350.83 399.261 1353.67 399.843 1356.38 399.261C1358.09 398.895 1363.14 396.398 1358.88 398.457" fill="none" opacity="1" stroke="#FFFFFF" stroke-linecap="round" stroke-linejoin="round" stroke-width="7.5" vectornator:layerName="Кривая 149"/>
<path d="M1351.38 429.026C1353.05 429.026 1355.2 430.163 1356.38 429.026C1361.68 423.914 1352.39 408.335 1346.38 408.914C1337.14 409.807 1336.59 418.337 1331.39 424.199C1330.72 424.948 1327.01 429.275 1325.56 428.221C1324.77 427.651 1324.32 412.109 1324.72 411.328C1325 410.791 1325.83 410.791 1326.39 410.523" fill="none" opacity="1" stroke="#FFFFFF" stroke-linecap="round" stroke-linejoin="round" stroke-width="7.5" vectornator:layerName="Кривая 150"/>
<path d="M1363.05 441.093C1358.69 438.991 1353.45 440.777 1348.88 441.093C1340.32 441.683 1331.65 441.897 1323.06 441.897" fill="none" opacity="1" stroke="#FFFFFF" stroke-linecap="round" stroke-linejoin="round" stroke-width="7.5" vectornator:layerName="Кривая 151"/>
<path d="M1353.88 437.07C1359.97 439.029 1362.5 456.994 1357.21 460.399C1355.66 461.399 1353.14 461.204 1351.38 461.204" fill="none" opacity="1" stroke="#FFFFFF" stroke-linecap="round" stroke-linejoin="round" stroke-width="7.5" vectornator:layerName="Кривая 152"/>
<path d="M1338.89 436.266C1344.06 441.266 1343.05 453.662 1343.05 460.399" fill="none" opacity="1" stroke="#FFFFFF" stroke-linecap="round" stroke-linejoin="round" stroke-width="7.5" vectornator:layerName="Кривая 153"/>
<path d="M1342.22 469.248C1341.77 468.927 1344.28 469.628 1343.88 469.248C1340.27 465.758 1331.64 465.209 1328.06 469.248C1322.81 475.162 1323.42 484.494 1329.72 489.36C1332.77 491.718 1336.88 491.773 1340.55 491.773C1349.86 491.773 1359.71 489.88 1359.71 478.902C1359.71 477.829 1360.21 476.643 1359.71 475.684C1357.23 470.889 1350.09 467.354 1344.72 466.835C1343.34 466.702 1340.32 465.513 1340.55 466.835C1340.94 469.079 1343.71 470.328 1342.22 469.248Z" fill="none" opacity="1" stroke="#FFFFFF" stroke-linecap="round" stroke-linejoin="round" stroke-width="7.5" vectornator:layerName="Кривая 154"/>
<path d="M1356.38 499.013C1344.96 497.437 1330.1 500.744 1319.72 497.404" fill="none" opacity="1" stroke="#FFFFFF" stroke-linecap="round" stroke-linejoin="round" stroke-width="7.5" vectornator:layerName="Кривая 155"/>
<path d="M1359.71 503.035C1365.22 511.015 1354 517.378 1346.38 515.907C1339.19 514.516 1339.62 487.849 1329.72 497.404C1328.09 498.984 1326.99 502 1325.56 503.84C1323.98 505.864 1322.22 507.876 1321.39 510.275" fill="none" opacity="1" stroke="#FFFFFF" stroke-linecap="round" stroke-linejoin="round" stroke-width="7.5" vectornator:layerName="Кривая 156"/>
<path d="M1318.89 519.124C1325.46 521.239 1332.92 519.199 1339.72 519.929C1343.35 520.318 1346.95 520.958 1350.55 521.538C1353.09 521.946 1354.92 522.259 1357.21 523.147C1357.79 523.369 1359.32 523.527 1358.88 523.951C1358.34 524.471 1351.95 524.756 1351.38 524.756C1347.2 524.756 1332.28 527.038 1330.55 531.191C1326.91 539.978 1345.87 542.37 1351.38 543.258C1353.32 543.57 1355.26 543.874 1357.21 544.062C1358.04 544.143 1360.46 544.422 1359.71 544.062C1353.97 541.29 1344.99 542.907 1338.89 542.454C1330.44 541.827 1321.05 540.2 1313.06 537.627" fill="none" opacity="1" stroke="#FFFFFF" stroke-linecap="round" stroke-linejoin="round" stroke-width="7.5" vectornator:layerName="Кривая 157"/>
<path d="M1134.77 563.369C1134.22 562.833 1133.81 561.421 1133.11 561.76C1131.61 562.48 1133.11 564.978 1133.11 566.587C1133.11 571.39 1133.35 576.277 1133.11 581.067C1132.52 592.381 1132.27 603.503 1132.27 614.854C1132.27 644.333 1131.44 673.838 1131.44 703.344" fill="none" opacity="1" stroke="#FFFFFF" stroke-linecap="round" stroke-linejoin="round" stroke-width="7.5" vectornator:layerName="Кривая 158"/>
<path d="M1188.09 585.894C1188.09 580.841 1183.16 582.235 1179.76 584.285C1174.02 587.751 1168.07 592.104 1164.76 597.961C1163.23 600.679 1160.86 606.199 1163.1 609.223C1168.8 616.934 1194.16 620.871 1202.25 615.659" fill="none" opacity="1" stroke="#FFFFFF" stroke-linecap="round" stroke-linejoin="round" stroke-width="7.5" vectornator:layerName="Кривая 159"/>
<path d="M1210.59 577.045C1209.27 575.773 1209.4 573.49 1208.09 572.218C1207.5 571.65 1208.09 573.827 1208.09 574.632C1208.09 575.704 1207.95 576.785 1208.09 577.85C1208.62 581.998 1208.92 585.646 1208.92 589.916C1208.92 598.497 1208.92 607.078 1208.92 615.659C1208.92 619.262 1208.34 620.485 1212.25 620.485" fill="none" opacity="1" stroke="#FFFFFF" stroke-linecap="round" stroke-linejoin="round" stroke-width="7.5" vectornator:layerName="Кривая 160"/>
<path d="M1239.74 597.156C1242.14 592.528 1238.1 586.422 1232.25 588.307C1225.79 590.387 1222.22 600.174 1223.08 606.005C1223.72 610.331 1228.75 614.18 1233.08 610.832C1236.42 608.253 1238.23 602.964 1240.58 599.57C1241.48 598.269 1244.22 596.653 1243.08 595.547C1241.66 594.176 1240.63 600.9 1240.58 601.179C1239.83 605.502 1239.83 610.911 1243.08 614.05" fill="none" opacity="1" stroke="#FFFFFF" stroke-linecap="round" stroke-linejoin="round" stroke-width="7.5" vectornator:layerName="Кривая 161"/>
<path d="M1278.07 588.307C1278.07 577.869 1258.07 587.904 1258.07 594.743C1258.07 604.581 1275.69 601.87 1281.4 606.005C1285.03 608.634 1276.79 610.438 1275.57 610.832C1273.71 611.432 1271.68 611.368 1269.74 611.637C1266.47 612.087 1264.01 613.245 1260.57 613.245" fill="none" opacity="1" stroke="#FFFFFF" stroke-linecap="round" stroke-linejoin="round" stroke-width="7.5" vectornator:layerName="Кривая 162"/>
<path d="M1314.73 592.33C1324.54 573.37 1296.4 588.469 1296.4 596.352C1296.4 599.78 1301.43 600.226 1303.89 601.179C1310.35 603.672 1333.08 613.239 1315.56 618.072C1314.46 618.376 1313.36 618.739 1312.23 618.877C1309.75 619.176 1307.23 618.877 1304.73 618.877C1301.67 618.877 1298.62 618.877 1295.56 618.877" fill="none" opacity="1" stroke="#FFFFFF" stroke-linecap="round" stroke-linejoin="round" stroke-width="7.5" vectornator:layerName="Кривая 163"/>
<path d="M1158.1 651.859C1157.6 649.473 1156.7 645.326 1156.43 643.01C1156.25 641.411 1156.43 638.183 1156.43 638.183C1156.43 638.183 1156.43 641.938 1156.43 643.815C1156.43 647.809 1156.16 647.945 1157.27 651.859C1159.57 660.002 1161.9 669.508 1166.43 676.797C1167.15 677.962 1170.82 682.868 1173.09 682.428C1178.32 681.419 1177.26 668.588 1177.26 664.73C1177.26 663.39 1176.02 661.308 1177.26 660.708C1178.37 660.172 1178.31 662.885 1178.93 663.926C1179.42 664.765 1180.04 665.535 1180.59 666.339C1182.98 669.797 1192.16 679.969 1196.42 672.775C1200.05 666.643 1200.96 659.514 1202.25 652.664C1202.56 651.059 1202.9 649.458 1203.09 647.837C1203.17 647.128 1203.26 641.401 1204.75 641.401C1205.31 641.401 1204.75 642.474 1204.75 643.01" fill="none" opacity="1" stroke="#FFFFFF" stroke-linecap="round" stroke-linejoin="round" stroke-width="7.5" vectornator:layerName="Кривая 164"/>
<path d="M1216.42 652.664C1214.99 655.425 1218.73 679.663 1220.58 683.233" fill="none" opacity="1" stroke="#FFFFFF" stroke-linecap="round" stroke-linejoin="round" stroke-width="7.5" vectornator:layerName="Кривая 165"/>
<path d="M1218.08 655.077C1218.08 654.104 1217.58 649.458 1218.08 648.641C1221.46 643.202 1232.89 649.337 1233.91 654.273C1235.44 661.636 1228.09 664.32 1223.08 667.948C1222.38 668.458 1219.75 669.13 1219.75 670.362C1219.75 671.455 1224.98 674.035 1225.58 674.384C1231.53 677.832 1236.49 681.113 1243.08 683.233" fill="none" opacity="1" stroke="#FFFFFF" stroke-linecap="round" stroke-linejoin="round" stroke-width="7.5" vectornator:layerName="Кривая 166"/>
<path d="M1258.07 653.468C1257.8 652.932 1257.8 651.591 1257.24 651.859C1255.66 652.623 1256.41 658.816 1256.41 659.904C1256.41 665.998 1256.9 673.732 1259.74 679.211" fill="none" opacity="1" stroke="#FFFFFF" stroke-linecap="round" stroke-linejoin="round" stroke-width="7.5" vectornator:layerName="Кривая 167"/>
<path d="M1278.07 636.575C1275.93 644.836 1275.06 655.521 1277.23 663.926C1278.51 668.868 1281.4 674.128 1281.4 679.211" fill="none" opacity="1" stroke="#FFFFFF" stroke-linecap="round" stroke-linejoin="round" stroke-width="7.5" vectornator:layerName="Кривая 168"/>
<path d="M1264.74 660.708C1262.2 655.809 1267.64 655.881 1271.4 655.881C1278.46 655.881 1285.51 656.131 1292.23 658.295" fill="none" opacity="1" stroke="#FFFFFF" stroke-linecap="round" stroke-linejoin="round" stroke-width="7.5" vectornator:layerName="Кривая 169"/>
<path d="M1298.9 663.121C1303.06 661.111 1307.83 660.584 1312.23 659.099C1315.28 658.067 1324.46 654.956 1326.39 651.859C1328.86 647.876 1320.19 647.032 1318.06 647.032C1312.15 647.032 1306.56 649.204 1303.06 654.273C1297.01 663.038 1306.74 673.864 1315.56 675.993C1321.86 677.514 1326.32 674.1 1331.39 671.166" fill="none" opacity="1" stroke="#FFFFFF" stroke-linecap="round" stroke-linejoin="round" stroke-width="7.5" vectornator:layerName="Кривая 170"/>
<path d="M1342.22 640.597C1335.63 637.415 1337.75 661.769 1338.05 664.73C1338.08 665.002 1339.04 670.297 1339.72 671.166C1340.09 671.646 1340.95 672.394 1341.39 671.97C1343.38 670.043 1341.91 665.16 1341.39 663.121C1339.66 656.44 1336.2 649.361 1338.05 642.206C1341.21 630.015 1357.21 641.514 1357.21 650.25C1357.21 655.841 1348.49 659.583 1344.72 662.317C1344.11 662.756 1341.42 665.184 1342.22 666.339C1344.83 670.122 1360.13 673.782 1364.71 675.993" fill="none" opacity="1" stroke="#FFFFFF" stroke-linecap="round" stroke-linejoin="round" stroke-width="7.5" vectornator:layerName="Кривая 171"/>
<path d="M1136.44 556.934C1139.95 553.542 1148.3 555.325 1153.1 555.325C1168.1 555.325 1183.09 555.325 1198.09 555.325C1245.2 555.325 1291.94 555.876 1338.89 558.543C1351.48 559.258 1363.86 560.552 1376.38 561.76C1381.53 562.258 1387.46 561.08 1392.21 563.369" fill="none" opacity="1" stroke="#FFFFFF" stroke-linecap="round" stroke-linejoin="round" stroke-width="7.5" vectornator:layerName="Кривая 172"/>
<path d="M1397.2 565.783C1397.2 564.415 1397.64 561.149 1396.37 561.76C1394.67 562.582 1393.99 573.13 1393.87 574.632C1392.85 587.489 1393.04 600.324 1393.04 613.245C1393.04 620.43 1392.57 627.793 1393.04 634.966C1393.51 642.227 1395.1 649.423 1395.54 656.686C1396.13 666.42 1394.87 676.033 1393.87 685.646C1393.22 691.936 1393.87 698.619 1393.87 704.953" fill="none" opacity="1" stroke="#FFFFFF" stroke-linecap="round" stroke-linejoin="round" stroke-width="7.5" vectornator:layerName="Кривая 173"/>
<path d="M1137.27 707.366C1137.27 706.562 1136.53 705.313 1137.27 704.953C1138.16 704.523 1150.96 707.276 1152.27 707.366C1154.48 707.519 1156.71 707.366 1158.93 707.366C1181.15 707.366 1203.36 707.366 1225.58 707.366C1246.69 707.366 1267.79 707.366 1288.9 707.366C1299.09 707.366 1309.57 708.067 1319.72 707.366C1347.74 705.434 1375.71 704.953 1403.87 704.953" fill="none" opacity="1" stroke="#FFFFFF" stroke-linecap="round" stroke-linejoin="round" stroke-width="7.5" vectornator:layerName="Кривая 174"/>
<path d="M1233.91 536.018C1233.91 534.409 1233.91 532.8 1233.91 531.191" fill="none" opacity="1" stroke="#FFFFFF" stroke-linecap="round" stroke-linejoin="round" stroke-width="7.5" vectornator:layerName="Кривая 195"/>
<path d="M1234.75 502.231C1233.54 499.903 1233.91 501.222 1233.91 498.209" fill="none" opacity="1" stroke="#FFFFFF" stroke-linecap="round" stroke-linejoin="round" stroke-width="7.5" vectornator:layerName="Кривая 196"/>
<path d="M1236.41 480.511C1236.13 479.974 1235.86 479.438 1235.58 478.902" fill="none" opacity="1" stroke="#FFFFFF" stroke-linecap="round" stroke-linejoin="round" stroke-width="7.5" vectornator:layerName="Кривая 197"/>
<path d="M1243.91 437.875C1243.91 437.07 1243.91 441.093 1243.91 440.288C1243.91 439.215 1243.91 438.143 1243.91 437.07C1243.91 436.266 1243.91 433.852 1243.91 434.657C1243.91 437.338 1243.91 440.02 1243.91 437.875Z" fill="none" opacity="1" stroke="#FFFFFF" stroke-linecap="round" stroke-linejoin="round" stroke-width="7.5" vectornator:layerName="Кривая 198"/>
<path d="M1244.74 407.306C1244.53 406.483 1244.79 409.719 1243.91 409.719C1243.03 409.719 1243.22 408.142 1243.08 407.306C1242.94 406.512 1242.65 404.202 1243.08 404.892C1244.3 406.857 1245.21 409.127 1244.74 407.306Z" fill="none" opacity="1" stroke="#FFFFFF" stroke-linecap="round" stroke-linejoin="round" stroke-width="7.5" vectornator:layerName="Кривая 199"/>
<path d="M1248.08 375.932C1247.81 374.891 1248.57 378.19 1248.08 379.15C1246.95 381.332 1246.81 371.25 1247.24 372.714C1248.02 375.343 1248.62 378.029 1248.08 375.932Z" fill="none" opacity="1" stroke="#FFFFFF" stroke-linecap="round" stroke-linejoin="round" stroke-width="7.5" vectornator:layerName="Кривая 200"/>
<path d="M1250.58 342.547C1250.47 342.157 1250.81 344.088 1250.58 343.754C1250.09 343.048 1249.35 340.582 1249.74 341.34C1250.41 342.632 1250.95 344.001 1250.58 342.547Z" fill="none" opacity="1" stroke="#FFFFFF" stroke-linecap="round" stroke-linejoin="round" stroke-width="7.5" vectornator:layerName="Кривая 201"/>
<path d="M1249.33 314.391C1249.21 313.717 1249.41 315.919 1248.91 316.402C1247.93 317.35 1248.64 311.065 1248.91 312.38C1249.35 314.5 1249.71 316.643 1249.33 314.391Z" fill="none" opacity="1" stroke="#FFFFFF" stroke-linecap="round" stroke-linejoin="round" stroke-width="7.5" vectornator:layerName="Кривая 202"/>
<path d="M1251.82 291.464C1251.63 290.13 1251.75 294.179 1251.41 295.487C1251.21 296.267 1251.41 293.878 1251.41 293.073C1251.41 292.001 1251.41 290.928 1251.41 289.855C1251.41 289.319 1251.35 287.713 1251.41 288.247C1251.74 291.459 1252.3 294.653 1251.82 291.464Z" fill="none" opacity="1" stroke="#FFFFFF" stroke-linecap="round" stroke-linejoin="round" stroke-width="7.5" vectornator:layerName="Кривая 203"/>
<path d="M1253.07 267.733C1252.94 267.076 1253.7 270.044 1253.07 269.744C1252.29 269.365 1252.39 268.167 1252.24 267.331C1252.1 266.537 1251.98 264.154 1252.24 264.917C1253.05 267.263 1253.49 269.723 1253.07 267.733Z" fill="none" opacity="1" stroke="#FFFFFF" stroke-linecap="round" stroke-linejoin="round" stroke-width="7.5" vectornator:layerName="Кривая 204"/>
</g>
<g id="Layer-3" vectornator:layerName="Layer 3" visibility="hidden">
<path d="M771.406 724.362C771.406 741.258 772.115 758.165 772.115 775.076C772.115 798.165 771.628 821.282 773.535 844.295C774.622 857.416 774.954 870.886 774.954 884.044C774.954 889.298 774.954 894.552 774.954 899.806C774.954 900.72 774.954 901.634 774.954 902.547C774.954 903.233 774.954 905.289 774.954 904.603C774.954 902.776 774.954 900.948 774.954 899.121" fill="none" opacity="1" stroke="#FFFFFF" stroke-linecap="round" stroke-linejoin="round" stroke-width="7.5" vectornator:layerName="Кривая 130"/>
<path d="M772.825 724.362C777.544 722.843 782.759 723.842 787.73 723.677C801.624 723.214 815.755 721.466 829.605 720.25C845.206 718.881 860.773 718.88 876.449 718.88C879.628 718.88 883.235 719.314 886.385 718.88C888.186 718.631 888.717 717.574 890.644 718.194C894.784 719.527 899.211 725.332 902.709 727.789C909.86 732.81 915.359 738.581 920.453 745.607C923.002 749.123 924.76 753.204 927.551 756.573C930.186 759.753 933.436 761.77 935.358 765.482" fill="none" opacity="1" stroke="#FFFFFF" stroke-linecap="round" stroke-linejoin="round" stroke-width="7.5" vectornator:layerName="Кривая 131"/>
<path d="M933.229 774.391C933.702 773.477 934.392 772.641 934.648 771.65C934.763 771.207 934.648 769.822 934.648 770.279C934.648 786.754 935.358 803.162 935.358 819.623C935.358 838.351 934.93 857.143 936.068 875.82C936.773 887.392 938.907 898.472 938.907 910.086" fill="none" opacity="1" stroke="#FFFFFF" stroke-linecap="round" stroke-linejoin="round" stroke-width="7.5" vectornator:layerName="Кривая 132"/>
<path d="M772.115 913.513C794.827 913.513 817.539 913.513 840.251 913.513C850.292 913.513 860.761 912.707 870.771 913.513C886.861 914.807 902.832 914.883 919.034 914.883" fill="none" opacity="1" stroke="#FFFFFF" stroke-linecap="round" stroke-linejoin="round" stroke-width="7.5" vectornator:layerName="Кривая 133"/>
<path d="M887.805 727.103C887.805 725.733 887.805 724.362 887.805 722.992C887.805 722.306 887.805 720.25 887.805 720.936C887.805 732.57 885.457 744.291 884.256 755.887C884.18 756.618 882.081 764.443 883.546 764.797C885.87 765.357 892.938 762.342 895.612 762.055C903.987 761.157 912.715 761.37 921.163 761.37C925.426 761.37 930.769 760.868 934.648 762.741" fill="none" opacity="1" stroke="#FFFFFF" stroke-linecap="round" stroke-linejoin="round" stroke-width="7.5" vectornator:layerName="Кривая 134"/>
<path d="M754.964 974.338C755.095 975.758 754.634 975.8 754.964 977.074C755.347 978.555 757.562 980.083 759.214 979.126C765.155 975.685 754.196 966.026 754.964 974.338Z" fill="none" opacity="1" stroke="#FFFFFF" stroke-linecap="round" stroke-linejoin="round" stroke-width="7.5" vectornator:layerName="Кривая 135"/>
<path d="M795.341 957.923C796.419 955.841 794.009 955.843 791.799 956.555C786.392 958.295 777.523 972.042 779.757 977.074C783.379 985.236 803.808 978.458 809.508 975.706" fill="none" opacity="1" stroke="#FFFFFF" stroke-linecap="round" stroke-linejoin="round" stroke-width="7.5" vectornator:layerName="Кривая 136"/>
<path d="M816.592 939.455C816.12 938.543 816.231 936.719 815.175 936.719C813.971 936.719 814.467 938.976 814.467 940.139C814.467 943.518 814.199 947.035 814.467 950.399C815.362 961.634 817.3 973.382 817.3 984.598" fill="none" opacity="1" stroke="#FFFFFF" stroke-linecap="round" stroke-linejoin="round" stroke-width="7.5" vectornator:layerName="Кривая 137"/>
<path d="M852.719 960.659C851.343 958.002 849.21 956.793 846.343 955.871C837.595 953.055 833.593 965.178 833.593 971.602C833.593 973.266 833.219 975.508 834.301 977.074C841.758 987.875 858.163 966.456 854.135 959.975C852.047 956.614 850.09 962.979 849.885 964.763C849.273 970.086 848.894 977.349 852.01 981.862" fill="none" opacity="1" stroke="#FFFFFF" stroke-linecap="round" stroke-linejoin="round" stroke-width="7.5" vectornator:layerName="Кривая 138"/>
<path d="M888.845 961.343C888.845 960.579 889.268 957.851 888.845 957.239C885.818 952.854 873.607 957.191 874.678 963.395C875.747 969.589 895.463 971.402 896.637 977.074C897.066 979.141 891.248 980.375 890.262 980.494C886.335 980.968 873.731 982.086 871.845 978.442" fill="none" opacity="1" stroke="#FFFFFF" stroke-linecap="round" stroke-linejoin="round" stroke-width="7.5" vectornator:layerName="Кривая 139"/>
<path d="M927.806 959.975C928.282 959.055 929.931 956.88 929.931 955.871C929.931 950.192 916.059 953.759 915.055 958.607C913.963 963.877 920.962 966.894 924.264 969.55C926.273 971.167 927.401 973.263 929.222 975.022C930.354 976.115 933.077 978.798 929.931 979.81C928.139 980.387 926.153 979.81 924.264 979.81C923.083 979.81 921.903 979.81 920.722 979.81C919.305 979.81 917.885 979.908 916.472 979.81C914.573 979.679 912.705 979.241 910.805 979.126C907.977 978.956 905.138 979.126 902.304 979.126" fill="none" opacity="1" stroke="#FFFFFF" stroke-linecap="round" stroke-linejoin="round" stroke-width="7.5" vectornator:layerName="Кривая 140"/>
<path d="M1243.91 734.718C1243.91 733.913 1243.91 731.5 1243.91 732.304C1243.91 740.85 1241.31 748.761 1240.58 757.242C1239.45 770.323 1242.24 782.941 1242.24 795.856C1242.24 800.454 1243.9 804.573 1238.08 805.51C1234.57 806.074 1230.78 805.083 1227.25 805.51C1217.58 806.676 1207.87 805.842 1198.09 806.314C1178.11 807.279 1158.13 807.119 1138.1 807.119C1122.73 807.119 1107.63 809.532 1092.28 809.532C1091.73 809.532 1093.4 809.427 1093.95 809.532C1094.81 809.698 1095.61 810.068 1096.45 810.336" fill="none" opacity="1" stroke="#FFFFFF" stroke-linecap="round" stroke-linejoin="round" stroke-width="7.5" vectornator:layerName="Кривая 141"/>
<path d="M1088.12 837.688C1103.24 837.688 1118.82 838.546 1133.94 837.688C1140.63 837.308 1147.25 835.736 1153.93 835.274C1175.97 833.755 1198.44 833.665 1220.58 833.665C1231.41 833.665 1242.24 833.665 1253.07 833.665C1254.93 833.665 1264.69 834.234 1265.57 833.665C1268.31 831.902 1270.86 818.856 1271.4 815.968C1274.42 799.935 1271.95 782.096 1269.74 766.091C1269.22 762.332 1268.37 758.61 1268.07 754.829C1267.38 746.134 1268.92 736.367 1264.74 728.282" fill="none" opacity="1" stroke="#FFFFFF" stroke-linecap="round" stroke-linejoin="round" stroke-width="7.5" vectornator:layerName="Кривая 142"/>
<path d="M1085.62 787.812C1081.03 792.242 1077.51 797.624 1073.12 802.292C1068.39 807.317 1063.1 811.969 1058.12 816.772C1056.46 818.381 1054.79 819.99 1053.13 821.599C1051.44 823.228 1046.08 827.01 1045.63 829.643C1045.12 832.557 1057.18 837.093 1059.79 838.492C1067.95 842.868 1073.66 849.225 1080.62 855.386C1086.03 860.177 1093.18 863.93 1097.28 869.866" fill="none" opacity="1" stroke="#FFFFFF" stroke-linecap="round" stroke-linejoin="round" stroke-width="7.5" vectornator:layerName="Кривая 143"/>
<path d="M1138.1 855.386C1137.85 854.645 1136.59 850.761 1136.44 851.363C1135.46 855.121 1136.44 861.154 1136.44 865.039C1136.44 871.743 1136.44 878.447 1136.44 885.15C1136.44 886.759 1136.44 888.368 1136.44 889.977C1136.44 890.883 1136.61 904.761 1138.94 898.022" fill="none" opacity="1" stroke="#FFFFFF" stroke-linecap="round" stroke-linejoin="round" stroke-width="7.5" vectornator:layerName="Кривая 144"/>
<path d="M1121.44 881.128C1112.9 877.006 1122.59 876.301 1126.44 876.301C1134.48 876.301 1142.82 879.251 1150.6 881.128" fill="none" opacity="1" stroke="#FFFFFF" stroke-linecap="round" stroke-linejoin="round" stroke-width="7.5" vectornator:layerName="Кривая 145"/>
<path d="M1155.18 875.497C1151.45 878.078 1148.72 884.939 1153.1 889.173C1156.16 892.123 1166.25 895.158 1168.93 889.977C1171.64 884.75 1171.14 878.375 1167.26 873.888C1166.4 872.893 1161.81 868.7 1159.76 870.67C1157.09 873.249 1156.09 874.867 1155.18 875.497Z" fill="none" opacity="1" stroke="#FFFFFF" stroke-linecap="round" stroke-linejoin="round" stroke-width="7.5" vectornator:layerName="Кривая 146"/>
<path d="M1185.59 856.19C1183.57 865.96 1184.76 876.766 1184.76 886.759C1184.76 889.109 1184.55 892.391 1185.59 892.391C1186.47 892.391 1186.15 890.782 1186.42 889.977" fill="none" opacity="1" stroke="#FFFFFF" stroke-linecap="round" stroke-linejoin="round" stroke-width="7.5" vectornator:layerName="Кривая 147"/>
<path d="M1183.09 857.799C1183.09 856.406 1181.5 852.579 1182.26 851.363C1185.73 845.775 1197.75 847.491 1200.59 852.972C1202.77 857.187 1201.59 864.877 1198.09 868.257C1196.81 869.49 1193.4 872.279 1191.42 872.279C1190.8 872.279 1189.61 872.056 1189.76 871.475C1191 866.665 1201.53 866.175 1203.92 869.061C1206.25 871.873 1207.25 873.523 1207.25 877.106C1207.25 879.251 1207.86 881.479 1207.25 883.542C1204.26 893.652 1188.52 891.586 1180.59 891.586" fill="none" opacity="1" stroke="#FFFFFF" stroke-linecap="round" stroke-linejoin="round" stroke-width="7.5" vectornator:layerName="Кривая 148"/>
<path d="M1216.42 867.452C1212.13 865.382 1213.08 872.214 1213.08 874.693C1213.08 879.698 1216.35 887.42 1222.25 888.368C1229.32 889.507 1233.57 881.915 1236.41 877.106C1236.75 876.526 1240.82 870.789 1238.91 869.866C1236.53 868.715 1236.41 876.932 1236.41 877.91C1236.41 886.854 1237.94 897.242 1236.41 906.066C1235.11 913.599 1217.25 908.262 1217.25 901.239" fill="none" opacity="1" stroke="#FFFFFF" stroke-linecap="round" stroke-linejoin="round" stroke-width="7.5" vectornator:layerName="Кривая 149"/>
<path d="M1258.91 857.799C1261.46 850.401 1259.59 869.871 1259.74 871.475C1260.58 880.409 1262.24 889.01 1262.24 898.022" fill="none" opacity="1" stroke="#FFFFFF" stroke-linecap="round" stroke-linejoin="round" stroke-width="7.5" vectornator:layerName="Кривая 150"/>
<path d="M1241.41 876.301C1241.41 875.475 1241.04 872.978 1242.24 872.279C1247.65 869.144 1264.57 875.414 1269.74 877.91" fill="none" opacity="1" stroke="#FFFFFF" stroke-linecap="round" stroke-linejoin="round" stroke-width="7.5" vectornator:layerName="Кривая 151"/>
<path d="M1273.9 881.933C1276.24 881.933 1277.42 880.643 1279.73 880.324C1284.7 879.639 1289.74 878.598 1294.73 877.91C1296.76 877.63 1297.86 878.46 1299.73 877.106C1300.79 876.336 1300.75 874.006 1300.56 873.084C1299.6 868.46 1290.21 867.029 1286.4 868.257C1279.95 870.334 1276.99 880.426 1280.57 885.955C1282.95 889.641 1287.29 891.4 1291.4 892.391" fill="none" opacity="1" stroke="#FFFFFF" stroke-linecap="round" stroke-linejoin="round" stroke-width="7.5" vectornator:layerName="Кривая 152"/>
<path d="M1317.22 892.391C1321.83 883.5 1327.09 873.582 1329.72 863.43C1330.75 859.467 1331.19 855.346 1332.22 851.363C1332.5 850.291 1332.69 849.194 1333.05 848.146C1333.25 847.577 1333.45 846.113 1333.89 846.537C1335.25 847.849 1336.51 853.559 1337.22 855.386C1341.56 866.562 1348.05 882.732 1343.88 894.804" fill="none" opacity="1" stroke="#FFFFFF" stroke-linecap="round" stroke-linejoin="round" stroke-width="7.5" vectornator:layerName="Кривая 153"/>
<path d="M1316.39 878.715C1316.39 878.045 1316.02 875.275 1317.22 874.693C1322.63 872.084 1336.55 874.128 1342.22 875.497" fill="none" opacity="1" stroke="#FFFFFF" stroke-linecap="round" stroke-linejoin="round" stroke-width="7.5" vectornator:layerName="Кривая 154"/>
<path d="M1358.88 868.257C1358.88 870.814 1358.55 873.753 1358.88 876.301C1359.2 878.755 1360.18 881.094 1360.55 883.542C1360.76 884.95 1362.11 891.784 1364.71 886.759C1368.48 879.48 1365.2 864.235 1376.38 864.235" fill="none" opacity="1" stroke="#FFFFFF" stroke-linecap="round" stroke-linejoin="round" stroke-width="7.5" vectornator:layerName="Кривая 155"/>
<path d="M1390.54 868.257C1389.51 872.238 1389.24 872.166 1389.71 877.106C1389.91 879.259 1390.17 881.409 1390.54 883.542C1390.83 885.214 1390.96 887.169 1392.21 888.368C1393.26 889.389 1393.66 885.776 1393.87 884.346C1394.2 882.157 1394.73 879.981 1395.54 877.91C1397.39 873.152 1400.19 858.381 1408.03 863.43" fill="none" opacity="1" stroke="#FFFFFF" stroke-linecap="round" stroke-linejoin="round" stroke-width="7.5" vectornator:layerName="Кривая 156"/>
<path d="M1443.86 876.301C1443.86 868.967 1439.69 859.142 1429.7 863.43C1423.54 866.072 1418.8 880.088 1420.53 885.955C1421.73 889.996 1427.48 892.031 1431.36 890.782C1437.27 888.879 1445.11 878.326 1443.86 872.279C1442.82 867.257 1443.03 877.831 1443.03 878.715C1443.03 884.969 1446.14 888.758 1448.86 893.999" fill="none" opacity="1" stroke="#FFFFFF" stroke-linecap="round" stroke-linejoin="round" stroke-width="7.5" vectornator:layerName="Кривая 157"/>
<path d="M1473.02 865.844C1466.01 862.458 1469.12 877.738 1471.35 880.324C1478.63 888.756 1488.65 884.733 1493.01 876.301C1494.5 873.424 1497.19 869.077 1494.68 865.844C1493.46 864.272 1489.58 863.982 1488.01 864.235C1482.98 865.045 1484.39 875.635 1484.68 878.715C1485.45 886.832 1487.8 894.788 1488.85 902.848C1489.04 904.318 1489.08 906.889 1487.18 907.675C1482.86 909.464 1472.4 906.67 1468.02 905.262" fill="none" opacity="1" stroke="#FFFFFF" stroke-linecap="round" stroke-linejoin="round" stroke-width="7.5" vectornator:layerName="Кривая 158"/>
<path d="M1536.34 840.101C1522.96 844.406 1514.67 863.904 1514.67 876.301C1514.67 880.661 1515.14 888.559 1520.51 890.782C1523.51 892.024 1530.08 890.448 1533 889.977" fill="none" opacity="1" stroke="#FFFFFF" stroke-linecap="round" stroke-linejoin="round" stroke-width="7.5" vectornator:layerName="Кривая 159"/>
<path d="M1563 839.297C1570.81 850.622 1577.88 870.464 1570.49 883.542C1566.97 889.786 1561.34 893.183 1556.33 898.022" fill="none" opacity="1" stroke="#FFFFFF" stroke-linecap="round" stroke-linejoin="round" stroke-width="7.5" vectornator:layerName="Кривая 160"/>
<path d="M832.683 792.064C832.683 790.538 832.53 784.113 833.445 783.229C835.263 781.474 841.766 782.125 844.119 782.125C851.451 782.125 859.019 781.279 866.23 780.284C869.822 779.789 873.344 778.935 876.905 778.444C877.233 778.398 880.365 777.566 880.717 778.076C881.022 778.518 879.665 781.138 879.573 781.757C879.326 783.427 879.192 785.213 879.192 786.91" fill="none" opacity="1" stroke="#FFFFFF" stroke-linecap="round" stroke-linejoin="round" stroke-width="5" vectornator:layerName="Кривая 161"/>
<path d="M832.301 795.377C834.699 794.605 838.148 794.64 840.688 794.64" fill="none" opacity="1" stroke="#FFFFFF" stroke-linecap="round" stroke-linejoin="round" stroke-width="5" vectornator:layerName="Кривая 162"/>
<path d="M873.092 792.064C873.092 790.708 867.906 792.654 868.899 791.696C869.853 790.774 873.426 791.327 874.617 791.327C874.998 791.327 876.125 791.219 875.761 791.327C873.758 791.923 873.092 793.436 873.092 792.064Z" fill="none" opacity="1" stroke="#FFFFFF" stroke-linecap="round" stroke-linejoin="round" stroke-width="5" vectornator:layerName="Кривая 163"/>
<path d="M839.926 799.058C838.022 800.896 837.185 803.516 835.732 805.684C831.162 812.504 826.785 819.373 822.39 826.297C816.318 835.863 810.196 845.257 804.472 855.01C800.297 862.125 794.776 868.401 790.748 875.624C789.643 877.606 789.417 879.667 788.461 881.513" fill="none" opacity="1" stroke="#FFFFFF" stroke-linecap="round" stroke-linejoin="round" stroke-width="5" vectornator:layerName="Кривая 164"/>
<path d="M868.518 795.377C868.391 795.131 868.337 794.446 868.136 794.64C867.586 795.172 871.248 803.005 871.567 803.843C874.164 810.647 876.304 817.55 879.573 824.089C882.832 830.606 886.498 837.172 889.104 843.966C891.618 850.522 892.858 857.467 895.966 863.844C898.465 868.972 902.102 873.721 904.353 878.936C905.273 881.071 905.504 883.377 906.259 885.562" fill="none" opacity="1" stroke="#FFFFFF" stroke-linecap="round" stroke-linejoin="round" stroke-width="5" vectornator:layerName="Кривая 165"/>
<path d="M788.476 882.375C787.298 880.1 787.831 884.467 787.986 885.214C788.383 887.131 791.242 889.152 792.886 889.945C799.343 893.063 807.422 892.311 814.447 892.311C821.059 892.311 827.59 891.782 834.048 890.891C839.971 890.074 846.256 891.708 852.179 890.891C861.889 889.552 871.629 889.472 881.581 889.472C885.849 889.472 891.121 888.665 895.301 889.472C898.075 890.008 901.774 892.212 904.122 889.945" fill="none" opacity="1" stroke="#FFFFFF" stroke-linecap="round" stroke-linejoin="round" stroke-width="5" vectornator:layerName="Кривая 166"/>
<path d="M831.285 827.436C829.078 828.502 828.913 830.623 827.685 832.401C825.706 835.268 823.108 837.994 821.001 840.842C819.141 843.356 817.815 846.425 815.859 848.786C813.097 852.12 811.797 856.332 809.174 859.709C805.71 864.17 803.064 868.53 800.433 873.611C799.268 875.86 796.387 880.859 799.405 883.044C803.329 885.886 811.599 883.73 815.859 883.044C828.989 880.931 842.936 882.856 855.966 881.058C865.41 879.756 876.727 880.798 885.789 882.548C886.708 882.725 894.888 882.657 895.045 882.051C895.125 881.741 892.165 874.602 891.96 873.611C891.482 871.306 891.402 868.932 890.931 866.66C889.871 861.54 884.725 857.139 882.704 852.261C880.88 847.858 879.504 843.802 877.048 839.849C874.962 836.492 874.269 830.315 870.363 828.429" fill="#68c40c" fill-rule="nonzero" opacity="1" stroke="#FFFFFF" stroke-linecap="round" stroke-linejoin="round" stroke-width="5" vectornator:layerName="Кривая 167"/>
</g>
</svg>
