<?xml version="1.0" ?>
<!DOCTYPE svg  PUBLIC '-//W3C//DTD SVG 1.1//EN'  'http://www.w3.org/Graphics/SVG/1.1/DTD/svg11.dtd'>
<svg xmlns="http://www.w3.org/2000/svg" viewBox="0 0 167.604 184.253" 
    height="196.536" width="178.777">
  <g fill-rule="evenodd">
    <path d="M7.087 47.834v17.717l61.373 35.434v17.717L7.087 83.268v53.148L83.8 180.71V92.125L7.087 47.835zm15.343 62.008l46.03 26.574v17.717L22.43 127.56v-17.717z" fill="#008be0"/>
    <path d="M7.087 47.835l76.715 44.291 46.029-26.575-61.372-35.433 15.343-8.858 61.372 35.433 15.343-8.858L83.802 3.543 37.773 30.118l61.372 35.433-15.343 8.858L22.43 38.976z" fill="#009eff"/>
    <path d="M83.802 180.709l15.343-8.859v-70.866l15.343-8.858v70.866l15.343-8.858V65.55L83.802 92.126zM145.174 145.276l15.343-8.859V47.835l-15.343 8.858z" fill="#0077c0"/>
    <path d="M129.831 136.417l15.343 8.859V56.693L83.802 21.26 68.46 30.118l61.372 35.433z" fill="#e05400"/>
    <path d="M37.773 30.118v17.717l46.03 26.574 15.342-8.858z" fill="#e05400"/>
    <path d="M7.087 83.268l15.343-8.859 46.03 26.575v17.717z" fill="#ff6000"/>
    <path d="M99.145 154.134l15.343 8.858V92.126l-15.343 8.858z" fill="#e05400"/>
    <path d="M22.43 127.56l15.343-8.86-15.343-8.857z" fill="#c04800"/>
    <path d="M68.46 154.134v-17.717l-30.687-17.716-15.343 8.858z" fill="#ff6000"/>
  </g>
</svg>
