
<svg width="1383px" height="2157px" viewBox="0 0 1383 2157" version="1.1" xmlns="http://www.w3.org/2000/svg" xmlns:xlink="http://www.w3.org/1999/xlink">
    <!-- Generator: Sketch 43.2 (39069) - http://www.bohemiancoding.com/sketch -->
    <desc>Created with Sketch.</desc>
    <defs></defs>
    <g id="Page-1" stroke="none" stroke-width="1" fill="none" fill-rule="evenodd">
        <g id="Artboard" transform="translate(-600.000000, -208.000000)">
            <polygon id="Path-8" stroke="#979797" fill="#FFFFFF" points="753.876332 763.111995 689.063358 1221.07746 818.140532 1997.07129 1300.28089 2277.81198 1794.20543 2007.78681 1903.00689 1726.84394 1945.49347 1039.72244 1895.03524 697.432537 1474.73292 509.521127"></polygon>
            <path d="M1316.27494,2364.39067 C1316.25682,2364.39067 1316.2387,2364.39067 1316.22058,2364.39067 C1309.95342,2364.58585 1303.54714,2364.68707 1297,2364.68707 C1297,2364.48845 1297,2364.29029 1297,2364.09257 C1128.73855,2358.83707 1060.82597,2285.85303 1060.82597,2285.85303 C1060.82597,2285.85303 1070.60496,2342.54445 1060.82597,2334.87646 C1031.13847,2311.59766 1015.43188,2233.18315 1006.46533,2226.97852 C991.790892,2216.82415 997.587153,2269.75614 984.883301,2258.74121 C927.049863,2208.59646 890.192075,2135.45546 864.086196,2095.98486 C806.183761,2008.43969 715.631348,1856.71675 700.276367,1649.80566 C673.589829,1457.30744 691.957951,1381.66602 675.394173,1247.29604 C658.830396,1112.92607 655.204488,1101.43359 622.140625,895.769531 C630.68431,867.082101 622.140625,778.417969 636.554688,719.933594 C691.638632,685.711373 819.15625,766.714844 819.15625,766.714844 L707.312931,1265.44977 C707.312931,1265.44977 721.321289,1578.35378 770.442383,1772.97 C819.563477,1967.58621 864.086196,1987.60214 864.086196,1987.60214 C864.086196,1987.60214 881.641877,1931.25973 900.65625,1942.33984 C919.670623,1953.41995 998.440833,2029.57585 1060.82597,2075.14731 C1122.67171,2120.32474 1214.49334,2153.12432 1313.6781,2153.68813 C1407.43682,2150.2769 1493.54084,2118.47526 1552.44897,2075.44371 C1614.83411,2029.87225 1701.22391,1952.93167 1720.23828,1941.85156 C1739.25265,1930.77145 1749.18874,1987.89854 1749.18874,1987.89854 C1749.18874,1987.89854 1793.71146,1967.88261 1842.83256,1773.2664 C1891.95365,1578.65018 1905.96201,1265.74617 1905.96201,1265.74617 L1800.54688,672.9375 C1800.54688,672.9375 1783.13672,521.953125 1773.9375,436.296875 C1764.73828,350.640625 1941.17338,550.71338 1972.01562,746.484375 C2002.85787,942.25537 1954.44454,1113.22247 1937.88077,1247.59244 C1921.31699,1381.96242 1939.68511,1457.60384 1912.99857,1650.10206 C1897.64359,1857.01315 1807.09118,2008.73609 1749.18874,2096.28126 C1723.08286,2135.75186 1686.22508,2208.89286 1628.39164,2259.03761 C1615.68779,2270.05254 1621.48405,2217.12055 1606.80961,2227.27492 C1597.84306,2233.47955 1582.13647,2311.89406 1552.44897,2335.17286 C1542.66998,2342.84085 1552.44897,2286.14943 1552.44897,2286.14943 C1552.44897,2286.14943 1484.53639,2359.13347 1316.27494,2364.38897 Z" id="Combined-Shape" fill="#2E2B2C"></path>
            <path d="M1853.35156,542.851562 C1845.44531,642.921875 1832.25585,726.842554 1686.31819,802.380666 C1671.28838,810.160175 1596.79953,842.747899 1557.22745,850.64857 C1520.1967,858.041858 1450.15518,871.629126 1423.86781,874.763999 C1405.24444,876.984909 1541.21364,813.559894 1525.96875,815.109375 C1505.97756,817.141266 1330.97338,872.906601 1309.93603,874.763999 C1296.13527,875.982474 1393.44368,826.967237 1379.29688,828.112972 C1362.00814,829.51317 1244.49172,873.469344 1226.82311,874.763999 C1208.92076,876.075781 1314.81551,828.112972 1280,828.112972 C1245.18449,828.112972 1187.40625,850.64857 1099.85938,874.763999 C1064.57813,874.763999 1203.21606,826.828214 1178.78125,828.112972 C1158.03796,829.203634 948.366504,883.889786 928.087063,884.858739 C906.550327,885.887765 1087.03161,814.211317 1066.29688,815.109375 C1043.57156,816.093649 851.966949,884.023614 830.5666,884.858739 C807.268688,885.767913 1001.96262,801.637687 980.703125,802.380666 C956.289203,803.233886 781.460938,868.451852 726.65625,884.858739 C671.851563,901.265625 654.43261,910.375 600.398438,916.351562 C600.398438,899.194489 641.929688,854.094386 613.546875,869.476562 C585.164062,884.858739 613.546875,846.074654 613.546875,828.112972 C613.546875,818.411508 654.273438,778.320312 610.719147,805.796282 C592.724318,817.148214 600.897851,784.95632 613.546875,761.390625 C630.945313,728.976562 642.867932,709.907818 613.546875,715.796875 C617.062379,702.443664 638.556718,678.053226 643.015625,664.101562 C647.727763,649.357552 632.140625,664.101562 613.546875,664.101562 C620.147255,645.255489 667.340499,604.650656 680.03125,583.125 C651.023438,595.203125 640.054688,612 613.546875,612 C657.630784,541.608155 785.322334,422.24416 844.102941,378.919028 C972.017554,276.67097 1182.71127,170.394342 1460.88311,221.801703 C1553.74181,238.962392 1637.09267,276.239966 1699.51833,316.752742 C1708.0095,322.263314 1718.95248,288.334075 1726.64062,293.921875 C1739.20561,303.054201 1727.31576,332.674553 1736.92969,350.117187 C1741.76208,358.884632 1783.15466,344.127116 1791.51563,350.117187 C1804.91839,359.719375 1786.06224,388.390324 1791.51563,395.125 C1796.3742,401.125114 1826.22987,401.49264 1830.59375,407.640625 C1840.26383,421.264167 1826.76436,439.269425 1830.59375,453.695312 C1839.617,487.687246 1855.29632,518.2366 1853.35156,542.851562 Z" id="Combined-Shape" fill="#2E2B2C"></path>
            <path d="M1305.03512,1968.76114 C1365.78581,1968.64821 1426.07027,1951 1426.07027,1951 C1426.07027,1951 1386.84563,2063.28738 1376.6403,2063.28738 C1366.43497,2063.28738 1340.20217,2032.7081 1340.20217,2032.7081 C1340.20217,2032.7081 1322.14551,2077.88432 1305.62016,2079.97249 C1305.62016,2079.99738 1305.62016,2080.02227 1305.62016,2080.04718 C1305.42542,2080.04718 1305.2304,2080.04084 1305.03514,2080.02831 C1304.83987,2080.04084 1304.64485,2080.04718 1304.45011,2080.04718 C1304.45011,2080.02227 1304.45011,2079.99738 1304.45011,2079.97249 C1287.92476,2077.88432 1269.8681,2032.7081 1269.8681,2032.7081 C1269.8681,2032.7081 1243.6353,2063.28738 1233.42997,2063.28738 C1223.22464,2063.28738 1184,1951 1184,1951 C1184,1951 1244.28445,1968.6482 1305.03514,1968.76114 Z" id="Combined-Shape" stroke="#FFFFFF" fill="#2E2B2C"></path>
            <path d="M1285.71592,1706.78797 C1285.71592,1706.78797 1128.72067,1730.2409 1041.99644,1775.90716 C955.272211,1821.57343 928.564453,1888.44678 928.564453,1888.44678 C928.564453,1888.44678 1107.14019,1827.61914 1263,1788.95947 C1275.2622,1716.8564 1285.71592,1706.78797 1285.71592,1706.78797 Z" id="Path-4" stroke="#FFFFFF" fill="#2E2B2C"></path>
            <path d="M1681.15147,1707 C1681.15147,1707 1524.15622,1730.45293 1437.43199,1776.11919 C1350.70776,1821.78546 1324,1888.65881 1324,1888.65881 C1324,1888.65881 1502.57573,1827.83117 1658.43555,1789.1715 C1670.69775,1717.06843 1681.15147,1707 1681.15147,1707 Z" id="Path-4" fill="#2E2B2C" transform="translate(1502.575735, 1797.829403) scale(-1, 1) translate(-1502.575735, -1797.829403) "></path>
            <path d="M1174.09483,1169.54139 C1174.09483,1169.54139 932.074763,1131.1535 891.26031,1137.32225 C850.445857,1143.49099 753.399513,1220.21888 753.399513,1220.21888 C753.399513,1220.21888 896.976115,1194.90514 984.938575,1184.30907 C1033.87286,1178.41438 1118.59289,1209.53467 1156.0167,1207.22859 C1185.86454,1205.38935 1174.09483,1169.54139 1174.09483,1169.54139 Z" id="Path-7" stroke="#FFFFFF" fill="#2E2B2C" transform="translate(964.891238, 1178.435009) rotate(4.000000) translate(-964.891238, -1178.435009) "></path>
            <path d="M1852.09483,1169.54139 C1852.09483,1169.54139 1610.07476,1131.1535 1569.26031,1137.32225 C1528.44586,1143.49099 1431.39951,1220.21888 1431.39951,1220.21888 C1431.39951,1220.21888 1574.97611,1194.90514 1662.93858,1184.30907 C1711.87286,1178.41438 1796.59289,1209.53467 1834.0167,1207.22859 C1863.86454,1205.38935 1852.09483,1169.54139 1852.09483,1169.54139 Z" id="Path-7" stroke="#FFFFFF" fill="#2E2B2C" transform="translate(1642.891238, 1178.435009) scale(-1, 1) rotate(4.000000) translate(-1642.891238, -1178.435009) "></path>
            <path d="M1816.68588,1469.15789 C1827.68232,1463.93838 1829.53175,1457.29961 1837.4059,1447.21572 C1857.31292,1421.72209 1870.84926,1230.11153 1870.84926,1230.11153 L1912.42188,1230.11153 L1912.42188,1176.70669 C1912.42188,1176.70669 1793.95783,1169.3408 1648.04958,1176.70669 C1502.14133,1184.07259 1363.77552,1202.71215 1363.77552,1202.71215 C1363.77552,1202.71215 1339.28572,1209.44011 1306.52601,1209.24244 C1306.52598,1209.2328 1306.52598,1209.22316 1306.52598,1209.21351 C1306.1037,1209.22065 1305.68269,1209.2266 1305.26299,1209.23141 C1304.84329,1209.2266 1304.42228,1209.22065 1304,1209.21351 C1304,1209.22316 1304,1209.2328 1304,1209.24244 C1271.24026,1209.44011 1246.75045,1202.71215 1246.75045,1202.71215 C1246.75045,1202.71215 1108.38465,1184.07259 962.4764,1176.70669 C816.56815,1169.3408 692.046875,1176.70669 692.046875,1176.70669 L692.046875,1230.11153 L739.676718,1230.11153 C739.676718,1230.11153 753.213059,1421.72209 773.120084,1447.21572 C781.020921,1457.3338 782.856128,1463.98336 793.952259,1469.21093 C783.506288,1418.76219 769.351924,1327.6906 769.351924,1291.38512 C769.351924,1242.82859 770.573026,1243.85148 773.764743,1228.75772 C809.785396,1217.04304 877.765929,1215.20277 979.913858,1219.41117 C1103.02845,1219.41117 1205.49894,1233.71175 1212.53636,1246.83469 C1216.41273,1254.0631 1205.10782,1336.09008 1183.03255,1396.33986 C1173.42713,1422.55584 1165.16629,1451.11513 1158.05102,1474.00662 C1169.16079,1468.10779 1171.69618,1463.14787 1171.69618,1463.14787 L1250.96491,1242.21039 C1250.96491,1242.21039 1258.55499,1236.55125 1305.26299,1236.4509 C1351.97099,1236.55125 1359.56107,1242.21039 1359.56107,1242.21039 L1438.8298,1463.14787 C1438.8298,1463.14787 1441.22747,1467.83837 1451.57649,1473.52149 C1444.61178,1451.004 1436.56521,1423.39417 1427.25559,1397.98554 C1405.18032,1337.73576 1393.87542,1255.70878 1397.75178,1248.48038 C1404.7892,1235.35743 1507.25969,1221.05685 1630.37429,1221.05685 C1732.52222,1216.84846 1800.50275,1218.68873 1836.5234,1230.40341 C1839.71512,1245.49717 1840.93622,1244.47428 1840.93622,1293.03081 C1840.93622,1328.93238 1827.09505,1418.38826 1816.68588,1469.15789 Z" id="Combined-Shape" fill="#2E2B2C"></path>
        </g>
    </g>
</svg>