<?xml version="1.0" encoding="UTF-8" standalone="no"?>
<!DOCTYPE svg PUBLIC "-//W3C//DTD SVG 1.1//EN" "http://www.w3.org/Graphics/SVG/1.1/DTD/svg11.dtd">
<!-- Created with Vectornator (http://vectornator.io/) -->
<svg height="100%" stroke-miterlimit="10" style="fill-rule:nonzero;clip-rule:evenodd;stroke-linecap:round;stroke-linejoin:round;" version="1.1" viewBox="0 0 1920 1080" width="100%" xml:space="preserve" xmlns="http://www.w3.org/2000/svg" xmlns:vectornator="http://vectornator.io" xmlns:xlink="http://www.w3.org/1999/xlink">
<defs/>
<g id="Слой-1" vectornator:layerName="Слой 1">
<path d="M366.727 383.633C366.727 382.562 366.727 381.491 366.727 380.42C366.727 379.617 366.727 377.207 366.727 378.01C366.727 384.705 364.976 390.709 364.318 397.286C363.967 400.793 364.64 403.548 363.515 406.924" fill="none" opacity="1" stroke="#FFFFFF" stroke-linecap="round" stroke-linejoin="round" stroke-width="5" vectornator:layerName="Кривая 1"/>
<path d="M363.916 359.136C363.789 358.732 363.381 357.53 363.515 357.931C363.971 359.299 364.403 360.679 363.916 359.136Z" fill="none" opacity="1" stroke="#FFFFFF" stroke-linecap="round" stroke-linejoin="round" stroke-width="5" vectornator:layerName="Кривая 2"/>
<path d="M401.264 369.979C403.922 364.661 405.279 358.2 405.279 352.309C405.279 350.572 405.181 346.6 402.067 347.49C396.969 348.947 395.263 357.695 394.838 361.947C393.931 371.021 391.467 392.953 395.641 401.302" fill="none" opacity="1" stroke="#FFFFFF" stroke-linecap="round" stroke-linejoin="round" stroke-width="5" vectornator:layerName="Кривая 3"/>
<path d="M381.988 387.648C381.988 381.571 399.355 382.026 404.476 382.026" fill="none" opacity="1" stroke="#FFFFFF" stroke-linecap="round" stroke-linejoin="round" stroke-width="5" vectornator:layerName="Кривая 4"/>
<path d="M500.053 340.262C486.81 340.262 482.721 360.671 480.777 370.782C478.628 381.954 477.073 395.327 483.989 405.318C487.941 411.026 495.299 413.661 500.856 417.366" fill="none" opacity="1" stroke="#FFFFFF" stroke-linecap="round" stroke-linejoin="round" stroke-width="5" vectornator:layerName="Кривая 5"/>
<path d="M549.849 368.372C548.141 364.956 542.221 374.335 541.014 376.404C537.167 383 533.996 390.44 530.573 397.286C528.752 400.929 528.753 405.979 524.148 402.909" fill="none" opacity="1" stroke="#FFFFFF" stroke-linecap="round" stroke-linejoin="round" stroke-width="5" vectornator:layerName="Кривая 6"/>
<path d="M523.345 373.995C520.965 369.235 528.956 384.193 529.77 385.239C533.721 390.319 538.551 394.716 543.424 398.893" fill="none" opacity="1" stroke="#FFFFFF" stroke-linecap="round" stroke-linejoin="round" stroke-width="5" vectornator:layerName="Кривая 7"/>
<path d="M588.401 366.766C586.646 363.257 593.532 365.264 595.629 365.963C600.773 367.677 606.122 368.861 610.889 371.585C612.665 372.6 617.594 374.869 615.708 378.01C614.524 379.985 612.003 380.749 610.086 382.026C603.855 386.18 596.866 389.748 590.81 394.074C589.525 394.992 585.638 398.09 589.204 398.09" fill="none" opacity="1" stroke="#FFFFFF" stroke-linecap="round" stroke-linejoin="round" stroke-width="5" vectornator:layerName="Кривая 8"/>
<path d="M641.008 366.365C636.483 370.471 636.591 377.988 636.591 383.633C636.591 387.381 635.682 391.241 636.591 394.877C639.597 406.903 654.528 404.474 662.292 399.696C666.015 397.405 671.359 392.372 673.536 388.452C679.021 378.578 675.154 364.522 664.701 360.341C659.887 358.415 646.545 358.046 643.016 362.75C642.197 363.842 642.301 365.192 641.008 366.365Z" fill="none" opacity="1" stroke="#FFFFFF" stroke-linecap="round" stroke-linejoin="round" stroke-width="5" vectornator:layerName="Кривая 9"/>
<path d="M700.844 335.443C698.409 328.139 707.315 335.879 708.876 337.049C715.162 341.764 720.964 347.763 724.939 354.719C734.459 371.38 732.964 396.488 716.104 407.728" fill="none" opacity="1" stroke="#FFFFFF" stroke-linecap="round" stroke-linejoin="round" stroke-width="5" vectornator:layerName="Кривая 10"/>
<path d="M808.468 303.316C808.736 301.71 808.756 300.042 809.271 298.497C809.525 297.735 809.371 300.11 809.271 300.907C809.102 302.261 808.692 303.576 808.468 304.922C807.838 308.704 807.046 312.463 806.058 316.167C803.783 324.698 801.908 333.337 799.633 341.868C798.518 346.048 797.79 350.611 796.42 354.719C796.231 355.287 795.194 355.902 795.617 356.325C796.041 356.748 796.745 355.881 797.224 355.522C799.198 354.041 807.512 344.621 809.271 349.9C810.463 353.477 809.014 359.199 808.468 362.75C806.289 376.914 800.142 398.844 819.712 402.105C826.121 403.174 824.499 402.909 830.957 402.909" fill="none" opacity="1" stroke="#FFFFFF" stroke-linecap="round" stroke-linejoin="round" stroke-width="5" vectornator:layerName="Кривая 11"/>
<path d="M549.849 460.736C545.588 460.736 544.937 465.742 543.424 468.768C538.776 478.064 534.942 487.877 531.376 497.682C530.594 499.832 527.944 502.061 528.967 504.107C529.502 505.178 531.108 503.036 532.179 502.501" fill="none" opacity="1" stroke="#FFFFFF" stroke-linecap="round" stroke-linejoin="round" stroke-width="5" vectornator:layerName="Кривая 12"/>
<path d="M567.519 455.917C563.361 460.075 562.047 468.023 560.29 473.587C557.332 482.954 554.343 492.311 551.455 501.698C550.397 505.139 548.243 507.871 548.243 511.336" fill="none" opacity="1" stroke="#FFFFFF" stroke-linecap="round" stroke-linejoin="round" stroke-width="5" vectornator:layerName="Кривая 13"/>
<path d="M606.07 453.508C601.782 453.508 603.661 463.262 603.661 466.359C603.661 475.47 603.709 484.603 604.464 493.666C604.548 494.677 604.839 502.554 606.874 498.485" fill="none" opacity="1" stroke="#FFFFFF" stroke-linecap="round" stroke-linejoin="round" stroke-width="5" vectornator:layerName="Кривая 14"/>
<path d="M605.267 476.8C608.988 473.079 612.289 477.468 616.512 478.406C622.422 479.719 627.282 480.012 633.378 480.012" fill="none" opacity="1" stroke="#FFFFFF" stroke-linecap="round" stroke-linejoin="round" stroke-width="5" vectornator:layerName="Кривая 15"/>
<path d="M632.575 452.705C625.789 449.312 626.15 457.601 626.15 462.343C626.15 472.586 628.51 482.227 630.969 492.06C631.594 494.562 631.449 497.037 632.575 499.288" fill="none" opacity="1" stroke="#FFFFFF" stroke-linecap="round" stroke-linejoin="round" stroke-width="5" vectornator:layerName="Кривая 16"/>
<path d="M647.032 484.028C651.522 481.783 660.265 480.241 663.095 475.997C666.422 471.006 655.635 468.577 652.654 469.571C650.823 470.182 649.318 471.548 647.835 472.784C642.218 477.465 641.379 492.575 647.835 496.879C654.853 501.557 663.097 498.686 670.324 496.879" fill="none" opacity="1" stroke="#FFFFFF" stroke-linecap="round" stroke-linejoin="round" stroke-width="5" vectornator:layerName="Кривая 17"/>
<path d="M687.993 454.311C686.857 452.797 685.553 449.245 683.977 450.295C681.858 451.708 683.174 461.072 683.174 463.146C683.174 472.434 682.463 482.005 683.174 491.257C683.204 491.637 684.996 501.698 685.584 501.698C686.72 501.698 687.19 500.091 687.993 499.288" fill="none" opacity="1" stroke="#FFFFFF" stroke-linecap="round" stroke-linejoin="round" stroke-width="5" vectornator:layerName="Кривая 18"/>
<path d="M704.057 448.689C703.789 448.154 703.834 446.937 703.253 447.083C702.151 447.358 701.291 448.448 700.844 449.492C699.789 451.953 700.844 454.847 700.844 457.524C700.844 459.398 700.844 461.272 700.844 463.146C700.844 469.694 701.213 475.918 701.647 482.422C701.94 486.812 701.238 492.849 703.253 496.879" fill="none" opacity="1" stroke="#FFFFFF" stroke-linecap="round" stroke-linejoin="round" stroke-width="5" vectornator:layerName="Кривая 19"/>
<path d="M721.325 471.579C719.242 471.579 724.464 468.805 725.742 467.162C726.11 466.689 724.495 467.486 724.136 467.965C723.058 469.402 722.22 471.057 721.726 472.784C721.064 475.101 721.726 477.603 721.726 480.012C721.726 487.999 725.603 498.437 736.183 494.469C747.084 490.382 752.755 465.08 738.593 461.54C732.597 460.041 727.897 463.164 723.332 466.359C722.054 467.254 720.421 467.664 719.317 468.768C718.213 469.872 715.346 472.784 716.907 472.784C720.388 472.784 723.815 471.579 721.325 471.579Z" fill="none" opacity="1" stroke="#FFFFFF" stroke-linecap="round" stroke-linejoin="round" stroke-width="5" vectornator:layerName="Кривая 20"/>
<path d="M802.043 473.587C805.596 466.48 810.737 460.355 813.287 452.705C813.479 452.128 815.753 440.887 812.484 443.067C810.204 444.587 811.681 454.484 811.681 456.721C811.681 468.657 817.303 480.392 817.303 492.06" fill="none" opacity="1" stroke="#FFFFFF" stroke-linecap="round" stroke-linejoin="round" stroke-width="5" vectornator:layerName="Кривая 21"/>
<path d="M798.027 492.06C810.548 492.06 823.583 491.421 835.776 494.469" fill="none" opacity="1" stroke="#FFFFFF" stroke-linecap="round" stroke-linejoin="round" stroke-width="5" vectornator:layerName="Кривая 22"/>
<path d="M357.893 538.643C354.89 532.639 370.318 531.887 373.153 535.431C376.974 540.207 373.842 549.201 374.759 554.707C374.956 555.888 375.168 557.919 376.365 557.919C376.964 557.919 376.901 555.778 377.169 556.313C377.273 556.521 377.09 561.31 377.169 561.935C378.133 569.652 381.448 586.675 373.153 591.652C369.2 594.024 363.644 591.652 359.499 591.652" fill="none" opacity="1" stroke="#FFFFFF" stroke-linecap="round" stroke-linejoin="round" stroke-width="5" vectornator:layerName="Кривая 23"/>
<path d="M415.72 573.179C420.256 572.045 424.389 569.648 428.571 567.557C448.212 557.737 422.679 549.248 414.114 559.526C405.428 569.949 414.125 582.017 425.358 585.227C439.552 589.282 451.962 581.563 463.91 575.589" fill="none" opacity="1" stroke="#e94420" stroke-linecap="round" stroke-linejoin="round" stroke-width="5" vectornator:layerName="Кривая 24"/>
<path d="M470.336 533.021C469.136 532.222 466.855 530.076 466.32 531.415C465.425 533.652 466.32 536.234 466.32 538.643C466.32 550.431 468.047 561.038 471.139 572.376C472.252 576.458 471.644 579.773 475.958 581.211" fill="none" opacity="1" stroke="#e94420" stroke-linecap="round" stroke-linejoin="round" stroke-width="5" vectornator:layerName="Кривая 25"/>
<path d="M508.888 550.691C508.888 539.151 480.753 551.446 484.793 559.526C486.865 563.671 504.774 569.918 509.691 572.376C510.763 572.912 517.39 576.033 515.313 578.802C512.356 582.745 491.218 585.492 491.218 577.998" fill="none" opacity="1" stroke="#e94420" stroke-linecap="round" stroke-linejoin="round" stroke-width="5" vectornator:layerName="Кривая 26"/>
<path d="M526.557 565.148C531.511 563.496 535.955 562.658 541.014 561.935C544.48 561.44 548.053 560.376 551.455 559.526C552.482 559.269 560.824 556.577 559.487 553.904C557.966 550.862 550.176 550.691 547.439 550.691C538.854 550.691 529.77 552.556 529.77 562.738C529.77 565.375 531.118 568.102 532.982 569.967C534.195 571.179 535.572 572.229 536.998 573.179C538.794 574.377 540.643 575.527 542.62 576.392C547.742 578.633 553.184 580.211 558.684 581.211C562.931 581.983 567.301 581.971 571.534 582.817" fill="none" opacity="1" stroke="#e94420" stroke-linecap="round" stroke-linejoin="round" stroke-width="5" vectornator:layerName="Кривая 27"/>
<path d="M636.591 529.005C637.084 528.018 636.29 525.793 637.394 525.793C639 525.793 637.855 529.073 637.394 530.612C635.626 536.506 633.467 542.659 630.969 548.281C629.996 550.47 628.827 552.565 627.756 554.707C627.488 555.242 626.354 556.313 626.953 556.313C628.502 556.313 629.333 553.551 633.378 554.707C640.151 556.642 634.775 576.566 636.591 582.014C637.715 585.388 645.474 585.883 647.835 586.03C656.065 586.544 664.481 586.03 672.733 586.03" fill="none" opacity="1" stroke="#e94420" stroke-linecap="round" stroke-linejoin="round" stroke-width="5" vectornator:layerName="Кривая 28"/>
<path d="M530.573 639.039C530.573 637.935 531.87 634.839 531.376 635.826C526.257 646.065 522.078 656.833 516.919 667.15C515.431 670.126 512.903 672.529 512.903 675.985" fill="none" opacity="1" stroke="#e94420" stroke-linecap="round" stroke-linejoin="round" stroke-width="5" vectornator:layerName="Кривая 29"/>
<path d="M551.455 626.991C548.422 633.057 547.636 639.775 545.833 646.267C542.252 659.161 537.946 671.608 532.982 684.016" fill="none" opacity="1" stroke="#e94420" stroke-linecap="round" stroke-linejoin="round" stroke-width="5" vectornator:layerName="Кривая 30"/>
<path d="M628.559 638.236C629.105 636.599 631.162 632.669 630.165 631.007C625.933 623.953 613.909 631.2 610.086 635.023C601.685 643.424 595.585 654.213 594.826 666.347C593.944 680.46 607.174 683.213 618.118 683.213C626.245 683.213 633.49 682.99 637.394 675.181" fill="none" opacity="1" stroke="#e94420" stroke-linecap="round" stroke-linejoin="round" stroke-width="5" vectornator:layerName="Кривая 31"/>
<path d="M615.708 663.134C615.708 658.875 639.394 656.027 642.213 660.724C646.156 667.296 635.788 680.242 635.788 688.032" fill="none" opacity="1" stroke="#e94420" stroke-linecap="round" stroke-linejoin="round" stroke-width="5" vectornator:layerName="Кривая 32"/>
<path d="M664.3 661.528C662.011 662.291 664.978 656.458 663.898 654.299C663.467 653.436 662.171 655.223 661.489 655.905C659.781 657.613 659.882 660.941 659.882 663.134C659.882 669.451 665.099 675.408 670.324 678.394C672.378 679.568 675.81 681.273 678.355 680C685.429 676.463 692.012 661.852 686.387 655.102C681.886 649.701 672.103 653.043 667.914 656.709C665.899 658.472 664.292 660.739 663.095 663.134C662.601 664.121 661.882 667.371 662.292 666.347C663.77 662.651 666.918 660.655 664.3 661.528Z" fill="none" opacity="1" stroke="#e94420" stroke-linecap="round" stroke-linejoin="round" stroke-width="5" vectornator:layerName="Кривая 33"/>
<path d="M700.041 661.126C699.391 662.209 698.081 658.961 696.828 659.118C696.031 659.218 696.828 660.724 696.828 661.528C696.828 666.047 698.135 669.761 701.647 672.772C712.816 682.345 728.955 670.367 728.955 657.512C728.955 650.48 720.512 646.672 714.498 648.677C711.243 649.762 703.677 655.846 702.45 659.118C702.074 660.121 703.445 662.728 702.45 662.331C700.509 661.554 701.083 659.389 700.041 661.126Z" fill="none" opacity="1" stroke="#e94420" stroke-linecap="round" stroke-linejoin="round" stroke-width="5" vectornator:layerName="Кривая 34"/>
<path d="M762.688 659.52C763.363 656.817 759.251 655.111 757.869 652.693C756.532 650.353 759.842 651.477 756.262 650.283C746.015 646.867 727.49 650.928 732.97 665.543C736.526 675.025 751.387 675.213 758.672 671.166C759.842 670.515 760.814 669.559 761.884 668.756C762.955 667.953 765.387 667.653 765.097 666.347C764.11 661.904 762.147 661.681 762.688 659.52Z" fill="none" opacity="1" stroke="#e94420" stroke-linecap="round" stroke-linejoin="round" stroke-width="5" vectornator:layerName="Кривая 35"/>
<path d="M763.491 622.172C759.502 620.178 759.475 632.532 759.475 635.023C759.475 650.076 760.278 664.997 760.278 680" fill="none" opacity="1" stroke="#e94420" stroke-linecap="round" stroke-linejoin="round" stroke-width="5" vectornator:layerName="Кривая 36"/>
<path d="M785.979 661.528C798.076 658.503 813.412 650.008 821.319 639.842C829.041 629.913 818.061 622.663 808.468 624.582C804.427 625.39 800.524 628.688 798.027 631.81C785.188 647.859 796.904 680.394 818.909 678.394C824.751 677.863 830.67 672.714 828.547 666.347C826.28 659.546 818.629 657.512 812.484 657.512C808.114 657.512 804.299 659.578 802.846 663.937C801.704 667.362 802.043 665.5 802.043 669.559" fill="none" opacity="1" stroke="#e94420" stroke-linecap="round" stroke-linejoin="round" stroke-width="5" vectornator:layerName="Кривая 37"/>
<path d="M846.217 648.677C845.503 647.249 845.32 645.558 843.004 647.874C841.683 649.194 842.451 651.192 842.201 652.693C840.893 660.543 842.299 670.776 851.839 671.969C861.186 673.137 870.895 661.383 873.524 653.496C874.025 651.993 876.261 646.915 874.327 645.464C870.996 642.966 868.447 651.24 867.902 652.693C865.754 658.422 862.912 675.096 869.508 678.394" fill="none" opacity="1" stroke="#e94420" stroke-linecap="round" stroke-linejoin="round" stroke-width="5" vectornator:layerName="Кривая 38"/>
<path d="M899.226 643.858C896.613 638.633 898.335 651.498 898.422 651.89C899.429 656.422 902.316 663.093 907.257 664.74C914.306 667.09 919.998 657.368 920.911 651.89C921.176 650.301 921.937 644.661 919.305 644.661C915.816 644.661 916.092 657.513 916.092 659.921C916.092 671.94 916.781 684.126 915.289 696.064C914.769 700.224 915.09 707.658 911.273 710.521C906.627 714.005 901.087 709.106 897.619 706.505C888.934 699.991 879.209 692.882 869.508 688.032" fill="none" opacity="1" stroke="#e94420" stroke-linecap="round" stroke-linejoin="round" stroke-width="5" vectornator:layerName="Кривая 39"/>
<path d="M977.132 635.023C962.419 620.309 989.721 610.469 996.408 622.172C1002.96 633.63 987.524 651.136 980.345 658.315C979.887 658.773 973.605 663.482 973.92 664.74C974.629 667.576 983.005 666.347 984.361 666.347C992.211 666.347 1005.57 663.458 1011.67 669.559" fill="none" opacity="1" stroke="#e94420" stroke-linecap="round" stroke-linejoin="round" stroke-width="5" vectornator:layerName="Кривая 40"/>
<path d="M373.956 716.946C378.477 714.685 383.576 716.68 388.413 716.143C389.467 716.026 402.067 712.916 402.067 712.127C402.067 710.788 399.165 711.384 398.051 712.127C397.132 712.739 397.658 714.315 397.248 715.34C395.779 719.01 395.802 725.141 396.445 728.993C398.784 743.03 408.14 754.541 410.901 768.348C411.795 772.818 412.405 779.172 407.689 782.002C403.904 784.273 399.02 783.609 394.838 783.609" fill="none" opacity="1" stroke="#e94420" stroke-linecap="round" stroke-linejoin="round" stroke-width="5" vectornator:layerName="Кривая 41"/>
<path d="M203.191 261.129C203.191 265.536 208.335 286.879 216.512 283.608C219.85 282.273 222.061 274.545 223.172 271.952C226.464 264.271 229.478 256.485 232.331 248.64C233.352 245.831 234.936 243.214 235.661 240.314C235.863 239.507 235.072 238.405 235.661 237.817C236.1 237.378 236.216 238.927 236.494 239.482" fill="none" opacity="1" stroke="#e94420" stroke-linecap="round" stroke-linejoin="round" stroke-width="5" vectornator:layerName="Кривая 42"/>
<path d="M247.317 253.219C240.227 257.349 240.566 270.993 244.819 276.948C246.411 279.176 250.89 282.735 253.978 281.11C265.595 274.996 272.846 267.107 276.457 254.468C277.289 251.557 275.311 247.337 273.959 245.31C271.324 241.356 261.803 242.271 258.14 243.645C253.036 245.559 251.487 250.79 247.317 253.219Z" fill="none" opacity="1" stroke="#e94420" stroke-linecap="round" stroke-linejoin="round" stroke-width="5" vectornator:layerName="Кривая 43"/>
<path d="M288.113 242.812C288.113 252.679 291.443 262.109 291.443 271.952" fill="none" opacity="1" stroke="#e94420" stroke-linecap="round" stroke-linejoin="round" stroke-width="5" vectornator:layerName="Кривая 44"/>
<path d="M288.946 225.744C290.029 225.744 286.448 224.747 286.448 223.663C286.448 222.785 288.553 223.71 288.946 224.495C289.223 225.051 287.637 225.744 288.946 225.744Z" fill="none" opacity="1" stroke="#e94420" stroke-linecap="round" stroke-linejoin="round" stroke-width="5" vectornator:layerName="Кривая 45"/>
<path d="M330.574 248.64C330.574 243.201 324.028 243.645 319.751 243.645C312.537 243.645 307.205 246.937 303.099 252.803C295.664 263.425 306.456 272.238 315.588 275.282C324.042 278.1 329.813 274.379 335.57 268.622" fill="none" opacity="1" stroke="#e94420" stroke-linecap="round" stroke-linejoin="round" stroke-width="5" vectornator:layerName="Кривая 46"/>
<path d="M333.072 214.505C331.654 214.032 329.578 211.503 328.909 212.839C326.859 216.94 330.076 225.765 331.407 229.491C337.483 246.504 340.565 263.135 340.565 281.11" fill="none" opacity="1" stroke="#e94420" stroke-linecap="round" stroke-linejoin="round" stroke-width="5" vectornator:layerName="Кривая 47"/>
<path d="M462.954 239.482C463.959 237.471 468.75 234.054 464.619 231.989C459.615 229.487 451.422 238.088 448.8 241.147C444.416 246.261 440.387 255.586 444.637 261.961C446.358 264.543 450.041 265.081 452.963 266.124C454.552 266.692 456.276 266.817 457.958 266.957C461.277 267.233 464.63 267.233 467.949 266.957C472.757 266.556 477.024 264.917 481.27 262.794" fill="none" opacity="1" stroke="#e94420" stroke-linecap="round" stroke-linejoin="round" stroke-width="5" vectornator:layerName="Кривая 48"/>
<path d="M492.094 215.337C491.596 214.342 490.429 212.203 490.429 211.174C490.429 210.554 491.065 212.251 491.261 212.839C491.623 213.925 491.845 215.053 492.094 216.17C492.453 217.789 493.652 223.946 493.759 225.328C494.225 231.393 494.591 237.55 494.591 243.645C494.591 247.53 494.591 251.415 494.591 255.301C494.591 256.966 494.591 258.631 494.591 260.296C494.591 261.129 493.759 262.794 494.591 262.794C496.829 262.794 496.921 258.967 497.922 256.966C501.453 249.902 506.257 244.632 511.243 238.649C512.248 237.443 513.169 236.021 514.573 235.319C515.128 235.041 515.894 233.97 516.238 234.486C519.453 239.308 510.81 257.798 522.066 257.798" fill="none" opacity="1" stroke="#e94420" stroke-linecap="round" stroke-linejoin="round" stroke-width="5" vectornator:layerName="Кривая 49"/>
<path d="M541.215 239.482C543.188 237.51 542.356 233.928 542.048 231.156C541.895 229.777 539.778 233.118 539.55 234.486C539.231 236.403 539.017 238.446 539.55 240.314C541.644 247.644 550.699 255.47 558.7 252.803C565.679 250.476 572.891 231.628 568.69 225.328C561.182 214.065 537.921 224.389 534.555 234.486C534.116 235.803 534.021 237.368 534.555 238.649C535.473 240.853 536.731 245.801 538.718 244.477C541.859 242.383 539.633 241.064 541.215 239.482Z" fill="none" opacity="1" stroke="#e94420" stroke-linecap="round" stroke-linejoin="round" stroke-width="5" vectornator:layerName="Кривая 50"/>
<path d="M583.26 229.491C577.115 229.092 580.571 244.094 582.012 246.975C592.835 268.622 616.815 251.96 620.31 234.486C623.303 219.523 605.045 216.392 593.668 218.667C590.821 219.237 585.746 222.443 584.509 225.328C584.072 226.348 585.433 228.043 584.509 228.658C583.677 229.213 585.243 229.62 583.26 229.491Z" fill="none" opacity="1" stroke="#e94420" stroke-linecap="round" stroke-linejoin="round" stroke-width="5" vectornator:layerName="Кривая 51"/>
<path d="M657.776 228.658C661.18 221.85 654.319 221.998 649.45 221.998C643.129 221.998 635.026 224.3 631.133 229.491C625.348 237.204 646.652 241.502 651.115 244.477C658.527 249.418 651.17 254.468 645.287 254.468C643.345 254.468 641.402 254.468 639.459 254.468C636.006 254.468 633.641 253.638 630.301 252.803" fill="none" opacity="1" stroke="#e94420" stroke-linecap="round" stroke-linejoin="round" stroke-width="5" vectornator:layerName="Кривая 52"/>
<path d="M680.255 238.649C678.222 234.582 685.244 236.984 687.748 236.984C694.153 236.984 714.391 236.327 714.391 226.161C714.391 221.638 700.596 220.333 697.739 220.333C691.569 220.333 684.755 220.078 680.255 225.328C678.508 227.366 678.206 230.357 677.758 232.821C676.229 241.227 678.231 247.048 686.916 250.305C691.961 252.197 697.406 252.836 702.735 253.636C709.206 254.606 709.881 254.468 715.223 254.468" fill="none" opacity="1" stroke="#e94420" stroke-linecap="round" stroke-linejoin="round" stroke-width="5" vectornator:layerName="Кривая 53"/>
<path d="M787.657 179.536C779.995 182.09 775.599 191.358 771.838 197.853C761.218 216.198 748.54 244.583 773.504 257.798C777.382 259.852 781.664 261.24 785.992 261.961" fill="none" opacity="1" stroke="#e94420" stroke-linecap="round" stroke-linejoin="round" stroke-width="5" vectornator:layerName="Кривая 54"/>
<path d="M837.612 215.337C837.334 213.95 837.412 209.909 836.779 211.174C835.29 214.153 836.779 217.835 836.779 221.165C836.779 227.62 835.867 234.76 836.779 241.147C837.061 243.122 837.681 246.837 839.277 243.645" fill="none" opacity="1" stroke="#e94420" stroke-linecap="round" stroke-linejoin="round" stroke-width="5" vectornator:layerName="Кривая 55"/>
<path d="M831.784 196.604C830.714 195.902 828.381 192.786 829.286 193.69C830.542 194.947 832.408 197.014 831.784 196.604Z" fill="none" opacity="1" stroke="#e94420" stroke-linecap="round" stroke-linejoin="round" stroke-width="5" vectornator:layerName="Кривая 56"/>
<path d="M860.091 212.007C860.091 215.354 860.556 218.686 860.924 221.998C861.385 226.153 861.646 225.357 862.589 228.658C863.247 230.962 864.522 235.319 865.087 235.319C867.979 235.319 870.368 229.757 871.747 227.826C874.654 223.756 878.567 218.615 883.403 217.002C884.236 216.725 885.086 215.844 885.901 216.17C887.666 216.876 890.234 232.992 893.394 236.151" fill="none" opacity="1" stroke="#e94420" stroke-linecap="round" stroke-linejoin="round" stroke-width="5" vectornator:layerName="Кривая 57"/>
<path d="M923.367 186.197C918.754 195.423 921.519 210.952 924.199 220.333C925.395 224.518 931.301 233.603 929.195 237.817" fill="none" opacity="1" stroke="#e94420" stroke-linecap="round" stroke-linejoin="round" stroke-width="5" vectornator:layerName="Кривая 58"/>
<path d="M907.548 218.667C915.338 213.474 933.927 219.5 943.349 219.5" fill="none" opacity="1" stroke="#e94420" stroke-linecap="round" stroke-linejoin="round" stroke-width="5" vectornator:layerName="Кривая 59"/>
<path d="M1019.11 203.681C1014.26 203.681 1012.82 207.898 1009.95 211.174C1003.08 219.03 996.44 227.187 989.14 234.486" fill="none" opacity="1" stroke="#e94420" stroke-linecap="round" stroke-linejoin="round" stroke-width="5" vectornator:layerName="Кривая 60"/>
<path d="M987.475 211.174C990.366 205.391 994.436 212.512 996.633 215.337C1004.16 225.009 1015.39 232.672 1024.94 240.314" fill="none" opacity="1" stroke="#e94420" stroke-linecap="round" stroke-linejoin="round" stroke-width="5" vectornator:layerName="Кривая 61"/>
<path d="M1058.24 174.541C1056.03 165.689 1063.85 176.291 1064.9 177.871C1069.43 184.667 1073.73 191.363 1077.39 198.686C1087.35 218.603 1088.34 245.666 1065.74 256.966" fill="none" opacity="1" stroke="#e94420" stroke-linecap="round" stroke-linejoin="round" stroke-width="5" vectornator:layerName="Кривая 62"/>
<path d="M1158.99 168.713C1148.75 155.072 1146.66 186.361 1145.66 192.025C1145.22 194.545 1144.55 197.021 1144 199.518C1143.44 202.016 1142.92 204.521 1142.33 207.011C1141.81 209.239 1141.26 211.461 1140.67 213.672C1140.15 215.624 1139.53 217.551 1139 219.5C1138.87 219.985 1138.37 224.495 1136.51 224.495C1134.26 224.495 1140.27 212.037 1144.83 221.165C1145.22 221.95 1145.56 222.792 1145.66 223.663C1147.02 234.491 1142.84 243.617 1139.84 253.636C1138.75 257.245 1136.73 262.188 1139.84 265.292C1144.03 269.486 1151.87 270.029 1157.32 271.12" fill="none" opacity="1" stroke="#e94420" stroke-linecap="round" stroke-linejoin="round" stroke-width="5" vectornator:layerName="Кривая 63"/>
<path d="M214.847 833.939C221.657 830.534 229.999 832.108 237.326 831.442C238.642 831.322 245.96 829.252 247.317 830.609C248.091 831.383 238.038 837.248 237.326 838.102C233.138 843.128 231.591 848.096 232.331 854.754C233.28 863.3 241.705 866.492 245.652 873.07C247.069 875.432 246.484 878.82 246.484 881.396C246.484 894.952 243.93 903.156 238.159 914.699" fill="none" opacity="1" stroke="#FFFFFF" stroke-linecap="round" stroke-linejoin="round" stroke-width="5" vectornator:layerName="Кривая 64"/>
<path d="M1240.22 89.1817C1240.22 104.441 1238.73 119.797 1237.72 134.973C1236.42 154.442 1237.58 174.664 1238.55 194.086C1240.02 223.43 1237.42 252.978 1238.55 282.339C1240.93 344.224 1244.13 406.145 1246.88 468.003C1248.24 498.574 1251.9 528.974 1252.71 559.586C1253.41 586.487 1252.03 613.443 1252.71 640.345C1253.66 678.655 1255.89 716.931 1256.87 755.241C1257.65 785.606 1257.76 816.458 1256.87 846.824C1256.18 870.183 1253.77 893.431 1252.71 916.76C1252.13 929.466 1252.71 942.333 1252.71 955.058" fill="none" opacity="1" stroke="#FFFFFF" stroke-linecap="round" stroke-linejoin="round" stroke-width="5" vectornator:layerName="Кривая 65"/>
</g>
<g id="Layer-7" vectornator:layerName="Layer 7" visibility="hidden">
<path d="M1358.44 622.029C1352.85 610.847 1333.01 618.492 1330.97 628.689C1329.25 637.29 1336.94 640.236 1343.46 642.843C1353.24 646.756 1365.28 649.969 1375.93 647.839C1378.86 647.252 1381.35 645.233 1384.25 644.508" fill="none" opacity="1" stroke="#FFFFFF" stroke-linecap="round" stroke-linejoin="round" stroke-width="5" vectornator:layerName="Кривая 102"/>
<path d="M1398.41 591.224C1394.87 584.149 1395.08 598.733 1395.08 599.549C1395.08 610.643 1397.68 621.11 1399.24 632.02C1399.41 633.226 1399.75 642.683 1401.74 643.676C1407.15 646.381 1415.61 626.261 1417.56 622.861C1418.48 621.245 1419.22 619.531 1420.05 617.866C1420.33 617.311 1420.74 615.599 1420.89 616.201C1423.36 626.099 1419.74 639.513 1435.04 639.513C1436.43 639.513 1437.87 639.912 1439.2 639.513C1445.53 637.613 1452.48 630.446 1455.02 624.526C1455.22 624.073 1458.38 617.026 1455.02 617.866C1451.65 618.709 1451.35 628.804 1451.69 631.187C1453.03 640.583 1461.3 642.617 1469.17 638.68C1470.35 638.091 1475.62 634.905 1476.67 633.685C1478.28 631.8 1479.4 629.432 1480 627.024C1482.84 615.666 1464.23 611.302 1456.69 614.536C1450.63 617.131 1447.35 623.605 1454.19 627.024" fill="none" opacity="1" stroke="#FFFFFF" stroke-linecap="round" stroke-linejoin="round" stroke-width="5" vectornator:layerName="Кривая 103"/>
<path d="M1500.81 623.278C1500.62 623.815 1501.43 618.981 1499.15 622.029C1496.66 625.343 1496.54 633.474 1498.31 637.015C1500.94 642.267 1507.11 643.379 1512.47 642.843C1513.88 642.702 1515.37 642.643 1516.63 642.011C1524.3 638.176 1528.16 618.623 1519.96 613.703C1514.56 610.462 1505.34 613.434 1501.65 617.866C1499.46 620.489 1499.03 622.861 1499.15 622.861C1500.54 622.861 1501.56 621.256 1500.81 623.278Z" fill="none" opacity="1" stroke="#FFFFFF" stroke-linecap="round" stroke-linejoin="round" stroke-width="5" vectornator:layerName="Кривая 104"/>
<path d="M1563.26 616.201C1571.39 599.924 1546.58 607.199 1545.77 612.87C1545.58 614.244 1545.28 615.734 1545.77 617.033C1547.17 620.767 1579.6 635.388 1559.93 637.848C1558.55 638.02 1557.14 637.694 1555.76 637.848C1553.26 638.125 1550.78 638.68 1548.27 638.68C1545.77 638.68 1543.27 638.68 1540.78 638.68" fill="none" opacity="1" stroke="#FFFFFF" stroke-linecap="round" stroke-linejoin="round" stroke-width="5" vectornator:layerName="Кривая 105"/>
<path d="M1588.23 625.359C1591.83 621.763 1607.47 618.468 1609.05 614.536C1612.1 606.902 1598.55 603.643 1594.06 606.21C1578.83 614.916 1575.6 637.812 1595.73 642.843" fill="none" opacity="1" stroke="#FFFFFF" stroke-linecap="round" stroke-linejoin="round" stroke-width="5" vectornator:layerName="Кривая 106"/>
<path d="M1683.98 584.563C1689.32 579.222 1678.49 586.717 1678.15 587.061C1676.89 588.317 1675.89 589.802 1674.82 591.224C1670.35 597.18 1665.83 603.861 1664 611.205C1659.02 631.118 1670.16 646.09 1688.14 652.834" fill="none" opacity="1" stroke="#FFFFFF" stroke-linecap="round" stroke-linejoin="round" stroke-width="5" vectornator:layerName="Кривая 107"/>
<path d="M1726.86 611.622C1727.26 610.644 1728.85 609.455 1728.11 608.708C1725.11 605.716 1721.77 613.447 1721.44 614.536C1719.19 622.063 1719.59 634.129 1723.11 641.178C1729.05 653.053 1740.45 649.825 1749.75 644.508C1751.35 643.592 1759.05 639.371 1760.58 637.848C1775.37 623.058 1759.32 604.545 1742.26 604.545C1740.19 604.545 1726.71 604.051 1726.44 607.042C1726.21 609.591 1726.55 612.37 1726.86 611.622Z" fill="none" opacity="1" stroke="#FFFFFF" stroke-linecap="round" stroke-linejoin="round" stroke-width="5" vectornator:layerName="Кривая 108"/>
<path d="M1776.39 585.396C1776.12 584.008 1774.56 582.233 1775.56 581.233C1776.44 580.355 1777.9 582.153 1778.89 582.898C1780.15 583.84 1781.23 585.013 1782.22 586.228C1783.73 588.076 1785.06 590.07 1786.39 592.056C1791.16 599.224 1795.5 606.814 1797.21 615.368C1800.97 634.172 1794.04 644.03 1780.56 656.164C1777.54 658.881 1773.25 660.784 1771.4 664.49" fill="none" opacity="1" stroke="#FFFFFF" stroke-linecap="round" stroke-linejoin="round" stroke-width="5" vectornator:layerName="Кривая 109"/>
</g>
<g id="Layer-6" vectornator:layerName="Layer 6">
<path d="M1357.61 522.952C1360.57 521.471 1365.26 521.126 1367.6 518.79C1369.03 517.365 1368.54 515.811 1366.77 514.627C1363.66 512.557 1356.64 513.562 1353.45 514.627C1346.82 516.836 1337.68 522.334 1333.47 527.948C1325.9 538.037 1332.48 546.426 1342.62 549.595C1355.77 553.704 1370.23 553.276 1382.59 547.097" fill="none" opacity="1" stroke="#e94420" stroke-linecap="round" stroke-linejoin="round" stroke-width="5" vectornator:layerName="Кривая 91"/>
<path d="M1409.23 488.817C1404.95 486.679 1406.73 495.744 1406.73 497.975C1406.73 509.357 1409.28 520.837 1410.89 532.111C1410.95 532.492 1412.47 543.397 1413.39 542.934C1414.63 542.314 1414.99 540.658 1415.89 539.604C1420.6 534.106 1424.99 528.858 1429.21 522.952C1430.37 521.324 1430.54 517.957 1432.54 517.957C1433.94 517.957 1432.62 526.373 1432.54 527.115C1431.96 532.362 1430.25 541.685 1435.87 545.432C1443.79 550.707 1456.44 535.777 1459.18 529.613C1459.24 529.494 1461.61 521.287 1460.85 521.287C1456.88 521.287 1458.18 535.931 1459.18 537.939C1465.73 551.027 1488.55 535.594 1491.65 526.283C1497.67 508.249 1470.96 514.509 1464.18 521.287C1461.84 523.629 1462.18 527.614 1464.18 529.613" fill="none" opacity="1" stroke="#e94420" stroke-linecap="round" stroke-linejoin="round" stroke-width="5" vectornator:layerName="Кривая 92"/>
<path d="M1501.65 521.704C1497.08 520.66 1498.45 525.846 1499.15 527.948C1499.54 529.137 1503.09 534.387 1504.14 535.441C1507.88 539.183 1511.62 539.604 1516.63 539.604C1528.15 539.604 1532.45 527.933 1532.45 517.957C1532.45 505.705 1520.72 507.024 1512.47 510.464C1510.52 511.277 1505.77 513.563 1504.14 515.459C1502.65 517.199 1501.81 521.287 1501.65 521.287C1500.77 521.287 1503.75 522.183 1501.65 521.704Z" fill="none" opacity="1" stroke="#e94420" stroke-linecap="round" stroke-linejoin="round" stroke-width="5" vectornator:layerName="Кривая 93"/>
<path d="M1569.92 510.464C1573.37 500.102 1549.58 505.949 1548.27 513.794C1546.88 522.103 1556.8 525.267 1562.42 528.781C1564.12 529.841 1565.63 531.216 1567.42 532.111C1567.97 532.388 1569.52 532.505 1569.08 532.943C1567.75 534.275 1559.98 535.269 1558.26 535.441C1556.88 535.579 1555.48 535.288 1554.1 535.441C1552.15 535.658 1550.23 536.274 1548.27 536.274" fill="none" opacity="1" stroke="#e94420" stroke-linecap="round" stroke-linejoin="round" stroke-width="5" vectornator:layerName="Кривая 94"/>
<path d="M1593.23 521.287C1596.46 519.669 1600.52 519.47 1604.05 517.957C1606.33 516.979 1608.65 516.004 1610.71 514.627C1612.87 513.191 1619.39 506.499 1613.21 505.468C1602.33 503.656 1575.58 512.718 1585.74 527.948C1587.04 529.907 1588.94 531.411 1590.73 532.943C1592.84 534.749 1595.02 536.492 1597.39 537.939C1600.04 539.557 1602.94 540.714 1605.72 542.102" fill="none" opacity="1" stroke="#e94420" stroke-linecap="round" stroke-linejoin="round" stroke-width="5" vectornator:layerName="Кривая 95"/>
<path d="M1693.14 479.659C1694.25 478.549 1695.36 477.438 1696.47 476.328C1697.3 475.496 1694.8 477.994 1693.97 478.826C1692.86 479.936 1691.69 480.989 1690.64 482.156C1689.19 483.768 1687.78 485.418 1686.48 487.152C1682.18 492.884 1677.93 499.474 1675.65 506.301C1668.38 528.134 1679.6 538.143 1698.97 544.599" fill="none" opacity="1" stroke="#e94420" stroke-linecap="round" stroke-linejoin="round" stroke-width="5" vectornator:layerName="Кривая 96"/>
<path d="M1708.12 514.627C1706.14 510.663 1713.18 512.741 1715.62 512.962C1724.31 513.752 1736.05 514.851 1743.92 518.79" fill="none" opacity="1" stroke="#e94420" stroke-linecap="round" stroke-linejoin="round" stroke-width="5" vectornator:layerName="Кривая 97"/>
<path d="M1756.41 514.627C1757.8 507.693 1762.47 501.683 1765.57 495.478C1765.87 494.87 1767.37 488.307 1766.4 487.984C1762.54 486.698 1761.58 499.421 1761.41 501.306C1760.4 512.392 1762.24 523.538 1762.24 534.609" fill="none" opacity="1" stroke="#e94420" stroke-linecap="round" stroke-linejoin="round" stroke-width="5" vectornator:layerName="Кривая 98"/>
<path d="M1744.76 532.943C1748.34 530.552 1749.61 531.67 1753.92 531.278C1763.55 530.402 1772.73 531.278 1782.22 531.278" fill="none" opacity="1" stroke="#e94420" stroke-linecap="round" stroke-linejoin="round" stroke-width="5" vectornator:layerName="Кривая 99"/>
<path d="M1799.71 508.799C1797.15 509.437 1794.8 505.785 1792.21 506.301C1788.36 507.071 1788.14 517.131 1788.88 519.622C1789.18 520.627 1792.96 527.749 1793.88 528.781C1803.77 539.908 1819.61 537.931 1829.68 528.781C1833.62 525.196 1834.09 525.195 1835.51 520.455C1840.74 503.016 1825.28 489.947 1808.86 491.315C1802.69 491.829 1795.61 497.342 1798.04 504.636C1798.55 506.171 1801.05 507.264 1800.54 508.799C1800.15 509.976 1801.43 508.368 1799.71 508.799Z" fill="none" opacity="1" stroke="#e94420" stroke-linecap="round" stroke-linejoin="round" stroke-width="5" vectornator:layerName="Кривая 100"/>
<path d="M1844.67 464.672C1850.24 467.461 1853.67 476.526 1856.32 482.156C1858.38 486.538 1861.46 493.136 1862.15 497.975C1864.98 517.818 1851.25 535.515 1838 548.762" fill="none" opacity="1" stroke="#e94420" stroke-linecap="round" stroke-linejoin="round" stroke-width="5" vectornator:layerName="Кривая 101"/>
</g>
<g id="Layer-5" vectornator:layerName="Layer 5">
<path d="M1367.6 408.057C1361.45 395.758 1331.19 415.921 1341.79 428.039C1343.52 430.011 1350.99 432.527 1352.61 433.035C1359.67 435.238 1358.7 434.7 1365.94 434.7C1372.18 434.7 1378.6 435.862 1384.25 433.035" fill="none" opacity="1" stroke="#FFFFFF" stroke-linecap="round" stroke-linejoin="round" stroke-width="5" vectornator:layerName="Кривая 83"/>
<path d="M1405.9 374.754C1401.8 372.703 1402.57 384.896 1402.57 387.243C1402.57 397.453 1404.64 407.125 1405.9 417.216C1406.17 419.362 1406.12 431.612 1410.89 429.704C1413.92 428.495 1421.48 413.056 1423.38 409.722C1424.38 407.985 1425.82 406.517 1426.71 404.727C1427.11 403.942 1427.55 401.352 1427.55 402.229C1427.55 410.39 1422.35 427.573 1434.21 430.537C1443.44 432.844 1451.55 422.842 1455.85 416.383C1456.4 415.562 1462.15 406.627 1460.02 405.56C1457.73 404.414 1456.69 414.309 1456.69 415.551C1456.69 421.573 1455.23 429.377 1463.35 430.537C1472.34 431.822 1484.17 415.995 1481.66 407.225C1479.84 400.828 1468.2 400.613 1463.35 402.229C1455.15 404.962 1452.52 412.096 1452.52 419.713" fill="none" opacity="1" stroke="#FFFFFF" stroke-linecap="round" stroke-linejoin="round" stroke-width="5" vectornator:layerName="Кривая 84"/>
<path d="M1496.23 410.555C1496.81 411.996 1492.8 410.344 1491.65 411.388C1489.39 413.448 1496.08 423.482 1497.48 424.709C1506.09 432.243 1519.17 427.274 1525.79 419.713C1528.86 416.209 1528.83 409.058 1528.29 404.727C1526.89 393.53 1508.9 395.72 1502.48 399.732C1500.48 400.98 1498.41 402.563 1497.48 404.727C1496.46 407.118 1498.77 410.34 1497.48 410.555C1495.75 410.844 1495.36 408.365 1496.23 410.555Z" fill="none" opacity="1" stroke="#FFFFFF" stroke-linecap="round" stroke-linejoin="round" stroke-width="5" vectornator:layerName="Кривая 85"/>
<path d="M1563.26 401.397C1564.24 400.416 1565.97 400.14 1566.59 398.899C1570.03 392.008 1544.99 396.766 1545.77 402.229C1546.91 410.176 1560.89 412.312 1566.59 416.383C1568.4 417.677 1572.45 421.045 1570.75 423.876C1569.71 425.609 1566.89 425.103 1564.92 425.541C1557.65 427.156 1549.5 427.063 1542.44 424.709" fill="none" opacity="1" stroke="#FFFFFF" stroke-linecap="round" stroke-linejoin="round" stroke-width="5" vectornator:layerName="Кривая 86"/>
<path d="M1596.56 410.555C1599.65 409.009 1603.25 408.325 1606.55 407.225C1611.33 405.631 1620.43 398.159 1609.88 396.401C1599.44 394.661 1576.43 404.098 1588.23 417.216C1589.68 418.827 1591.45 420.145 1593.23 421.379C1595.07 422.652 1597.03 423.756 1599.06 424.709C1601.76 425.982 1604.61 426.929 1607.38 428.039" fill="none" opacity="1" stroke="#FFFFFF" stroke-linecap="round" stroke-linejoin="round" stroke-width="5" vectornator:layerName="Кривая 87"/>
<path d="M1720.61 354.773C1715.76 349.916 1702.7 368.457 1699.8 372.257C1687.5 388.343 1676.37 410.215 1701.46 420.546C1708.76 423.552 1708.8 423.026 1716.45 423.876" fill="none" opacity="1" stroke="#FFFFFF" stroke-linecap="round" stroke-linejoin="round" stroke-width="5" vectornator:layerName="Кривая 88"/>
<path d="M1739.76 387.243C1739.76 384.598 1739.39 383.86 1741.43 381.415C1744.01 378.32 1756.68 372.149 1759.74 377.252C1761.66 380.445 1749.83 391.756 1747.25 393.904C1747.23 393.928 1741.82 398.465 1742.26 398.899C1743.04 399.684 1744.49 398.761 1745.59 398.899C1748.4 399.25 1751.17 399.878 1753.92 400.564C1760.38 402.18 1794.63 415.042 1771.4 421.379C1769.77 421.823 1768.07 421.934 1766.4 422.211C1763.07 422.766 1759.78 423.596 1756.41 423.876C1752.6 424.194 1748.59 423.876 1744.76 423.876" fill="none" opacity="1" stroke="#FFFFFF" stroke-linecap="round" stroke-linejoin="round" stroke-width="5" vectornator:layerName="Кривая 89"/>
<path d="M1800.54 359.768C1799.12 355.989 1794.96 346.788 1797.21 342.284C1798.04 340.632 1801.71 341.869 1802.2 342.284C1807.03 346.305 1809.58 364.051 1810.53 369.759C1814.57 394.011 1820.53 414.706 1803.87 435.532" fill="none" opacity="1" stroke="#FFFFFF" stroke-linecap="round" stroke-linejoin="round" stroke-width="5" vectornator:layerName="Кривая 90"/>
</g>
<g id="Layer-4" vectornator:layerName="Layer 4">
<path d="M1360.94 182.43C1363.24 181.279 1365.54 176.551 1361.77 174.937C1351.24 170.422 1335.96 188.142 1335.96 197.416C1335.96 212.332 1368.23 209.01 1376.76 206.575" fill="none" opacity="1" stroke="#FFFFFF" stroke-linecap="round" stroke-linejoin="round" stroke-width="5" vectornator:layerName="Кривая 66"/>
<path d="M1395.91 148.294C1394.41 151.288 1395.08 155.004 1395.08 158.285C1395.08 168.295 1396.25 178.334 1397.57 188.258C1397.65 188.859 1398.39 199.081 1400.9 199.081C1402.6 199.081 1407.81 191.413 1408.4 190.756C1412.08 186.665 1416.14 182.892 1419.22 178.267C1420.6 176.202 1421.44 173.827 1422.55 171.606C1422.83 171.051 1423.38 169.321 1423.38 169.941C1423.38 178.644 1417.61 190.811 1425.05 198.249C1431.43 204.634 1448.36 182.74 1448.36 177.434C1448.36 176.019 1447.53 180.182 1447.53 181.597C1447.53 184.807 1447.18 184.664 1448.36 187.425C1451.19 194.035 1458.3 199.098 1465.84 196.584C1474.63 193.654 1481.71 180.499 1479.17 171.606C1477.91 167.202 1470.4 166.117 1466.68 165.778C1461.64 165.321 1449.21 168.213 1447.53 174.104C1446.92 176.239 1447.53 178.545 1447.53 180.765" fill="none" opacity="1" stroke="#FFFFFF" stroke-linecap="round" stroke-linejoin="round" stroke-width="5" vectornator:layerName="Кривая 67"/>
<path d="M1497.48 174.52C1497.04 175.621 1495.33 173.154 1494.15 173.272C1492.33 173.454 1492.49 180.594 1492.49 181.597C1492.49 187.297 1493.89 192.468 1499.15 195.751C1513.46 204.698 1529.77 180.879 1526.62 168.276C1524.17 158.46 1507.45 159.965 1500.81 164.113C1496.52 166.796 1498.73 169.528 1497.48 173.272C1497.36 173.644 1498.18 172.768 1497.48 174.52Z" fill="none" opacity="1" stroke="#FFFFFF" stroke-linecap="round" stroke-linejoin="round" stroke-width="5" vectornator:layerName="Кривая 68"/>
<path d="M1561.59 169.109C1562.03 167.338 1563.38 162.698 1562.42 160.783C1560.14 156.216 1548.46 166.723 1547.44 169.109C1544.36 176.282 1549.24 183.401 1554.1 188.258C1555.76 189.923 1558.35 191.019 1559.09 193.253C1560.38 197.128 1549.97 196.584 1548.27 196.584C1545.22 196.584 1542.16 196.584 1539.11 196.584C1536.34 196.584 1533.56 196.584 1530.79 196.584" fill="none" opacity="1" stroke="#FFFFFF" stroke-linecap="round" stroke-linejoin="round" stroke-width="5" vectornator:layerName="Кривая 69"/>
<path d="M1593.23 178.267C1599.4 178.267 1610.11 176.37 1614.88 171.606C1616.02 170.462 1617.97 168.946 1617.37 167.444C1615.47 162.682 1602.23 161.278 1598.22 163.281C1590.13 167.325 1582.3 183.086 1587.4 191.588C1591.96 199.182 1604.33 199.22 1611.54 197.416" fill="none" opacity="1" stroke="#FFFFFF" stroke-linecap="round" stroke-linejoin="round" stroke-width="5" vectornator:layerName="Кривая 70"/>
<path d="M1671.49 133.308C1669.27 133.308 1666.87 132.433 1664.83 133.308C1649.41 139.918 1643.3 166.479 1649.01 180.765C1654.09 193.469 1668.37 194.919 1679.82 194.919" fill="none" opacity="1" stroke="#FFFFFF" stroke-linecap="round" stroke-linejoin="round" stroke-width="5" vectornator:layerName="Кривая 71"/>
<path d="M1698.97 172.439C1703.7 167.708 1708.07 161.203 1708.96 154.122C1709.13 152.727 1709.31 142.407 1704.79 145.797C1702.8 147.289 1702.93 157.123 1703.13 159.118C1704.27 170.51 1711.45 179.752 1711.45 191.588" fill="none" opacity="1" stroke="#FFFFFF" stroke-linecap="round" stroke-linejoin="round" stroke-width="5" vectornator:layerName="Кривая 72"/>
<path d="M1689.81 191.588C1697.81 191.588 1705.83 190.756 1713.95 190.756C1721.27 190.756 1729.3 191.707 1736.43 189.923" fill="none" opacity="1" stroke="#FFFFFF" stroke-linecap="round" stroke-linejoin="round" stroke-width="5" vectornator:layerName="Кривая 73"/>
<path d="M1743.09 121.652C1743.09 114.087 1747.56 122.284 1748.92 124.15C1750.19 125.903 1751.93 127.307 1753.08 129.145C1758.11 137.196 1760.64 145.73 1762.24 154.955C1763.76 163.694 1764.8 165.465 1763.07 174.104C1760.5 186.968 1749.55 195.521 1745.59 207.407" fill="none" opacity="1" stroke="#FFFFFF" stroke-linecap="round" stroke-linejoin="round" stroke-width="5" vectornator:layerName="Кривая 74"/>
</g>
<g id="Layer-3" vectornator:layerName="Layer 3">
<path d="M1364.27 293.162C1370.26 275.185 1349.39 282.177 1343.46 291.497C1333.08 307.81 1344.77 320.919 1362.61 319.805C1369.87 319.35 1376.66 315.186 1382.59 311.479" fill="none" opacity="1" stroke="#FFFFFF" stroke-linecap="round" stroke-linejoin="round" stroke-width="5" vectornator:layerName="Кривая 75"/>
<path d="M1399.24 261.524C1395.57 272.538 1400.93 290.832 1402.57 302.32C1402.81 303.992 1403.22 305.638 1403.4 307.316C1403.49 308.143 1402.81 309.225 1403.4 309.814C1404.55 310.958 1405.18 307.098 1405.9 305.651C1406.57 304.314 1406.84 302.794 1407.56 301.488C1410.07 296.98 1414.37 292.144 1417.56 288.167C1418.33 287.198 1420.33 285.391 1420.89 286.502C1424.12 292.976 1414.18 308.409 1425.88 312.311C1433.78 314.945 1441.72 304.561 1445.86 299.823C1447.31 298.17 1448.78 295.86 1450.03 293.995C1450.58 293.162 1452.69 291.497 1451.69 291.497C1448.34 291.497 1448.36 297.896 1448.36 299.823C1448.36 302.043 1447.75 304.349 1448.36 306.483C1451.18 316.343 1460.85 315.641 1465.84 308.149C1466.74 306.802 1467.62 305.433 1468.34 303.986C1469.17 302.334 1470.61 298.537 1470.84 296.492C1472.29 283.417 1448.36 282.472 1448.36 293.995" fill="none" opacity="1" stroke="#FFFFFF" stroke-linecap="round" stroke-linejoin="round" stroke-width="5" vectornator:layerName="Кривая 76"/>
<path d="M1485.83 296.492C1484.81 305.5 1496.11 309.476 1503.31 307.316C1512.57 304.538 1517.48 290.36 1512.47 282.339C1506.2 272.311 1492.51 278.131 1488.32 286.502C1487.22 288.705 1487.49 290.825 1487.49 293.162C1487.49 293.995 1488.21 295.232 1487.49 295.66C1486.3 296.374 1485.98 295.114 1485.83 296.492Z" fill="none" opacity="1" stroke="#FFFFFF" stroke-linecap="round" stroke-linejoin="round" stroke-width="5" vectornator:layerName="Кривая 77"/>
<path d="M1552.43 279.841C1552.99 278.176 1554.1 276.601 1554.1 274.846C1554.1 271.99 1549.91 273.18 1548.27 273.18C1542.46 273.18 1536.45 274.005 1532.45 279.008C1524.59 288.831 1542.39 297.287 1548.27 301.488C1549.33 302.243 1554.41 305.023 1553.26 307.316C1551.63 310.578 1533.05 311.014 1530.79 306.483" fill="none" opacity="1" stroke="#FFFFFF" stroke-linecap="round" stroke-linejoin="round" stroke-width="5" vectornator:layerName="Кривая 78"/>
<path d="M1572.41 293.995C1576.51 292.63 1580.82 292.025 1584.9 290.664C1589.84 289.019 1588.04 289.268 1592.4 287.334C1594.73 286.297 1604.73 282.934 1601.55 278.176C1599.81 275.565 1593.92 276.511 1591.56 276.511C1580.75 276.511 1562.45 282.276 1574.08 296.492C1575.45 298.17 1577.42 299.255 1579.07 300.655C1581.03 302.308 1582.75 304.261 1584.9 305.651C1588.81 308.181 1593.12 309.769 1597.39 311.479" fill="none" opacity="1" stroke="#FFFFFF" stroke-linecap="round" stroke-linejoin="round" stroke-width="5" vectornator:layerName="Кривая 79"/>
<path d="M1678.98 239.045C1668.89 242.83 1666 249.527 1661.5 259.027C1654.66 273.468 1655.14 288.562 1664.83 301.488C1666.72 304.012 1670.13 306.937 1673.16 308.149C1676.8 309.606 1681 308.981 1684.81 308.981" fill="none" opacity="1" stroke="#FFFFFF" stroke-linecap="round" stroke-linejoin="round" stroke-width="5" vectornator:layerName="Кривая 80"/>
<path d="M1698.97 276.511C1697.86 274.291 1695.63 272.332 1695.63 269.85C1695.63 266.367 1701.2 267.352 1703.13 267.352C1709.68 267.352 1715.26 266.734 1718.95 273.18C1723.41 280.988 1712.27 287.489 1708.12 292.33C1706.97 293.679 1704.36 294.769 1704.79 296.492C1705.57 299.587 1715.38 298.429 1717.28 298.158C1726.54 296.835 1736.84 295.11 1744.76 289.832" fill="none" opacity="1" stroke="#FFFFFF" stroke-linecap="round" stroke-linejoin="round" stroke-width="5" vectornator:layerName="Кривая 81"/>
<path d="M1753.08 234.049C1752.53 232.939 1750.21 230.418 1751.42 230.719C1760.95 233.103 1773.28 253.632 1777.23 261.524C1781.57 270.213 1786.55 284.197 1783.06 293.995C1779.94 302.723 1771.15 308.313 1763.91 313.144" fill="none" opacity="1" stroke="#FFFFFF" stroke-linecap="round" stroke-linejoin="round" stroke-width="5" vectornator:layerName="Кривая 82"/>
</g>
<g id="Layer-1" vectornator:layerName="Layer 1" visibility="hidden">
<path d="M166.197 244.873C161.297 249.773 162.095 256.108 161.202 262.357C158.501 281.262 155.375 301.657 166.197 318.972C177.443 336.966 204.902 337.704 223.645 339.786C234.372 340.978 245.082 349.65 251.12 358.103C257.863 367.543 263.828 377.342 265.274 388.908C266.664 400.028 262.387 411.667 260.278 422.211C257.083 438.185 270.155 458.66 283.59 466.337C293.175 471.814 303.769 471.817 314.395 472.998C330.524 474.79 347.242 475.496 363.517 475.496C372.617 475.496 381.241 475.887 390.16 477.161C390.436 477.2 398.146 478.673 397.653 479.659C396.329 482.307 392.431 479.114 390.992 478.826C387.284 478.084 371.141 473.349 368.513 474.663C367.958 474.941 369.581 475.325 370.178 475.496C371.538 475.885 372.959 476.021 374.341 476.328C375.803 476.653 378.671 477.352 380.169 477.994C387.15 480.986 396.061 479.869 402.648 483.822C410.269 488.394 394.304 495.496 391.825 497.975" fill="none" opacity="1" stroke="#FFFFFF" stroke-linecap="round" stroke-linejoin="round" stroke-width="5" vectornator:layerName="Кривая 110"/>
</g>
<g id="Layer-2" vectornator:layerName="Layer 2">
<path d="M146.215 247.371C146.215 255.326 144.182 263.732 142.885 271.515C140.05 288.527 139.716 318.91 150.378 333.126C157.049 342.02 174.532 343.951 184.514 345.614C191.287 346.743 195.752 351.164 201.165 354.773C210.514 361.005 230.392 371.024 232.803 383.08C235.123 394.681 231.33 406.264 232.803 418.048C233.184 421.095 234.86 424.12 235.301 427.207C236.049 432.442 236.309 437.773 236.966 443.025C238.162 452.589 235.771 462.602 236.966 472.166C237.283 474.704 238.269 477.126 238.631 479.659C240.13 490.153 238.737 501.155 242.794 511.296C245.688 518.531 250.878 523.543 256.115 528.781C258.167 530.832 259.231 534.756 261.111 537.106C262.999 539.467 265.771 540.934 267.771 542.934C269.862 545.025 271.463 548.291 273.599 550.427C279.179 556.007 286.948 561.87 290.251 569.577C293.58 577.346 291.816 586.726 290.251 594.554C288.205 604.782 292.019 625.488 298.576 633.685C304.572 641.18 310.96 651.106 319.391 656.164C337.976 667.315 361.399 663.657 381.834 663.657C391.729 663.657 401.292 663.311 410.974 661.16C411.315 661.084 420.472 659.682 420.132 658.662C418.886 654.923 406.363 653.194 403.481 652.834C401.806 652.625 398.485 653.69 398.485 652.001C398.485 650.668 407.124 653.592 407.644 653.667C410.741 654.109 421.232 655.167 422.63 658.662C424.131 662.415 420.089 664.518 417.634 666.155C411.357 670.34 405.241 673.905 399.318 678.644" fill="none" opacity="1" stroke="#e94420" stroke-linecap="round" stroke-linejoin="round" stroke-width="5" vectornator:layerName="Кривая 111"/>
</g>
</svg>
