<?xml version="1.0" encoding="UTF-8" standalone="no"?>
<!DOCTYPE svg PUBLIC "-//W3C//DTD SVG 1.1//EN" "http://www.w3.org/Graphics/SVG/1.1/DTD/svg11.dtd">
<!-- Created with Vectornator (http://vectornator.io/) -->
<svg height="100%" stroke-miterlimit="10" style="fill-rule:nonzero;clip-rule:evenodd;stroke-linecap:round;stroke-linejoin:round;" version="1.1" viewBox="0 0 1920 1080" width="100%" xml:space="preserve" xmlns="http://www.w3.org/2000/svg" xmlns:vectornator="http://vectornator.io" xmlns:xlink="http://www.w3.org/1999/xlink">
<defs/>
<g id="Слой-1" vectornator:layerName="Слой 1">
<path d="M1014.56 118.547C1014.56 117.007 1014.87 115.251 1015.24 113.79C1015.36 113.298 1015.56 112.072 1015.92 112.43C1015.97 112.48 1016.57 123.584 1016.6 123.984C1016.73 126.031 1017.06 128.061 1017.28 130.101C1018.56 142.28 1019.86 154.588 1020.68 166.802C1020.71 167.305 1020.81 188.287 1024.07 181.755" fill="none" opacity="1" stroke="#FFFFFF" stroke-linecap="round" stroke-linejoin="round" stroke-width="5" vectornator:layerName="Кривая 17"/>
<path d="M1015.92 113.79C1015.24 113.79 1013.2 113.79 1013.88 113.79C1021.5 113.79 1028.74 111.961 1036.31 111.071C1041.75 110.431 1047.18 109.66 1052.62 109.032C1062.1 107.939 1071.72 108.042 1081.16 106.993C1083.16 106.771 1087.28 105.293 1089.32 106.314C1091.1 107.205 1092.08 109.076 1093.4 110.391C1096.82 113.815 1100.52 116.74 1103.59 120.586C1106.06 123.665 1111.11 127.259 1109.71 131.461" fill="none" opacity="1" stroke="#FFFFFF" stroke-linecap="round" stroke-linejoin="round" stroke-width="5" vectornator:layerName="Кривая 18"/>
<path d="M1109.03 132.82C1109.03 147.773 1103.52 170.051 1110.39 183.794" fill="none" opacity="1" stroke="#FFFFFF" stroke-linecap="round" stroke-linejoin="round" stroke-width="5" vectornator:layerName="Кривая 19"/>
<path d="M1017.28 193.988C1034.54 193.988 1051.95 190.553 1068.93 187.871C1076.13 186.735 1084.49 186.764 1091.36 184.473" fill="none" opacity="1" stroke="#FFFFFF" stroke-linecap="round" stroke-linejoin="round" stroke-width="5" vectornator:layerName="Кривая 20"/>
<path d="M1087.96 112.43C1087.96 111.524 1088.18 110.591 1087.96 109.712C1087.84 109.22 1087.44 107.872 1087.28 108.353C1086.81 109.78 1087.47 111.588 1087.28 113.11C1086.71 117.68 1085.75 122.154 1085.24 126.703C1085.03 128.597 1082.72 133.61 1083.2 135.538C1083.47 136.606 1086.93 135.657 1089.32 134.859C1096 132.634 1102.54 130.101 1109.71 130.101" fill="none" opacity="1" stroke="#FFFFFF" stroke-linecap="round" stroke-linejoin="round" stroke-width="5" vectornator:layerName="Кривая 21"/>
<path d="M1062.81 142.335C1061.02 138.756 1057.9 141.181 1056.02 143.694C1051.88 149.207 1039.71 162.213 1039.71 168.841" fill="none" opacity="1" stroke="#FFFFFF" stroke-linecap="round" stroke-linejoin="round" stroke-width="5" vectornator:layerName="Кривая 22"/>
<path d="M1036.31 140.976C1040.2 142.922 1043.04 146.494 1046.5 149.131C1053.75 154.654 1067.91 159.311 1070.29 168.841" fill="none" opacity="1" stroke="#FFFFFF" stroke-linecap="round" stroke-linejoin="round" stroke-width="5" vectornator:layerName="Кривая 23"/>
<path d="M1134.71 125.368C1134.71 134.64 1134.61 143.709 1135.38 152.897C1135.65 156.174 1135.23 160.651 1136.72 163.64" fill="none" opacity="1" stroke="#FFFFFF" stroke-linecap="round" stroke-linejoin="round" stroke-width="5" vectornator:layerName="Кривая 24"/>
<path d="M1138.74 145.511C1136.2 140.445 1143.62 140.811 1146.79 140.811C1154.34 140.811 1163.16 150.718 1154.85 156.254C1152 158.152 1153.56 157.236 1150.15 158.94C1146.64 160.696 1148.44 160.04 1144.78 160.954C1141.75 161.711 1139.16 162.297 1136.05 162.297" fill="none" opacity="1" stroke="#FFFFFF" stroke-linecap="round" stroke-linejoin="round" stroke-width="5" vectornator:layerName="Кривая 25"/>
<path d="M1136.05 124.025C1136.05 120.732 1142.78 122.011 1144.78 122.011C1151.49 122.011 1158.21 122.011 1164.92 122.011C1166.93 122.011 1168.95 121.565 1168.95 124.025" fill="none" opacity="1" stroke="#FFFFFF" stroke-linecap="round" stroke-linejoin="round" stroke-width="5" vectornator:layerName="Кривая 26"/>
<path d="M1175.67 144.168C1175.13 143.09 1175.53 140.811 1174.32 140.811C1173.65 140.811 1174.32 142.154 1174.32 142.826C1174.32 143.945 1174.16 145.075 1174.32 146.183C1174.81 149.608 1176.19 153.509 1179.69 154.911C1185.56 157.259 1188.91 149.798 1189.77 145.511C1189.86 145.056 1190.04 141.483 1189.09 141.483C1188.51 141.483 1187.77 147.349 1187.75 147.526C1186.85 154.701 1187.76 163.62 1184.39 170.354C1180.25 178.652 1171.42 171.047 1169.62 165.654" fill="none" opacity="1" stroke="#FFFFFF" stroke-linecap="round" stroke-linejoin="round" stroke-width="5" vectornator:layerName="Кривая 27"/>
<path d="M1213.94 141.483C1212.6 148.178 1211.7 154.901 1210.58 161.626C1210.09 164.571 1208.57 170.354 1208.57 170.354C1208.57 170.354 1209.01 169.012 1209.24 168.34" fill="none" opacity="1" stroke="#FFFFFF" stroke-linecap="round" stroke-linejoin="round" stroke-width="5" vectornator:layerName="Кривая 28"/>
<path d="M1208.9 140.811C1206.76 141.441 1204.73 142.473 1202.52 142.826C1199.48 143.312 1195.41 140.541 1192.45 143.497C1188.67 147.282 1193.95 151.791 1197.15 153.569C1203.62 157.161 1214.81 160.121 1222 156.926C1227.37 154.536 1232.45 146.141 1230.05 140.14C1229.29 138.245 1224.45 137.08 1222.67 136.783C1216.62 135.774 1209.3 140.693 1208.9 140.811Z" fill="none" opacity="1" stroke="#FFFFFF" stroke-linecap="round" stroke-linejoin="round" stroke-width="5" vectornator:layerName="Кривая 29"/>
<path d="M1235.42 150.847C1238.74 147.525 1242.21 147.451 1246.16 145.475C1254.12 141.499 1251.8 137.571 1243.48 138.761C1237.75 139.58 1234.14 147.649 1236.09 152.861C1237.11 155.583 1241.71 157.789 1244.15 158.233C1254.02 160.028 1260.57 153.748 1265.63 146.147C1266.69 144.562 1271.44 138.444 1269.66 136.075C1265.59 130.648 1264.36 145.386 1264.29 146.147C1264.18 147.504 1263.81 148.828 1263.62 150.175C1262.75 156.236 1262.95 154.494 1262.95 160.247C1262.95 165.395 1262.95 170.542 1262.95 175.69" fill="none" opacity="1" stroke="#FFFFFF" stroke-linecap="round" stroke-linejoin="round" stroke-width="5" vectornator:layerName="Кривая 32"/>
<path d="M1264.63 145.811C1262.48 144.197 1266.35 140.705 1266.98 138.09C1267.66 135.28 1266.04 133.496 1269.66 132.047C1276.84 129.178 1288.36 137.352 1285.11 145.475C1283.58 149.298 1274.31 150.247 1271.01 150.847C1267.06 151.564 1263.59 152.091 1263.62 151.518C1263.86 147.49 1266.66 147.333 1264.63 145.811Z" fill="none" opacity="1" stroke="#FFFFFF" stroke-linecap="round" stroke-linejoin="round" stroke-width="5" vectornator:layerName="Кривая 33"/>
<path d="M1031.79 311.768C1031.79 309.978 1031.62 302.44 1032.65 301.403C1034.71 299.344 1042.08 300.108 1044.74 300.108C1053.05 300.108 1061.62 299.115 1069.79 297.948C1073.86 297.367 1077.85 296.365 1081.88 295.789C1082.26 295.736 1085.8 294.759 1086.2 295.357C1086.55 295.876 1085.01 298.949 1084.91 299.676C1084.63 301.636 1084.48 303.731 1084.48 305.722" fill="none" opacity="1" stroke="#FFFFFF" stroke-linecap="round" stroke-linejoin="round" stroke-width="5" vectornator:layerName="Кривая 34"/>
<path d="M1031.36 315.654C1034.07 314.749 1037.98 314.791 1040.86 314.791" fill="none" opacity="1" stroke="#FFFFFF" stroke-linecap="round" stroke-linejoin="round" stroke-width="5" vectornator:layerName="Кривая 35"/>
<path d="M1077.57 311.768C1077.57 310.178 1071.69 312.46 1072.81 311.336C1073.9 310.255 1077.94 310.904 1079.29 310.904C1079.72 310.904 1081 310.777 1080.59 310.904C1078.32 311.602 1077.57 313.377 1077.57 311.768Z" fill="none" opacity="1" stroke="#FFFFFF" stroke-linecap="round" stroke-linejoin="round" stroke-width="5" vectornator:layerName="Кривая 36"/>
<path d="M1039.99 319.973C1037.84 322.13 1036.89 325.203 1035.24 327.746C1030.07 335.748 1025.11 343.807 1020.13 351.93C1013.25 363.152 1006.31 374.173 999.831 385.615C995.101 393.963 988.847 401.326 984.284 409.799C983.032 412.125 982.776 414.543 981.693 416.709" fill="none" opacity="1" stroke="#FFFFFF" stroke-linecap="round" stroke-linejoin="round" stroke-width="5" vectornator:layerName="Кривая 37"/>
<path d="M1072.38 315.654C1072.24 315.367 1072.18 314.563 1071.95 314.791C1071.33 315.414 1075.48 324.604 1075.84 325.587C1078.78 333.57 1081.2 341.668 1084.91 349.339C1088.6 356.986 1092.75 364.689 1095.7 372.66C1098.55 380.351 1099.96 388.498 1103.48 395.98C1106.31 401.996 1110.43 407.567 1112.98 413.686C1114.02 416.19 1114.28 418.896 1115.14 421.459" fill="none" opacity="1" stroke="#FFFFFF" stroke-linecap="round" stroke-linejoin="round" stroke-width="5" vectornator:layerName="Кривая 38"/>
<path d="M981.71 417.72C980.376 415.052 980.98 420.174 981.155 421.05C981.605 423.3 984.844 425.67 986.706 426.601C994.021 430.259 1003.17 429.377 1011.13 429.377C1018.62 429.377 1026.02 428.757 1033.34 427.712C1040.04 426.753 1047.17 428.67 1053.87 427.712C1064.87 426.14 1075.91 426.046 1087.18 426.046C1092.02 426.046 1097.99 425.099 1102.72 426.046C1105.87 426.675 1110.06 429.261 1112.72 426.601" fill="none" opacity="1" stroke="#FFFFFF" stroke-linecap="round" stroke-linejoin="round" stroke-width="5" vectornator:layerName="Кривая 39"/>
<path d="M1030.2 353.267C1027.7 354.517 1027.52 357.005 1026.13 359.092C1023.89 362.454 1020.94 365.653 1018.56 368.994C1016.45 371.943 1014.95 375.543 1012.73 378.314C1009.6 382.225 1008.13 387.167 1005.16 391.128C1001.23 396.362 998.236 401.477 995.255 407.438C993.936 410.077 990.672 415.942 994.09 418.505C998.536 421.84 1007.91 419.31 1012.73 418.505C1027.6 416.026 1043.4 418.284 1058.16 416.175C1068.86 414.647 1081.68 415.87 1091.95 417.923C1092.99 418.131 1102.26 418.051 1102.43 417.34C1102.52 416.976 1099.17 408.601 1098.94 407.438C1098.4 404.734 1098.31 401.949 1097.77 399.283C1096.57 393.277 1090.74 388.113 1088.45 382.391C1086.39 377.226 1084.83 372.467 1082.05 367.829C1079.68 363.89 1078.9 356.644 1074.47 354.432" fill="#68c40c" fill-rule="nonzero" opacity="1" stroke="#FFFFFF" stroke-linecap="round" stroke-linejoin="round" stroke-width="5" vectornator:layerName="Кривая 40"/>
<path d="M1147.87 325.89C1147.87 325.307 1148.13 323.621 1147.87 324.142C1147.24 325.406 1147 326.837 1146.7 328.22C1145.57 333.505 1146.47 331.06 1146.12 336.374C1145.68 343.029 1144.37 349.483 1144.37 356.179C1144.37 357.085 1143.27 370.55 1144.96 365.499" fill="#68c40c" fill-rule="nonzero" opacity="1" stroke="#FFFFFF" stroke-linecap="round" stroke-linejoin="round" stroke-width="5" vectornator:layerName="Кривая 41"/>
<path d="M1147.29 325.89C1145.78 325.136 1144.91 320.63 1147.87 321.812C1149.38 322.417 1149.67 324.663 1150.2 325.89C1152.17 330.494 1155.94 341.533 1162.43 340.452C1168.22 339.487 1174 331.287 1176.41 326.472C1177.11 325.072 1178.04 323.795 1178.74 322.395C1179.11 321.644 1179.9 318.219 1179.9 319.482C1179.9 332.315 1171.99 347.925 1178.16 360.256" fill="none" opacity="1" stroke="#FFFFFF" stroke-linecap="round" stroke-linejoin="round" stroke-width="5" vectornator:layerName="Кривая 42"/>
<path d="M1194.47 339.287C1194.46 339.281 1194.05 336.205 1192.72 337.539C1191.44 338.818 1191.55 342.351 1191.55 343.947C1191.55 349.805 1193.9 356.179 1200.87 356.179C1207.92 356.179 1212.29 346.034 1213.69 340.452C1214 339.204 1212.88 335.277 1210.78 336.957C1208.31 338.927 1209.03 344.236 1209.03 346.859C1209.03 354.404 1210.86 362.68 1209.61 370.159C1209.18 372.766 1206.56 379.971 1202.62 379.479C1198.17 378.922 1193.79 373.316 1189.81 371.324" fill="none" opacity="1" stroke="#FFFFFF" stroke-linecap="round" stroke-linejoin="round" stroke-width="5" vectornator:layerName="Кривая 43"/>
<path d="M1230.58 335.209C1232.25 340.216 1233.45 347.31 1232.91 352.684C1232.84 353.421 1232.08 355.934 1231.75 356.762C1231.58 357.165 1231.36 358.315 1231.16 357.927C1229.82 355.23 1238.06 343.342 1239.9 341.034C1241.72 338.767 1243.43 335.883 1245.73 334.044C1246.06 333.773 1246.7 333.074 1246.89 333.462C1247.89 335.459 1247.04 344.957 1247.47 348.024C1247.51 348.294 1247.18 352.902 1248.06 352.684C1249.46 352.332 1250.44 349.555 1250.97 348.607C1253.69 343.711 1256.73 339.476 1260.29 335.209C1260.91 334.464 1261.93 332.775 1262.62 333.462C1263.15 333.996 1262.71 339.115 1262.62 339.869C1262.52 340.664 1262.13 341.405 1262.04 342.199C1261.82 343.944 1261.8 345.718 1261.45 347.442C1260.92 350.095 1260.87 352.327 1260.87 355.014" fill="none" opacity="1" stroke="#FFFFFF" stroke-linecap="round" stroke-linejoin="round" stroke-width="5" vectornator:layerName="Кривая 44"/>
<path d="M1290 340.452C1291.11 338.215 1294.76 340.407 1295.24 337.539C1296.28 331.285 1285.37 329.362 1281.26 331.715C1276.63 334.357 1277.18 339.33 1277.18 343.947C1277.18 346.333 1276.83 346.489 1278.35 348.607C1283.6 355.959 1294 350.78 1297.57 344.529C1298.18 343.45 1300.11 337.988 1298.73 336.957C1296.71 335.444 1294.38 339.792 1294.07 341.034C1293.04 345.178 1293.7 349.614 1298.15 351.519C1305.82 354.808 1313.68 347.893 1317.95 342.199C1319.5 340.135 1322.34 336.4 1320.87 333.462C1319.85 331.431 1316.25 334.752 1315.62 335.792C1314.58 337.528 1315.3 337.46 1315.04 339.287C1314.15 345.531 1315.1 351.254 1323.2 350.354C1328.81 349.731 1334.24 343.405 1336.59 338.704C1337.12 337.643 1338.13 335.913 1338.34 334.627C1338.44 334.052 1338.34 332.297 1338.34 332.879C1338.34 340.442 1339.28 358.509 1328.44 358.509" fill="none" opacity="1" stroke="#FFFFFF" stroke-linecap="round" stroke-linejoin="round" stroke-width="5" vectornator:layerName="Кривая 45"/>
<path d="M1356.4 328.22C1355.12 325.67 1353.92 329.844 1353.49 331.132C1352 335.589 1351.74 340.474 1351.74 345.112C1351.74 346.527 1350.87 349.433 1352.9 349.772C1359.76 350.915 1370.68 339.955 1373.87 334.627C1374.44 333.675 1378.22 327.772 1375.62 326.472C1372.5 324.91 1370.37 331.737 1369.8 333.462C1367.49 340.376 1364.93 347.416 1369.21 353.849" fill="none" opacity="1" stroke="#FFFFFF" stroke-linecap="round" stroke-linejoin="round" stroke-width="5" vectornator:layerName="Кривая 46"/>
<path d="M1387.85 337.539C1383.92 345.415 1389.4 350.551 1397.17 348.607C1403.86 346.934 1423.79 332.564 1422.22 324.725C1421.62 321.724 1413.17 322.059 1411.15 322.395C1400.64 324.148 1397.79 332.448 1406.49 339.287C1409.37 341.55 1412.71 343.17 1415.81 345.112" fill="none" opacity="1" stroke="#FFFFFF" stroke-linecap="round" stroke-linejoin="round" stroke-width="5" vectornator:layerName="Кривая 47"/>
<path d="M1168.33 565.897C1168.12 565.262 1167.43 562.047 1166.02 562.047C1164.71 562.047 1165.4 564.596 1165.25 565.897C1165.08 567.428 1165.25 568.978 1165.25 570.518C1165.25 579.741 1164.48 588.96 1164.48 598.242C1164.48 601.323 1164.48 604.403 1164.48 607.484C1164.48 608.793 1164.16 612.061 1165.25 611.334C1166.72 610.355 1167.94 605.181 1168.33 603.633" fill="none" opacity="1" stroke="#FFFFFF" stroke-linecap="round" stroke-linejoin="round" stroke-width="5" vectornator:layerName="Кривая 61"/>
<path d="M1166.02 569.748C1166.02 558.975 1178.13 559.005 1186.81 557.426C1189.41 556.954 1191.25 555.929 1193.75 557.426C1194.57 557.92 1195.61 561.159 1196.06 562.047" fill="none" opacity="1" stroke="#FFFFFF" stroke-linecap="round" stroke-linejoin="round" stroke-width="5" vectornator:layerName="Кривая 62"/>
<path d="M1186.04 599.012C1195.47 599.012 1202.24 595.657 1209.92 590.541C1211.36 589.581 1218.33 585.04 1216.85 582.07C1215.73 579.835 1206.4 580.2 1204.53 582.07C1200.12 586.48 1199.63 598.683 1203.76 603.633C1212 613.52 1228.2 598.278 1233.02 592.081C1235.2 589.284 1238.04 586.27 1239.18 582.84C1239.34 582.353 1239.18 581.813 1239.18 581.3C1239.18 580.53 1239.73 578.445 1239.18 578.989C1237.68 580.496 1237.13 589.245 1236.87 591.311C1236.59 593.604 1237.13 595.946 1236.87 598.242C1236.49 601.65 1236.1 604.771 1236.1 608.254" fill="none" opacity="1" stroke="#FFFFFF" stroke-linecap="round" stroke-linejoin="round" stroke-width="5" vectornator:layerName="Кривая 63"/>
<path d="M1239.95 595.932C1246.02 592.9 1253.13 595.726 1259.21 592.081C1261.47 590.721 1265.19 581.063 1263.06 580.53C1260.39 579.864 1258.36 585.847 1257.67 587.461C1255.02 593.639 1255.35 601.637 1255.35 608.254" fill="none" opacity="1" stroke="#FFFFFF" stroke-linecap="round" stroke-linejoin="round" stroke-width="5" vectornator:layerName="Кривая 64"/>
<path d="M1269.22 596.702C1273.65 594.487 1279.72 596.23 1284.62 594.392C1288.29 593.014 1293.88 588.942 1295.4 585.15C1296.76 581.743 1294.04 579.599 1290.78 580.53C1283.1 582.723 1276.92 595.736 1276.92 602.863C1276.92 605.643 1276.37 609.658 1280 610.564C1293.06 613.829 1305.17 600.917 1311.57 591.311C1312.7 589.626 1317.3 583.484 1317.73 581.3C1317.85 580.737 1317.51 579.578 1316.96 579.759C1315.76 580.163 1313.42 586.533 1313.11 587.461C1310.54 595.19 1309.32 604.112 1307.72 612.105C1307.01 615.664 1306.83 619.314 1306.18 622.886C1305.99 623.928 1305.59 624.923 1305.41 625.967C1305.33 626.473 1305.05 627.87 1305.41 627.507C1309.25 623.67 1309.58 616.217 1310.8 611.334C1312.98 602.648 1316.45 588.797 1323.9 582.84C1327.78 579.731 1336.83 580.37 1337.76 585.92C1338.96 593.134 1336.37 603.272 1330.06 607.484" fill="none" opacity="1" stroke="#FFFFFF" stroke-linecap="round" stroke-linejoin="round" stroke-width="5" vectornator:layerName="Кривая 65"/>
<path d="M1357.01 590.541C1358.05 588.462 1360.46 586.801 1360.86 584.38C1361.96 577.761 1357.82 576.67 1351.62 578.219C1342.92 580.395 1334.83 593.62 1343.15 600.553C1348.15 604.719 1356.87 601.467 1360.86 597.472C1362.33 596.009 1362.74 593.766 1363.94 592.081C1364.69 591.037 1365.62 590.115 1366.25 589.001C1366.61 588.383 1369.74 580.984 1367.02 582.07C1363.33 583.545 1358.18 600.103 1361.63 602.863C1369.64 609.273 1379.89 597.786 1383.97 592.081C1385.73 589.61 1388.72 586.097 1386.28 582.84C1383.02 578.505 1375.45 599.262 1383.2 600.553C1390.13 601.708 1396.9 594.352 1400.91 589.771C1402.5 587.948 1403.42 585.625 1404.76 583.61C1405.4 582.655 1407.33 580.016 1406.3 580.53C1403.19 582.085 1404.26 593.178 1403.99 595.932C1403.3 602.851 1400.43 608.315 1394.75 612.105" fill="none" opacity="1" stroke="#FFFFFF" stroke-linecap="round" stroke-linejoin="round" stroke-width="5" vectornator:layerName="Кривая 66"/>
<path d="M1424.01 578.219C1424.01 576.91 1425.71 575.294 1424.78 574.369C1423.83 573.419 1418.95 583.726 1418.62 584.38C1416.65 588.318 1411.82 602.136 1418.62 604.403C1425.9 606.831 1443.26 590.645 1443.26 583.61C1443.26 581.899 1441.98 581.471 1440.95 582.84C1438.35 586.311 1436.91 593.416 1436.33 597.472C1435.95 600.18 1435.56 602.406 1435.56 605.173" fill="none" opacity="1" stroke="#FFFFFF" stroke-linecap="round" stroke-linejoin="round" stroke-width="5" vectornator:layerName="Кривая 67"/>
<path d="M1456.36 595.162C1451.21 597.735 1458.74 600.641 1461.75 599.783C1468.91 597.735 1488.88 585.192 1483.31 575.909C1478.86 568.495 1469.16 574.181 1466.37 579.759C1463.06 586.384 1467.33 592.276 1471.76 596.702" fill="none" opacity="1" stroke="#FFFFFF" stroke-linecap="round" stroke-linejoin="round" stroke-width="5" vectornator:layerName="Кривая 68"/>
<path d="M1267.68 643.68C1260.65 646.021 1270.76 664.473 1278.46 664.473C1285.57 664.473 1292.21 653.307 1293.86 647.53C1294.22 646.262 1295.55 644.178 1293.86 642.909C1289.04 639.294 1286.38 654.236 1286.16 656.002C1285.87 658.294 1286.16 660.622 1286.16 662.933" fill="none" opacity="1" stroke="#FFFFFF" stroke-linecap="round" stroke-linejoin="round" stroke-width="5" vectornator:layerName="Кривая 69"/>
<path d="M1152.16 688.347C1144.05 688.347 1161.94 676.045 1166.02 679.105C1169.31 681.572 1164.15 690.55 1162.94 692.967C1162.83 693.181 1158.32 698.068 1158.32 697.588C1158.32 694.337 1169.3 690.131 1172.18 693.737C1173.49 695.366 1173.72 698.711 1173.72 700.669C1173.72 710.64 1165.71 710.68 1157.55 710.68" fill="none" opacity="1" stroke="#FFFFFF" stroke-linecap="round" stroke-linejoin="round" stroke-width="5" vectornator:layerName="Кривая 70"/>
<path d="M1200.68 693.737C1200.68 691.388 1202.57 686.744 1201.45 684.496C1200.02 681.643 1192.67 682.973 1190.66 683.726C1183.58 686.384 1176.05 696.831 1182.96 703.749C1189.46 710.243 1198.69 699.511 1202.22 695.278C1203.71 693.481 1205.5 690.627 1206.07 688.347C1206.19 687.849 1206.58 686.806 1206.07 686.806C1202.39 686.806 1203.26 691.847 1202.99 693.737C1202.24 698.992 1200.95 704.96 1206.07 708.37" fill="none" opacity="1" stroke="#FFFFFF" stroke-linecap="round" stroke-linejoin="round" stroke-width="5" vectornator:layerName="Кривая 71"/>
<path d="M1225.32 682.956C1225.06 682.442 1225.12 681.416 1224.55 681.416C1223.98 681.416 1223.78 682.382 1223.78 682.956C1223.78 688.516 1226.93 695.037 1227.63 700.669C1227.67 701.014 1226.69 705.14 1229.17 704.519C1230.44 704.203 1239.05 689.665 1240.72 687.577C1241.66 686.408 1241.54 683.726 1243.03 683.726C1243.55 683.726 1243.16 684.768 1243.03 685.266C1242.7 686.607 1241.72 687.753 1241.49 689.117C1240.68 693.967 1238.97 701.623 1245.34 703.749C1254.81 706.905 1265.66 698.995 1269.99 691.427C1270.81 689.982 1273.64 686.508 1272.3 684.496C1271.57 683.407 1269.26 684.244 1268.45 685.266C1266.37 687.858 1266.95 697.635 1269.22 699.898C1277.33 708.015 1290.2 697.49 1295.4 691.427C1297.09 689.453 1300.13 683.393 1296.17 681.416C1293.77 680.216 1293.3 685.374 1293.09 686.806C1292.28 692.467 1293.35 698.923 1293.86 704.519C1294.1 707.179 1297.95 724.807 1295.4 726.083C1291.98 727.795 1276.74 721.758 1273.07 719.922" fill="none" opacity="1" stroke="#FFFFFF" stroke-linecap="round" stroke-linejoin="round" stroke-width="5" vectornator:layerName="Кривая 72"/>
<path d="M1326.21 689.117C1326.21 672.574 1300.29 695.76 1311.57 702.209C1321.01 707.599 1338.76 703.319 1345.46 695.278C1348.78 691.288 1350.14 686.362 1350.85 681.416C1350.9 681.074 1350.25 674.311 1348.54 676.025C1347.09 677.474 1347.77 682.728 1347.77 684.496C1347.77 693.224 1347.77 701.952 1347.77 710.68" fill="none" opacity="1" stroke="#FFFFFF" stroke-linecap="round" stroke-linejoin="round" stroke-width="5" vectornator:layerName="Кривая 73"/>
<path d="M1362.4 686.806C1364.91 685.551 1366.48 685.266 1369.33 685.266C1370.1 685.266 1367.78 685.14 1367.02 685.266C1365.18 685.573 1363.49 686.6 1361.63 686.806C1357.07 687.313 1352.13 687.246 1347.77 689.117C1347.25 689.338 1344.46 690.845 1344.69 692.197C1345.44 696.7 1351.99 698.29 1355.47 699.898C1363.08 703.409 1370.81 706.034 1378.57 709.14" fill="none" opacity="1" stroke="#FFFFFF" stroke-linecap="round" stroke-linejoin="round" stroke-width="5" vectornator:layerName="Кривая 74"/>
<path d="M1055.4 214.762C1054.76 212.184 1054.68 209.465 1053.84 206.943C1053.59 206.201 1053.84 208.507 1053.84 209.289C1053.84 210.331 1053.84 211.374 1053.84 212.416C1053.84 214.762 1053.84 217.108 1053.84 219.454C1053.84 222.852 1054.22 226.244 1054.62 229.619C1055.76 239.29 1057.74 248.374 1060.09 257.769C1060.54 259.557 1062.52 262.419 1060.87 263.243C1059.15 264.106 1057.63 259.382 1056.96 258.551C1053.98 254.818 1050.51 250.326 1048.36 246.04" fill="none" opacity="1" stroke="#FFFFFF" stroke-linecap="round" stroke-linejoin="round" stroke-width="5" vectornator:layerName="Кривая 75"/>
<path d="M1061.66 263.243C1058.48 256.898 1066.79 246.726 1069.48 241.349" fill="none" opacity="1" stroke="#FFFFFF" stroke-linecap="round" stroke-linejoin="round" stroke-width="5" vectornator:layerName="Кривая 76"/>
<path d="M1053.05 454.038C1052.57 453.077 1053.35 450.91 1052.27 450.91C1050.6 450.91 1050.19 455.475 1049.93 456.384C1048.47 461.478 1048.36 467.535 1048.36 472.805C1048.36 483.348 1047.36 496.394 1050.71 506.429C1051.05 507.439 1053.05 514.092 1049.93 513.466C1045.93 512.668 1042.74 505.595 1040.54 502.519C1038.54 499.715 1035.81 496.969 1034.29 493.918" fill="none" opacity="1" stroke="#FFFFFF" stroke-linecap="round" stroke-linejoin="round" stroke-width="5" vectornator:layerName="Кривая 77"/>
<path d="M1049.93 508.775C1055.92 502.783 1061.1 497.462 1067.91 492.354" fill="none" opacity="1" stroke="#FFFFFF" stroke-linecap="round" stroke-linejoin="round" stroke-width="5" vectornator:layerName="Кривая 78"/>
<path d="M1068.69 726.156C1068.17 725.895 1067.13 724.791 1067.13 725.374C1067.13 726.989 1074.78 737.342 1075.73 738.667C1077.25 740.788 1078.92 742.793 1080.42 744.923C1090.39 759.038 1100.56 773.003 1112.48 785.584C1120.31 793.846 1126.64 803.06 1134.38 811.388C1141.91 819.504 1150.89 826.381 1157.05 835.629C1157.99 837.033 1169.02 851.342 1168.78 852.05C1168.28 853.554 1165.41 852.147 1164.09 851.268C1162.98 850.528 1148.45 840.803 1148.45 840.32C1148.45 839.935 1152.14 842.54 1152.36 842.666C1153.37 843.245 1154.48 843.652 1155.49 844.23C1159.94 846.772 1164.48 849.466 1168.78 852.05C1168.87 852.102 1170.91 854.943 1171.91 853.613C1174.45 850.222 1168.99 840.641 1168 837.193" fill="none" opacity="1" stroke="#FFFFFF" stroke-linecap="round" stroke-linejoin="round" stroke-width="5" vectornator:layerName="Кривая 79"/>
<path d="M1177.96 886.064C1177.03 885.442 1180.12 885.071 1180.7 884.109C1181.48 882.806 1177.98 885.506 1176.79 886.455C1175.06 887.837 1173.78 889.708 1172.1 891.147C1166.63 895.833 1161.28 900.738 1155.68 905.222C1154.47 906.188 1151.04 908.013 1150.2 909.132C1149.69 909.817 1150.26 914.965 1150.2 915.387C1149.1 923.083 1149.74 931.109 1148.64 938.846C1148.31 941.156 1147.61 942.98 1147.08 945.101C1146.58 947.064 1147.57 949.394 1147.08 951.357C1146.47 953.795 1144.84 956.484 1145.51 959.176C1145.96 960.989 1163.65 967.568 1166.62 968.56C1167.35 968.802 1176.53 974.289 1176.79 974.033C1177.2 973.621 1175.68 972.954 1176.01 972.47C1177.27 970.58 1182.01 971.99 1183.83 971.688C1194.17 969.964 1205.32 970.906 1215.89 970.906C1217.71 970.906 1229.07 970.234 1229.96 969.342C1230.83 968.476 1231.19 964.485 1232.31 963.086C1235.14 959.547 1237.33 956.414 1240.13 952.921C1241.24 951.533 1243.98 950.264 1244.82 949.011C1245.59 947.86 1244.82 934.684 1244.82 932.59C1244.82 916.391 1244.42 900.132 1232.31 888.019C1230.1 885.807 1222.78 887.309 1219.8 886.455C1212.63 884.408 1203.82 885.673 1196.34 885.673C1194.48 885.673 1191.9 885.22 1190.08 885.673C1186.4 886.593 1183.26 888.061 1179.13 887.237C1178.56 887.123 1177.16 886.867 1177.57 886.455C1178.33 885.695 1179.38 887.007 1177.96 886.064Z" fill="#e94420" fill-rule="nonzero" opacity="1" stroke="#FFFFFF" stroke-linecap="round" stroke-linejoin="round" stroke-width="5" vectornator:layerName="Кривая 80"/>
<path d="M1213.54 913.823C1213.8 913.302 1214.91 912.26 1214.32 912.26C1211.64 912.26 1206.56 919.419 1204.94 920.861C1203.69 921.97 1202.21 922.809 1201.03 923.989C1195.86 929.157 1190.98 934.92 1186.17 940.41C1184.2 942.667 1182.02 944.018 1180.7 946.665" fill="none" opacity="1" stroke="#ffffff" stroke-linecap="round" stroke-linejoin="round" stroke-width="5" vectornator:layerName="Кривая 81"/>
<path d="M1176.79 912.26C1172.35 903.372 1184.78 920.08 1185.39 920.861C1192.16 929.567 1198.05 938.531 1208.07 943.537" fill="none" opacity="1" stroke="#ffffff" stroke-linecap="round" stroke-linejoin="round" stroke-width="5" vectornator:layerName="Кривая 82"/>
<path d="M1297.57 909.578C1297.57 907.31 1297.68 903.617 1296.8 901.853C1296.44 901.125 1296.14 903.365 1296.03 904.171C1295.88 905.19 1296.03 906.231 1296.03 907.26C1296.03 910.35 1296.03 913.44 1296.03 916.53C1296.03 927.172 1296.8 937.61 1296.8 948.2" fill="none" opacity="1" stroke="#FFFFFF" stroke-linecap="round" stroke-linejoin="round" stroke-width="5" vectornator:layerName="Кривая 83"/>
<path d="M1298.73 916.916C1296.19 913.316 1292.78 905.18 1296.03 900.308C1299.96 894.41 1310.39 896.905 1314.57 901.081C1317.83 904.338 1321.7 913.721 1318.43 918.075C1316.88 920.138 1311.39 920.392 1309.16 920.392C1307.36 920.392 1305.24 921.418 1303.75 920.392C1300.91 918.42 1299.41 917.868 1298.73 916.916Z" fill="none" opacity="1" stroke="#FFFFFF" stroke-linecap="round" stroke-linejoin="round" stroke-width="5" vectornator:layerName="Кривая 84"/>
<path d="M1322.29 931.979C1323.35 929.855 1326.87 930.434 1329.24 930.434C1335.28 930.434 1343.48 930.376 1348.56 926.572C1352.12 923.899 1348.67 921.606 1346.24 920.392C1340.59 917.567 1329.26 916.251 1325.38 922.709C1321.95 928.434 1326.72 935.251 1331.56 938.158C1339.29 942.798 1350.74 944.419 1358.6 939.703" fill="none" opacity="1" stroke="#FFFFFF" stroke-linecap="round" stroke-linejoin="round" stroke-width="5" vectornator:layerName="Кривая 85"/>
<path d="M1367.09 920.392C1360.43 917.058 1365.34 936.486 1366.32 938.931C1366.75 940 1366.91 942.659 1367.87 942.02C1370.03 940.581 1371.2 933.484 1372.5 931.206C1374.59 927.545 1373.46 930.057 1376.36 926.572C1376.9 925.929 1380.86 919.337 1382.54 922.709C1383.23 924.091 1382.54 925.799 1382.54 927.344C1382.54 933.545 1382.65 937.488 1387.18 942.02" fill="none" opacity="1" stroke="#FFFFFF" stroke-linecap="round" stroke-linejoin="round" stroke-width="5" vectornator:layerName="Кривая 86"/>
<path d="M1403.79 931.592C1406.49 931.592 1404.33 926.184 1404.17 923.482C1404.09 922.171 1403.4 926.031 1403.4 927.344C1403.4 930.947 1403.26 933.661 1405.72 936.613C1415.52 948.382 1428.89 936.761 1428.89 924.254C1428.89 918.21 1421.46 918.075 1417.3 918.075C1409.65 918.075 1400.85 919.53 1396.45 926.572C1394.57 929.58 1393.9 932.865 1396.45 935.841C1397.29 936.818 1398.73 939.164 1399.54 938.158C1402.71 934.198 1401.08 931.592 1403.79 931.592Z" fill="none" opacity="1" stroke="#FFFFFF" stroke-linecap="round" stroke-linejoin="round" stroke-width="5" vectornator:layerName="Кривая 87"/>
<path d="M1448.97 917.302C1446.88 911.037 1446.66 925.943 1446.66 927.344C1446.66 934.886 1446.38 942.242 1445.88 949.745C1445.66 953.095 1445.84 956.509 1445.11 959.787C1444.93 960.581 1444.34 962.104 1444.34 962.104C1444.34 962.104 1445.29 958.475 1445.88 956.697C1447.2 952.763 1448.23 949.221 1448.97 945.11C1449.94 939.783 1448.73 917.364 1455.15 915.757C1461.71 914.119 1478.45 923.185 1475.24 931.206C1472.93 936.979 1455.06 935.841 1449.75 935.841" fill="none" opacity="1" stroke="#FFFFFF" stroke-linecap="round" stroke-linejoin="round" stroke-width="5" vectornator:layerName="Кривая 88"/>
<path d="M1490.69 908.033C1490.69 901.08 1491.38 915.739 1491.46 916.53C1492.14 923.358 1493 929.676 1493 936.613C1493 937.128 1492.94 935.579 1493 935.068C1493.2 933.514 1493.28 931.92 1493.78 930.434C1494.07 929.553 1494.86 928.922 1495.32 928.116C1496.95 925.258 1502.73 914.29 1506.13 913.44C1510.1 912.449 1507.96 930.755 1510 931.979C1511.78 933.047 1517.73 925.125 1518.49 924.254C1521.99 920.257 1525.53 916.443 1529.31 912.668C1529.41 912.568 1531.67 909.984 1532.4 910.35C1535.27 911.786 1533.94 918.767 1533.94 921.164C1533.94 924.254 1533.94 927.344 1533.94 930.434" fill="none" opacity="1" stroke="#FFFFFF" stroke-linecap="round" stroke-linejoin="round" stroke-width="5" vectornator:layerName="Кривая 89"/>
<path d="M977.327 732.744C977.327 725.577 971.601 735.65 970.507 737.291C965.227 745.21 960.206 752.768 955.729 761.162C942.851 785.31 930.435 809.591 915.944 832.775C914.474 835.129 904.381 855.51 902.304 855.51C900.816 855.51 901.167 850.753 901.167 846.416C901.167 841.084 903.558 836.734 904.577 831.639C904.956 829.744 903.782 825.955 905.714 825.955C906.472 825.955 905.898 827.493 905.714 828.228C905.245 830.103 904.85 831.999 904.577 833.912C904.329 835.65 901.866 855.072 902.304 855.51C906.198 859.404 908.626 853.251 910.261 850.963C917.001 841.526 926.014 837.113 935.268 830.502" fill="none" opacity="1" stroke="#FFFFFF" stroke-linecap="round" stroke-linejoin="round" stroke-width="5" vectornator:layerName="Кривая 105"/>
<path d="M847.517 944.285C848.654 939.508 850.449 938.434 853.679 935.203C855.723 933.16 857.77 930.399 859.517 928.068C860.098 927.295 860.131 924.79 860.815 925.474C861.273 925.932 860.525 926.839 860.815 927.42C862.472 930.733 870.224 937.477 873.139 940.393C873.594 940.848 878.101 944.99 878.328 944.933C880.426 944.409 880.964 941.503 882.22 939.744C885.396 935.297 888.592 930.488 891.95 926.122C897.757 918.573 903.019 910.499 908.815 902.771C911.828 898.753 915.656 895.14 918.545 891.095C919.817 889.314 919.608 888.086 921.14 886.554C922.458 885.236 924.66 880.624 926.329 880.068C927.904 879.543 932.673 883.888 934.113 884.608C935.948 885.526 939.951 886.554 939.951 886.554C939.951 886.554 937.538 888.041 936.707 889.149C934.519 892.066 932.208 895.107 930.221 898.23C925.878 905.055 922.126 912.483 917.248 918.987C907.547 931.922 898.04 945.141 890.004 959.204C888.021 962.675 886.196 966.2 884.166 969.582C883.838 970.13 883.058 973.844 882.22 974.123C880.114 974.825 873.593 966.365 872.491 965.042C868.237 959.938 861.35 955.771 856.274 951.42C855.337 950.616 849.633 947.99 849.139 946.879C848.415 945.25 847.251 945.403 847.517 944.285Z" fill="#68c40c" fill-rule="nonzero" opacity="1" stroke="#FFFFFF" stroke-linecap="round" stroke-linejoin="round" stroke-width="5" vectornator:layerName="Кривая 106"/>
<path d="M1051.31 566.375C1050.91 566.418 1050.48 566.5 1050.09 566.5C1042.79 566.5 1036.27 567.272 1029.16 568.062C1027.62 568.233 1019.23 567.696 1018.28 569.594C1017.88 570.393 1015.66 581.469 1015.97 582.031C1016.29 582.608 1018.43 581.999 1017.91 582.406C1013.88 585.563 1008.81 587.97 1004.31 591.344C1002.52 592.691 999.691 597.79 998.125 598.312C996.792 598.757 994.286 595.627 993.469 595.219C990.281 593.625 981.483 590.675 977.938 592.094C973.86 593.725 970.318 609.285 969.406 613.844C968.847 616.637 966.281 619.352 966.281 622.375C966.281 624.551 978.613 628.631 980.25 627.812C980.767 627.554 980.622 625.841 981.031 626.25C981.458 626.677 980.733 636.416 981.031 637.906C981.29 639.2 981.223 640.602 981.812 641.781C980.173 641.781 974.841 646.049 973.281 647.219C972.529 647.783 969.89 650.982 968.094 651.656C969.234 653.9 970.697 658.241 970.938 658.844C973.568 665.421 976.065 670.065 981.812 674.375C982.847 675.151 982.929 677.06 984.156 677.469C985.563 677.938 995.55 666.494 998.875 668.156C1000.5 668.967 1002.25 675.238 1005.88 676.688C1009.53 678.15 1008.19 672.003 1008.97 675.906C1009.55 678.836 1007.83 691.559 1009.75 693C1010.66 693.685 1014.85 692.219 1015.97 692.219C1023.21 692.219 1029.16 691.083 1036.12 689.094C1037.88 688.591 1040.27 689.637 1041.56 688.344C1042.39 687.515 1040.92 674.696 1043.12 673.594C1044.74 672.785 1048.14 672.813 1050.09 672.031C1051.17 671.602 1052.12 670.103 1053.22 670.469C1054.28 670.824 1056.85 677.813 1057.09 679.031C1057.21 679.633 1056.73 683.305 1057.88 683.688C1058.06 683.748 1064.37 678.719 1064.84 678.25C1067.14 675.956 1071.55 675.551 1074.16 673.594C1076.76 671.639 1078.63 669.398 1081.16 667.375C1081.88 666.798 1087.6 661.421 1087.34 660.406C1086.88 658.546 1085.27 659.086 1084.25 658.062C1082.73 656.546 1080.18 650.85 1078.03 650.312C1077.47 650.172 1076.5 651.094 1076.5 651.094C1076.5 651.094 1078.85 648.7 1079.59 647.219C1080.92 644.558 1082.89 640.806 1083.47 637.906C1083.95 635.495 1082.08 629.665 1083.47 627.812C1084.72 626.14 1090.1 625.36 1092 623.938C1093.63 622.715 1095.03 621.253 1096.66 620.031C1097.12 619.684 1098.04 619.83 1098.22 619.281C1098.4 618.732 1097.85 618.128 1097.44 617.719C1094.06 614.342 1092.03 615.814 1089.69 609.969C1088.56 607.162 1083.6 593.656 1080.38 593.656C1077.59 593.656 1070.81 598.305 1068.72 599.875C1068.13 600.314 1067.92 601.406 1067.19 601.406C1066.03 601.406 1066.14 599.347 1065.62 598.312C1064.23 595.529 1062.8 593.01 1060.97 590.562C1060.17 589.501 1054.88 583.511 1053.22 584.344C1053.22 583.308 1053.22 582.281 1053.22 581.25C1053.22 579.452 1053.64 567.101 1052.44 566.5C1052.09 566.326 1051.71 566.332 1051.31 566.375ZM968.094 651.656C967.69 650.861 967.308 650.313 967.062 650.312C966.545 650.312 966.6 651.644 967.062 651.875C967.328 652.008 967.729 651.793 968.094 651.656ZM1031.78 607.031C1035.35 607.436 1038.55 609.568 1041.38 611.688C1049.4 617.706 1059.6 623.057 1050.97 634.562C1043.14 645.006 1022.61 653.418 1011.88 642.688C1008.42 639.235 1005.46 632.971 1006.72 627.938C1007.32 625.53 1009.07 623.625 1009.66 621.281C1009.88 620.375 1010.77 619.315 1011.78 618.281C1011.38 618.221 1013.37 616.215 1014.09 615.375C1014.77 614.583 1015.46 613.794 1016.31 613.188C1019.62 610.825 1024.04 608.294 1028.09 607.281C1029.36 606.965 1030.59 606.896 1031.78 607.031Z" fill="#8b8b8b" fill-rule="nonzero" opacity="1" stroke="#FFFFFF" stroke-linecap="round" stroke-linejoin="round" stroke-width="5" vectornator:layerName="Кривая 109"/>
<path d="M328.04 114.473C324.311 110.743 326.432 120.467 326.432 123.317C326.432 132.415 328.17 141.558 328.844 150.654C330.42 171.926 333.974 192.269 336.884 213.367C338.843 227.57 338.888 241.686 339.296 255.98C339.918 277.731 343.315 299.366 344.121 321.106C344.498 331.309 345.321 341.457 345.729 351.659C346.232 364.233 345.157 376.877 345.729 389.448C346.595 408.499 350.553 427.461 350.553 446.533C350.553 453.678 351.514 460.672 353.769 467.437C354.653 470.089 356.29 475.954 357.789 471.458" fill="none" opacity="1" stroke="#FFFFFF" stroke-linecap="round" stroke-linejoin="round" stroke-width="7.5" vectornator:layerName="Кривая 110"/>
<path d="M328.844 112.865C325.825 106.825 338.377 108.845 341.709 108.845C357.218 108.845 372.844 109.398 388.342 108.845C404.433 108.27 420.492 106.987 436.583 106.432C448.629 106.017 460.717 106.821 472.764 106.432C484.557 106.052 495.523 105.589 507.337 106.432C549.59 109.451 592.105 105.816 634.372 108.04C639.751 108.324 645.073 109.365 650.452 109.649C671.227 110.742 692.351 109.649 713.166 109.649C730.854 109.649 748.543 109.649 766.231 109.649C771.829 109.649 779.693 107.834 783.92 112.061" fill="none" opacity="1" stroke="#FFFFFF" stroke-linecap="round" stroke-linejoin="round" stroke-width="7.5" vectornator:layerName="Кривая 111"/>
<path d="M783.92 118.493C784.237 118.175 790.059 113.886 790.352 114.473C791.985 117.739 788.855 121.374 787.94 124.121C786.193 129.361 785.783 136.441 785.528 141.809C785.058 151.679 784.85 162.542 785.528 172.362C786.564 187.386 789.793 202.301 790.352 217.387C790.914 232.56 792.497 247.411 795.176 262.412C797.105 273.214 800.392 283.633 801.608 294.573C804.462 320.262 805.99 346.074 808.844 371.759C810.496 386.627 809.648 401.826 809.648 416.784C809.648 423.524 809.124 430.487 811.256 436.885" fill="none" opacity="1" stroke="#FFFFFF" stroke-linecap="round" stroke-linejoin="round" stroke-width="7.5" vectornator:layerName="Кривая 112"/>
<path d="M347.337 479.498C347.337 475.238 367.645 476.506 371.457 476.282C400.352 474.582 429.38 475.315 458.291 473.87C473.364 473.116 488.398 470.991 503.317 469.046C519.08 466.989 534.992 466.371 550.754 464.221C577.136 460.624 603.91 460.433 630.352 457.789C688.889 451.936 747.803 445.729 806.432 445.729" fill="none" opacity="1" stroke="#FFFFFF" stroke-linecap="round" stroke-linejoin="round" stroke-width="7.5" vectornator:layerName="Кривая 113"/>
<path d="M402.316 209.3C402.316 207.76 402.63 206.004 402.996 204.542C403.119 204.051 403.317 202.825 403.676 203.183C403.725 203.233 404.328 214.337 404.355 214.737C404.492 216.784 404.82 218.814 405.035 220.854C406.317 233.032 407.619 245.34 408.433 257.555C408.467 258.058 408.565 279.04 411.831 272.507" fill="none" opacity="1" stroke="#FFFFFF" stroke-linecap="round" stroke-linejoin="round" stroke-width="5" vectornator:layerName="Кривая 114"/>
<path d="M403.676 204.542C402.996 204.542 400.957 204.542 401.637 204.542C409.261 204.542 416.502 202.714 424.065 201.824C429.507 201.184 434.933 200.413 440.377 199.785C449.855 198.691 459.481 198.795 468.922 197.746C470.921 197.524 475.036 196.046 477.078 197.066C478.86 197.957 479.84 199.828 481.155 201.144C484.579 204.567 488.273 207.492 491.35 211.339C493.813 214.417 498.868 218.012 497.467 222.213" fill="none" opacity="1" stroke="#FFFFFF" stroke-linecap="round" stroke-linejoin="round" stroke-width="5" vectornator:layerName="Кривая 115"/>
<path d="M496.787 223.573C496.787 238.525 491.276 260.804 498.147 274.546" fill="none" opacity="1" stroke="#FFFFFF" stroke-linecap="round" stroke-linejoin="round" stroke-width="5" vectornator:layerName="Кривая 116"/>
<path d="M405.035 284.741C422.298 284.741 439.706 281.305 456.688 278.624C463.886 277.488 472.246 277.516 479.117 275.226" fill="none" opacity="1" stroke="#FFFFFF" stroke-linecap="round" stroke-linejoin="round" stroke-width="5" vectornator:layerName="Кривая 117"/>
<path d="M475.718 203.183C475.718 202.277 475.938 201.344 475.718 200.464C475.595 199.973 475.199 198.625 475.039 199.105C474.563 200.532 475.229 202.34 475.039 203.863C474.467 208.433 473.505 212.907 473 217.456C472.789 219.349 470.479 224.362 470.961 226.291C471.228 227.358 474.683 226.41 477.078 225.611C483.753 223.386 490.297 220.854 497.467 220.854" fill="none" opacity="1" stroke="#FFFFFF" stroke-linecap="round" stroke-linejoin="round" stroke-width="5" vectornator:layerName="Кривая 118"/>
<path d="M450.571 233.088C448.782 229.509 445.66 231.934 443.775 234.447C439.64 239.96 427.463 252.966 427.463 259.594" fill="none" opacity="1" stroke="#FFFFFF" stroke-linecap="round" stroke-linejoin="round" stroke-width="5" vectornator:layerName="Кривая 119"/>
<path d="M424.065 231.728C427.957 233.675 430.798 237.247 434.26 239.884C441.508 245.407 455.665 250.063 458.047 259.594" fill="none" opacity="1" stroke="#FFFFFF" stroke-linecap="round" stroke-linejoin="round" stroke-width="5" vectornator:layerName="Кривая 120"/>
<path d="M524.213 244.532C524.213 242.992 524.527 241.236 524.893 239.774C525.016 239.283 525.214 238.057 525.572 238.415C525.622 238.465 526.225 249.569 526.252 249.969C526.388 252.016 526.717 254.046 526.932 256.086C528.214 268.264 529.516 280.572 530.33 292.787C530.363 293.29 530.462 314.272 533.728 307.739" fill="none" opacity="1" stroke="#FFFFFF" stroke-linecap="round" stroke-linejoin="round" stroke-width="5" vectornator:layerName="Кривая 121"/>
<path d="M525.572 239.774C524.893 239.774 522.854 239.774 523.533 239.774C531.158 239.774 538.398 237.946 545.962 237.056C551.404 236.416 556.83 235.645 562.273 235.017C571.752 233.923 581.378 234.027 590.819 232.978C592.818 232.756 596.933 231.278 598.974 232.298C600.757 233.189 601.737 235.061 603.052 236.376C606.476 239.8 610.17 242.724 613.247 246.571C615.71 249.65 620.764 253.244 619.364 257.445" fill="none" opacity="1" stroke="#FFFFFF" stroke-linecap="round" stroke-linejoin="round" stroke-width="5" vectornator:layerName="Кривая 122"/>
<path d="M618.684 258.805C618.684 273.757 613.172 296.036 620.044 309.778" fill="none" opacity="1" stroke="#FFFFFF" stroke-linecap="round" stroke-linejoin="round" stroke-width="5" vectornator:layerName="Кривая 123"/>
<path d="M526.932 319.973C544.195 319.973 561.603 316.537 578.585 313.856C585.783 312.72 594.142 312.748 601.013 310.458" fill="none" opacity="1" stroke="#FFFFFF" stroke-linecap="round" stroke-linejoin="round" stroke-width="5" vectornator:layerName="Кривая 124"/>
<path d="M597.615 238.415C597.615 237.509 597.835 236.576 597.615 235.697C597.492 235.205 597.096 233.857 596.935 234.337C596.46 235.765 597.126 237.572 596.935 239.095C596.364 243.665 595.402 248.139 594.897 252.688C594.686 254.581 592.375 259.594 592.858 261.523C593.124 262.59 596.58 261.642 598.974 260.844C605.65 258.618 612.194 256.086 619.364 256.086" fill="none" opacity="1" stroke="#FFFFFF" stroke-linecap="round" stroke-linejoin="round" stroke-width="5" vectornator:layerName="Кривая 125"/>
<path d="M572.468 268.32C570.679 264.741 567.557 267.166 565.672 269.679C561.537 275.192 549.36 288.198 549.36 294.826" fill="none" opacity="1" stroke="#FFFFFF" stroke-linecap="round" stroke-linejoin="round" stroke-width="5" vectornator:layerName="Кривая 126"/>
<path d="M545.962 266.96C549.854 268.907 552.695 272.479 556.157 275.116C563.405 280.639 577.562 285.296 579.944 294.826" fill="none" opacity="1" stroke="#FFFFFF" stroke-linecap="round" stroke-linejoin="round" stroke-width="5" vectornator:layerName="Кривая 127"/>
<path d="M656.439 208.85C656.439 207.311 656.753 205.555 657.118 204.093C657.241 203.601 657.44 202.375 657.798 202.734C657.847 202.783 658.451 213.887 658.478 214.288C658.614 216.335 658.942 218.364 659.157 220.404C660.439 232.583 661.741 244.891 662.555 257.106C662.589 257.609 662.687 278.591 665.954 272.058" fill="none" opacity="1" stroke="#FFFFFF" stroke-linecap="round" stroke-linejoin="round" stroke-width="5" vectornator:layerName="Кривая 128"/>
<path d="M657.798 204.093C657.118 204.093 655.079 204.093 655.759 204.093C663.384 204.093 670.624 202.264 678.187 201.374C683.629 200.734 689.056 199.963 694.499 199.335C703.977 198.242 713.603 198.345 723.044 197.296C725.043 197.074 729.159 195.596 731.2 196.617C732.982 197.508 733.962 199.379 735.278 200.695C738.701 204.118 742.395 207.043 745.473 210.889C747.935 213.968 752.99 217.562 751.589 221.764" fill="none" opacity="1" stroke="#FFFFFF" stroke-linecap="round" stroke-linejoin="round" stroke-width="5" vectornator:layerName="Кривая 129"/>
<path d="M750.91 223.123C750.91 238.076 745.398 260.355 752.269 274.097" fill="none" opacity="1" stroke="#FFFFFF" stroke-linecap="round" stroke-linejoin="round" stroke-width="5" vectornator:layerName="Кривая 130"/>
<path d="M659.157 284.291C676.421 284.291 693.829 280.856 710.81 278.175C718.008 277.038 726.368 277.067 733.239 274.776" fill="none" opacity="1" stroke="#FFFFFF" stroke-linecap="round" stroke-linejoin="round" stroke-width="5" vectornator:layerName="Кривая 131"/>
<path d="M729.841 202.734C729.841 201.827 730.06 200.894 729.841 200.015C729.718 199.524 729.321 198.175 729.161 198.656C728.685 200.083 729.351 201.891 729.161 203.413C728.59 207.983 727.627 212.458 727.122 217.006C726.912 218.9 724.601 223.913 725.083 225.842C725.35 226.909 728.806 225.96 731.2 225.162C737.876 222.937 744.419 220.404 751.589 220.404" fill="none" opacity="1" stroke="#FFFFFF" stroke-linecap="round" stroke-linejoin="round" stroke-width="5" vectornator:layerName="Кривая 132"/>
<path d="M704.694 232.638C702.904 229.059 699.782 231.484 697.897 233.997C693.763 239.51 681.586 252.517 681.586 259.144" fill="none" opacity="1" stroke="#FFFFFF" stroke-linecap="round" stroke-linejoin="round" stroke-width="5" vectornator:layerName="Кривая 133"/>
<path d="M678.187 231.279C682.08 233.225 684.92 236.797 688.382 239.435C695.631 244.957 709.787 249.614 712.17 259.144" fill="none" opacity="1" stroke="#FFFFFF" stroke-linecap="round" stroke-linejoin="round" stroke-width="5" vectornator:layerName="Кривая 134"/>
<path d="M626.902 336.915C626.902 335.375 627.216 333.619 627.582 332.158C627.705 331.666 627.903 330.44 628.261 330.798C628.311 330.848 628.914 341.952 628.941 342.352C629.078 344.399 629.406 346.429 629.621 348.469C630.903 360.648 632.205 372.956 633.019 385.17C633.053 385.673 633.151 406.655 636.417 400.122" fill="none" opacity="1" stroke="#FFFFFF" stroke-linecap="round" stroke-linejoin="round" stroke-width="5" vectornator:layerName="Кривая 142"/>
<path d="M628.261 332.158C627.582 332.158 625.543 332.158 626.223 332.158C633.847 332.158 641.088 330.329 648.651 329.439C654.093 328.799 659.519 328.028 664.963 327.4C674.441 326.306 684.067 326.41 693.508 325.361C695.507 325.139 699.622 323.661 701.664 324.681C703.446 325.573 704.426 327.444 705.741 328.759C709.165 332.183 712.859 335.107 715.936 338.954C718.399 342.033 723.453 345.627 722.053 349.828" fill="none" opacity="1" stroke="#FFFFFF" stroke-linecap="round" stroke-linejoin="round" stroke-width="5" vectornator:layerName="Кривая 143"/>
<path d="M721.373 351.188C721.373 366.14 715.862 388.419 722.733 402.161" fill="none" opacity="1" stroke="#FFFFFF" stroke-linecap="round" stroke-linejoin="round" stroke-width="5" vectornator:layerName="Кривая 144"/>
<path d="M629.621 412.356C646.884 412.356 664.292 408.921 681.274 406.239C688.472 405.103 696.831 405.131 703.702 402.841" fill="none" opacity="1" stroke="#FFFFFF" stroke-linecap="round" stroke-linejoin="round" stroke-width="5" vectornator:layerName="Кривая 145"/>
<path d="M700.304 330.798C700.304 329.892 700.524 328.959 700.304 328.08C700.181 327.588 699.785 326.24 699.625 326.72C699.149 328.148 699.815 329.956 699.625 331.478C699.053 336.048 698.091 340.522 697.586 345.071C697.375 346.965 695.064 351.977 695.547 353.906C695.813 354.973 699.269 354.025 701.664 353.227C708.339 351.002 714.883 348.469 722.053 348.469" fill="none" opacity="1" stroke="#FFFFFF" stroke-linecap="round" stroke-linejoin="round" stroke-width="5" vectornator:layerName="Кривая 146"/>
<path d="M675.157 360.703C673.368 357.124 670.246 359.549 668.361 362.062C664.226 367.575 652.049 380.581 652.049 387.209" fill="none" opacity="1" stroke="#FFFFFF" stroke-linecap="round" stroke-linejoin="round" stroke-width="5" vectornator:layerName="Кривая 147"/>
<path d="M648.651 359.344C652.543 361.29 655.384 364.862 658.846 367.499C666.094 373.022 680.251 377.679 682.633 387.209" fill="none" opacity="1" stroke="#FFFFFF" stroke-linecap="round" stroke-linejoin="round" stroke-width="5" vectornator:layerName="Кривая 148"/>
<path d="M677.26 604.039C677.88 602.798 674.584 602.609 674.128 601.299C673.014 598.095 674.128 594.515 674.128 591.123C674.128 583.814 674.533 576.331 673.346 569.204C672.938 566.757 672.15 564.464 670.997 562.159C670.736 561.637 670.03 561.147 670.214 560.594C670.486 559.779 678.017 557.841 678.825 558.245C680.61 559.138 678.825 567.561 678.825 569.204C678.825 577.588 678.43 586.011 679.608 594.254C679.892 596.24 679.122 598.571 679.608 600.516C680.303 603.297 686.697 600.9 689.001 600.516C695.488 599.435 702.183 600.015 708.571 598.951C709.926 598.725 711.742 597.405 713.268 598.168C716.324 599.696 711.399 603.437 710.137 603.647C703.689 604.722 697.276 605.213 690.567 605.213C688.459 605.213 683.783 604.299 681.956 605.213C680.966 605.708 680.391 606.778 679.608 607.561C677.339 609.831 679.192 616.027 679.608 618.52C680.512 623.943 681.174 631.1 681.174 636.525C681.174 638.644 683.465 643.738 680.391 644.353C678.856 644.66 676.801 645.46 675.694 644.353C674.887 643.546 675.694 635.933 675.694 634.959C675.694 630.562 676.554 625.168 675.694 620.869C675.149 618.146 674.128 616.891 674.128 613.824C674.128 612.857 674.75 607.4 674.128 606.778C673.368 606.018 672.073 607.561 670.997 607.561C669.171 607.561 667.344 607.561 665.518 607.561C658.912 607.561 652.267 607.26 645.948 605.996C644.677 605.742 638.249 607.303 639.685 604.43C640.655 602.49 643.2 601.689 645.165 602.082C647.249 602.499 649.24 604.118 651.427 604.43C657.28 605.266 664.361 605.213 670.214 605.213C672.041 605.213 673.867 605.213 675.694 605.213C676.477 605.213 678.29 605.956 678.042 605.213C677.63 603.975 676.65 605.257 677.26 604.039Z" fill="#FFFFFF" fill-rule="nonzero" opacity="1" stroke="#FFFFFF" stroke-linecap="round" stroke-linejoin="round" stroke-width="5" vectornator:layerName="Кривая 150"/>
<path d="M936.364 445.523C936.364 439.828 930.912 443.147 928.536 445.523C921.483 452.576 913.774 459.525 905.835 465.876C885.91 481.816 865.352 496.111 843.212 508.929C824.864 519.552 804.899 528.155 787.633 540.241C782.245 544.013 776.636 547.573 771.195 551.2C769.301 552.463 767.841 554.051 765.715 555.114C765.193 555.375 764.15 555.897 764.15 555.897C764.15 555.897 765.26 555.479 765.715 555.114C767.732 553.5 769.368 551.461 771.195 549.635C775.486 545.343 779.492 540.555 783.719 536.327C783.9 536.146 790.588 529.976 789.199 529.282C786.977 528.171 784.51 533.03 783.719 533.979C778.65 540.062 772.692 545.503 768.064 551.983C767.255 553.114 762.376 557.542 763.367 559.028C765.834 562.728 780.17 556.323 782.937 555.897C784.742 555.619 786.59 555.897 788.416 555.897" fill="none" opacity="1" stroke="#FFFFFF" stroke-linecap="round" stroke-linejoin="round" stroke-width="5" vectornator:layerName="Кривая 151"/>
<path d="M833.818 879.191C830.26 875.632 827.968 870.806 825.208 866.666C819.069 857.457 813.186 848.115 806.42 839.268C775.138 798.36 750.481 752.9 728.924 706.193C723.933 695.38 719.877 684.394 715.616 673.316C713.753 668.47 713.272 660.013 709.354 656.094C708.529 655.269 707.048 655.354 706.223 654.529C705.81 654.116 705.926 652.64 705.44 652.963C702.191 655.129 703.092 671.146 703.092 674.882C703.092 675.889 702.264 685.073 704.657 684.275C706.258 683.742 705.44 676.781 705.44 675.664C705.44 669.293 704.657 663.166 704.657 656.877C704.657 655.312 703.55 653.288 704.657 652.181C705.577 651.261 710.954 656.223 711.702 656.877C713.236 658.219 714.884 659.428 716.399 660.791C718.735 662.893 720.991 665.091 723.444 667.054" fill="none" opacity="1" stroke="#FFFFFF" stroke-linecap="round" stroke-linejoin="round" stroke-width="5" vectornator:layerName="Кривая 152"/>
<path d="M634.206 551.2C635.25 551.722 636.512 553.591 637.337 552.766C638.26 551.843 635.838 550.625 634.989 549.635C631.366 545.408 627.509 541.459 624.03 537.11C614.608 525.333 605.49 513.454 595.849 501.884C587.752 492.168 581.561 480.82 573.148 471.355C565.61 462.875 557.886 454.529 552.013 444.74C546.205 435.06 541.579 423.868 532.443 416.56C526.128 411.508 528.006 422.035 528.529 425.17C528.9 427.396 529.364 427.259 530.094 429.084C530.401 429.851 530.877 432.258 530.877 431.433C530.877 423.198 517.845 411.135 533.226 414.211C534.71 414.508 537.213 415.18 538.705 415.777C540.55 416.515 542.358 417.343 544.185 418.125" fill="none" opacity="1" stroke="#FFFFFF" stroke-linecap="round" stroke-linejoin="round" stroke-width="5" vectornator:layerName="Кривая 153"/>
<path d="M411.11 319.493C412.374 322.021 411.751 320.493 412.675 324.19" fill="none" opacity="1" stroke="#FFFFFF" stroke-linecap="round" stroke-linejoin="round" stroke-width="5" vectornator:layerName="Кривая 154"/>
<path d="M409.544 342.194C411.848 343.346 410.925 342.424 411.893 345.326" fill="none" opacity="1" stroke="#FFFFFF" stroke-linecap="round" stroke-linejoin="round" stroke-width="5" vectornator:layerName="Кривая 155"/>
<path d="M413.067 361.373C413.167 361.773 412.806 359.807 412.675 360.199C412.428 360.941 412.675 363.33 412.675 362.547C412.675 361.242 412.706 359.93 413.067 361.373Z" fill="none" opacity="1" stroke="#FFFFFF" stroke-linecap="round" stroke-linejoin="round" stroke-width="5" vectornator:layerName="Кривая 156"/>
<path d="M413.85 380.551C414.042 381.321 414.252 378.203 413.458 378.203C412.675 378.203 413.458 379.768 413.458 380.551C413.458 381.334 413.458 383.682 413.458 382.9C413.458 380.812 413.397 378.739 413.85 380.551Z" fill="none" opacity="1" stroke="#FFFFFF" stroke-linecap="round" stroke-linejoin="round" stroke-width="5" vectornator:layerName="Кривая 157"/>
<path d="M418.546 310.491C419.667 310.118 416.037 310.708 415.024 310.1C414.615 309.854 419.949 308.306 419.721 308.534C418.39 309.865 416.686 311.111 418.546 310.491Z" fill="none" opacity="1" stroke="#FFFFFF" stroke-linecap="round" stroke-linejoin="round" stroke-width="5" vectornator:layerName="Кривая 158"/>
<path d="M440.073 309.317C440.848 309.206 437.725 310.1 437.725 309.317C437.725 308.669 442.944 308.099 441.639 308.534C439.598 309.215 437.477 309.688 440.073 309.317Z" fill="none" opacity="1" stroke="#FFFFFF" stroke-linecap="round" stroke-linejoin="round" stroke-width="5" vectornator:layerName="Кривая 159"/>
<path d="M454.163 307.751C461.008 307.751 469.973 309.24 476.082 306.186" fill="none" opacity="1" stroke="#FFFFFF" stroke-linecap="round" stroke-linejoin="round" stroke-width="5" vectornator:layerName="Кривая 160"/>
<path d="M483.127 307.751C485.214 306.708 484.431 306.447 485.475 308.534" fill="none" opacity="1" stroke="#FFFFFF" stroke-linecap="round" stroke-linejoin="round" stroke-width="5" vectornator:layerName="Кривая 161"/>
<path d="M494.869 315.579C495.391 316.101 495.912 316.623 496.434 317.145" fill="none" opacity="1" stroke="#FFFFFF" stroke-linecap="round" stroke-linejoin="round" stroke-width="5" vectornator:layerName="Кривая 162"/>
<path d="M505.045 324.19C505.306 324.712 505.567 325.234 505.828 325.756" fill="none" opacity="1" stroke="#FFFFFF" stroke-linecap="round" stroke-linejoin="round" stroke-width="5" vectornator:layerName="Кривая 163"/>
<path d="M507.393 335.149C507.654 335.932 507.915 336.715 508.176 337.498" fill="none" opacity="1" stroke="#FFFFFF" stroke-linecap="round" stroke-linejoin="round" stroke-width="5" vectornator:layerName="Кривая 164"/>
<path d="M508.959 353.936L507.393 359.416" fill="none" opacity="1" stroke="#FFFFFF" stroke-linecap="round" stroke-linejoin="round" stroke-width="5" vectornator:layerName="Кривая 165"/>
<path d="M425.592 407.558C427.606 406.55 421.132 406.89 418.938 406.383C418.429 406.266 419.992 406.486 420.503 406.383C421.312 406.222 422.035 405.717 422.852 405.601C425.621 405.205 425.931 405.583 428.331 406.383C429.114 406.644 431.495 407.041 430.68 407.166C426.545 407.802 422.672 409.017 425.592 407.558Z" fill="none" opacity="1" stroke="#FFFFFF" stroke-linecap="round" stroke-linejoin="round" stroke-width="5" vectornator:layerName="Кривая 166"/>
<path d="M450.25 405.209C451.468 404.6 447.554 404.644 446.336 404.035C445.869 403.802 447.379 404.035 447.901 404.035C449.467 404.035 451.063 403.728 452.598 404.035C453.17 404.149 454.736 404.703 454.163 404.818C451.082 405.434 448.146 406.261 450.25 405.209Z" fill="none" opacity="1" stroke="#FFFFFF" stroke-linecap="round" stroke-linejoin="round" stroke-width="5" vectornator:layerName="Кривая 167"/>
<path d="M475.299 402.078C476.319 401.823 473.188 402.725 472.168 402.469C471.943 402.413 474.939 401.094 476.082 400.904C476.854 400.775 479.15 400.595 478.43 400.904C475.926 401.977 473.238 402.593 475.299 402.078Z" fill="none" opacity="1" stroke="#FFFFFF" stroke-linecap="round" stroke-linejoin="round" stroke-width="5" vectornator:layerName="Кривая 168"/>
<path d="M499.565 399.338C500.34 399.228 497.771 398.785 497.217 399.338C496.286 400.269 502.488 400.392 501.131 400.121C499.068 399.708 496.97 399.709 499.565 399.338Z" fill="none" opacity="1" stroke="#FFFFFF" stroke-linecap="round" stroke-linejoin="round" stroke-width="5" vectornator:layerName="Кривая 169"/>
<path d="M506.611 371.94C505.478 374.206 505.828 372.923 505.828 375.854" fill="none" opacity="1" stroke="#FFFFFF" stroke-linecap="round" stroke-linejoin="round" stroke-width="5" vectornator:layerName="Кривая 170"/>
<path d="M507.393 399.338C507.393 399.86 507.393 400.382 507.393 400.904" fill="none" opacity="1" stroke="#FFFFFF" stroke-linecap="round" stroke-linejoin="round" stroke-width="5" vectornator:layerName="Кривая 171"/>
<path d="M474.516 321.059C474.516 322.646 474.118 317.902 473.733 316.362C473.607 315.856 473.733 317.406 473.733 317.928C473.733 319.232 472.429 321.842 473.733 321.842C475.064 321.842 474.516 319.214 474.516 321.059Z" fill="none" opacity="1" stroke="#FFFFFF" stroke-linecap="round" stroke-linejoin="round" stroke-width="5" vectornator:layerName="Кривая 172"/>
<path d="M484.692 338.672C485.192 338.472 482.828 338.728 483.127 338.28C483.585 337.594 486.059 336.914 485.475 337.498C484.399 338.573 482.958 339.366 484.692 338.672Z" fill="none" opacity="1" stroke="#FFFFFF" stroke-linecap="round" stroke-linejoin="round" stroke-width="5" vectornator:layerName="Кривая 173"/>
<path d="M494.477 337.106C495.245 336.594 492.029 338.373 491.738 337.498C491.44 336.605 493.244 336.353 494.086 335.932C494.824 335.563 497.018 334.566 496.434 335.149C494.847 336.736 492.965 338.114 494.477 337.106Z" fill="none" opacity="1" stroke="#FFFFFF" stroke-linecap="round" stroke-linejoin="round" stroke-width="5" vectornator:layerName="Кривая 174"/>
<path d="M465.514 343.369C464.276 343.369 466.445 341.06 466.688 339.846C466.897 338.802 464.914 343.76 465.123 343.76C466.063 343.76 466.857 343.369 465.514 343.369Z" fill="none" opacity="1" stroke="#FFFFFF" stroke-linecap="round" stroke-linejoin="round" stroke-width="5" vectornator:layerName="Кривая 175"/>
<path d="M456.512 358.633C454.363 358.633 455.413 358.4 453.381 359.416" fill="none" opacity="1" stroke="#FFFFFF" stroke-linecap="round" stroke-linejoin="round" stroke-width="5" vectornator:layerName="Кривая 176"/>
<path d="M446.336 375.072C443.095 376.152 444.445 375.168 442.422 378.203" fill="none" opacity="1" stroke="#FFFFFF" stroke-linecap="round" stroke-linejoin="round" stroke-width="5" vectornator:layerName="Кривая 177"/>
<path d="M436.159 388.379C435.876 388.616 435.116 389.423 435.376 389.162C436.299 388.239 437.326 387.403 436.159 388.379Z" fill="none" opacity="1" stroke="#FFFFFF" stroke-linecap="round" stroke-linejoin="round" stroke-width="5" vectornator:layerName="Кривая 178"/>
<path d="M442.813 347.283C443.351 347.82 441.247 344.673 441.639 345.326C442.422 346.63 445.063 350.315 443.987 349.239C442.4 347.652 441.242 345.711 442.813 347.283Z" fill="none" opacity="1" stroke="#FFFFFF" stroke-linecap="round" stroke-linejoin="round" stroke-width="5" vectornator:layerName="Кривая 179"/>
<path d="M453.381 359.416C456.283 360.383 455.36 359.461 456.512 361.764" fill="none" opacity="1" stroke="#FFFFFF" stroke-linecap="round" stroke-linejoin="round" stroke-width="5" vectornator:layerName="Кривая 180"/>
<path d="M465.905 375.072C466.318 375.484 464.601 373.245 465.123 373.506C466.113 374.001 468.461 376.35 467.471 375.854C465.977 375.107 464.724 373.89 465.905 375.072Z" fill="none" opacity="1" stroke="#FFFFFF" stroke-linecap="round" stroke-linejoin="round" stroke-width="5" vectornator:layerName="Кривая 181"/>
<path d="M476.082 384.465C476.365 384.702 477.125 385.509 476.864 385.248C475.942 384.325 474.915 383.489 476.082 384.465Z" fill="none" opacity="1" stroke="#FFFFFF" stroke-linecap="round" stroke-linejoin="round" stroke-width="5" vectornator:layerName="Кривая 182"/>
<path d="M387.053 129.758C383.516 127.99 386.578 135.698 387.053 137.362C388.041 140.819 393.433 147.006 396.938 148.008C406.561 150.757 416.868 139.273 409.864 130.519C407.09 127.051 406.627 137.883 406.823 139.643C407.717 147.689 410.625 155.95 410.625 163.976C410.625 166.312 410.929 169.359 409.104 170.819C404.618 174.408 394.271 167.585 390.095 165.496" fill="none" opacity="1" stroke="#FFFFFF" stroke-linecap="round" stroke-linejoin="round" stroke-width="5" vectornator:layerName="Кривая 183"/>
<path d="M422.031 141.925C422.031 144.881 422.123 163.215 425.072 163.215C428.784 163.215 439.17 151.885 441.04 148.768C441.598 147.839 443.669 144.554 442.561 143.445C439.91 140.794 439.536 146.351 439.519 146.487C439.083 149.973 438.294 158.345 442.561 160.174C449.773 163.265 454.784 155.263 457.768 150.289C458.186 149.593 460.444 143.445 458.529 143.445C456.547 143.445 456.594 155.958 458.529 157.893C464.867 164.231 475.353 149.337 477.538 144.966C478.116 143.81 477.985 142.418 478.299 141.164C478.436 140.614 479.46 140.044 479.059 139.643C478.094 138.678 477.538 142.08 477.538 143.445C477.538 145.22 477.538 146.994 477.538 148.768C477.538 153.577 476.174 159.57 479.819 163.215" fill="none" opacity="1" stroke="#FFFFFF" stroke-linecap="round" stroke-linejoin="round" stroke-width="5" vectornator:layerName="Кривая 184"/>
<path d="M489.704 135.841C489.704 138.894 490.262 141.921 490.465 144.966C490.651 147.759 490.947 150.545 491.225 153.33C491.504 156.116 491.986 161.694 491.986 161.694C491.986 161.694 491.777 160.144 491.986 159.413C492.858 156.36 494.68 153.618 496.548 151.049C498.226 148.742 508.339 138.883 510.235 138.883C511.31 138.883 508.848 140.568 507.954 141.164C506.724 141.984 505.306 142.522 504.152 143.445C501.059 145.92 494.267 148.543 494.267 153.33C494.267 160.555 511.898 159.413 517.078 159.413" fill="none" opacity="1" stroke="#FFFFFF" stroke-linecap="round" stroke-linejoin="round" stroke-width="5" vectornator:layerName="Кривая 185"/>
<path d="M540.65 157.132C542.35 158.832 538.799 152.654 538.369 150.289C538.023 148.385 539.982 148.898 540.65 148.008C543.332 144.431 540.621 140.131 537.608 138.123C526.531 130.738 516.577 154.69 522.401 162.455C526.093 167.377 535.894 157.422 537.608 154.851C538.509 153.501 539.075 150.655 540.65 151.049C542.949 151.624 542.682 156.399 542.931 157.893C543.063 158.683 544.224 160.773 543.691 160.174C541.166 157.332 538.245 154.728 540.65 157.132Z" fill="none" opacity="1" stroke="#FFFFFF" stroke-linecap="round" stroke-linejoin="round" stroke-width="5" vectornator:layerName="Кривая 186"/>
<path d="M553.576 161.694C554.858 157.848 556.954 155.376 558.899 151.809C560.256 149.322 561.434 146.74 562.701 144.206C563.715 142.178 564.576 140.067 565.742 138.123C566.326 137.151 566.462 134.28 567.263 135.081C568.339 136.156 567.013 138.143 567.263 139.643C568.227 145.425 567.435 151.249 568.024 157.132C568.36 160.5 568.622 166.338 573.346 163.976" fill="none" opacity="1" stroke="#FFFFFF" stroke-linecap="round" stroke-linejoin="round" stroke-width="5" vectornator:layerName="Кривая 187"/>
<path d="M590.075 134.321C582.503 136.844 587.361 156.831 590.835 161.694C592.272 163.706 594.449 167.111 597.678 165.496C600.062 164.305 600.529 153.266 599.199 151.049C598.41 149.735 594.074 150.261 593.876 150.289C587.065 151.262 585.963 163.976 593.876 163.976" fill="none" opacity="1" stroke="#FFFFFF" stroke-linecap="round" stroke-linejoin="round" stroke-width="5" vectornator:layerName="Кривая 188"/>
<path d="M618.969 139.643C618.969 138.883 618.969 136.602 618.969 137.362C618.969 144.206 618.969 151.049 618.969 157.893C618.969 159.92 619.302 161.975 618.969 163.976C618.837 164.766 618.926 166.615 618.209 166.257C615.913 165.109 617.356 157.581 618.969 156.372C623.613 152.889 629.677 156.31 634.177 151.809C636.503 149.483 637.434 146.715 637.979 143.445C638.062 142.945 638.485 141.925 637.979 141.925C636.919 141.925 635.908 151.641 635.697 153.33C635.123 157.926 630.369 170.63 638.739 168.538" fill="none" opacity="1" stroke="#FFFFFF" stroke-linecap="round" stroke-linejoin="round" stroke-width="5" vectornator:layerName="Кривая 189"/>
<path d="M656.228 142.685C656.481 141.925 656.988 139.602 656.988 140.404C656.988 148.061 654.894 156.397 653.947 163.976C653.726 165.736 652.299 168.639 653.947 169.298C660.55 171.939 664.695 155.817 662.311 151.049C661.493 149.414 658.691 148.221 659.269 146.487C659.38 146.154 665.541 146.568 666.113 146.487C667.942 146.225 676.544 142.441 677.518 142.685C679.257 143.12 678.279 146.215 678.279 148.008C678.279 153.33 678.279 158.653 678.279 163.976" fill="none" opacity="1" stroke="#FFFFFF" stroke-linecap="round" stroke-linejoin="round" stroke-width="5" vectornator:layerName="Кривая 190"/>
<path d="M697.288 154.851C701.026 153.605 717.631 150.09 719.339 144.966C721.729 137.797 703.389 141.656 700.33 144.206C693.102 150.229 695.54 159.655 703.371 163.215C710.991 166.679 721.936 167.106 729.985 165.496" fill="none" opacity="1" stroke="#FFFFFF" stroke-linecap="round" stroke-linejoin="round" stroke-width="5" vectornator:layerName="Кривая 191"/>
</g>
</svg>
