<?xml version="1.0" encoding="UTF-8" standalone="no"?>
<!DOCTYPE svg PUBLIC "-//W3C//DTD SVG 1.1//EN" "http://www.w3.org/Graphics/SVG/1.1/DTD/svg11.dtd">
<!-- Created with Vectornator (http://vectornator.io/) -->
<svg height="100%" stroke-miterlimit="10" style="fill-rule:nonzero;clip-rule:evenodd;stroke-linecap:round;stroke-linejoin:round;" version="1.1" viewBox="0 0 1920 1080" width="100%" xml:space="preserve" xmlns="http://www.w3.org/2000/svg" xmlns:vectornator="http://vectornator.io" xmlns:xlink="http://www.w3.org/1999/xlink">
<defs/>
<g id="Слой-1" vectornator:layerName="Слой 1">
<path d="M1014.56 118.547C1014.56 117.007 1014.87 115.251 1015.24 113.79C1015.36 113.298 1015.56 112.072 1015.92 112.43C1015.97 112.48 1016.57 123.584 1016.6 123.984C1016.73 126.031 1017.06 128.061 1017.28 130.101C1018.56 142.28 1019.86 154.588 1020.68 166.802C1020.71 167.305 1020.81 188.287 1024.07 181.755" fill="none" opacity="1" stroke="#FFFFFF" stroke-linecap="round" stroke-linejoin="round" stroke-width="5" vectornator:layerName="Кривая 17"/>
<path d="M1015.92 113.79C1015.24 113.79 1013.2 113.79 1013.88 113.79C1021.5 113.79 1028.74 111.961 1036.31 111.071C1041.75 110.431 1047.18 109.66 1052.62 109.032C1062.1 107.939 1071.72 108.042 1081.16 106.993C1083.16 106.771 1087.28 105.293 1089.32 106.314C1091.1 107.205 1092.08 109.076 1093.4 110.391C1096.82 113.815 1100.52 116.74 1103.59 120.586C1106.06 123.665 1111.11 127.259 1109.71 131.461" fill="none" opacity="1" stroke="#FFFFFF" stroke-linecap="round" stroke-linejoin="round" stroke-width="5" vectornator:layerName="Кривая 18"/>
<path d="M1109.03 132.82C1109.03 147.773 1103.52 170.051 1110.39 183.794" fill="none" opacity="1" stroke="#FFFFFF" stroke-linecap="round" stroke-linejoin="round" stroke-width="5" vectornator:layerName="Кривая 19"/>
<path d="M1017.28 193.988C1034.54 193.988 1051.95 190.553 1068.93 187.871C1076.13 186.735 1084.49 186.764 1091.36 184.473" fill="none" opacity="1" stroke="#FFFFFF" stroke-linecap="round" stroke-linejoin="round" stroke-width="5" vectornator:layerName="Кривая 20"/>
<path d="M1087.96 112.43C1087.96 111.524 1088.18 110.591 1087.96 109.712C1087.84 109.22 1087.44 107.872 1087.28 108.353C1086.81 109.78 1087.47 111.588 1087.28 113.11C1086.71 117.68 1085.75 122.154 1085.24 126.703C1085.03 128.597 1082.72 133.61 1083.2 135.538C1083.47 136.606 1086.93 135.657 1089.32 134.859C1096 132.634 1102.54 130.101 1109.71 130.101" fill="none" opacity="1" stroke="#FFFFFF" stroke-linecap="round" stroke-linejoin="round" stroke-width="5" vectornator:layerName="Кривая 21"/>
<path d="M1062.81 142.335C1061.02 138.756 1057.9 141.181 1056.02 143.694C1051.88 149.207 1039.71 162.213 1039.71 168.841" fill="none" opacity="1" stroke="#FFFFFF" stroke-linecap="round" stroke-linejoin="round" stroke-width="5" vectornator:layerName="Кривая 22"/>
<path d="M1036.31 140.976C1040.2 142.922 1043.04 146.494 1046.5 149.131C1053.75 154.654 1067.91 159.311 1070.29 168.841" fill="none" opacity="1" stroke="#FFFFFF" stroke-linecap="round" stroke-linejoin="round" stroke-width="5" vectornator:layerName="Кривая 23"/>
<path d="M1134.71 125.368C1134.71 134.64 1134.61 143.709 1135.38 152.897C1135.65 156.174 1135.23 160.651 1136.72 163.64" fill="none" opacity="1" stroke="#FFFFFF" stroke-linecap="round" stroke-linejoin="round" stroke-width="5" vectornator:layerName="Кривая 24"/>
<path d="M1138.74 145.511C1136.2 140.445 1143.62 140.811 1146.79 140.811C1154.34 140.811 1163.16 150.718 1154.85 156.254C1152 158.152 1153.56 157.236 1150.15 158.94C1146.64 160.696 1148.44 160.04 1144.78 160.954C1141.75 161.711 1139.16 162.297 1136.05 162.297" fill="none" opacity="1" stroke="#FFFFFF" stroke-linecap="round" stroke-linejoin="round" stroke-width="5" vectornator:layerName="Кривая 25"/>
<path d="M1136.05 124.025C1136.05 120.732 1142.78 122.011 1144.78 122.011C1151.49 122.011 1158.21 122.011 1164.92 122.011C1166.93 122.011 1168.95 121.565 1168.95 124.025" fill="none" opacity="1" stroke="#FFFFFF" stroke-linecap="round" stroke-linejoin="round" stroke-width="5" vectornator:layerName="Кривая 26"/>
<path d="M1175.67 144.168C1175.13 143.09 1175.53 140.811 1174.32 140.811C1173.65 140.811 1174.32 142.154 1174.32 142.826C1174.32 143.945 1174.16 145.075 1174.32 146.183C1174.81 149.608 1176.19 153.509 1179.69 154.911C1185.56 157.259 1188.91 149.798 1189.77 145.511C1189.86 145.056 1190.04 141.483 1189.09 141.483C1188.51 141.483 1187.77 147.349 1187.75 147.526C1186.85 154.701 1187.76 163.62 1184.39 170.354C1180.25 178.652 1171.42 171.047 1169.62 165.654" fill="none" opacity="1" stroke="#FFFFFF" stroke-linecap="round" stroke-linejoin="round" stroke-width="5" vectornator:layerName="Кривая 27"/>
<path d="M1213.94 141.483C1212.6 148.178 1211.7 154.901 1210.58 161.626C1210.09 164.571 1208.57 170.354 1208.57 170.354C1208.57 170.354 1209.01 169.012 1209.24 168.34" fill="none" opacity="1" stroke="#FFFFFF" stroke-linecap="round" stroke-linejoin="round" stroke-width="5" vectornator:layerName="Кривая 28"/>
<path d="M1208.9 140.811C1206.76 141.441 1204.73 142.473 1202.52 142.826C1199.48 143.312 1195.41 140.541 1192.45 143.497C1188.67 147.282 1193.95 151.791 1197.15 153.569C1203.62 157.161 1214.81 160.121 1222 156.926C1227.37 154.536 1232.45 146.141 1230.05 140.14C1229.29 138.245 1224.45 137.08 1222.67 136.783C1216.62 135.774 1209.3 140.693 1208.9 140.811Z" fill="none" opacity="1" stroke="#FFFFFF" stroke-linecap="round" stroke-linejoin="round" stroke-width="5" vectornator:layerName="Кривая 29"/>
<path d="M1235.42 150.847C1238.74 147.525 1242.21 147.451 1246.16 145.475C1254.12 141.499 1251.8 137.571 1243.48 138.761C1237.75 139.58 1234.14 147.649 1236.09 152.861C1237.11 155.583 1241.71 157.789 1244.15 158.233C1254.02 160.028 1260.57 153.748 1265.63 146.147C1266.69 144.562 1271.44 138.444 1269.66 136.075C1265.59 130.648 1264.36 145.386 1264.29 146.147C1264.18 147.504 1263.81 148.828 1263.62 150.175C1262.75 156.236 1262.95 154.494 1262.95 160.247C1262.95 165.395 1262.95 170.542 1262.95 175.69" fill="none" opacity="1" stroke="#FFFFFF" stroke-linecap="round" stroke-linejoin="round" stroke-width="5" vectornator:layerName="Кривая 32"/>
<path d="M1264.63 145.811C1262.48 144.197 1266.35 140.705 1266.98 138.09C1267.66 135.28 1266.04 133.496 1269.66 132.047C1276.84 129.178 1288.36 137.352 1285.11 145.475C1283.58 149.298 1274.31 150.247 1271.01 150.847C1267.06 151.564 1263.59 152.091 1263.62 151.518C1263.86 147.49 1266.66 147.333 1264.63 145.811Z" fill="none" opacity="1" stroke="#FFFFFF" stroke-linecap="round" stroke-linejoin="round" stroke-width="5" vectornator:layerName="Кривая 33"/>
<path d="M1031.79 311.768C1031.79 309.978 1031.62 302.44 1032.65 301.403C1034.71 299.344 1042.08 300.108 1044.74 300.108C1053.05 300.108 1061.62 299.115 1069.79 297.948C1073.86 297.367 1077.85 296.365 1081.88 295.789C1082.26 295.736 1085.8 294.759 1086.2 295.357C1086.55 295.876 1085.01 298.949 1084.91 299.676C1084.63 301.636 1084.48 303.731 1084.48 305.722" fill="none" opacity="1" stroke="#FFFFFF" stroke-linecap="round" stroke-linejoin="round" stroke-width="5" vectornator:layerName="Кривая 34"/>
<path d="M1031.36 315.654C1034.07 314.749 1037.98 314.791 1040.86 314.791" fill="none" opacity="1" stroke="#FFFFFF" stroke-linecap="round" stroke-linejoin="round" stroke-width="5" vectornator:layerName="Кривая 35"/>
<path d="M1077.57 311.768C1077.57 310.178 1071.69 312.46 1072.81 311.336C1073.9 310.255 1077.94 310.904 1079.29 310.904C1079.72 310.904 1081 310.777 1080.59 310.904C1078.32 311.602 1077.57 313.377 1077.57 311.768Z" fill="none" opacity="1" stroke="#FFFFFF" stroke-linecap="round" stroke-linejoin="round" stroke-width="5" vectornator:layerName="Кривая 36"/>
<path d="M1039.99 319.973C1037.84 322.13 1036.89 325.203 1035.24 327.746C1030.07 335.748 1025.11 343.807 1020.13 351.93C1013.25 363.152 1006.31 374.173 999.831 385.615C995.101 393.963 988.847 401.326 984.284 409.799C983.032 412.125 982.776 414.543 981.693 416.709" fill="none" opacity="1" stroke="#FFFFFF" stroke-linecap="round" stroke-linejoin="round" stroke-width="5" vectornator:layerName="Кривая 37"/>
<path d="M1072.38 315.654C1072.24 315.367 1072.18 314.563 1071.95 314.791C1071.33 315.414 1075.48 324.604 1075.84 325.587C1078.78 333.57 1081.2 341.668 1084.91 349.339C1088.6 356.986 1092.75 364.689 1095.7 372.66C1098.55 380.351 1099.96 388.498 1103.48 395.98C1106.31 401.996 1110.43 407.567 1112.98 413.686C1114.02 416.19 1114.28 418.896 1115.14 421.459" fill="none" opacity="1" stroke="#FFFFFF" stroke-linecap="round" stroke-linejoin="round" stroke-width="5" vectornator:layerName="Кривая 38"/>
<path d="M981.71 417.72C980.376 415.052 980.98 420.174 981.155 421.05C981.605 423.3 984.844 425.67 986.706 426.601C994.021 430.259 1003.17 429.377 1011.13 429.377C1018.62 429.377 1026.02 428.757 1033.34 427.712C1040.04 426.753 1047.17 428.67 1053.87 427.712C1064.87 426.14 1075.91 426.046 1087.18 426.046C1092.02 426.046 1097.99 425.099 1102.72 426.046C1105.87 426.675 1110.06 429.261 1112.72 426.601" fill="none" opacity="1" stroke="#FFFFFF" stroke-linecap="round" stroke-linejoin="round" stroke-width="5" vectornator:layerName="Кривая 39"/>
<path d="M1030.2 353.267C1027.7 354.517 1027.52 357.005 1026.13 359.092C1023.89 362.454 1020.94 365.653 1018.56 368.994C1016.45 371.943 1014.95 375.543 1012.73 378.314C1009.6 382.225 1008.13 387.167 1005.16 391.128C1001.23 396.362 998.236 401.477 995.255 407.438C993.936 410.077 990.672 415.942 994.09 418.505C998.536 421.84 1007.91 419.31 1012.73 418.505C1027.6 416.026 1043.4 418.284 1058.16 416.175C1068.86 414.647 1081.68 415.87 1091.95 417.923C1092.99 418.131 1102.26 418.051 1102.43 417.34C1102.52 416.976 1099.17 408.601 1098.94 407.438C1098.4 404.734 1098.31 401.949 1097.77 399.283C1096.57 393.277 1090.74 388.113 1088.45 382.391C1086.39 377.226 1084.83 372.467 1082.05 367.829C1079.68 363.89 1078.9 356.644 1074.47 354.432" fill="#68c40c" fill-rule="nonzero" opacity="1" stroke="#FFFFFF" stroke-linecap="round" stroke-linejoin="round" stroke-width="5" vectornator:layerName="Кривая 40"/>
<path d="M1147.87 325.89C1147.87 325.307 1148.13 323.621 1147.87 324.142C1147.24 325.406 1147 326.837 1146.7 328.22C1145.57 333.505 1146.47 331.06 1146.12 336.374C1145.68 343.029 1144.37 349.483 1144.37 356.179C1144.37 357.085 1143.27 370.55 1144.96 365.499" fill="#68c40c" fill-rule="nonzero" opacity="1" stroke="#FFFFFF" stroke-linecap="round" stroke-linejoin="round" stroke-width="5" vectornator:layerName="Кривая 41"/>
<path d="M1147.29 325.89C1145.78 325.136 1144.91 320.63 1147.87 321.812C1149.38 322.417 1149.67 324.663 1150.2 325.89C1152.17 330.494 1155.94 341.533 1162.43 340.452C1168.22 339.487 1174 331.287 1176.41 326.472C1177.11 325.072 1178.04 323.795 1178.74 322.395C1179.11 321.644 1179.9 318.219 1179.9 319.482C1179.9 332.315 1171.99 347.925 1178.16 360.256" fill="none" opacity="1" stroke="#FFFFFF" stroke-linecap="round" stroke-linejoin="round" stroke-width="5" vectornator:layerName="Кривая 42"/>
<path d="M1194.47 339.287C1194.46 339.281 1194.05 336.205 1192.72 337.539C1191.44 338.818 1191.55 342.351 1191.55 343.947C1191.55 349.805 1193.9 356.179 1200.87 356.179C1207.92 356.179 1212.29 346.034 1213.69 340.452C1214 339.204 1212.88 335.277 1210.78 336.957C1208.31 338.927 1209.03 344.236 1209.03 346.859C1209.03 354.404 1210.86 362.68 1209.61 370.159C1209.18 372.766 1206.56 379.971 1202.62 379.479C1198.17 378.922 1193.79 373.316 1189.81 371.324" fill="none" opacity="1" stroke="#FFFFFF" stroke-linecap="round" stroke-linejoin="round" stroke-width="5" vectornator:layerName="Кривая 43"/>
<path d="M1230.58 335.209C1232.25 340.216 1233.45 347.31 1232.91 352.684C1232.84 353.421 1232.08 355.934 1231.75 356.762C1231.58 357.165 1231.36 358.315 1231.16 357.927C1229.82 355.23 1238.06 343.342 1239.9 341.034C1241.72 338.767 1243.43 335.883 1245.73 334.044C1246.06 333.773 1246.7 333.074 1246.89 333.462C1247.89 335.459 1247.04 344.957 1247.47 348.024C1247.51 348.294 1247.18 352.902 1248.06 352.684C1249.46 352.332 1250.44 349.555 1250.97 348.607C1253.69 343.711 1256.73 339.476 1260.29 335.209C1260.91 334.464 1261.93 332.775 1262.62 333.462C1263.15 333.996 1262.71 339.115 1262.62 339.869C1262.52 340.664 1262.13 341.405 1262.04 342.199C1261.82 343.944 1261.8 345.718 1261.45 347.442C1260.92 350.095 1260.87 352.327 1260.87 355.014" fill="none" opacity="1" stroke="#FFFFFF" stroke-linecap="round" stroke-linejoin="round" stroke-width="5" vectornator:layerName="Кривая 44"/>
<path d="M1290 340.452C1291.11 338.215 1294.76 340.407 1295.24 337.539C1296.28 331.285 1285.37 329.362 1281.26 331.715C1276.63 334.357 1277.18 339.33 1277.18 343.947C1277.18 346.333 1276.83 346.489 1278.35 348.607C1283.6 355.959 1294 350.78 1297.57 344.529C1298.18 343.45 1300.11 337.988 1298.73 336.957C1296.71 335.444 1294.38 339.792 1294.07 341.034C1293.04 345.178 1293.7 349.614 1298.15 351.519C1305.82 354.808 1313.68 347.893 1317.95 342.199C1319.5 340.135 1322.34 336.4 1320.87 333.462C1319.85 331.431 1316.25 334.752 1315.62 335.792C1314.58 337.528 1315.3 337.46 1315.04 339.287C1314.15 345.531 1315.1 351.254 1323.2 350.354C1328.81 349.731 1334.24 343.405 1336.59 338.704C1337.12 337.643 1338.13 335.913 1338.34 334.627C1338.44 334.052 1338.34 332.297 1338.34 332.879C1338.34 340.442 1339.28 358.509 1328.44 358.509" fill="none" opacity="1" stroke="#FFFFFF" stroke-linecap="round" stroke-linejoin="round" stroke-width="5" vectornator:layerName="Кривая 45"/>
<path d="M1356.4 328.22C1355.12 325.67 1353.92 329.844 1353.49 331.132C1352 335.589 1351.74 340.474 1351.74 345.112C1351.74 346.527 1350.87 349.433 1352.9 349.772C1359.76 350.915 1370.68 339.955 1373.87 334.627C1374.44 333.675 1378.22 327.772 1375.62 326.472C1372.5 324.91 1370.37 331.737 1369.8 333.462C1367.49 340.376 1364.93 347.416 1369.21 353.849" fill="none" opacity="1" stroke="#FFFFFF" stroke-linecap="round" stroke-linejoin="round" stroke-width="5" vectornator:layerName="Кривая 46"/>
<path d="M1387.85 337.539C1383.92 345.415 1389.4 350.551 1397.17 348.607C1403.86 346.934 1423.79 332.564 1422.22 324.725C1421.62 321.724 1413.17 322.059 1411.15 322.395C1400.64 324.148 1397.79 332.448 1406.49 339.287C1409.37 341.55 1412.71 343.17 1415.81 345.112" fill="none" opacity="1" stroke="#FFFFFF" stroke-linecap="round" stroke-linejoin="round" stroke-width="5" vectornator:layerName="Кривая 47"/>
<path d="M1168.33 565.897C1168.12 565.262 1167.43 562.047 1166.02 562.047C1164.71 562.047 1165.4 564.596 1165.25 565.897C1165.08 567.428 1165.25 568.978 1165.25 570.518C1165.25 579.741 1164.48 588.96 1164.48 598.242C1164.48 601.323 1164.48 604.403 1164.48 607.484C1164.48 608.793 1164.16 612.061 1165.25 611.334C1166.72 610.355 1167.94 605.181 1168.33 603.633" fill="none" opacity="1" stroke="#FFFFFF" stroke-linecap="round" stroke-linejoin="round" stroke-width="5" vectornator:layerName="Кривая 61"/>
<path d="M1166.02 569.748C1166.02 558.975 1178.13 559.005 1186.81 557.426C1189.41 556.954 1191.25 555.929 1193.75 557.426C1194.57 557.92 1195.61 561.159 1196.06 562.047" fill="none" opacity="1" stroke="#FFFFFF" stroke-linecap="round" stroke-linejoin="round" stroke-width="5" vectornator:layerName="Кривая 62"/>
<path d="M1186.04 599.012C1195.47 599.012 1202.24 595.657 1209.92 590.541C1211.36 589.581 1218.33 585.04 1216.85 582.07C1215.73 579.835 1206.4 580.2 1204.53 582.07C1200.12 586.48 1199.63 598.683 1203.76 603.633C1212 613.52 1228.2 598.278 1233.02 592.081C1235.2 589.284 1238.04 586.27 1239.18 582.84C1239.34 582.353 1239.18 581.813 1239.18 581.3C1239.18 580.53 1239.73 578.445 1239.18 578.989C1237.68 580.496 1237.13 589.245 1236.87 591.311C1236.59 593.604 1237.13 595.946 1236.87 598.242C1236.49 601.65 1236.1 604.771 1236.1 608.254" fill="none" opacity="1" stroke="#FFFFFF" stroke-linecap="round" stroke-linejoin="round" stroke-width="5" vectornator:layerName="Кривая 63"/>
<path d="M1239.95 595.932C1246.02 592.9 1253.13 595.726 1259.21 592.081C1261.47 590.721 1265.19 581.063 1263.06 580.53C1260.39 579.864 1258.36 585.847 1257.67 587.461C1255.02 593.639 1255.35 601.637 1255.35 608.254" fill="none" opacity="1" stroke="#FFFFFF" stroke-linecap="round" stroke-linejoin="round" stroke-width="5" vectornator:layerName="Кривая 64"/>
<path d="M1269.22 596.702C1273.65 594.487 1279.72 596.23 1284.62 594.392C1288.29 593.014 1293.88 588.942 1295.4 585.15C1296.76 581.743 1294.04 579.599 1290.78 580.53C1283.1 582.723 1276.92 595.736 1276.92 602.863C1276.92 605.643 1276.37 609.658 1280 610.564C1293.06 613.829 1305.17 600.917 1311.57 591.311C1312.7 589.626 1317.3 583.484 1317.73 581.3C1317.85 580.737 1317.51 579.578 1316.96 579.759C1315.76 580.163 1313.42 586.533 1313.11 587.461C1310.54 595.19 1309.32 604.112 1307.72 612.105C1307.01 615.664 1306.83 619.314 1306.18 622.886C1305.99 623.928 1305.59 624.923 1305.41 625.967C1305.33 626.473 1305.05 627.87 1305.41 627.507C1309.25 623.67 1309.58 616.217 1310.8 611.334C1312.98 602.648 1316.45 588.797 1323.9 582.84C1327.78 579.731 1336.83 580.37 1337.76 585.92C1338.96 593.134 1336.37 603.272 1330.06 607.484" fill="none" opacity="1" stroke="#FFFFFF" stroke-linecap="round" stroke-linejoin="round" stroke-width="5" vectornator:layerName="Кривая 65"/>
<path d="M1357.01 590.541C1358.05 588.462 1360.46 586.801 1360.86 584.38C1361.96 577.761 1357.82 576.67 1351.62 578.219C1342.92 580.395 1334.83 593.62 1343.15 600.553C1348.15 604.719 1356.87 601.467 1360.86 597.472C1362.33 596.009 1362.74 593.766 1363.94 592.081C1364.69 591.037 1365.62 590.115 1366.25 589.001C1366.61 588.383 1369.74 580.984 1367.02 582.07C1363.33 583.545 1358.18 600.103 1361.63 602.863C1369.64 609.273 1379.89 597.786 1383.97 592.081C1385.73 589.61 1388.72 586.097 1386.28 582.84C1383.02 578.505 1375.45 599.262 1383.2 600.553C1390.13 601.708 1396.9 594.352 1400.91 589.771C1402.5 587.948 1403.42 585.625 1404.76 583.61C1405.4 582.655 1407.33 580.016 1406.3 580.53C1403.19 582.085 1404.26 593.178 1403.99 595.932C1403.3 602.851 1400.43 608.315 1394.75 612.105" fill="none" opacity="1" stroke="#FFFFFF" stroke-linecap="round" stroke-linejoin="round" stroke-width="5" vectornator:layerName="Кривая 66"/>
<path d="M1424.01 578.219C1424.01 576.91 1425.71 575.294 1424.78 574.369C1423.83 573.419 1418.95 583.726 1418.62 584.38C1416.65 588.318 1411.82 602.136 1418.62 604.403C1425.9 606.831 1443.26 590.645 1443.26 583.61C1443.26 581.899 1441.98 581.471 1440.95 582.84C1438.35 586.311 1436.91 593.416 1436.33 597.472C1435.95 600.18 1435.56 602.406 1435.56 605.173" fill="none" opacity="1" stroke="#FFFFFF" stroke-linecap="round" stroke-linejoin="round" stroke-width="5" vectornator:layerName="Кривая 67"/>
<path d="M1456.36 595.162C1451.21 597.735 1458.74 600.641 1461.75 599.783C1468.91 597.735 1488.88 585.192 1483.31 575.909C1478.86 568.495 1469.16 574.181 1466.37 579.759C1463.06 586.384 1467.33 592.276 1471.76 596.702" fill="none" opacity="1" stroke="#FFFFFF" stroke-linecap="round" stroke-linejoin="round" stroke-width="5" vectornator:layerName="Кривая 68"/>
<path d="M1267.68 643.68C1260.65 646.021 1270.76 664.473 1278.46 664.473C1285.57 664.473 1292.21 653.307 1293.86 647.53C1294.22 646.262 1295.55 644.178 1293.86 642.909C1289.04 639.294 1286.38 654.236 1286.16 656.002C1285.87 658.294 1286.16 660.622 1286.16 662.933" fill="none" opacity="1" stroke="#FFFFFF" stroke-linecap="round" stroke-linejoin="round" stroke-width="5" vectornator:layerName="Кривая 69"/>
<path d="M1152.16 688.347C1144.05 688.347 1161.94 676.045 1166.02 679.105C1169.31 681.572 1164.15 690.55 1162.94 692.967C1162.83 693.181 1158.32 698.068 1158.32 697.588C1158.32 694.337 1169.3 690.131 1172.18 693.737C1173.49 695.366 1173.72 698.711 1173.72 700.669C1173.72 710.64 1165.71 710.68 1157.55 710.68" fill="none" opacity="1" stroke="#FFFFFF" stroke-linecap="round" stroke-linejoin="round" stroke-width="5" vectornator:layerName="Кривая 70"/>
<path d="M1200.68 693.737C1200.68 691.388 1202.57 686.744 1201.45 684.496C1200.02 681.643 1192.67 682.973 1190.66 683.726C1183.58 686.384 1176.05 696.831 1182.96 703.749C1189.46 710.243 1198.69 699.511 1202.22 695.278C1203.71 693.481 1205.5 690.627 1206.07 688.347C1206.19 687.849 1206.58 686.806 1206.07 686.806C1202.39 686.806 1203.26 691.847 1202.99 693.737C1202.24 698.992 1200.95 704.96 1206.07 708.37" fill="none" opacity="1" stroke="#FFFFFF" stroke-linecap="round" stroke-linejoin="round" stroke-width="5" vectornator:layerName="Кривая 71"/>
<path d="M1225.32 682.956C1225.06 682.442 1225.12 681.416 1224.55 681.416C1223.98 681.416 1223.78 682.382 1223.78 682.956C1223.78 688.516 1226.93 695.037 1227.63 700.669C1227.67 701.014 1226.69 705.14 1229.17 704.519C1230.44 704.203 1239.05 689.665 1240.72 687.577C1241.66 686.408 1241.54 683.726 1243.03 683.726C1243.55 683.726 1243.16 684.768 1243.03 685.266C1242.7 686.607 1241.72 687.753 1241.49 689.117C1240.68 693.967 1238.97 701.623 1245.34 703.749C1254.81 706.905 1265.66 698.995 1269.99 691.427C1270.81 689.982 1273.64 686.508 1272.3 684.496C1271.57 683.407 1269.26 684.244 1268.45 685.266C1266.37 687.858 1266.95 697.635 1269.22 699.898C1277.33 708.015 1290.2 697.49 1295.4 691.427C1297.09 689.453 1300.13 683.393 1296.17 681.416C1293.77 680.216 1293.3 685.374 1293.09 686.806C1292.28 692.467 1293.35 698.923 1293.86 704.519C1294.1 707.179 1297.95 724.807 1295.4 726.083C1291.98 727.795 1276.74 721.758 1273.07 719.922" fill="none" opacity="1" stroke="#FFFFFF" stroke-linecap="round" stroke-linejoin="round" stroke-width="5" vectornator:layerName="Кривая 72"/>
<path d="M1326.21 689.117C1326.21 672.574 1300.29 695.76 1311.57 702.209C1321.01 707.599 1338.76 703.319 1345.46 695.278C1348.78 691.288 1350.14 686.362 1350.85 681.416C1350.9 681.074 1350.25 674.311 1348.54 676.025C1347.09 677.474 1347.77 682.728 1347.77 684.496C1347.77 693.224 1347.77 701.952 1347.77 710.68" fill="none" opacity="1" stroke="#FFFFFF" stroke-linecap="round" stroke-linejoin="round" stroke-width="5" vectornator:layerName="Кривая 73"/>
<path d="M1362.4 686.806C1364.91 685.551 1366.48 685.266 1369.33 685.266C1370.1 685.266 1367.78 685.14 1367.02 685.266C1365.18 685.573 1363.49 686.6 1361.63 686.806C1357.07 687.313 1352.13 687.246 1347.77 689.117C1347.25 689.338 1344.46 690.845 1344.69 692.197C1345.44 696.7 1351.99 698.29 1355.47 699.898C1363.08 703.409 1370.81 706.034 1378.57 709.14" fill="none" opacity="1" stroke="#FFFFFF" stroke-linecap="round" stroke-linejoin="round" stroke-width="5" vectornator:layerName="Кривая 74"/>
<path d="M1055.4 214.762C1054.76 212.184 1054.68 209.465 1053.84 206.943C1053.59 206.201 1053.84 208.507 1053.84 209.289C1053.84 210.331 1053.84 211.374 1053.84 212.416C1053.84 214.762 1053.84 217.108 1053.84 219.454C1053.84 222.852 1054.22 226.244 1054.62 229.619C1055.76 239.29 1057.74 248.374 1060.09 257.769C1060.54 259.557 1062.52 262.419 1060.87 263.243C1059.15 264.106 1057.63 259.382 1056.96 258.551C1053.98 254.818 1050.51 250.326 1048.36 246.04" fill="none" opacity="1" stroke="#FFFFFF" stroke-linecap="round" stroke-linejoin="round" stroke-width="5" vectornator:layerName="Кривая 75"/>
<path d="M1061.66 263.243C1058.48 256.898 1066.79 246.726 1069.48 241.349" fill="none" opacity="1" stroke="#FFFFFF" stroke-linecap="round" stroke-linejoin="round" stroke-width="5" vectornator:layerName="Кривая 76"/>
<path d="M1053.05 454.038C1052.57 453.077 1053.35 450.91 1052.27 450.91C1050.6 450.91 1050.19 455.475 1049.93 456.384C1048.47 461.478 1048.36 467.535 1048.36 472.805C1048.36 483.348 1047.36 496.394 1050.71 506.429C1051.05 507.439 1053.05 514.092 1049.93 513.466C1045.93 512.668 1042.74 505.595 1040.54 502.519C1038.54 499.715 1035.81 496.969 1034.29 493.918" fill="none" opacity="1" stroke="#FFFFFF" stroke-linecap="round" stroke-linejoin="round" stroke-width="5" vectornator:layerName="Кривая 77"/>
<path d="M1049.93 508.775C1055.92 502.783 1061.1 497.462 1067.91 492.354" fill="none" opacity="1" stroke="#FFFFFF" stroke-linecap="round" stroke-linejoin="round" stroke-width="5" vectornator:layerName="Кривая 78"/>
<path d="M1068.69 726.156C1068.17 725.895 1067.13 724.791 1067.13 725.374C1067.13 726.989 1074.78 737.342 1075.73 738.667C1077.25 740.788 1078.92 742.793 1080.42 744.923C1090.39 759.038 1100.56 773.003 1112.48 785.584C1120.31 793.846 1126.64 803.06 1134.38 811.388C1141.91 819.504 1150.89 826.381 1157.05 835.629C1157.99 837.033 1169.02 851.342 1168.78 852.05C1168.28 853.554 1165.41 852.147 1164.09 851.268C1162.98 850.528 1148.45 840.803 1148.45 840.32C1148.45 839.935 1152.14 842.54 1152.36 842.666C1153.37 843.245 1154.48 843.652 1155.49 844.23C1159.94 846.772 1164.48 849.466 1168.78 852.05C1168.87 852.102 1170.91 854.943 1171.91 853.613C1174.45 850.222 1168.99 840.641 1168 837.193" fill="none" opacity="1" stroke="#FFFFFF" stroke-linecap="round" stroke-linejoin="round" stroke-width="5" vectornator:layerName="Кривая 79"/>
<path d="M1177.96 886.064C1177.03 885.442 1180.12 885.071 1180.7 884.109C1181.48 882.806 1177.98 885.506 1176.79 886.455C1175.06 887.837 1173.78 889.708 1172.1 891.147C1166.63 895.833 1161.28 900.738 1155.68 905.222C1154.47 906.188 1151.04 908.013 1150.2 909.132C1149.69 909.817 1150.26 914.965 1150.2 915.387C1149.1 923.083 1149.74 931.109 1148.64 938.846C1148.31 941.156 1147.61 942.98 1147.08 945.101C1146.58 947.064 1147.57 949.394 1147.08 951.357C1146.47 953.795 1144.84 956.484 1145.51 959.176C1145.96 960.989 1163.65 967.568 1166.62 968.56C1167.35 968.802 1176.53 974.289 1176.79 974.033C1177.2 973.621 1175.68 972.954 1176.01 972.47C1177.27 970.58 1182.01 971.99 1183.83 971.688C1194.17 969.964 1205.32 970.906 1215.89 970.906C1217.71 970.906 1229.07 970.234 1229.96 969.342C1230.83 968.476 1231.19 964.485 1232.31 963.086C1235.14 959.547 1237.33 956.414 1240.13 952.921C1241.24 951.533 1243.98 950.264 1244.82 949.011C1245.59 947.86 1244.82 934.684 1244.82 932.59C1244.82 916.391 1244.42 900.132 1232.31 888.019C1230.1 885.807 1222.78 887.309 1219.8 886.455C1212.63 884.408 1203.82 885.673 1196.34 885.673C1194.48 885.673 1191.9 885.22 1190.08 885.673C1186.4 886.593 1183.26 888.061 1179.13 887.237C1178.56 887.123 1177.16 886.867 1177.57 886.455C1178.33 885.695 1179.38 887.007 1177.96 886.064Z" fill="#e94420" fill-rule="nonzero" opacity="1" stroke="#FFFFFF" stroke-linecap="round" stroke-linejoin="round" stroke-width="5" vectornator:layerName="Кривая 80"/>
<path d="M1213.54 913.823C1213.8 913.302 1214.91 912.26 1214.32 912.26C1211.64 912.26 1206.56 919.419 1204.94 920.861C1203.69 921.97 1202.21 922.809 1201.03 923.989C1195.86 929.157 1190.98 934.92 1186.17 940.41C1184.2 942.667 1182.02 944.018 1180.7 946.665" fill="none" opacity="1" stroke="#ffffff" stroke-linecap="round" stroke-linejoin="round" stroke-width="5" vectornator:layerName="Кривая 81"/>
<path d="M1176.79 912.26C1172.35 903.372 1184.78 920.08 1185.39 920.861C1192.16 929.567 1198.05 938.531 1208.07 943.537" fill="none" opacity="1" stroke="#ffffff" stroke-linecap="round" stroke-linejoin="round" stroke-width="5" vectornator:layerName="Кривая 82"/>
<path d="M1297.57 909.578C1297.57 907.31 1297.68 903.617 1296.8 901.853C1296.44 901.125 1296.14 903.365 1296.03 904.171C1295.88 905.19 1296.03 906.231 1296.03 907.26C1296.03 910.35 1296.03 913.44 1296.03 916.53C1296.03 927.172 1296.8 937.61 1296.8 948.2" fill="none" opacity="1" stroke="#FFFFFF" stroke-linecap="round" stroke-linejoin="round" stroke-width="5" vectornator:layerName="Кривая 83"/>
<path d="M1298.73 916.916C1296.19 913.316 1292.78 905.18 1296.03 900.308C1299.96 894.41 1310.39 896.905 1314.57 901.081C1317.83 904.338 1321.7 913.721 1318.43 918.075C1316.88 920.138 1311.39 920.392 1309.16 920.392C1307.36 920.392 1305.24 921.418 1303.75 920.392C1300.91 918.42 1299.41 917.868 1298.73 916.916Z" fill="none" opacity="1" stroke="#FFFFFF" stroke-linecap="round" stroke-linejoin="round" stroke-width="5" vectornator:layerName="Кривая 84"/>
<path d="M1322.29 931.979C1323.35 929.855 1326.87 930.434 1329.24 930.434C1335.28 930.434 1343.48 930.376 1348.56 926.572C1352.12 923.899 1348.67 921.606 1346.24 920.392C1340.59 917.567 1329.26 916.251 1325.38 922.709C1321.95 928.434 1326.72 935.251 1331.56 938.158C1339.29 942.798 1350.74 944.419 1358.6 939.703" fill="none" opacity="1" stroke="#FFFFFF" stroke-linecap="round" stroke-linejoin="round" stroke-width="5" vectornator:layerName="Кривая 85"/>
<path d="M1367.09 920.392C1360.43 917.058 1365.34 936.486 1366.32 938.931C1366.75 940 1366.91 942.659 1367.87 942.02C1370.03 940.581 1371.2 933.484 1372.5 931.206C1374.59 927.545 1373.46 930.057 1376.36 926.572C1376.9 925.929 1380.86 919.337 1382.54 922.709C1383.23 924.091 1382.54 925.799 1382.54 927.344C1382.54 933.545 1382.65 937.488 1387.18 942.02" fill="none" opacity="1" stroke="#FFFFFF" stroke-linecap="round" stroke-linejoin="round" stroke-width="5" vectornator:layerName="Кривая 86"/>
<path d="M1403.79 931.592C1406.49 931.592 1404.33 926.184 1404.17 923.482C1404.09 922.171 1403.4 926.031 1403.4 927.344C1403.4 930.947 1403.26 933.661 1405.72 936.613C1415.52 948.382 1428.89 936.761 1428.89 924.254C1428.89 918.21 1421.46 918.075 1417.3 918.075C1409.65 918.075 1400.85 919.53 1396.45 926.572C1394.57 929.58 1393.9 932.865 1396.45 935.841C1397.29 936.818 1398.73 939.164 1399.54 938.158C1402.71 934.198 1401.08 931.592 1403.79 931.592Z" fill="none" opacity="1" stroke="#FFFFFF" stroke-linecap="round" stroke-linejoin="round" stroke-width="5" vectornator:layerName="Кривая 87"/>
<path d="M1448.97 917.302C1446.88 911.037 1446.66 925.943 1446.66 927.344C1446.66 934.886 1446.38 942.242 1445.88 949.745C1445.66 953.095 1445.84 956.509 1445.11 959.787C1444.93 960.581 1444.34 962.104 1444.34 962.104C1444.34 962.104 1445.29 958.475 1445.88 956.697C1447.2 952.763 1448.23 949.221 1448.97 945.11C1449.94 939.783 1448.73 917.364 1455.15 915.757C1461.71 914.119 1478.45 923.185 1475.24 931.206C1472.93 936.979 1455.06 935.841 1449.75 935.841" fill="none" opacity="1" stroke="#FFFFFF" stroke-linecap="round" stroke-linejoin="round" stroke-width="5" vectornator:layerName="Кривая 88"/>
<path d="M1490.69 908.033C1490.69 901.08 1491.38 915.739 1491.46 916.53C1492.14 923.358 1493 929.676 1493 936.613C1493 937.128 1492.94 935.579 1493 935.068C1493.2 933.514 1493.28 931.92 1493.78 930.434C1494.07 929.553 1494.86 928.922 1495.32 928.116C1496.95 925.258 1502.73 914.29 1506.13 913.44C1510.1 912.449 1507.96 930.755 1510 931.979C1511.78 933.047 1517.73 925.125 1518.49 924.254C1521.99 920.257 1525.53 916.443 1529.31 912.668C1529.41 912.568 1531.67 909.984 1532.4 910.35C1535.27 911.786 1533.94 918.767 1533.94 921.164C1533.94 924.254 1533.94 927.344 1533.94 930.434" fill="none" opacity="1" stroke="#FFFFFF" stroke-linecap="round" stroke-linejoin="round" stroke-width="5" vectornator:layerName="Кривая 89"/>
<path d="M991.398 454.641C988.557 453.22 984.192 465.099 982.307 467.926C976.394 476.797 970.313 484.311 959.932 488.205C953.776 490.513 947.499 490.302 941.052 490.302C916.262 490.302 899.535 481.903 883.014 463.731C875.523 455.49 867.231 447.647 862.736 437.159C858.855 428.105 856.325 416.593 854.345 407.092C851.623 394.024 854.314 379.964 857.142 367.235C859.461 356.799 859.976 344.786 864.834 335.069C869.818 325.1 876.331 316.504 882.315 307.1C889.295 296.131 896.512 284.552 905.39 274.934C910.102 269.83 916.252 264.89 921.473 260.25C930.899 251.871 941.633 245.58 951.541 237.874C955.969 234.43 960.097 230.538 964.826 227.385C965.882 226.682 979.51 218.98 979.51 218.295C979.51 216.897 976.68 217.992 975.315 218.295C970.198 219.432 965.112 221.751 959.932 222.491C956.201 223.024 959.441 221.708 955.736 223.19C955.252 223.383 953.816 223.889 954.338 223.889C956.302 223.889 956.883 222.498 958.533 221.791C963.357 219.724 968.831 218.322 973.916 217.596C975.548 217.363 978.411 215.298 978.811 216.897C979.513 219.703 974.408 225.901 973.217 228.085C972.469 229.457 971.939 230.948 971.119 232.28C968.877 235.924 966.564 239.558 964.826 243.468" fill="none" opacity="1" stroke="#FFFFFF" stroke-linecap="round" stroke-linejoin="round" stroke-width="5" vectornator:layerName="Кривая 90"/>
<path d="M474.262 405.992C471.902 401.272 472.378 396.038 472.378 390.92C472.378 376.319 476.148 362.657 481.797 349.475C483.452 345.614 486.364 336.559 491.217 335.346C498.465 333.533 503.896 338.687 510.056 340.997C514.342 342.605 517.222 342.995 521.359 343.823C522.973 344.146 526.199 345.935 527.953 344.765C532.061 342.027 542.786 327.22 549.618 330.636C554.211 332.932 558.095 344.879 558.095 349.475C558.095 362.671 556.741 377.438 560.921 389.979" fill="none" opacity="1" stroke="#FFFFFF" stroke-linecap="round" stroke-linejoin="round" stroke-width="7.5" vectornator:layerName="Кривая 91"/>
<path d="M409.267 420.121C417.31 414.759 431.019 415.943 440.352 414.469C456.352 411.943 472.274 411.427 488.391 409.759C535.792 404.856 582.956 399.398 630.625 399.398" fill="none" opacity="1" stroke="#FFFFFF" stroke-linecap="round" stroke-linejoin="round" stroke-width="7.5" vectornator:layerName="Кривая 92"/>
<path d="M476.998 419.05C473.894 412.841 476.735 427.987 476.998 428.908C478.712 434.907 481.03 441.522 483.823 447.109C490.383 460.229 508.397 464.602 521.741 466.826C541.207 470.071 566.221 453.996 569.518 434.217C570.948 425.636 571.364 417.863 564.967 411.466" fill="none" opacity="1" stroke="#FFFFFF" stroke-linecap="round" stroke-linejoin="round" stroke-width="7.5" vectornator:layerName="Кривая 93"/>
<path d="M491.032 414.307C490.729 413.701 490.729 412.187 490.123 412.49C489.115 412.994 489.515 418.228 489.669 419.305C490.441 424.711 494.751 431.379 500.572 432.026C508.62 432.92 517.614 424.956 518.746 417.033C519.076 414.721 518.746 412.109 518.746 409.764" fill="#3e68ff" fill-opacity="0.828829" fill-rule="nonzero" opacity="1" stroke="#FFFFFF" stroke-linecap="round" stroke-linejoin="round" stroke-width="7.5" vectornator:layerName="Кривая 94"/>
<path d="M527.832 410.218C524.104 408.354 526.467 413.546 527.378 415.67C529.773 421.26 533.814 426.131 540.099 427.028C549.642 428.392 552.366 413.784 552.366 407.038" fill="#3e68ff" fill-opacity="0.828829" fill-rule="nonzero" opacity="1" stroke="#FFFFFF" stroke-linecap="round" stroke-linejoin="round" stroke-width="7.5" vectornator:layerName="Кривая 95"/>
<path d="M501.444 471.354C502.354 474.084 509.802 492.986 508.787 495.017C508.167 496.257 506.094 494.201 504.707 494.201C502.531 494.201 500.356 494.201 498.18 494.201C489.68 494.201 482.924 496.264 474.517 497.465C472.835 497.705 467.089 497.632 466.357 499.096C465.011 501.789 476.948 514.78 478.597 517.048C487.829 529.741 496.933 542.296 503.891 556.214" fill="none" opacity="1" stroke="#FFFFFF" stroke-linecap="round" stroke-linejoin="round" stroke-width="7.5" vectornator:layerName="Кривая 96"/>
<path d="M542.242 471.354C542.242 470.538 542.242 468.09 542.242 468.906C542.242 474.618 542.242 480.329 542.242 486.041C542.242 487.945 540.539 490.901 542.242 491.753C542.744 492.004 545.74 487.148 546.321 486.857C550.145 484.945 556.088 484.751 560.193 484.409C570.058 483.587 580.508 482.777 590.383 482.777C593.666 482.777 595.466 482.024 598.543 481.145C600.197 480.673 603.439 479.513 603.439 479.513C603.439 479.513 598.725 481.779 596.911 483.593C591.925 488.579 586.666 494.953 582.224 500.728C570.468 516.011 558.18 533.692 552.033 552.134" fill="none" opacity="1" stroke="#FFFFFF" stroke-linecap="round" stroke-linejoin="round" stroke-width="7.5" vectornator:layerName="Кривая 97"/>
<path d="M513.683 494.201C512.867 494.201 510.419 494.201 511.235 494.201C519.946 494.201 527.242 493.055 535.714 490.937" fill="none" opacity="1" stroke="#FFFFFF" stroke-linecap="round" stroke-linejoin="round" stroke-width="7.5" vectornator:layerName="Кривая 98"/>
<path d="M432.087 641.889C432.087 633.277 432.625 624.381 432.087 615.779C431.797 611.132 430.713 606.556 430.455 601.907C430.229 597.834 430.794 593.734 430.455 589.668C430.161 586.134 429.639 579.061 429.639 579.061C429.639 579.061 429.803 582.436 430.455 583.956C431.413 586.192 432.631 588.308 433.719 590.484C436.778 596.602 447.523 619.178 456.566 616.595C465.397 614.071 473.45 595.753 474.517 587.22C474.624 586.363 475.062 580.421 474.517 579.877C474.087 579.446 473.82 580.912 473.701 581.508C472.939 585.317 473.846 590.056 474.517 593.748C475.151 597.237 475.097 600.817 475.333 604.355C475.625 608.731 476.385 613.064 476.965 617.411C477.812 623.767 478.214 630.134 480.229 636.178" fill="none" opacity="1" stroke="#FFFFFF" stroke-linecap="round" stroke-linejoin="round" stroke-width="7.5" vectornator:layerName="Кривая 99"/>
<path d="M500.628 605.987C500.084 604.899 499.33 603.893 498.996 602.723C498.772 601.939 498.419 599.699 498.996 600.276C499.789 601.068 499.418 602.489 499.812 603.539C502.392 610.419 504.888 617.5 506.339 624.754C506.831 627.213 507.282 629.687 507.971 632.098C508.138 632.683 508.787 634.338 508.787 633.73C508.787 624.039 503.251 615.364 504.707 605.171C505.339 600.752 507.946 598.185 512.051 597.012C521.396 594.342 529.063 600.091 534.082 607.619" fill="none" opacity="1" stroke="#FFFFFF" stroke-linecap="round" stroke-linejoin="round" stroke-width="7.5" vectornator:layerName="Кривая 100"/>
<path d="M545.505 634.954C544.283 634.343 542.687 634.836 541.426 635.362C537.938 636.815 544.971 638.35 546.321 637.81C546.356 637.796 551.745 634.546 549.585 634.546C547.342 634.546 546.16 635.281 545.505 634.954Z" fill="none" opacity="1" stroke="#FFFFFF" stroke-linecap="round" stroke-linejoin="round" stroke-width="7.5" vectornator:layerName="Кривая 101"/>
<path d="M582.224 583.956C581.122 581.752 581.408 579.87 581.408 577.429C581.408 576.885 581.408 575.253 581.408 575.797C581.408 589.583 581.77 603.871 584.671 617.411C584.878 618.373 587.868 632.132 589.567 631.282C591.027 630.552 589.567 628.018 589.567 626.386" fill="none" opacity="1" stroke="#FFFFFF" stroke-linecap="round" stroke-linejoin="round" stroke-width="7.5" vectornator:layerName="Кривая 102"/>
<path d="M586.303 576.613C583.525 571.056 591.009 571.669 594.463 570.901C602.076 569.209 610.351 570.085 618.126 570.085C621.591 570.085 629.182 569.188 626.285 574.981" fill="none" opacity="1" stroke="#FFFFFF" stroke-linecap="round" stroke-linejoin="round" stroke-width="7.5" vectornator:layerName="Кривая 103"/>
<path d="M589.567 605.171C589.023 604.899 587.391 604.627 587.935 604.355C589.638 603.504 591.743 604.355 593.647 604.355C600.719 604.355 607.79 604.355 614.862 604.355" fill="none" opacity="1" stroke="#FFFFFF" stroke-linecap="round" stroke-linejoin="round" stroke-width="7.5" vectornator:layerName="Кривая 104"/>
<path d="M977.327 732.744C977.327 725.577 971.601 735.65 970.507 737.291C965.227 745.21 960.206 752.768 955.729 761.162C942.851 785.31 930.435 809.591 915.944 832.775C914.474 835.129 904.381 855.51 902.304 855.51C900.816 855.51 901.167 850.753 901.167 846.416C901.167 841.084 903.558 836.734 904.577 831.639C904.956 829.744 903.782 825.955 905.714 825.955C906.472 825.955 905.898 827.493 905.714 828.228C905.245 830.103 904.85 831.999 904.577 833.912C904.329 835.65 901.866 855.072 902.304 855.51C906.198 859.404 908.626 853.251 910.261 850.963C917.001 841.526 926.014 837.113 935.268 830.502" fill="none" opacity="1" stroke="#FFFFFF" stroke-linecap="round" stroke-linejoin="round" stroke-width="5" vectornator:layerName="Кривая 105"/>
<path d="M847.517 944.285C848.654 939.508 850.449 938.434 853.679 935.203C855.723 933.16 857.77 930.399 859.517 928.068C860.098 927.295 860.131 924.79 860.815 925.474C861.273 925.932 860.525 926.839 860.815 927.42C862.472 930.733 870.224 937.477 873.139 940.393C873.594 940.848 878.101 944.99 878.328 944.933C880.426 944.409 880.964 941.503 882.22 939.744C885.396 935.297 888.592 930.488 891.95 926.122C897.757 918.573 903.019 910.499 908.815 902.771C911.828 898.753 915.656 895.14 918.545 891.095C919.817 889.314 919.608 888.086 921.14 886.554C922.458 885.236 924.66 880.624 926.329 880.068C927.904 879.543 932.673 883.888 934.113 884.608C935.948 885.526 939.951 886.554 939.951 886.554C939.951 886.554 937.538 888.041 936.707 889.149C934.519 892.066 932.208 895.107 930.221 898.23C925.878 905.055 922.126 912.483 917.248 918.987C907.547 931.922 898.04 945.141 890.004 959.204C888.021 962.675 886.196 966.2 884.166 969.582C883.838 970.13 883.058 973.844 882.22 974.123C880.114 974.825 873.593 966.365 872.491 965.042C868.237 959.938 861.35 955.771 856.274 951.42C855.337 950.616 849.633 947.99 849.139 946.879C848.415 945.25 847.251 945.403 847.517 944.285Z" fill="#68c40c" fill-rule="nonzero" opacity="1" stroke="#FFFFFF" stroke-linecap="round" stroke-linejoin="round" stroke-width="5" vectornator:layerName="Кривая 106"/>
<path d="M672.969 956.311C672.969 948.784 697.543 935.564 704.519 934.401C715.252 932.612 725.278 937.892 735.192 940.536C745.025 943.158 759.924 946.336 770.248 944.041C777.566 942.415 781.283 936.512 786.023 931.772" fill="none" opacity="1" stroke="#FFFFFF" stroke-linecap="round" stroke-linejoin="round" stroke-width="5" vectornator:layerName="Кривая 107"/>
<path d="M679.104 938.783C679.104 937.578 679.98 935.277 679.98 935.277C679.98 935.277 677.558 938.729 676.474 940.536C674.128 944.446 670.299 946.773 668.587 951.052C668.219 951.971 665.739 955.215 666.834 956.311C668.978 958.455 674.678 956.92 677.351 957.187C681.672 957.619 685.85 959.414 689.62 961.569" fill="none" opacity="1" stroke="#FFFFFF" stroke-linecap="round" stroke-linejoin="round" stroke-width="5" vectornator:layerName="Кривая 108"/>
<path d="M1051.31 566.375C1050.91 566.418 1050.48 566.5 1050.09 566.5C1042.79 566.5 1036.27 567.272 1029.16 568.062C1027.62 568.233 1019.23 567.696 1018.28 569.594C1017.88 570.393 1015.66 581.469 1015.97 582.031C1016.29 582.608 1018.43 581.999 1017.91 582.406C1013.88 585.563 1008.81 587.97 1004.31 591.344C1002.52 592.691 999.691 597.79 998.125 598.312C996.792 598.757 994.286 595.627 993.469 595.219C990.281 593.625 981.483 590.675 977.938 592.094C973.86 593.725 970.318 609.285 969.406 613.844C968.847 616.637 966.281 619.352 966.281 622.375C966.281 624.551 978.613 628.631 980.25 627.812C980.767 627.554 980.622 625.841 981.031 626.25C981.458 626.677 980.733 636.416 981.031 637.906C981.29 639.2 981.223 640.602 981.812 641.781C980.173 641.781 974.841 646.049 973.281 647.219C972.529 647.783 969.89 650.982 968.094 651.656C969.234 653.9 970.697 658.241 970.938 658.844C973.568 665.421 976.065 670.065 981.812 674.375C982.847 675.151 982.929 677.06 984.156 677.469C985.563 677.938 995.55 666.494 998.875 668.156C1000.5 668.967 1002.25 675.238 1005.88 676.688C1009.53 678.15 1008.19 672.003 1008.97 675.906C1009.55 678.836 1007.83 691.559 1009.75 693C1010.66 693.685 1014.85 692.219 1015.97 692.219C1023.21 692.219 1029.16 691.083 1036.12 689.094C1037.88 688.591 1040.27 689.637 1041.56 688.344C1042.39 687.515 1040.92 674.696 1043.12 673.594C1044.74 672.785 1048.14 672.813 1050.09 672.031C1051.17 671.602 1052.12 670.103 1053.22 670.469C1054.28 670.824 1056.85 677.813 1057.09 679.031C1057.21 679.633 1056.73 683.305 1057.88 683.688C1058.06 683.748 1064.37 678.719 1064.84 678.25C1067.14 675.956 1071.55 675.551 1074.16 673.594C1076.76 671.639 1078.63 669.398 1081.16 667.375C1081.88 666.798 1087.6 661.421 1087.34 660.406C1086.88 658.546 1085.27 659.086 1084.25 658.062C1082.73 656.546 1080.18 650.85 1078.03 650.312C1077.47 650.172 1076.5 651.094 1076.5 651.094C1076.5 651.094 1078.85 648.7 1079.59 647.219C1080.92 644.558 1082.89 640.806 1083.47 637.906C1083.95 635.495 1082.08 629.665 1083.47 627.812C1084.72 626.14 1090.1 625.36 1092 623.938C1093.63 622.715 1095.03 621.253 1096.66 620.031C1097.12 619.684 1098.04 619.83 1098.22 619.281C1098.4 618.732 1097.85 618.128 1097.44 617.719C1094.06 614.342 1092.03 615.814 1089.69 609.969C1088.56 607.162 1083.6 593.656 1080.38 593.656C1077.59 593.656 1070.81 598.305 1068.72 599.875C1068.13 600.314 1067.92 601.406 1067.19 601.406C1066.03 601.406 1066.14 599.347 1065.62 598.312C1064.23 595.529 1062.8 593.01 1060.97 590.562C1060.17 589.501 1054.88 583.511 1053.22 584.344C1053.22 583.308 1053.22 582.281 1053.22 581.25C1053.22 579.452 1053.64 567.101 1052.44 566.5C1052.09 566.326 1051.71 566.332 1051.31 566.375ZM968.094 651.656C967.69 650.861 967.308 650.313 967.062 650.312C966.545 650.312 966.6 651.644 967.062 651.875C967.328 652.008 967.729 651.793 968.094 651.656ZM1031.78 607.031C1035.35 607.436 1038.55 609.568 1041.38 611.688C1049.4 617.706 1059.6 623.057 1050.97 634.562C1043.14 645.006 1022.61 653.418 1011.88 642.688C1008.42 639.235 1005.46 632.971 1006.72 627.938C1007.32 625.53 1009.07 623.625 1009.66 621.281C1009.88 620.375 1010.77 619.315 1011.78 618.281C1011.38 618.221 1013.37 616.215 1014.09 615.375C1014.77 614.583 1015.46 613.794 1016.31 613.188C1019.62 610.825 1024.04 608.294 1028.09 607.281C1029.36 606.965 1030.59 606.896 1031.78 607.031Z" fill="#8b8b8b" fill-rule="nonzero" opacity="1" stroke="#FFFFFF" stroke-linecap="round" stroke-linejoin="round" stroke-width="5" vectornator:layerName="Кривая 109"/>
<path d="M349.089 280.711C345.777 287.335 347.75 294.609 348.089 301.711C348.343 307.049 348.745 312.378 349.089 317.711C350.895 345.704 352.441 373.708 354.089 401.711C358.548 477.517 364.047 553.367 373.089 628.711C374.988 644.535 374.331 660.805 375.089 676.711C375.632 688.128 374.415 699.689 378.089 710.711" fill="none" opacity="1" stroke="#FFFFFF" stroke-linecap="round" stroke-linejoin="round" stroke-width="7.5" vectornator:layerName="Кривая 110"/>
<path d="M666.089 269.711C666.089 268.711 666.089 267.711 666.089 266.711C666.089 266.044 666.089 264.044 666.089 264.711C666.089 280.424 666.627 296.028 667.089 311.711C667.972 341.753 669.089 371.649 669.089 401.711C669.089 445.093 667.355 488.368 669.089 531.711C669.633 545.324 668.118 559.125 669.089 572.711C670.33 590.094 672.89 607.336 674.089 624.711C675.123 639.702 677.089 654.662 677.089 669.711C677.089 676.151 675.074 688.683 678.089 694.711" fill="none" opacity="1" stroke="#FFFFFF" stroke-linecap="round" stroke-linejoin="round" stroke-width="7.5" vectornator:layerName="Кривая 111"/>
<path d="M378.089 711.711C377.456 710.446 375.089 710.125 375.089 708.711C375.089 706.711 379.089 708.711 381.089 708.711C388.171 708.711 394.955 709.711 402.089 709.711C426.063 709.711 450.064 710.711 474.089 710.711C497.862 710.711 521.369 706.699 545.089 705.711C572.399 704.573 599.837 705.528 627.089 703.711C632.68 703.338 638.516 704.33 644.089 703.711C653.252 702.693 661.644 699.711 671.089 699.711" fill="none" opacity="1" stroke="#FFFFFF" stroke-linecap="round" stroke-linejoin="round" stroke-width="7.5" vectornator:layerName="Кривая 112"/>
<path d="M347.089 280.711C347.089 276.101 365.509 276.922 369.089 276.711C391.641 275.384 413.645 272.301 436.089 269.711C464.944 266.382 494.338 265.024 523.089 260.711C544.13 257.555 564.932 255.338 586.089 253.711C615.455 251.452 644.805 253.711 674.089 253.711" fill="none" opacity="1" stroke="#FFFFFF" stroke-linecap="round" stroke-linejoin="round" stroke-width="7.5" vectornator:layerName="Кривая 113"/>
<path d="M545.996 919.214C559.692 917.257 573.232 915.902 586.996 915.214C598.466 914.64 609.465 913.214 620.996 913.214C621.478 913.214 629.75 911.845 629.996 912.214C630.96 913.66 629.296 917.014 628.996 918.214C627.344 924.82 627.109 931.531 625.996 938.214C622.882 956.895 615.996 976.198 615.996 995.214" fill="none" opacity="1" stroke="#FFFFFF" stroke-linecap="round" stroke-linejoin="round" stroke-width="5" vectornator:layerName="Кривая 114"/>
<path d="M540.996 924.214C540.996 922.84 539.996 920.214 539.996 920.214C539.996 920.214 540.662 921.547 540.996 922.214C542.293 924.808 542.98 927.507 543.996 930.214C545.868 935.206 547.952 940.309 549.996 945.214C551.777 949.489 555.055 953.009 556.996 957.214C561.158 966.232 563.501 976.225 567.996 985.214C570.138 989.498 574.775 997.214 579.996 997.214" fill="none" opacity="1" stroke="#FFFFFF" stroke-linecap="round" stroke-linejoin="round" stroke-width="5" vectornator:layerName="Кривая 115"/>
<path d="M573.996 1001.21C583.625 996.399 601.131 996.214 611.996 996.214" fill="none" opacity="1" stroke="#FFFFFF" stroke-linecap="round" stroke-linejoin="round" stroke-width="5" vectornator:layerName="Кривая 116"/>
<path d="M563.635 920.886C563.591 920.419 563.971 919.439 563.503 919.483C563.353 919.497 559.275 930.052 558.902 930.773C556.29 935.824 554.616 942.205 550.955 946.627" fill="none" opacity="1" stroke="#FFFFFF" stroke-linecap="round" stroke-linejoin="round" stroke-width="5" vectornator:layerName="Кривая 117"/>
<path d="M580.771 917.384C573.686 930.538 566.868 943.953 561.459 957.91" fill="none" opacity="1" stroke="#FFFFFF" stroke-linecap="round" stroke-linejoin="round" stroke-width="5" vectornator:layerName="Кривая 118"/>
<path d="M594.851 916.529C592.707 922.061 588.688 927.154 585.968 932.471C581.326 941.547 575.407 950.532 572.061 960.216C570.664 964.259 569.961 968.616 568.997 972.777" fill="none" opacity="1" stroke="#FFFFFF" stroke-linecap="round" stroke-linejoin="round" stroke-width="5" vectornator:layerName="Кривая 119"/>
<path d="M614.882 913.698C615.963 910.907 611.347 918.901 611.156 919.241C610.496 920.416 609.781 921.56 609.125 922.737C606.332 927.75 603.443 932.702 600.622 937.699C597.207 943.751 593.4 949.612 590.044 955.689C586.242 962.576 584.37 970.346 580.755 977.334C578.701 981.304 575.901 984.624 574.283 988.801" fill="none" opacity="1" stroke="#FFFFFF" stroke-linecap="round" stroke-linejoin="round" stroke-width="5" vectornator:layerName="Кривая 120"/>
<path d="M622.755 927.117C618.979 931.678 616.995 938.218 614.384 943.483C608.194 955.965 602.616 968.691 596.212 981.07C594.59 984.205 593.266 988.798 591.055 991.469" fill="none" opacity="1" stroke="#FFFFFF" stroke-linecap="round" stroke-linejoin="round" stroke-width="5" vectornator:layerName="Кривая 121"/>
<path d="M614.602 970.841C615.785 967.786 610.878 978.176 610.628 978.768C608.19 984.536 605.004 989.956 602.302 995.601" fill="none" opacity="1" stroke="#FFFFFF" stroke-linecap="round" stroke-linejoin="round" stroke-width="5" vectornator:layerName="Кривая 122"/>
<path d="M567.566 977.633C575.96 980.886 584.758 987.118 591.656 992.828" fill="none" opacity="1" stroke="#FFFFFF" stroke-linecap="round" stroke-linejoin="round" stroke-width="5" vectornator:layerName="Кривая 123"/>
<path d="M561.212 960.294C566.275 962.256 571.649 967.187 576.306 970.201C585.755 976.315 595.16 982.662 604.492 988.787C607.459 990.734 609.812 994.229 613.151 995.523" fill="none" opacity="1" stroke="#FFFFFF" stroke-linecap="round" stroke-linejoin="round" stroke-width="5" vectornator:layerName="Кривая 124"/>
<path d="M552.254 940.368C563.196 944.609 574.977 949.775 584.474 956.686C589.212 960.134 593.184 964.686 597.829 968.173C600.622 970.269 603.918 971.993 606.868 973.929" fill="none" opacity="1" stroke="#FFFFFF" stroke-linecap="round" stroke-linejoin="round" stroke-width="5" vectornator:layerName="Кривая 125"/>
<path d="M545.635 920.222C563.231 927.041 579.246 937.928 594.574 948.654C601.579 953.556 609.127 957.25 615.724 962.71" fill="none" opacity="1" stroke="#FFFFFF" stroke-linecap="round" stroke-linejoin="round" stroke-width="5" vectornator:layerName="Кривая 126"/>
<path d="M580.523 919.767C580.197 919.641 579.543 919.388 579.543 919.388C579.543 919.388 581.589 920.364 582.527 920.995C583.726 921.8 584.881 922.668 586.067 923.493C588.437 925.144 590.763 926.858 593.146 928.491C596.981 931.119 600.989 933.634 604.745 936.366C609.57 939.878 613.727 944.13 619.372 946.317" fill="none" opacity="1" stroke="#FFFFFF" stroke-linecap="round" stroke-linejoin="round" stroke-width="5" vectornator:layerName="Кривая 127"/>
</g>
</svg>
