<?xml version="1.0" encoding="UTF-8" standalone="no"?>
<!DOCTYPE svg PUBLIC "-//W3C//DTD SVG 1.1//EN" "http://www.w3.org/Graphics/SVG/1.1/DTD/svg11.dtd">
<!-- Created with Vectornator (http://vectornator.io/) -->
<svg height="100%" stroke-miterlimit="10" style="fill-rule:nonzero;clip-rule:evenodd;stroke-linecap:round;stroke-linejoin:round;" version="1.1" viewBox="0 0 1920 1080" width="100%" xml:space="preserve" xmlns="http://www.w3.org/2000/svg" xmlns:vectornator="http://vectornator.io" xmlns:xlink="http://www.w3.org/1999/xlink">
<defs/>
<g id="Слой-1" vectornator:layerName="Слой 1">
<path d="M366.727 383.633C366.727 382.562 366.727 381.491 366.727 380.42C366.727 379.617 366.727 377.207 366.727 378.01C366.727 384.705 364.976 390.709 364.318 397.286C363.967 400.793 364.64 403.548 363.515 406.924" fill="none" opacity="1" stroke="#FFFFFF" stroke-linecap="round" stroke-linejoin="round" stroke-width="5" vectornator:layerName="Кривая 1"/>
<path d="M363.916 359.136C363.789 358.732 363.381 357.53 363.515 357.931C363.971 359.299 364.403 360.679 363.916 359.136Z" fill="none" opacity="1" stroke="#FFFFFF" stroke-linecap="round" stroke-linejoin="round" stroke-width="5" vectornator:layerName="Кривая 2"/>
<path d="M401.264 369.979C403.922 364.661 405.279 358.2 405.279 352.309C405.279 350.572 405.181 346.6 402.067 347.49C396.969 348.947 395.263 357.695 394.838 361.947C393.931 371.021 391.467 392.953 395.641 401.302" fill="none" opacity="1" stroke="#FFFFFF" stroke-linecap="round" stroke-linejoin="round" stroke-width="5" vectornator:layerName="Кривая 3"/>
<path d="M381.988 387.648C381.988 381.571 399.355 382.026 404.476 382.026" fill="none" opacity="1" stroke="#FFFFFF" stroke-linecap="round" stroke-linejoin="round" stroke-width="5" vectornator:layerName="Кривая 4"/>
<path d="M500.053 340.262C486.81 340.262 482.721 360.671 480.777 370.782C478.628 381.954 477.073 395.327 483.989 405.318C487.941 411.026 495.299 413.661 500.856 417.366" fill="none" opacity="1" stroke="#FFFFFF" stroke-linecap="round" stroke-linejoin="round" stroke-width="5" vectornator:layerName="Кривая 5"/>
<path d="M549.849 368.372C548.141 364.956 542.221 374.335 541.014 376.404C537.167 383 533.996 390.44 530.573 397.286C528.752 400.929 528.753 405.979 524.148 402.909" fill="none" opacity="1" stroke="#FFFFFF" stroke-linecap="round" stroke-linejoin="round" stroke-width="5" vectornator:layerName="Кривая 6"/>
<path d="M523.345 373.995C520.965 369.235 528.956 384.193 529.77 385.239C533.721 390.319 538.551 394.716 543.424 398.893" fill="none" opacity="1" stroke="#FFFFFF" stroke-linecap="round" stroke-linejoin="round" stroke-width="5" vectornator:layerName="Кривая 7"/>
<path d="M588.401 366.766C586.646 363.257 593.532 365.264 595.629 365.963C600.773 367.677 606.122 368.861 610.889 371.585C612.665 372.6 617.594 374.869 615.708 378.01C614.524 379.985 612.003 380.749 610.086 382.026C603.855 386.18 596.866 389.748 590.81 394.074C589.525 394.992 585.638 398.09 589.204 398.09" fill="none" opacity="1" stroke="#FFFFFF" stroke-linecap="round" stroke-linejoin="round" stroke-width="5" vectornator:layerName="Кривая 8"/>
<path d="M641.008 366.365C636.483 370.471 636.591 377.988 636.591 383.633C636.591 387.381 635.682 391.241 636.591 394.877C639.597 406.903 654.528 404.474 662.292 399.696C666.015 397.405 671.359 392.372 673.536 388.452C679.021 378.578 675.154 364.522 664.701 360.341C659.887 358.415 646.545 358.046 643.016 362.75C642.197 363.842 642.301 365.192 641.008 366.365Z" fill="none" opacity="1" stroke="#FFFFFF" stroke-linecap="round" stroke-linejoin="round" stroke-width="5" vectornator:layerName="Кривая 9"/>
<path d="M700.844 335.443C698.409 328.139 707.315 335.879 708.876 337.049C715.162 341.764 720.964 347.763 724.939 354.719C734.459 371.38 732.964 396.488 716.104 407.728" fill="none" opacity="1" stroke="#FFFFFF" stroke-linecap="round" stroke-linejoin="round" stroke-width="5" vectornator:layerName="Кривая 10"/>
<path d="M808.468 303.316C808.736 301.71 808.756 300.042 809.271 298.497C809.525 297.735 809.371 300.11 809.271 300.907C809.102 302.261 808.692 303.576 808.468 304.922C807.838 308.704 807.046 312.463 806.058 316.167C803.783 324.698 801.908 333.337 799.633 341.868C798.518 346.048 797.79 350.611 796.42 354.719C796.231 355.287 795.194 355.902 795.617 356.325C796.041 356.748 796.745 355.881 797.224 355.522C799.198 354.041 807.512 344.621 809.271 349.9C810.463 353.477 809.014 359.199 808.468 362.75C806.289 376.914 800.142 398.844 819.712 402.105C826.121 403.174 824.499 402.909 830.957 402.909" fill="none" opacity="1" stroke="#FFFFFF" stroke-linecap="round" stroke-linejoin="round" stroke-width="5" vectornator:layerName="Кривая 11"/>
<path d="M549.849 460.736C545.588 460.736 544.937 465.742 543.424 468.768C538.776 478.064 534.942 487.877 531.376 497.682C530.594 499.832 527.944 502.061 528.967 504.107C529.502 505.178 531.108 503.036 532.179 502.501" fill="none" opacity="1" stroke="#FFFFFF" stroke-linecap="round" stroke-linejoin="round" stroke-width="5" vectornator:layerName="Кривая 12"/>
<path d="M567.519 455.917C563.361 460.075 562.047 468.023 560.29 473.587C557.332 482.954 554.343 492.311 551.455 501.698C550.397 505.139 548.243 507.871 548.243 511.336" fill="none" opacity="1" stroke="#FFFFFF" stroke-linecap="round" stroke-linejoin="round" stroke-width="5" vectornator:layerName="Кривая 13"/>
<path d="M606.07 453.508C601.782 453.508 603.661 463.262 603.661 466.359C603.661 475.47 603.709 484.603 604.464 493.666C604.548 494.677 604.839 502.554 606.874 498.485" fill="none" opacity="1" stroke="#FFFFFF" stroke-linecap="round" stroke-linejoin="round" stroke-width="5" vectornator:layerName="Кривая 14"/>
<path d="M605.267 476.8C608.988 473.079 612.289 477.468 616.512 478.406C622.422 479.719 627.282 480.012 633.378 480.012" fill="none" opacity="1" stroke="#FFFFFF" stroke-linecap="round" stroke-linejoin="round" stroke-width="5" vectornator:layerName="Кривая 15"/>
<path d="M632.575 452.705C625.789 449.312 626.15 457.601 626.15 462.343C626.15 472.586 628.51 482.227 630.969 492.06C631.594 494.562 631.449 497.037 632.575 499.288" fill="none" opacity="1" stroke="#FFFFFF" stroke-linecap="round" stroke-linejoin="round" stroke-width="5" vectornator:layerName="Кривая 16"/>
<path d="M647.032 484.028C651.522 481.783 660.265 480.241 663.095 475.997C666.422 471.006 655.635 468.577 652.654 469.571C650.823 470.182 649.318 471.548 647.835 472.784C642.218 477.465 641.379 492.575 647.835 496.879C654.853 501.557 663.097 498.686 670.324 496.879" fill="none" opacity="1" stroke="#FFFFFF" stroke-linecap="round" stroke-linejoin="round" stroke-width="5" vectornator:layerName="Кривая 17"/>
<path d="M687.993 454.311C686.857 452.797 685.553 449.245 683.977 450.295C681.858 451.708 683.174 461.072 683.174 463.146C683.174 472.434 682.463 482.005 683.174 491.257C683.204 491.637 684.996 501.698 685.584 501.698C686.72 501.698 687.19 500.091 687.993 499.288" fill="none" opacity="1" stroke="#FFFFFF" stroke-linecap="round" stroke-linejoin="round" stroke-width="5" vectornator:layerName="Кривая 18"/>
<path d="M704.057 448.689C703.789 448.154 703.834 446.937 703.253 447.083C702.151 447.358 701.291 448.448 700.844 449.492C699.789 451.953 700.844 454.847 700.844 457.524C700.844 459.398 700.844 461.272 700.844 463.146C700.844 469.694 701.213 475.918 701.647 482.422C701.94 486.812 701.238 492.849 703.253 496.879" fill="none" opacity="1" stroke="#FFFFFF" stroke-linecap="round" stroke-linejoin="round" stroke-width="5" vectornator:layerName="Кривая 19"/>
<path d="M721.325 471.579C719.242 471.579 724.464 468.805 725.742 467.162C726.11 466.689 724.495 467.486 724.136 467.965C723.058 469.402 722.22 471.057 721.726 472.784C721.064 475.101 721.726 477.603 721.726 480.012C721.726 487.999 725.603 498.437 736.183 494.469C747.084 490.382 752.755 465.08 738.593 461.54C732.597 460.041 727.897 463.164 723.332 466.359C722.054 467.254 720.421 467.664 719.317 468.768C718.213 469.872 715.346 472.784 716.907 472.784C720.388 472.784 723.815 471.579 721.325 471.579Z" fill="none" opacity="1" stroke="#FFFFFF" stroke-linecap="round" stroke-linejoin="round" stroke-width="5" vectornator:layerName="Кривая 20"/>
<path d="M802.043 473.587C805.596 466.48 810.737 460.355 813.287 452.705C813.479 452.128 815.753 440.887 812.484 443.067C810.204 444.587 811.681 454.484 811.681 456.721C811.681 468.657 817.303 480.392 817.303 492.06" fill="none" opacity="1" stroke="#FFFFFF" stroke-linecap="round" stroke-linejoin="round" stroke-width="5" vectornator:layerName="Кривая 21"/>
<path d="M798.027 492.06C810.548 492.06 823.583 491.421 835.776 494.469" fill="none" opacity="1" stroke="#FFFFFF" stroke-linecap="round" stroke-linejoin="round" stroke-width="5" vectornator:layerName="Кривая 22"/>
<path d="M357.893 538.643C354.89 532.639 370.318 531.887 373.153 535.431C376.974 540.207 373.842 549.201 374.759 554.707C374.956 555.888 375.168 557.919 376.365 557.919C376.964 557.919 376.901 555.778 377.169 556.313C377.273 556.521 377.09 561.31 377.169 561.935C378.133 569.652 381.448 586.675 373.153 591.652C369.2 594.024 363.644 591.652 359.499 591.652" fill="none" opacity="1" stroke="#FFFFFF" stroke-linecap="round" stroke-linejoin="round" stroke-width="5" vectornator:layerName="Кривая 23"/>
<path d="M415.72 573.179C420.256 572.045 424.389 569.648 428.571 567.557C448.212 557.737 422.679 549.248 414.114 559.526C405.428 569.949 414.125 582.017 425.358 585.227C439.552 589.282 451.962 581.563 463.91 575.589" fill="none" opacity="1" stroke="#FFFFFF" stroke-linecap="round" stroke-linejoin="round" stroke-width="5" vectornator:layerName="Кривая 24"/>
<path d="M470.336 533.021C469.136 532.222 466.855 530.076 466.32 531.415C465.425 533.652 466.32 536.234 466.32 538.643C466.32 550.431 468.047 561.038 471.139 572.376C472.252 576.458 471.644 579.773 475.958 581.211" fill="none" opacity="1" stroke="#FFFFFF" stroke-linecap="round" stroke-linejoin="round" stroke-width="5" vectornator:layerName="Кривая 25"/>
<path d="M508.888 550.691C508.888 539.151 480.753 551.446 484.793 559.526C486.865 563.671 504.774 569.918 509.691 572.376C510.763 572.912 517.39 576.033 515.313 578.802C512.356 582.745 491.218 585.492 491.218 577.998" fill="none" opacity="1" stroke="#FFFFFF" stroke-linecap="round" stroke-linejoin="round" stroke-width="5" vectornator:layerName="Кривая 26"/>
<path d="M526.557 565.148C531.511 563.496 535.955 562.658 541.014 561.935C544.48 561.44 548.053 560.376 551.455 559.526C552.482 559.269 560.824 556.577 559.487 553.904C557.966 550.862 550.176 550.691 547.439 550.691C538.854 550.691 529.77 552.556 529.77 562.738C529.77 565.375 531.118 568.102 532.982 569.967C534.195 571.179 535.572 572.229 536.998 573.179C538.794 574.377 540.643 575.527 542.62 576.392C547.742 578.633 553.184 580.211 558.684 581.211C562.931 581.983 567.301 581.971 571.534 582.817" fill="none" opacity="1" stroke="#FFFFFF" stroke-linecap="round" stroke-linejoin="round" stroke-width="5" vectornator:layerName="Кривая 27"/>
<path d="M636.591 529.005C637.084 528.018 636.29 525.793 637.394 525.793C639 525.793 637.855 529.073 637.394 530.612C635.626 536.506 633.467 542.659 630.969 548.281C629.996 550.47 628.827 552.565 627.756 554.707C627.488 555.242 626.354 556.313 626.953 556.313C628.502 556.313 629.333 553.551 633.378 554.707C640.151 556.642 634.775 576.566 636.591 582.014C637.715 585.388 645.474 585.883 647.835 586.03C656.065 586.544 664.481 586.03 672.733 586.03" fill="none" opacity="1" stroke="#FFFFFF" stroke-linecap="round" stroke-linejoin="round" stroke-width="5" vectornator:layerName="Кривая 28"/>
<path d="M530.573 639.039C530.573 637.935 531.87 634.839 531.376 635.826C526.257 646.065 522.078 656.833 516.919 667.15C515.431 670.126 512.903 672.529 512.903 675.985" fill="none" opacity="1" stroke="#FFFFFF" stroke-linecap="round" stroke-linejoin="round" stroke-width="5" vectornator:layerName="Кривая 29"/>
<path d="M551.455 626.991C548.422 633.057 547.636 639.775 545.833 646.267C542.252 659.161 537.946 671.608 532.982 684.016" fill="none" opacity="1" stroke="#FFFFFF" stroke-linecap="round" stroke-linejoin="round" stroke-width="5" vectornator:layerName="Кривая 30"/>
<path d="M628.559 638.236C629.105 636.599 631.162 632.669 630.165 631.007C625.933 623.953 613.909 631.2 610.086 635.023C601.685 643.424 595.585 654.213 594.826 666.347C593.944 680.46 607.174 683.213 618.118 683.213C626.245 683.213 633.49 682.99 637.394 675.181" fill="none" opacity="1" stroke="#FFFFFF" stroke-linecap="round" stroke-linejoin="round" stroke-width="5" vectornator:layerName="Кривая 31"/>
<path d="M615.708 663.134C615.708 658.875 639.394 656.027 642.213 660.724C646.156 667.296 635.788 680.242 635.788 688.032" fill="none" opacity="1" stroke="#FFFFFF" stroke-linecap="round" stroke-linejoin="round" stroke-width="5" vectornator:layerName="Кривая 32"/>
<path d="M664.3 661.528C662.011 662.291 664.978 656.458 663.898 654.299C663.467 653.436 662.171 655.223 661.489 655.905C659.781 657.613 659.882 660.941 659.882 663.134C659.882 669.451 665.099 675.408 670.324 678.394C672.378 679.568 675.81 681.273 678.355 680C685.429 676.463 692.012 661.852 686.387 655.102C681.886 649.701 672.103 653.043 667.914 656.709C665.899 658.472 664.292 660.739 663.095 663.134C662.601 664.121 661.882 667.371 662.292 666.347C663.77 662.651 666.918 660.655 664.3 661.528Z" fill="none" opacity="1" stroke="#FFFFFF" stroke-linecap="round" stroke-linejoin="round" stroke-width="5" vectornator:layerName="Кривая 33"/>
<path d="M700.041 661.126C699.391 662.209 698.081 658.961 696.828 659.118C696.031 659.218 696.828 660.724 696.828 661.528C696.828 666.047 698.135 669.761 701.647 672.772C712.816 682.345 728.955 670.367 728.955 657.512C728.955 650.48 720.512 646.672 714.498 648.677C711.243 649.762 703.677 655.846 702.45 659.118C702.074 660.121 703.445 662.728 702.45 662.331C700.509 661.554 701.083 659.389 700.041 661.126Z" fill="none" opacity="1" stroke="#FFFFFF" stroke-linecap="round" stroke-linejoin="round" stroke-width="5" vectornator:layerName="Кривая 34"/>
<path d="M762.688 659.52C763.363 656.817 759.251 655.111 757.869 652.693C756.532 650.353 759.842 651.477 756.262 650.283C746.015 646.867 727.49 650.928 732.97 665.543C736.526 675.025 751.387 675.213 758.672 671.166C759.842 670.515 760.814 669.559 761.884 668.756C762.955 667.953 765.387 667.653 765.097 666.347C764.11 661.904 762.147 661.681 762.688 659.52Z" fill="none" opacity="1" stroke="#FFFFFF" stroke-linecap="round" stroke-linejoin="round" stroke-width="5" vectornator:layerName="Кривая 35"/>
<path d="M763.491 622.172C759.502 620.178 759.475 632.532 759.475 635.023C759.475 650.076 760.278 664.997 760.278 680" fill="none" opacity="1" stroke="#FFFFFF" stroke-linecap="round" stroke-linejoin="round" stroke-width="5" vectornator:layerName="Кривая 36"/>
<path d="M785.979 661.528C798.076 658.503 813.412 650.008 821.319 639.842C829.041 629.913 818.061 622.663 808.468 624.582C804.427 625.39 800.524 628.688 798.027 631.81C785.188 647.859 796.904 680.394 818.909 678.394C824.751 677.863 830.67 672.714 828.547 666.347C826.28 659.546 818.629 657.512 812.484 657.512C808.114 657.512 804.299 659.578 802.846 663.937C801.704 667.362 802.043 665.5 802.043 669.559" fill="none" opacity="1" stroke="#FFFFFF" stroke-linecap="round" stroke-linejoin="round" stroke-width="5" vectornator:layerName="Кривая 37"/>
<path d="M846.217 648.677C845.503 647.249 845.32 645.558 843.004 647.874C841.683 649.194 842.451 651.192 842.201 652.693C840.893 660.543 842.299 670.776 851.839 671.969C861.186 673.137 870.895 661.383 873.524 653.496C874.025 651.993 876.261 646.915 874.327 645.464C870.996 642.966 868.447 651.24 867.902 652.693C865.754 658.422 862.912 675.096 869.508 678.394" fill="none" opacity="1" stroke="#FFFFFF" stroke-linecap="round" stroke-linejoin="round" stroke-width="5" vectornator:layerName="Кривая 38"/>
<path d="M899.226 643.858C896.613 638.633 898.335 651.498 898.422 651.89C899.429 656.422 902.316 663.093 907.257 664.74C914.306 667.09 919.998 657.368 920.911 651.89C921.176 650.301 921.937 644.661 919.305 644.661C915.816 644.661 916.092 657.513 916.092 659.921C916.092 671.94 916.781 684.126 915.289 696.064C914.769 700.224 915.09 707.658 911.273 710.521C906.627 714.005 901.087 709.106 897.619 706.505C888.934 699.991 879.209 692.882 869.508 688.032" fill="none" opacity="1" stroke="#FFFFFF" stroke-linecap="round" stroke-linejoin="round" stroke-width="5" vectornator:layerName="Кривая 39"/>
<path d="M977.132 635.023C962.419 620.309 989.721 610.469 996.408 622.172C1002.96 633.63 987.524 651.136 980.345 658.315C979.887 658.773 973.605 663.482 973.92 664.74C974.629 667.576 983.005 666.347 984.361 666.347C992.211 666.347 1005.57 663.458 1011.67 669.559" fill="none" opacity="1" stroke="#FFFFFF" stroke-linecap="round" stroke-linejoin="round" stroke-width="5" vectornator:layerName="Кривая 40"/>
<path d="M373.956 716.946C378.477 714.685 383.576 716.68 388.413 716.143C389.467 716.026 402.067 712.916 402.067 712.127C402.067 710.788 399.165 711.384 398.051 712.127C397.132 712.739 397.658 714.315 397.248 715.34C395.779 719.01 395.802 725.141 396.445 728.993C398.784 743.03 408.14 754.541 410.901 768.348C411.795 772.818 412.405 779.172 407.689 782.002C403.904 784.273 399.02 783.609 394.838 783.609" fill="none" opacity="1" stroke="#FFFFFF" stroke-linecap="round" stroke-linejoin="round" stroke-width="5" vectornator:layerName="Кривая 41"/>
<path d="M203.191 261.129C203.191 265.536 208.335 286.879 216.512 283.608C219.85 282.273 222.061 274.545 223.172 271.952C226.464 264.271 229.478 256.485 232.331 248.64C233.352 245.831 234.936 243.214 235.661 240.314C235.863 239.507 235.072 238.405 235.661 237.817C236.1 237.378 236.216 238.927 236.494 239.482" fill="none" opacity="1" stroke="#FFFFFF" stroke-linecap="round" stroke-linejoin="round" stroke-width="5" vectornator:layerName="Кривая 42"/>
<path d="M247.317 253.219C240.227 257.349 240.566 270.993 244.819 276.948C246.411 279.176 250.89 282.735 253.978 281.11C265.595 274.996 272.846 267.107 276.457 254.468C277.289 251.557 275.311 247.337 273.959 245.31C271.324 241.356 261.803 242.271 258.14 243.645C253.036 245.559 251.487 250.79 247.317 253.219Z" fill="none" opacity="1" stroke="#FFFFFF" stroke-linecap="round" stroke-linejoin="round" stroke-width="5" vectornator:layerName="Кривая 43"/>
<path d="M288.113 242.812C288.113 252.679 291.443 262.109 291.443 271.952" fill="none" opacity="1" stroke="#FFFFFF" stroke-linecap="round" stroke-linejoin="round" stroke-width="5" vectornator:layerName="Кривая 44"/>
<path d="M288.946 225.744C290.029 225.744 286.448 224.747 286.448 223.663C286.448 222.785 288.553 223.71 288.946 224.495C289.223 225.051 287.637 225.744 288.946 225.744Z" fill="none" opacity="1" stroke="#FFFFFF" stroke-linecap="round" stroke-linejoin="round" stroke-width="5" vectornator:layerName="Кривая 45"/>
<path d="M330.574 248.64C330.574 243.201 324.028 243.645 319.751 243.645C312.537 243.645 307.205 246.937 303.099 252.803C295.664 263.425 306.456 272.238 315.588 275.282C324.042 278.1 329.813 274.379 335.57 268.622" fill="none" opacity="1" stroke="#FFFFFF" stroke-linecap="round" stroke-linejoin="round" stroke-width="5" vectornator:layerName="Кривая 46"/>
<path d="M333.072 214.505C331.654 214.032 329.578 211.503 328.909 212.839C326.859 216.94 330.076 225.765 331.407 229.491C337.483 246.504 340.565 263.135 340.565 281.11" fill="none" opacity="1" stroke="#FFFFFF" stroke-linecap="round" stroke-linejoin="round" stroke-width="5" vectornator:layerName="Кривая 47"/>
<path d="M462.954 239.482C463.959 237.471 468.75 234.054 464.619 231.989C459.615 229.487 451.422 238.088 448.8 241.147C444.416 246.261 440.387 255.586 444.637 261.961C446.358 264.543 450.041 265.081 452.963 266.124C454.552 266.692 456.276 266.817 457.958 266.957C461.277 267.233 464.63 267.233 467.949 266.957C472.757 266.556 477.024 264.917 481.27 262.794" fill="none" opacity="1" stroke="#FFFFFF" stroke-linecap="round" stroke-linejoin="round" stroke-width="5" vectornator:layerName="Кривая 48"/>
<path d="M492.094 215.337C491.596 214.342 490.429 212.203 490.429 211.174C490.429 210.554 491.065 212.251 491.261 212.839C491.623 213.925 491.845 215.053 492.094 216.17C492.453 217.789 493.652 223.946 493.759 225.328C494.225 231.393 494.591 237.55 494.591 243.645C494.591 247.53 494.591 251.415 494.591 255.301C494.591 256.966 494.591 258.631 494.591 260.296C494.591 261.129 493.759 262.794 494.591 262.794C496.829 262.794 496.921 258.967 497.922 256.966C501.453 249.902 506.257 244.632 511.243 238.649C512.248 237.443 513.169 236.021 514.573 235.319C515.128 235.041 515.894 233.97 516.238 234.486C519.453 239.308 510.81 257.798 522.066 257.798" fill="none" opacity="1" stroke="#FFFFFF" stroke-linecap="round" stroke-linejoin="round" stroke-width="5" vectornator:layerName="Кривая 49"/>
<path d="M541.215 239.482C543.188 237.51 542.356 233.928 542.048 231.156C541.895 229.777 539.778 233.118 539.55 234.486C539.231 236.403 539.017 238.446 539.55 240.314C541.644 247.644 550.699 255.47 558.7 252.803C565.679 250.476 572.891 231.628 568.69 225.328C561.182 214.065 537.921 224.389 534.555 234.486C534.116 235.803 534.021 237.368 534.555 238.649C535.473 240.853 536.731 245.801 538.718 244.477C541.859 242.383 539.633 241.064 541.215 239.482Z" fill="none" opacity="1" stroke="#FFFFFF" stroke-linecap="round" stroke-linejoin="round" stroke-width="5" vectornator:layerName="Кривая 50"/>
<path d="M583.26 229.491C577.115 229.092 580.571 244.094 582.012 246.975C592.835 268.622 616.815 251.96 620.31 234.486C623.303 219.523 605.045 216.392 593.668 218.667C590.821 219.237 585.746 222.443 584.509 225.328C584.072 226.348 585.433 228.043 584.509 228.658C583.677 229.213 585.243 229.62 583.26 229.491Z" fill="none" opacity="1" stroke="#FFFFFF" stroke-linecap="round" stroke-linejoin="round" stroke-width="5" vectornator:layerName="Кривая 51"/>
<path d="M657.776 228.658C661.18 221.85 654.319 221.998 649.45 221.998C643.129 221.998 635.026 224.3 631.133 229.491C625.348 237.204 646.652 241.502 651.115 244.477C658.527 249.418 651.17 254.468 645.287 254.468C643.345 254.468 641.402 254.468 639.459 254.468C636.006 254.468 633.641 253.638 630.301 252.803" fill="none" opacity="1" stroke="#FFFFFF" stroke-linecap="round" stroke-linejoin="round" stroke-width="5" vectornator:layerName="Кривая 52"/>
<path d="M680.255 238.649C678.222 234.582 685.244 236.984 687.748 236.984C694.153 236.984 714.391 236.327 714.391 226.161C714.391 221.638 700.596 220.333 697.739 220.333C691.569 220.333 684.755 220.078 680.255 225.328C678.508 227.366 678.206 230.357 677.758 232.821C676.229 241.227 678.231 247.048 686.916 250.305C691.961 252.197 697.406 252.836 702.735 253.636C709.206 254.606 709.881 254.468 715.223 254.468" fill="none" opacity="1" stroke="#FFFFFF" stroke-linecap="round" stroke-linejoin="round" stroke-width="5" vectornator:layerName="Кривая 53"/>
<path d="M787.657 179.536C779.995 182.09 775.599 191.358 771.838 197.853C761.218 216.198 748.54 244.583 773.504 257.798C777.382 259.852 781.664 261.24 785.992 261.961" fill="none" opacity="1" stroke="#FFFFFF" stroke-linecap="round" stroke-linejoin="round" stroke-width="5" vectornator:layerName="Кривая 54"/>
<path d="M837.612 215.337C837.334 213.95 837.412 209.909 836.779 211.174C835.29 214.153 836.779 217.835 836.779 221.165C836.779 227.62 835.867 234.76 836.779 241.147C837.061 243.122 837.681 246.837 839.277 243.645" fill="none" opacity="1" stroke="#FFFFFF" stroke-linecap="round" stroke-linejoin="round" stroke-width="5" vectornator:layerName="Кривая 55"/>
<path d="M831.784 196.604C830.714 195.902 828.381 192.786 829.286 193.69C830.542 194.947 832.408 197.014 831.784 196.604Z" fill="none" opacity="1" stroke="#FFFFFF" stroke-linecap="round" stroke-linejoin="round" stroke-width="5" vectornator:layerName="Кривая 56"/>
<path d="M860.091 212.007C860.091 215.354 860.556 218.686 860.924 221.998C861.385 226.153 861.646 225.357 862.589 228.658C863.247 230.962 864.522 235.319 865.087 235.319C867.979 235.319 870.368 229.757 871.747 227.826C874.654 223.756 878.567 218.615 883.403 217.002C884.236 216.725 885.086 215.844 885.901 216.17C887.666 216.876 890.234 232.992 893.394 236.151" fill="none" opacity="1" stroke="#FFFFFF" stroke-linecap="round" stroke-linejoin="round" stroke-width="5" vectornator:layerName="Кривая 57"/>
<path d="M923.367 186.197C918.754 195.423 921.519 210.952 924.199 220.333C925.395 224.518 931.301 233.603 929.195 237.817" fill="none" opacity="1" stroke="#FFFFFF" stroke-linecap="round" stroke-linejoin="round" stroke-width="5" vectornator:layerName="Кривая 58"/>
<path d="M907.548 218.667C915.338 213.474 933.927 219.5 943.349 219.5" fill="none" opacity="1" stroke="#FFFFFF" stroke-linecap="round" stroke-linejoin="round" stroke-width="5" vectornator:layerName="Кривая 59"/>
<path d="M1019.11 203.681C1014.26 203.681 1012.82 207.898 1009.95 211.174C1003.08 219.03 996.44 227.187 989.14 234.486" fill="none" opacity="1" stroke="#FFFFFF" stroke-linecap="round" stroke-linejoin="round" stroke-width="5" vectornator:layerName="Кривая 60"/>
<path d="M987.475 211.174C990.366 205.391 994.436 212.512 996.633 215.337C1004.16 225.009 1015.39 232.672 1024.94 240.314" fill="none" opacity="1" stroke="#FFFFFF" stroke-linecap="round" stroke-linejoin="round" stroke-width="5" vectornator:layerName="Кривая 61"/>
<path d="M1058.24 174.541C1056.03 165.689 1063.85 176.291 1064.9 177.871C1069.43 184.667 1073.73 191.363 1077.39 198.686C1087.35 218.603 1088.34 245.666 1065.74 256.966" fill="none" opacity="1" stroke="#FFFFFF" stroke-linecap="round" stroke-linejoin="round" stroke-width="5" vectornator:layerName="Кривая 62"/>
<path d="M1158.99 168.713C1148.75 155.072 1146.66 186.361 1145.66 192.025C1145.22 194.545 1144.55 197.021 1144 199.518C1143.44 202.016 1142.92 204.521 1142.33 207.011C1141.81 209.239 1141.26 211.461 1140.67 213.672C1140.15 215.624 1139.53 217.551 1139 219.5C1138.87 219.985 1138.37 224.495 1136.51 224.495C1134.26 224.495 1140.27 212.037 1144.83 221.165C1145.22 221.95 1145.56 222.792 1145.66 223.663C1147.02 234.491 1142.84 243.617 1139.84 253.636C1138.75 257.245 1136.73 262.188 1139.84 265.292C1144.03 269.486 1151.87 270.029 1157.32 271.12" fill="none" opacity="1" stroke="#FFFFFF" stroke-linecap="round" stroke-linejoin="round" stroke-width="5" vectornator:layerName="Кривая 63"/>
<path d="M214.847 833.939C221.657 830.534 229.999 832.108 237.326 831.442C238.642 831.322 245.96 829.252 247.317 830.609C248.091 831.383 238.038 837.248 237.326 838.102C233.138 843.128 231.591 848.096 232.331 854.754C233.28 863.3 241.705 866.492 245.652 873.07C247.069 875.432 246.484 878.82 246.484 881.396C246.484 894.952 243.93 903.156 238.159 914.699" fill="none" opacity="1" stroke="#FFFFFF" stroke-linecap="round" stroke-linejoin="round" stroke-width="5" vectornator:layerName="Кривая 64"/>
</g>
<g id="Layer-1" vectornator:layerName="Layer 1" visibility="hidden">
<path d="M1321.51 185.16C1319.93 184.373 1317.98 182.972 1316.28 182.547C1315.72 182.406 1314.54 183.127 1314.54 182.547C1314.54 180.206 1319.17 181.675 1321.51 181.675C1326.44 181.675 1331.38 181.9 1336.32 181.675C1358.38 180.672 1380.44 179.529 1402.51 178.191C1440.06 175.916 1477.21 172.965 1514.87 172.965C1524.17 172.965 1533.46 172.965 1542.75 172.965C1544.2 172.965 1545.67 173.204 1547.1 172.965C1548.01 172.814 1548.95 171.585 1549.72 172.094C1551.94 173.579 1548.47 177.302 1547.97 179.933C1546.57 187.44 1545.51 195.011 1544.49 202.58C1542.46 217.57 1541.88 232.766 1541.88 247.873C1541.88 258.819 1542.75 270.492 1540.13 280.972C1538.9 285.927 1526.74 280.551 1523.58 280.101C1521.29 279.772 1518.93 280.357 1516.62 280.101C1489.02 277.035 1460.84 278.359 1433 278.359C1409.04 278.359 1384.96 281.116 1361.57 284.456C1354.54 285.461 1346.77 283.063 1339.8 284.456C1337.2 284.975 1335.69 288.811 1332.83 288.811C1327.09 288.811 1321.38 287.617 1315.41 288.811C1313.99 289.096 1309.84 291.486 1308.44 290.553C1306.94 289.553 1307.57 285.77 1307.57 284.456C1307.57 277.216 1308.44 270.023 1308.44 262.68C1308.44 244.33 1310.68 224.709 1305.83 206.935C1303.94 199.989 1304.09 193.138 1304.09 186.031C1304.09 185.16 1304.09 184.289 1304.09 183.418C1304.09 182.256 1304.61 178.895 1304.09 179.933C1303.3 181.513 1303.51 183.418 1303.22 185.16" fill="#68c40c" fill-rule="nonzero" opacity="1" stroke="#68c40c" stroke-linecap="round" stroke-linejoin="round" stroke-width="5" vectornator:layerName="Кривая 112"/>
<path d="M1292.31 337.5C1284.48 339.866 1286.65 357.289 1286.65 363.631C1286.65 379.762 1285.51 396.37 1287.52 412.408C1287.75 414.296 1290.9 433.28 1293.61 434.183C1294.29 434.407 1300.54 430.717 1300.58 430.699C1303.42 429.635 1306.38 428.919 1309.29 428.086C1325.15 423.554 1342.64 422.576 1358.94 420.247C1383.71 416.708 1408.89 416.061 1433.85 415.021C1455.05 414.138 1476.19 412.408 1497.43 412.408C1512.27 412.408 1527.17 410.556 1541.85 408.924C1545.25 408.547 1554.63 410.07 1555.79 405.44C1556.21 403.75 1555.54 401.938 1555.79 400.214C1556.01 398.666 1557.15 397.375 1557.53 395.859C1558.18 393.284 1557.07 394.841 1556.66 392.374C1555.67 386.393 1556.66 379.219 1556.66 373.212C1556.66 359.835 1558.19 345.456 1555.79 332.274C1555.53 330.834 1553.32 313.112 1551.44 313.112C1549.98 313.112 1549.38 315.486 1547.95 315.725C1541.43 316.812 1535.15 314.512 1528.79 313.983C1518.98 313.165 1509.01 312.758 1499.17 312.24C1468.29 310.615 1438.38 315.853 1407.72 317.467C1384.54 318.687 1361.92 323.213 1338.91 325.306C1330.16 326.101 1320.49 325.331 1311.91 327.048C1309.47 327.534 1307.34 329.059 1304.94 329.661C1302.79 330.198 1298.88 330.652 1297.1 332.274C1294.36 334.76 1292.72 337.374 1292.31 337.5Z" fill="#68c40c" fill-rule="nonzero" opacity="1" stroke="#68c40c" stroke-linecap="round" stroke-linejoin="round" stroke-width="5" vectornator:layerName="Кривая 113"/>
<path d="M1299.73 472.372C1301.1 469.633 1298.49 465.444 1300.6 463.226C1302.4 461.334 1305.83 463.38 1308.44 463.226C1310.77 463.089 1313.07 462.485 1315.41 462.355C1326.15 461.759 1336.89 461.725 1347.63 460.613C1367.46 458.563 1387.02 454.428 1406.86 452.774C1420.51 451.637 1433.34 452.321 1446.93 452.774C1462.27 453.286 1477.74 452.774 1493.09 452.774C1504.31 452.774 1515.13 453.044 1526.19 451.032C1527.78 450.744 1538.33 446.554 1539.26 448.419C1541.67 453.251 1540.62 464.812 1541 470.195C1541.73 480.369 1542.21 490.49 1542.74 500.68C1543.66 518.115 1544.48 535.445 1544.48 552.942C1544.48 553.57 1544.56 565.927 1544.48 566.007C1543.46 567.033 1542.35 563.933 1541 563.394C1539.09 562.631 1536.94 562.75 1534.9 562.523C1527.09 561.655 1519.23 561.704 1511.39 560.781C1480.89 557.193 1449.64 556.379 1419.06 559.039C1392.34 561.362 1365.21 563.364 1338.92 568.62C1331.4 570.125 1323.72 571.487 1316.28 572.975C1315.79 573.072 1311.32 574.893 1311.05 574.717C1309 573.352 1310.43 567.995 1310.18 566.007C1309.21 558.212 1308.69 550.319 1307.57 542.489C1305.84 530.399 1303.21 518.088 1302.34 505.906C1301.79 498.18 1304.05 489.059 1302.34 481.518C1301.08 475.955 1298.87 474.08 1299.73 472.372Z" fill="#68c40c" fill-rule="nonzero" opacity="1" stroke="#68c40c" stroke-linecap="round" stroke-linejoin="round" stroke-width="5" vectornator:layerName="Кривая 114"/>
<path d="M1298.39 609.933C1333.26 611.581 1368.25 606.528 1402.91 605.142C1428.35 604.124 1454.18 605.963 1479.56 604.271C1494.55 603.271 1509.24 602.021 1523.98 599.916C1527.94 599.35 1535.87 596.279 1539.66 598.174C1542.14 599.413 1537.62 607.473 1537.05 609.497C1533.76 621.009 1535.05 634.21 1533.56 646.08C1531.93 659.151 1530.83 672.313 1529.21 685.276C1528.92 687.599 1528.34 689.903 1528.34 692.244C1528.34 693.115 1529.12 694.468 1528.34 694.857C1527.6 695.224 1527.3 693.538 1526.59 693.115C1525.81 692.643 1524.83 692.585 1523.98 692.244C1521.76 691.355 1519.4 690.74 1517.01 690.502C1507.17 689.518 1497.33 688.362 1487.4 687.889C1458.97 686.535 1430.35 688.141 1402.04 689.631C1387.29 690.407 1372.34 689.37 1357.62 690.502C1352.09 690.927 1346.59 691.784 1341.07 692.244C1333.64 692.863 1325.5 691.153 1318.42 693.986C1316.81 694.63 1306.36 700.218 1304.48 698.341C1302.37 696.226 1303.01 681.296 1302.74 678.308C1301.32 662.64 1298.35 647.097 1297.52 631.273C1297.27 626.625 1296.95 621.98 1296.64 617.336C1296.51 615.308 1295.34 612.8 1296.64 611.239C1297.59 610.102 1296.17 609.828 1298.39 609.933Z" fill="#68c40c" fill-rule="nonzero" opacity="1" stroke="#68c40c" stroke-linecap="round" stroke-linejoin="round" stroke-width="5" vectornator:layerName="Кривая 115"/>
<path d="M1303.75 735.087C1325.97 735.087 1348.58 734.933 1370.82 734.216C1388.34 733.65 1405.62 731.065 1423.08 729.861C1450.66 727.958 1478.37 728.556 1505.82 725.506C1509.51 725.096 1527.43 721.912 1530.21 723.763C1531.9 724.887 1529.56 737.273 1529.34 739.442C1527.53 757.586 1526.82 776.079 1525.86 794.316C1525.26 805.73 1525.86 816.812 1525.86 828.286C1525.86 832.724 1526.13 839.24 1523.24 843.093C1521.25 845.751 1501.4 842.916 1498.86 842.222C1475.52 835.859 1451.62 833.512 1427.43 833.512C1411.26 833.512 1394.8 832.615 1378.65 833.512C1372.19 833.872 1365.91 835.59 1359.49 836.125C1348.02 837.081 1336.18 836.996 1324.65 836.996C1316.81 836.996 1308.97 836.996 1301.13 836.996C1300.09 836.996 1295.9 838.446 1295.04 837.867C1293.64 836.939 1295.91 823.278 1295.91 821.318C1295.91 819.285 1295.91 817.253 1295.91 815.221C1295.91 797.237 1293.31 777.824 1288.94 760.346C1287.72 755.464 1286.33 752.374 1286.33 747.281" fill="#68c40c" fill-rule="nonzero" opacity="1" stroke="#68c40c" stroke-linecap="round" stroke-linejoin="round" stroke-width="5" vectornator:layerName="Кривая 116"/>
<path d="M1369.41 235.679C1369.12 235.098 1368.02 234.326 1368.54 233.937C1371.15 231.982 1380.2 232.437 1383.35 232.195C1393.25 231.433 1403.08 231.551 1412.97 230.453C1413.82 230.357 1417.57 230.829 1418.19 229.582C1418.89 228.183 1415.32 228.334 1413.84 227.84" fill="none" opacity="1" stroke="#ffffff" stroke-linecap="round" stroke-linejoin="round" stroke-width="5" vectornator:layerName="Кривая 117"/>
<path d="M1394.67 214.774C1388.93 209.03 1390.91 222.106 1391.19 225.227C1392.06 234.778 1397.29 243.776 1397.29 253.099" fill="none" opacity="1" stroke="#ffffff" stroke-linecap="round" stroke-linejoin="round" stroke-width="5" vectornator:layerName="Кривая 118"/>
<path d="M1459.13 237.421C1462.31 231.064 1471.12 228.383 1474.81 221.742C1477.3 217.261 1480.22 209.584 1479.16 204.322C1478.73 202.163 1476.18 198.718 1473.94 201.709C1471.09 205.498 1472.19 212.275 1472.19 216.516C1472.19 228.435 1473.07 240.469 1473.07 252.228" fill="none" opacity="1" stroke="#ffffff" stroke-linecap="round" stroke-linejoin="round" stroke-width="5" vectornator:layerName="Кривая 119"/>
<path d="M1354.59 373.212C1367.63 373.212 1380.71 372.341 1393.78 372.341" fill="none" opacity="1" stroke="#ffffff" stroke-linecap="round" stroke-linejoin="round" stroke-width="5" vectornator:layerName="Кривая 120"/>
<path d="M1369.39 358.405C1364.64 358.405 1366.94 368.634 1367.65 371.47C1369.64 379.426 1372.23 388.243 1378.1 394.116" fill="none" opacity="1" stroke="#ffffff" stroke-linecap="round" stroke-linejoin="round" stroke-width="5" vectornator:layerName="Кривая 121"/>
<path d="M1437.33 363.631C1435.67 362.799 1434.77 360.89 1433.85 359.276C1427.73 348.577 1443.95 344.468 1452.14 344.468C1453.01 344.468 1454.01 344.02 1454.75 344.468C1464.89 350.553 1450.21 370.554 1446.91 375.825C1446.65 376.248 1442 382.834 1442.56 383.664C1442.56 383.669 1453.4 383.753 1453.88 383.664C1462.34 382.126 1470.38 381.051 1479.14 381.051" fill="none" opacity="1" stroke="#ffffff" stroke-linecap="round" stroke-linejoin="round" stroke-width="5" vectornator:layerName="Кривая 122"/>
<path d="M1351.99 518.972C1353.84 513.41 1364.5 514.291 1369.41 513.746C1377.97 512.794 1390.08 510.582 1398.15 514.617" fill="none" opacity="1" stroke="#ffffff" stroke-linecap="round" stroke-linejoin="round" stroke-width="5" vectornator:layerName="Кривая 123"/>
<path d="M1370.28 502.422C1372.48 511.204 1373.7 519.853 1376.38 528.553C1377.54 532.322 1377.76 537.081 1381.6 539.005" fill="none" opacity="1" stroke="#ffffff" stroke-linecap="round" stroke-linejoin="round" stroke-width="5" vectornator:layerName="Кривая 124"/>
<path d="M1448.67 494.583C1442.6 482.445 1462.2 479.69 1465.22 486.744C1468.51 494.406 1465.73 502.687 1460.87 508.52C1458.83 510.958 1459.71 511.597 1456.51 512.875C1455.4 513.319 1452.49 513.074 1453.03 512.004C1454.26 509.54 1465.58 510.287 1467.83 511.133C1479.62 515.554 1483.85 535.64 1468.71 539.005C1464.25 539.995 1460.18 539.876 1455.64 539.876C1451.68 539.876 1448.9 539.373 1445.19 538.134" fill="none" opacity="1" stroke="#ffffff" stroke-linecap="round" stroke-linejoin="round" stroke-width="5" vectornator:layerName="Кривая 125"/>
<path d="M1355.87 657.403C1359.99 653.289 1386.31 649.976 1392.46 653.048" fill="none" opacity="1" stroke="#ffffff" stroke-linecap="round" stroke-linejoin="round" stroke-width="5" vectornator:layerName="Кривая 126"/>
<path d="M1372.42 637.37C1366.66 631.61 1367.63 640.823 1368.07 645.209C1368.88 653.311 1371.76 661.812 1375.91 668.727" fill="none" opacity="1" stroke="#ffffff" stroke-linecap="round" stroke-linejoin="round" stroke-width="5" vectornator:layerName="Кривая 127"/>
<path d="M1448.2 630.402C1445.55 634.385 1444.75 639.028 1442.98 643.467C1442.42 644.86 1434.98 661.45 1435.14 661.758C1435.85 663.188 1444.42 659.263 1444.72 659.145C1454 655.432 1463.29 651.306 1473.46 651.306" fill="none" opacity="1" stroke="#ffffff" stroke-linecap="round" stroke-linejoin="round" stroke-width="5" vectornator:layerName="Кривая 128"/>
<path d="M1469.98 633.015C1467.13 627.318 1467.36 640.779 1467.36 641.725C1467.36 652.246 1467.91 661.868 1469.98 672.211" fill="none" opacity="1" stroke="#ffffff" stroke-linecap="round" stroke-linejoin="round" stroke-width="5" vectornator:layerName="Кривая 129"/>
<path d="M1355.14 792.574C1366.33 788.844 1382.36 789.961 1394.33 789.961" fill="none" opacity="1" stroke="#ffffff" stroke-linecap="round" stroke-linejoin="round" stroke-width="5" vectornator:layerName="Кривая 130"/>
<path d="M1369.94 773.412C1366.93 767.392 1368.2 785.434 1368.2 786.477C1368.2 792.137 1367.55 806.949 1369.94 811.737" fill="none" opacity="1" stroke="#ffffff" stroke-linecap="round" stroke-linejoin="round" stroke-width="5" vectornator:layerName="Кривая 131"/>
<path d="M1461.4 764.701C1466.85 759.255 1456.8 760.875 1453.56 762.088C1449.66 763.551 1441.99 768.175 1441.37 772.541C1439.85 783.137 1456.99 787.892 1464.01 792.574C1464.6 792.965 1472.45 798.074 1470.11 800.413C1466.2 804.32 1445.59 802.354 1441.37 799.542" fill="none" opacity="1" stroke="#ffffff" stroke-linecap="round" stroke-linejoin="round" stroke-width="5" vectornator:layerName="Кривая 132"/>
<path d="M1452.69 767.315C1460.11 756.184 1486.56 759.119 1496.24 765.572" fill="none" opacity="1" stroke="#ffffff" stroke-linecap="round" stroke-linejoin="round" stroke-width="5" vectornator:layerName="Кривая 133"/>
<path d="M490.553 295.779C492.44 294.521 492.695 291.045 494.909 290.553C501.144 289.168 507.686 290.731 514.071 290.553C521.929 290.335 529.751 289.414 537.589 288.811C549.201 287.918 560.817 287.091 572.429 286.198C584.909 285.238 597.401 284.51 609.883 283.585C617.434 283.026 624.985 282.472 632.53 281.843C652.609 280.17 673.392 280.101 693.501 280.101C695.26 280.101 712.053 278.619 712.664 279.23C713.582 280.148 711.135 281.433 710.922 282.714C710.492 285.291 710.922 287.94 710.922 290.553C710.922 292.883 712.21 301.686 710.922 303.618C710.6 304.102 709.749 303.732 709.18 303.618C704.229 302.628 699.434 301.466 694.372 301.005C677.942 299.512 661.276 299.263 644.724 299.263C612.827 299.263 581.27 307.959 549.783 311.458C540.095 312.534 530.772 314.942 521.039 314.942C511.833 314.942 503.253 316.684 494.038 316.684C492.424 316.684 488.213 317.528 487.069 315.813C486.615 315.132 488.368 304.255 488.811 302.747C490.004 298.692 489.473 296.5 490.553 295.779Z" fill="#68c40c" fill-rule="nonzero" opacity="1" stroke="#68c40c" stroke-linecap="round" stroke-linejoin="round" stroke-width="5" vectornator:layerName="Кривая 134"/>
<path d="M498.393 437.756C502.479 429.382 507.58 433.401 515.813 433.401C526.624 433.401 537.275 433.555 548.041 432.53C566.737 430.749 585.057 424.921 603.786 423.819C627.585 422.419 651.469 422.314 675.21 420.335C683.703 419.628 692.078 419.121 700.47 417.722C702.038 417.461 705.782 415.748 707.438 416.851C709.425 418.176 708.309 424.431 708.309 426.432C708.309 428.755 709.171 431.244 708.309 433.401C707.393 435.69 697.36 432.794 695.243 432.53C684.12 431.139 670.773 430.253 659.532 431.659C651.084 432.715 642.788 435.067 634.272 436.014C616.148 438.028 598.335 440.103 580.269 442.111C578.168 442.344 576.264 443.554 574.171 443.853C566.158 444.998 557.824 444.446 549.783 445.595C545.464 446.212 540.985 447.337 536.718 447.337C527.873 447.337 518.399 448.503 509.716 449.95C507.219 450.366 501.484 453.782 499.264 450.821C496.086 446.585 497.856 438.855 498.393 437.756Z" fill="#68c40c" fill-rule="nonzero" opacity="1" stroke="#68c40c" stroke-linecap="round" stroke-linejoin="round" stroke-width="5" vectornator:layerName="Кривая 135"/>
<path d="M516.684 523.551C524.9 516.834 537.764 519.632 548.041 519.632C555.827 519.632 563.786 520.064 571.558 519.632C582.44 519.027 592.986 516.414 603.786 515.277C621.587 513.403 639.16 510.528 656.918 508.308C661.278 507.764 665.629 507.147 669.984 506.566C682.373 504.915 694.084 503.953 706.567 503.953C709.287 503.953 715.509 502.763 717.89 503.953C719.823 504.92 717.358 511.84 717.019 513.535C716.507 516.096 717.916 519.016 716.148 521.374C714.101 524.103 704.973 520.81 702.212 520.503C689.347 519.073 676.926 517.89 663.887 517.89C655.373 517.89 647.021 519.663 638.627 520.503C624.116 521.954 609.512 522.182 595.076 523.987C581.175 525.725 568.262 530.084 554.138 530.084C551.418 530.084 547.315 529.532 544.557 530.084C538.888 531.218 526.826 538.381 521.91 531.826C519.927 529.182 516.053 524.067 516.684 523.551Z" fill="#68c40c" fill-rule="nonzero" opacity="1" stroke="#68c40c" stroke-linecap="round" stroke-linejoin="round" stroke-width="5" vectornator:layerName="Кривая 136"/>
<path d="M514.507 601.072C518.363 595.343 534.049 599.766 541.073 599.766C560.503 599.766 579.253 597.408 598.56 595.411C615.692 593.638 632.819 591.255 649.95 590.185C663.678 589.327 678.398 587.428 691.759 584.087C694.049 583.515 708.018 580.99 710.051 582.345C711.92 583.591 710.226 586.346 710.051 587.571C709.454 591.748 710.388 604.472 704.825 605.863C701.87 606.602 697.389 602.81 694.372 602.379C685.102 601.054 675.055 599.78 665.629 600.637C653.677 601.723 641.828 602.93 629.917 604.121C621.1 605.003 612.538 608.253 603.786 609.347C587.986 611.322 571.669 608.833 555.88 611.089C553.338 611.452 550.555 610.586 548.041 611.089C541.318 612.434 534.685 613.238 528.007 614.573C526.223 614.93 523.673 616.315 521.91 616.315C521.261 616.315 520.458 616.025 520.168 615.444C519.25 613.608 519.861 611.321 519.297 609.347C518.356 606.053 512.653 603.826 514.507 601.072Z" fill="#68c40c" fill-rule="nonzero" opacity="1" stroke="#68c40c" stroke-linecap="round" stroke-linejoin="round" stroke-width="5" vectornator:layerName="Кривая 137"/>
<path d="M515.813 706.466C516.247 705.815 514.279 704.703 514.942 704.288C516.041 703.601 530.553 704.288 532.362 704.288C548.651 704.288 564.892 704.23 581.14 703.417C608.658 702.041 636.302 702.546 663.887 702.546C668.756 702.546 686.369 697.156 690.017 700.804C692.242 703.029 690.888 709.981 690.888 712.999C690.888 714.741 690.547 716.516 690.888 718.225C691.016 718.861 692.409 719.967 691.759 719.967C690.308 719.967 689.623 717.893 688.275 717.354C685.208 716.127 681.931 714.589 678.694 713.87C666.235 711.101 650.529 710.85 637.756 712.127C626.993 713.204 616.259 715.29 605.528 716.483C591.113 718.084 576.411 717.652 561.977 719.096C554.759 719.817 547.402 720.038 540.202 720.838C534.124 721.513 527.241 723.613 521.039 722.58C517.446 721.981 519.943 713.785 518.426 711.256C516.932 708.767 515.323 707.201 515.813 706.466Z" fill="#68c40c" fill-rule="nonzero" opacity="1" stroke="#68c40c" stroke-linecap="round" stroke-linejoin="round" stroke-width="5" vectornator:layerName="Кривая 138"/>
<path d="M315.914 817.521C316.823 816.309 315.83 813.77 317.22 813.166C319.883 812.008 323.031 813.005 325.93 813.166C334.131 813.622 342.053 814.037 350.319 814.037C371.153 814.037 392.219 814.942 413.033 814.037C427.805 813.395 442.673 812.295 457.455 812.295C468.562 812.295 479.54 810.553 490.553 810.553C493.168 810.553 496.679 809.794 497.522 813.166C498.426 816.786 496.529 836.684 491.424 836.684C487.84 836.684 484.45 833.696 480.972 833.199C474.073 832.214 467.055 831.222 460.068 830.586C447.421 829.437 433.376 830.068 420.872 831.457C405.052 833.215 388.036 831.457 372.095 831.457C364.626 831.457 355.952 830.228 348.577 831.457C341.228 832.682 333.167 832.905 325.93 831.457C323.995 831.07 320.788 832.188 318.962 831.457C315.735 830.166 317.701 826.022 317.22 823.618C316.571 820.372 315.6 817.94 315.914 817.521Z" fill="#68c40c" fill-rule="nonzero" opacity="1" stroke="#68c40c" stroke-linecap="round" stroke-linejoin="round" stroke-width="5" vectornator:layerName="Кривая 139"/>
<path d="M1284.92 885.896C1292.53 880.139 1305.15 882.848 1314.54 882.848C1338.64 882.848 1362.74 882.848 1386.83 882.848C1402.98 882.848 1418.67 883.697 1434.74 884.59C1455.05 885.718 1475.43 884.979 1495.71 886.332C1503.76 886.868 1512.03 886.332 1520.1 886.332C1520.34 886.332 1527.54 885.933 1527.94 886.332C1528.86 887.25 1526.51 888.556 1526.2 889.816C1525.4 893.017 1526.56 896.991 1526.2 900.268C1524.6 914.634 1521.42 928.717 1519.23 942.948C1518.11 950.218 1518.51 957.562 1517.49 964.724C1517.12 967.272 1518.67 972.813 1517.49 975.176C1516.63 976.883 1501.12 974.305 1498.33 974.305C1476.57 974.305 1454.73 972.028 1433 970.821C1409.2 969.499 1385.35 968.051 1361.57 966.466C1351.83 965.816 1341.79 963.631 1331.96 964.724C1322.12 965.816 1312.09 967.455 1302.35 969.079C1301.58 969.206 1297.25 970.951 1296.25 969.95C1293.16 966.864 1293.46 958.095 1292.76 954.271C1290.71 942.971 1289.24 931.623 1287.54 920.302C1286.32 912.155 1285.14 904.091 1284.05 895.913C1283.82 894.162 1282.73 892.393 1283.18 890.687C1283.95 887.799 1283.94 886.645 1284.92 885.896Z" fill="#68c40c" fill-rule="nonzero" opacity="1" stroke="#68c40c" stroke-linecap="round" stroke-linejoin="round" stroke-width="5" vectornator:layerName="Кривая 140"/>
<path d="M1345.9 928.141C1347.54 924.849 1353.07 926.399 1356.35 926.399C1365.27 926.399 1382.46 924.209 1390.32 928.141" fill="none" opacity="1" stroke="#ffffff" stroke-linecap="round" stroke-linejoin="round" stroke-width="5" vectornator:layerName="Кривая 141"/>
<path d="M1367.67 914.204C1363.55 912.142 1365.06 920.552 1365.06 922.915C1365.06 933.047 1366.58 944.247 1371.16 953.4" fill="none" opacity="1" stroke="#ffffff" stroke-linecap="round" stroke-linejoin="round" stroke-width="5" vectornator:layerName="Кривая 142"/>
<path d="M1464.36 908.978C1464.36 901.199 1451.92 903.681 1446.93 905.494C1435.4 909.689 1420.56 923.38 1428.64 936.851C1436.25 949.528 1454.33 953.457 1466.97 945.561C1469.39 944.046 1471.72 940.558 1472.19 937.722C1473.34 930.869 1460.67 930.754 1456.52 930.754C1452.7 930.754 1448.84 931.373 1445.19 932.496C1442.2 933.416 1439.08 934.245 1436.48 935.98" fill="none" opacity="1" stroke="#ffffff" stroke-linecap="round" stroke-linejoin="round" stroke-width="5" vectornator:layerName="Кривая 143"/>
<path d="M775.377 287.069C782.183 287.069 787.936 288.077 794.54 288.811C799.982 289.416 805.626 288.421 811.089 288.811C825.571 289.846 840.081 289.682 854.64 289.682C873.019 289.682 892.075 291.147 910.386 289.682C964.757 285.332 1019.09 282.413 1073.27 277.488C1084.63 276.455 1095.87 273.295 1107.24 272.262C1135.3 269.71 1163.45 265.941 1190.85 260.067C1203.33 257.393 1216.11 255.018 1228.31 251.357C1232.22 250.183 1236.68 249.307 1240.5 247.873C1245.47 246.01 1248.99 243.518 1254.44 243.518" fill="none" opacity="1" stroke="#FFFFFF" stroke-linecap="round" stroke-linejoin="round" stroke-width="5" vectornator:layerName="Кривая 144"/>
<path d="M792.521 281.229C792.521 279.93 790.284 279.129 789.035 279.486C781.367 281.677 774.676 287.016 766.372 288.202C765.734 288.293 759.027 287.574 758.527 289.074C757.882 291.011 765.329 292.496 765.501 292.56C771.811 294.927 778.204 297.376 784.677 299.533" fill="none" opacity="1" stroke="#FFFFFF" stroke-linecap="round" stroke-linejoin="round" stroke-width="5" vectornator:layerName="Кривая 145"/>
<path d="M1255.36 384.082C1256.43 383.547 1258.85 383.211 1258.85 383.211C1258.85 383.211 1254.78 383.211 1252.75 383.211C1249 383.211 1245.32 384.082 1241.41 384.082C1229.98 384.082 1218.76 384.795 1207.42 385.826C1191.22 387.298 1174.83 385.45 1158.61 386.697C1142.36 387.947 1126.07 388.295 1109.8 389.312C1070.45 391.771 1031.36 395.63 992.126 398.9C978.814 400.009 965.379 399.69 952.031 400.643C940.349 401.478 928.834 404.901 917.166 405.873C893.608 407.836 869.782 407.331 846.563 411.975C833.784 414.53 821.117 416.642 808.211 418.076C799.995 418.989 791.935 422.145 783.805 423.306C777.296 424.236 770.83 426.055 764.629 428.536C761.972 429.599 756.784 432.022 756.784 432.022C756.784 432.022 757.946 431.441 758.527 431.151C761.846 429.491 764.149 426.906 767.244 425.049C768.697 424.178 771.602 422.434 771.602 422.434C771.602 422.434 768.586 423.373 767.244 424.178C764.489 425.831 761.14 428.32 758.527 430.279C757.213 431.265 753.879 432.603 755.041 433.766C757.577 436.301 764.63 435.436 767.244 435.509C777.716 435.8 788.228 435.953 798.623 437.252" fill="none" opacity="1" stroke="#FFFFFF" stroke-linecap="round" stroke-linejoin="round" stroke-width="5" vectornator:layerName="Кривая 146"/>
<path d="M755.913 519.186C757.608 515.796 760.78 518.194 763.757 519.186C772.776 522.192 781.571 522.742 790.778 524.416C803.398 526.71 816.398 528.488 829.13 529.646C836.665 530.331 844.315 532.758 851.793 534.004C864.605 536.139 878.055 537.436 891.016 538.362C920.552 540.472 950.248 540.105 979.923 540.105C1019.66 540.105 1059.11 539.683 1098.47 535.747C1105.08 535.086 1111.88 536.257 1118.51 535.747C1139.66 534.121 1161.01 534.642 1182.14 533.132C1200.41 531.828 1218.79 532.607 1237.06 531.389C1246.69 530.747 1256.2 528.704 1265.82 527.902C1273.17 527.29 1282.64 528.644 1289.35 525.288" fill="none" opacity="1" stroke="#FFFFFF" stroke-linecap="round" stroke-linejoin="round" stroke-width="5" vectornator:layerName="Кривая 147"/>
<path d="M779.447 513.956C779.912 513.724 782.759 512.736 782.062 511.341C781.426 510.07 776.148 512.001 775.089 512.213C767.81 513.669 760.66 515.339 753.298 517.443C751.41 517.982 743.71 518.574 743.71 520.929C743.71 524.26 751.58 525.499 753.298 526.159C758.335 528.096 763.62 530.135 768.116 533.132" fill="none" opacity="1" stroke="#FFFFFF" stroke-linecap="round" stroke-linejoin="round" stroke-width="5" vectornator:layerName="Кривая 148"/>
<path d="M757.656 591.532C759.753 587.338 765.93 589.198 769.859 588.917C776.922 588.413 783.668 588.045 790.778 588.045C819.099 588.045 846.984 584.559 875.327 584.559C888.881 584.559 902.777 583.658 916.294 584.559C925.33 585.161 934.275 587.443 943.315 588.045C1001.13 591.9 1057.6 602.076 1114.16 614.195C1128.39 617.245 1141.86 623.135 1155.99 626.398C1164.53 628.368 1172.87 629.912 1181.27 632.499C1202.81 639.127 1224.91 644.005 1246.64 649.932C1252.78 651.605 1266.15 653.212 1269.31 659.52" fill="none" opacity="1" stroke="#FFFFFF" stroke-linecap="round" stroke-linejoin="round" stroke-width="5" vectornator:layerName="Кривая 149"/>
<path d="M778.575 583.687C780.714 579.41 771.866 586.314 769.859 587.174C765.715 588.95 761.705 590.379 757.656 592.404C756.256 593.103 752.803 592.663 753.298 594.147C754.017 596.305 760.558 596.672 761.142 596.762C769.776 598.09 777.991 600.565 786.42 602.863" fill="none" opacity="1" stroke="#FFFFFF" stroke-linecap="round" stroke-linejoin="round" stroke-width="5" vectornator:layerName="Кривая 150"/>
<path d="M735.865 715.305C744.842 710.816 758.209 714.091 767.244 716.176C773.367 717.589 779.432 718.032 785.548 719.663C801.948 724.036 818.702 727.105 835.232 730.994C851.011 734.707 866.164 741.521 882.3 744.069C896.539 746.317 910.819 748.537 925.01 751.042C937.625 753.268 949.8 757.855 962.491 759.758C1006.27 766.325 1049.97 771.906 1094.11 776.319C1122.86 779.194 1151.51 783.336 1180.4 785.036C1193.23 785.79 1205.94 788.64 1218.75 789.394C1238.04 790.528 1257.93 792.009 1277.15 792.009" fill="none" opacity="1" stroke="#FFFFFF" stroke-linecap="round" stroke-linejoin="round" stroke-width="5" vectornator:layerName="Кривая 151"/>
<path d="M748.939 705.717C749.521 705.426 750.683 704.845 750.683 704.845C750.683 704.845 749.521 705.426 748.939 705.717C746.538 706.917 744.429 708.148 741.966 709.203C737.431 711.147 733.102 713.65 728.892 716.176C727.877 716.785 725.757 717.386 725.405 718.791C724.694 721.637 732.824 723.218 737.608 724.893C745.09 727.511 753.012 729.691 759.399 734.481" fill="none" opacity="1" stroke="#FFFFFF" stroke-linecap="round" stroke-linejoin="round" stroke-width="5" vectornator:layerName="Кривая 152"/>
<path d="M538.003 829.489C539.619 826.257 546.791 827.746 550.206 827.746C559.592 827.746 568.791 827.953 578.098 828.617C587.666 829.301 597.291 828.891 606.863 829.489C642.876 831.74 678.935 835.648 714.946 839.077C784.978 845.747 853.423 862.147 921.524 879.172C938.264 883.357 955.365 886.325 972.079 890.504C989.466 894.851 1006.79 900.932 1024.38 904.45C1031.56 905.886 1039.05 906.293 1046.17 907.937C1056.89 910.412 1067.6 913.618 1078.42 915.781C1091.93 918.483 1105.82 919.489 1119.39 921.883C1162.09 929.419 1205 934.957 1248.39 934.957" fill="none" opacity="1" stroke="#FFFFFF" stroke-linecap="round" stroke-linejoin="round" stroke-width="5" vectornator:layerName="Кривая 153"/>
<path d="M565.024 819.901C565.029 819.898 569.382 816.869 569.382 817.286C569.382 819.847 562.918 821.184 561.537 821.644C555.991 823.493 550.665 825.61 544.976 826.874C543.541 827.193 538.16 827.947 537.132 829.489C536.193 830.897 538.048 832.459 538.875 832.976C540.528 834.009 542.295 834.867 544.105 835.591C552.94 839.125 560.274 842.852 568.51 847.794" fill="none" opacity="1" stroke="#FFFFFF" stroke-linecap="round" stroke-linejoin="round" stroke-width="5" vectornator:layerName="Кривая 154"/>
</g>
<g id="Слой-2" vectornator:layerName="Слой 2" visibility="hidden">
<path d="M1595.12 208.418C1605.55 211.894 1613.38 227.799 1617.15 237.222C1625.53 258.176 1632.98 279.743 1630.71 302.454C1630.07 308.825 1630.47 315.804 1628.16 321.939C1626.58 326.159 1624 331.83 1621.39 335.494C1620.11 337.288 1618.14 338.604 1617.15 340.577C1615.87 343.135 1615.05 346.071 1612.92 348.201C1611.98 349.136 1602.61 356.11 1602.75 356.673C1603.28 358.813 1606.17 359.457 1607.83 360.909C1611.51 364.124 1615.26 367.812 1618 371.922C1621.65 377.404 1621.96 384.661 1623.93 390.56C1625.06 393.954 1627.54 396.966 1628.16 400.726C1629.08 406.233 1630.01 412.259 1631.55 417.67C1634.73 428.805 1638.63 440.438 1636.64 452.404C1634.46 465.455 1630.97 477.466 1623.08 487.985C1621.53 490.058 1615.64 498.907 1613.76 499.846C1613.53 499.961 1607.34 499.718 1608.68 502.387C1609.89 504.804 1618.89 509.434 1621.39 512.553C1624.55 516.508 1626.62 521.371 1629.86 525.261C1633.39 529.492 1636.96 533.646 1639.18 538.816C1641.37 543.94 1642.31 549.702 1644.26 554.912C1648.29 565.65 1652.78 574.7 1654.43 586.257C1654.93 589.798 1657.41 592.792 1657.82 596.423C1658.44 602.057 1659.79 607.718 1660.36 613.367C1661.4 623.761 1661.01 634.301 1662.05 644.712C1662.91 653.268 1666.28 661.572 1667.13 670.128C1669.39 692.711 1668.04 716.783 1662.05 738.749C1660.73 743.601 1659.13 748.335 1657.82 753.151C1655.57 761.386 1655.44 770.452 1652.73 778.566C1645.98 798.82 1634.26 818.419 1623.93 837.021C1616.38 850.614 1612.32 867.267 1601.06 878.532C1596.73 882.861 1591.85 886.889 1587.5 891.24C1583.42 895.325 1580.54 900.738 1576.49 904.795C1572.36 908.926 1567.96 912.503 1564.63 917.502C1560.42 923.816 1553.71 927.816 1549.38 933.599C1549.22 933.803 1545.87 938.078 1545.14 936.987C1543.84 935.042 1552.84 915.857 1554.46 913.267C1554.78 912.757 1558.57 907.012 1559.54 907.336C1562.16 908.207 1559.72 916.914 1559.54 918.35C1558.82 924.177 1558.04 930.475 1556.15 936.14C1555.72 937.434 1552.4 941.942 1553.61 943.765C1554.82 945.575 1561.98 943.054 1562.93 942.918C1565.19 942.596 1567.46 942.445 1569.71 942.07C1572.55 941.597 1575.33 940.783 1578.18 940.376C1582.97 939.693 1587.82 939.476 1592.58 938.682" fill="none" opacity="1" stroke="#FFFFFF" stroke-linecap="round" stroke-linejoin="round" stroke-width="5" vectornator:layerName="Кривая 2"/>
<path d="M1630.71 925.974C1630.14 925.692 1628.66 925.652 1629.01 925.127C1631.41 921.535 1645.69 923.166 1648.5 925.974" fill="none" opacity="1" stroke="#FFFFFF" stroke-linecap="round" stroke-linejoin="round" stroke-width="5" vectornator:layerName="Кривая 3"/>
<path d="M1623.93 936.987C1630.58 933.663 1639.84 937.835 1646.8 937.835" fill="none" opacity="1" stroke="#FFFFFF" stroke-linecap="round" stroke-linejoin="round" stroke-width="5" vectornator:layerName="Кривая 4"/>
<path d="M1677.3 945.883C1679.89 945.883 1672.28 943.975 1670.52 942.07C1670.08 941.587 1678.27 936.624 1679 936.14C1683.73 932.981 1686.76 929.728 1688.31 924.28C1688.61 923.237 1690.27 917.769 1689.16 916.655C1686.78 914.278 1683.72 918.58 1683.23 920.044C1681.58 924.991 1680.69 930.066 1680.69 935.293C1680.69 937.893 1680.26 941.18 1680.69 943.765C1680.84 944.646 1682.43 946.306 1681.54 946.306C1678.04 946.306 1674.46 945.883 1677.3 945.883Z" fill="none" opacity="1" stroke="#FFFFFF" stroke-linecap="round" stroke-linejoin="round" stroke-width="5" vectornator:layerName="Кривая 5"/>
<path d="M1703.56 924.28C1698.61 914.373 1712.3 914.072 1714.58 920.891C1717 928.173 1710.62 934.164 1706.1 938.682C1705.61 939.178 1700.07 943.665 1700.17 943.765C1702.17 945.762 1705.82 943.765 1708.65 943.765C1710.91 943.765 1713.17 943.897 1715.42 943.765C1724.34 943.24 1732.79 942.282 1741.69 943.765" fill="none" opacity="1" stroke="#FFFFFF" stroke-linecap="round" stroke-linejoin="round" stroke-width="5" vectornator:layerName="Кривая 6"/>
</g>
<g id="Слой-3" vectornator:layerName="Слой 3" visibility="hidden">
<path d="M1612.92 203.335C1618.68 206.217 1622.01 212.201 1624.78 217.737C1626.7 221.577 1629.61 224.869 1631.55 228.75C1635.31 236.264 1637.96 244.103 1641.72 251.624C1645.85 259.876 1651.25 267.45 1654.43 276.192C1657.21 283.836 1658.4 292.064 1660.36 299.912C1662.21 307.337 1665.53 314.441 1667.13 321.939C1668.99 330.588 1670.07 339.597 1672.22 348.201C1678.24 372.288 1681.42 398.039 1677.3 422.753C1673.96 442.816 1669.85 464.622 1662.9 483.749C1659.85 492.14 1656.72 501.182 1652.73 509.164C1649.86 514.914 1645.9 520.148 1643.41 526.108C1640.83 532.309 1638.81 538.708 1635.79 544.746C1632.49 551.347 1627.41 556.925 1623.93 563.384C1619.09 572.367 1614.38 581.948 1608.68 590.493C1602.83 599.274 1595.37 607.26 1588.35 615.061C1583.35 620.611 1579.54 627.155 1574.79 632.852C1571.26 637.087 1566.73 640.912 1562.93 644.712C1560.76 646.883 1556.94 648.196 1555.31 650.643C1554.34 652.091 1557.98 655.716 1558.7 656.573C1562.25 660.842 1567.09 664.095 1570.56 668.433C1577.57 677.2 1581.67 686.935 1583.26 698.084C1586.07 717.713 1584.62 735.876 1579.88 754.845C1579.19 757.579 1576.97 759.399 1575.64 761.622C1572.74 766.449 1570.45 772.006 1568.02 776.871C1566.79 779.323 1563.07 782.665 1561.24 784.496C1560.79 784.943 1559.54 784.712 1559.54 785.343C1559.54 786.606 1561.8 786.473 1562.93 787.038C1564.2 787.669 1565.19 788.732 1566.32 789.579C1572.09 793.905 1578.3 797.802 1582.42 803.981C1587.78 812.025 1588.17 821.709 1590.04 831.091C1590.85 835.11 1592.82 838.669 1593.43 842.951C1594.15 847.987 1593.28 853.339 1592.58 858.2C1591.58 865.214 1591.63 873.652 1588.35 880.227C1584.15 888.62 1577 894.961 1570.56 901.406C1569.28 902.685 1568.58 904.512 1567.17 905.642C1561.05 910.533 1554.74 915.385 1548.53 920.044C1546.24 921.759 1543.75 924.828 1541.75 926.821C1541.31 927.268 1540.91 928.516 1540.91 928.516C1540.91 928.516 1542.93 924.672 1543.45 922.585C1543.92 920.701 1547.07 909.674 1550.22 910.725C1554.76 912.238 1546.9 928.777 1545.99 931.057C1545.82 931.485 1543.26 935.953 1543.45 936.14C1543.74 936.432 1554.83 928.775 1555.31 928.516C1563.9 923.827 1572.96 922.145 1582.42 920.044" fill="none" opacity="1" stroke="#FFFFFF" stroke-linecap="round" stroke-linejoin="round" stroke-width="5" vectornator:layerName="Кривая 1"/>
<path d="M1615.03 925.551C1615.03 922.276 1608.43 925.204 1605.29 924.28C1604.88 924.16 1608.04 922.966 1610.37 923.433C1613.32 924.022 1616.8 923.968 1619.69 925.127C1620.28 925.361 1622.02 925.974 1621.39 925.974C1616.58 925.974 1615.03 928.801 1615.03 925.551Z" fill="none" opacity="1" stroke="#FFFFFF" stroke-linecap="round" stroke-linejoin="round" stroke-width="5" vectornator:layerName="Кривая 2"/>
<path d="M1600.21 935.293C1608.18 935.293 1618.06 933.62 1625.62 936.14" fill="none" opacity="1" stroke="#FFFFFF" stroke-linecap="round" stroke-linejoin="round" stroke-width="5" vectornator:layerName="Кривая 3"/>
<path d="M1656.54 937.411C1657.75 936.605 1654.54 935.048 1654.43 933.599C1654.41 933.439 1659.46 928.022 1660.36 926.821C1664.07 921.874 1666.85 917.509 1668.83 911.572C1669.16 910.573 1672.26 902.053 1669.68 901.406C1664.59 900.134 1663.46 910.734 1662.9 913.267C1661.37 920.142 1659.35 926.717 1657.82 933.599C1657.62 934.477 1655.89 940.145 1656.97 941.223C1657.37 941.623 1659.03 941.652 1658.66 941.223C1656.71 938.944 1654.54 938.745 1656.54 937.411Z" fill="none" opacity="1" stroke="#FFFFFF" stroke-linecap="round" stroke-linejoin="round" stroke-width="5" vectornator:layerName="Кривая 4"/>
<path d="M1690.86 901.406C1690.86 894.796 1685.05 911.112 1684.93 911.572C1682.96 918.761 1679.39 935.425 1689.16 938.682C1695.6 940.827 1704.15 931.383 1701.02 925.127C1698.17 919.417 1686.97 918.494 1684.08 924.28" fill="none" opacity="1" stroke="#FFFFFF" stroke-linecap="round" stroke-linejoin="round" stroke-width="5" vectornator:layerName="Кривая 5"/>
</g>
</svg>
