<?xml version="1.0" encoding="UTF-8" standalone="no"?>
<!DOCTYPE svg PUBLIC "-//W3C//DTD SVG 1.1//EN" "http://www.w3.org/Graphics/SVG/1.1/DTD/svg11.dtd">
<!-- Created with Vectornator (http://vectornator.io/) -->
<svg height="100%" stroke-miterlimit="10" style="fill-rule:nonzero;clip-rule:evenodd;stroke-linecap:round;stroke-linejoin:round;" version="1.1" viewBox="0 0 1920 1080" width="100%" xml:space="preserve" xmlns="http://www.w3.org/2000/svg" xmlns:vectornator="http://vectornator.io" xmlns:xlink="http://www.w3.org/1999/xlink">
<defs/>
<g id="Слой-1" vectornator:layerName="Слой 1">
<path d="M474.262 405.992C471.902 401.272 472.378 396.038 472.378 390.92C472.378 376.319 476.148 362.657 481.797 349.475C483.452 345.614 486.364 336.559 491.217 335.346C498.465 333.533 503.896 338.687 510.056 340.997C514.342 342.605 517.222 342.995 521.359 343.823C522.973 344.146 526.199 345.935 527.953 344.765C532.061 342.027 542.786 327.22 549.618 330.636C554.211 332.932 558.095 344.879 558.095 349.475C558.095 362.671 556.741 377.438 560.921 389.979" fill="none" opacity="1" stroke="#FFFFFF" stroke-linecap="round" stroke-linejoin="round" stroke-width="7.5" vectornator:layerName="Кривая 91"/>
<path d="M409.267 420.121C417.31 414.759 431.019 415.943 440.352 414.469C456.352 411.943 472.274 411.427 488.391 409.759C535.792 404.856 582.956 399.398 630.625 399.398" fill="none" opacity="1" stroke="#FFFFFF" stroke-linecap="round" stroke-linejoin="round" stroke-width="7.5" vectornator:layerName="Кривая 92"/>
<path d="M476.998 419.05C473.894 412.841 476.735 427.987 476.998 428.908C478.712 434.907 481.03 441.522 483.823 447.109C490.383 460.229 508.397 464.602 521.741 466.826C541.207 470.071 566.221 453.996 569.518 434.217C570.948 425.636 571.364 417.863 564.967 411.466" fill="none" opacity="1" stroke="#FFFFFF" stroke-linecap="round" stroke-linejoin="round" stroke-width="7.5" vectornator:layerName="Кривая 93"/>
<path d="M491.032 414.307C490.729 413.701 490.729 412.187 490.123 412.49C489.115 412.994 489.515 418.228 489.669 419.305C490.441 424.711 494.751 431.379 500.572 432.026C508.62 432.92 517.614 424.956 518.746 417.033C519.076 414.721 518.746 412.109 518.746 409.764" fill="#3e68ff" fill-opacity="0.828829" fill-rule="nonzero" opacity="1" stroke="#FFFFFF" stroke-linecap="round" stroke-linejoin="round" stroke-width="7.5" vectornator:layerName="Кривая 94"/>
<path d="M527.832 410.218C524.104 408.354 526.467 413.546 527.378 415.67C529.773 421.26 533.814 426.131 540.099 427.028C549.642 428.392 552.366 413.784 552.366 407.038" fill="#3e68ff" fill-opacity="0.828829" fill-rule="nonzero" opacity="1" stroke="#FFFFFF" stroke-linecap="round" stroke-linejoin="round" stroke-width="7.5" vectornator:layerName="Кривая 95"/>
<path d="M501.444 471.354C502.354 474.084 509.802 492.986 508.787 495.017C508.167 496.257 506.094 494.201 504.707 494.201C502.531 494.201 500.356 494.201 498.18 494.201C489.68 494.201 482.924 496.264 474.517 497.465C472.835 497.705 467.089 497.632 466.357 499.096C465.011 501.789 476.948 514.78 478.597 517.048C487.829 529.741 496.933 542.296 503.891 556.214" fill="none" opacity="1" stroke="#FFFFFF" stroke-linecap="round" stroke-linejoin="round" stroke-width="7.5" vectornator:layerName="Кривая 96"/>
<path d="M542.242 471.354C542.242 470.538 542.242 468.09 542.242 468.906C542.242 474.618 542.242 480.329 542.242 486.041C542.242 487.945 540.539 490.901 542.242 491.753C542.744 492.004 545.74 487.148 546.321 486.857C550.145 484.945 556.088 484.751 560.193 484.409C570.058 483.587 580.508 482.777 590.383 482.777C593.666 482.777 595.466 482.024 598.543 481.145C600.197 480.673 603.439 479.513 603.439 479.513C603.439 479.513 598.725 481.779 596.911 483.593C591.925 488.579 586.666 494.953 582.224 500.728C570.468 516.011 558.18 533.692 552.033 552.134" fill="none" opacity="1" stroke="#FFFFFF" stroke-linecap="round" stroke-linejoin="round" stroke-width="7.5" vectornator:layerName="Кривая 97"/>
<path d="M513.683 494.201C512.867 494.201 510.419 494.201 511.235 494.201C519.946 494.201 527.242 493.055 535.714 490.937" fill="none" opacity="1" stroke="#FFFFFF" stroke-linecap="round" stroke-linejoin="round" stroke-width="7.5" vectornator:layerName="Кривая 98"/>
<path d="M432.087 641.889C432.087 633.277 432.625 624.381 432.087 615.779C431.797 611.132 430.713 606.556 430.455 601.907C430.229 597.834 430.794 593.734 430.455 589.668C430.161 586.134 429.639 579.061 429.639 579.061C429.639 579.061 429.803 582.436 430.455 583.956C431.413 586.192 432.631 588.308 433.719 590.484C436.778 596.602 447.523 619.178 456.566 616.595C465.397 614.071 473.45 595.753 474.517 587.22C474.624 586.363 475.062 580.421 474.517 579.877C474.087 579.446 473.82 580.912 473.701 581.508C472.939 585.317 473.846 590.056 474.517 593.748C475.151 597.237 475.097 600.817 475.333 604.355C475.625 608.731 476.385 613.064 476.965 617.411C477.812 623.767 478.214 630.134 480.229 636.178" fill="none" opacity="1" stroke="#FFFFFF" stroke-linecap="round" stroke-linejoin="round" stroke-width="7.5" vectornator:layerName="Кривая 99"/>
<path d="M500.628 605.987C500.084 604.899 499.33 603.893 498.996 602.723C498.772 601.939 498.419 599.699 498.996 600.276C499.789 601.068 499.418 602.489 499.812 603.539C502.392 610.419 504.888 617.5 506.339 624.754C506.831 627.213 507.282 629.687 507.971 632.098C508.138 632.683 508.787 634.338 508.787 633.73C508.787 624.039 503.251 615.364 504.707 605.171C505.339 600.752 507.946 598.185 512.051 597.012C521.396 594.342 529.063 600.091 534.082 607.619" fill="none" opacity="1" stroke="#FFFFFF" stroke-linecap="round" stroke-linejoin="round" stroke-width="7.5" vectornator:layerName="Кривая 100"/>
<path d="M545.505 634.954C544.283 634.343 542.687 634.836 541.426 635.362C537.938 636.815 544.971 638.35 546.321 637.81C546.356 637.796 551.745 634.546 549.585 634.546C547.342 634.546 546.16 635.281 545.505 634.954Z" fill="none" opacity="1" stroke="#FFFFFF" stroke-linecap="round" stroke-linejoin="round" stroke-width="7.5" vectornator:layerName="Кривая 101"/>
<path d="M582.224 583.956C581.122 581.752 581.408 579.87 581.408 577.429C581.408 576.885 581.408 575.253 581.408 575.797C581.408 589.583 581.77 603.871 584.671 617.411C584.878 618.373 587.868 632.132 589.567 631.282C591.027 630.552 589.567 628.018 589.567 626.386" fill="none" opacity="1" stroke="#FFFFFF" stroke-linecap="round" stroke-linejoin="round" stroke-width="7.5" vectornator:layerName="Кривая 102"/>
<path d="M586.303 576.613C583.525 571.056 591.009 571.669 594.463 570.901C602.076 569.209 610.351 570.085 618.126 570.085C621.591 570.085 629.182 569.188 626.285 574.981" fill="none" opacity="1" stroke="#FFFFFF" stroke-linecap="round" stroke-linejoin="round" stroke-width="7.5" vectornator:layerName="Кривая 103"/>
<path d="M589.567 605.171C589.023 604.899 587.391 604.627 587.935 604.355C589.638 603.504 591.743 604.355 593.647 604.355C600.719 604.355 607.79 604.355 614.862 604.355" fill="none" opacity="1" stroke="#FFFFFF" stroke-linecap="round" stroke-linejoin="round" stroke-width="7.5" vectornator:layerName="Кривая 104"/>
<path d="M349.089 280.711C345.777 287.335 347.75 294.609 348.089 301.711C348.343 307.049 348.745 312.378 349.089 317.711C350.895 345.704 352.441 373.708 354.089 401.711C358.548 477.517 364.047 553.367 373.089 628.711C374.988 644.535 374.331 660.805 375.089 676.711C375.632 688.128 374.415 699.689 378.089 710.711" fill="none" opacity="1" stroke="#FFFFFF" stroke-linecap="round" stroke-linejoin="round" stroke-width="7.5" vectornator:layerName="Кривая 110"/>
<path d="M666.089 269.711C666.089 268.711 666.089 267.711 666.089 266.711C666.089 266.044 666.089 264.044 666.089 264.711C666.089 280.424 666.627 296.028 667.089 311.711C667.972 341.753 669.089 371.649 669.089 401.711C669.089 445.093 667.355 488.368 669.089 531.711C669.633 545.324 668.118 559.125 669.089 572.711C670.33 590.094 672.89 607.336 674.089 624.711C675.123 639.702 677.089 654.662 677.089 669.711C677.089 676.151 675.074 688.683 678.089 694.711" fill="none" opacity="1" stroke="#FFFFFF" stroke-linecap="round" stroke-linejoin="round" stroke-width="7.5" vectornator:layerName="Кривая 111"/>
<path d="M378.089 711.711C377.456 710.446 375.089 710.125 375.089 708.711C375.089 706.711 379.089 708.711 381.089 708.711C388.171 708.711 394.955 709.711 402.089 709.711C426.063 709.711 450.064 710.711 474.089 710.711C497.862 710.711 521.369 706.699 545.089 705.711C572.399 704.573 599.837 705.528 627.089 703.711C632.68 703.338 638.516 704.33 644.089 703.711C653.252 702.693 661.644 699.711 671.089 699.711" fill="none" opacity="1" stroke="#FFFFFF" stroke-linecap="round" stroke-linejoin="round" stroke-width="7.5" vectornator:layerName="Кривая 112"/>
<path d="M347.089 280.711C347.089 276.101 365.509 276.922 369.089 276.711C391.641 275.384 413.645 272.301 436.089 269.711C464.944 266.382 494.338 265.024 523.089 260.711C544.13 257.555 564.932 255.338 586.089 253.711C615.455 251.452 644.805 253.711 674.089 253.711" fill="none" opacity="1" stroke="#FFFFFF" stroke-linecap="round" stroke-linejoin="round" stroke-width="7.5" vectornator:layerName="Кривая 113"/>
</g>
</svg>
