<?xml version="1.0" encoding="UTF-8" standalone="no"?>
<!DOCTYPE svg PUBLIC "-//W3C//DTD SVG 1.1//EN" "http://www.w3.org/Graphics/SVG/1.1/DTD/svg11.dtd">
<!-- Created with Vectornator (http://vectornator.io/) -->
<svg height="100%" stroke-miterlimit="10" style="fill-rule:nonzero;clip-rule:evenodd;stroke-linecap:round;stroke-linejoin:round;" version="1.1" viewBox="0 0 1080 1080" width="100%" xml:space="preserve" xmlns="http://www.w3.org/2000/svg" xmlns:vectornator="http://vectornator.io" xmlns:xlink="http://www.w3.org/1999/xlink">
<defs/>
<g id="Слой-2-скопировать" vectornator:layerName="Слой 2 скопировать">
<path d="M202.704 515.675C202.704 336.933 349.688 192.035 531.003 192.035C712.318 192.035 859.303 336.933 859.303 515.675C859.303 694.416 712.318 839.315 531.003 839.315C349.688 839.315 202.704 694.416 202.704 515.675Z" fill="#f2f2f2" fill-rule="nonzero" opacity="1" stroke="#000000" stroke-linecap="butt" stroke-linejoin="round" stroke-width="10" vectornator:layerName="Овал 1"/>
</g>
<g id="Слой-3" vectornator:layerName="Слой 3">
<path d="M400.147 224.582C400.147 239.679 401.336 254.764 401.336 269.785" fill="none" opacity="1" stroke="#8b8b8b" stroke-linecap="butt" stroke-linejoin="round" stroke-width="5" vectornator:layerName="Кривая 1"/>
<path d="M359.702 458.331C359.702 455.547 359.579 463.768 359.702 464.874C360.233 469.658 360.296 474.295 360.296 479.148C360.296 489.279 360.891 499.318 360.891 509.482C360.891 513.127 359.817 518.635 361.486 521.973" fill="none" opacity="1" stroke="#8b8b8b" stroke-linecap="butt" stroke-linejoin="round" stroke-width="5" vectornator:layerName="Кривая 2"/>
<path d="M363.865 503.534C372.458 506.399 383.967 503.534 393.009 503.534C393.849 503.534 401.179 503.097 401.336 502.94C401.563 502.713 401.336 492.941 401.336 491.639C401.336 484.569 401.228 478.121 399.552 471.416C398.558 467.44 400.844 462.699 398.957 458.926" fill="none" opacity="1" stroke="#8b8b8b" stroke-linecap="butt" stroke-linejoin="round" stroke-width="5" vectornator:layerName="Кривая 3"/>
<path d="M400.147 502.94C400.147 502.543 399.866 502.031 400.147 501.75C400.602 501.295 405.677 501.75 406.094 501.75C408.253 501.75 419.271 500.924 419.774 502.94C420.979 507.759 419.18 513.549 419.18 518.404C419.18 528.593 419.774 538.476 419.774 548.738C419.774 550.751 420.323 564.75 420.964 565.392C422.399 566.826 428.354 564.458 429.886 564.202C431.249 563.975 442.368 564.805 442.376 564.797C443.016 564.157 441.369 560.768 441.187 560.039C440.132 555.819 439.956 551.384 439.402 546.954C437.266 529.866 441.061 512.296 438.213 495.208C437.557 491.276 434.85 482.183 439.402 479.148C440.533 478.395 443.158 480.532 444.161 480.933C446.581 481.901 449.323 481.528 451.893 481.528C454.561 481.528 457.115 481.56 459.625 480.933C460.606 480.688 461.607 480.536 462.599 480.338C463.033 480.251 463.648 479.323 463.788 479.743C464.232 481.073 463.194 482.505 463.194 483.907C463.194 489.061 463.194 494.216 463.194 499.371C463.194 505.23 463.428 510.89 464.383 516.62C465.819 525.238 463.788 534.841 463.788 543.385C463.788 549.146 464.563 555.751 463.194 561.228C462.894 562.426 461.838 566.581 463.788 566.581C465.893 566.581 468.761 565.23 470.926 564.797C475.613 563.86 480.559 564.768 485.2 563.607C486.298 563.333 489.151 563.82 489.959 563.013C490.751 562.22 488.29 557.992 488.174 557.065C488 555.674 487.855 554.276 487.58 552.901C485.212 541.063 486.951 528.344 484.606 516.62C484.22 514.693 480.469 503.197 481.037 502.345C482.171 500.644 486.199 502 487.58 502.345C494.189 503.997 500.445 508.942 507.802 507.103C512.363 505.963 527.892 501.684 531.593 503.534" fill="none" opacity="1" stroke="#8b8b8b" stroke-linecap="butt" stroke-linejoin="round" stroke-width="5" vectornator:layerName="Кривая 4"/>
<path d="M552.411 585.614C556.652 583.494 570.841 585.02 576.202 585.02C581.671 585.02 587.445 583.057 592.856 583.83C598.828 584.683 604.407 586.513 610.699 585.614C615.135 584.981 619.212 583.83 623.785 583.83" fill="none" opacity="1" stroke="#8b8b8b" stroke-linecap="butt" stroke-linejoin="round" stroke-width="5" vectornator:layerName="Кривая 5"/>
<path d="M633.896 435.729C633.896 424.825 633.896 413.921 633.896 403.016C633.896 398.057 634.598 392.465 633.896 387.552C632.335 376.627 631.517 364.786 631.517 353.649C631.517 348.23 632.825 341.038 631.517 335.806C629.805 328.959 632.088 321.39 630.922 314.394C629.149 303.757 629.732 291.952 629.732 281.086C629.732 277.653 630.431 273.816 630.922 270.38C632.143 261.831 629.968 252.797 630.922 244.21C631.369 240.189 633.233 236.29 633.896 232.314C634.785 226.978 633.778 219.469 632.112 214.471" fill="none" opacity="1" stroke="#8b8b8b" stroke-linecap="butt" stroke-linejoin="round" stroke-width="5" vectornator:layerName="Кривая 6"/>
<path d="M592.856 637.36C592.856 636.964 592.856 636.567 592.856 636.171C592.856 634.783 592.856 630.62 592.856 632.007C592.856 636.766 592.856 641.524 592.856 646.282C592.856 649.256 592.856 652.23 592.856 655.204C592.856 661.674 593.999 668.652 595.235 674.832C596.547 681.391 595.83 688.882 595.83 695.649" fill="none" opacity="1" stroke="#8b8b8b" stroke-linecap="butt" stroke-linejoin="round" stroke-width="5" vectornator:layerName="Кривая 7"/>
<path d="M319.256 607.621C319.058 607.225 318.463 606.828 318.662 606.432C319.08 605.595 322.938 606.958 323.42 607.026C328.12 607.698 332.909 607.621 337.695 607.621C341.168 607.621 344.868 606.32 348.401 607.026C352.342 607.815 356.78 608.803 360.891 608.216C364.123 607.754 367.218 606.368 370.408 605.837C394.095 601.889 417.945 607.621 441.781 607.621C447.232 607.621 453.072 606.432 458.435 606.432C458.977 606.432 462.438 606.11 462.599 606.432C462.806 606.847 461.037 612.085 460.814 612.974C459.961 616.387 459.868 625.356 461.409 628.439" fill="none" opacity="1" stroke="#8b8b8b" stroke-linecap="butt" stroke-linejoin="round" stroke-width="5" vectornator:layerName="Кривая 8"/>
<path d="M459.625 626.654C459.625 629.747 460.684 646.478 459.625 648.066C459.171 648.747 457.611 647.93 457.246 648.661C456.707 649.738 459.625 651.715 459.625 652.825" fill="none" opacity="1" stroke="#8b8b8b" stroke-linecap="butt" stroke-linejoin="round" stroke-width="5" vectornator:layerName="Кривая 9"/>
<path d="M338.884 610.595C336.545 610.595 337.695 619.271 337.695 621.301C337.695 629.999 337.695 638.956 337.695 647.472" fill="none" opacity="1" stroke="#8b8b8b" stroke-linecap="butt" stroke-linejoin="round" stroke-width="5" vectornator:layerName="Кривая 10"/>
<path d="M357.322 610.595C355.927 613.386 355.255 629.657 356.728 632.602" fill="none" opacity="1" stroke="#8b8b8b" stroke-linecap="butt" stroke-linejoin="round" stroke-width="5" vectornator:layerName="Кривая 11"/>
<path d="M360.891 630.223C365.181 630.223 369.223 628.958 373.381 628.439C378.918 627.747 384.522 627.757 390.035 626.654C397.413 625.179 407.34 626.428 414.421 627.844C418.237 628.607 423.017 627.844 426.912 627.844C432.043 627.844 437.17 628.439 442.376 628.439" fill="none" opacity="1" stroke="#8b8b8b" stroke-linecap="butt" stroke-linejoin="round" stroke-width="5" vectornator:layerName="Кривая 12"/>
<path d="M338.884 651.04C342.111 651.04 345.234 651.878 348.401 652.23C355.248 652.991 362.383 651.376 369.218 652.23C376.309 653.116 383.513 653.125 390.63 654.014C399.377 655.108 410.127 654.516 418.585 652.825C422.903 651.961 427.844 653.419 432.265 653.419" fill="none" opacity="1" stroke="#8b8b8b" stroke-linecap="butt" stroke-linejoin="round" stroke-width="5" vectornator:layerName="Кривая 13"/>
<path d="M426.317 654.014C432.158 652.067 438.614 652.825 444.755 652.825" fill="none" opacity="1" stroke="#8b8b8b" stroke-linecap="butt" stroke-linejoin="round" stroke-width="5" vectornator:layerName="Кривая 14"/>
<path d="M442.971 651.635C442.971 659.438 442.897 668.589 444.755 676.021C446.256 682.024 444.755 690.601 444.755 696.839C444.755 712.38 444.755 727.755 444.755 743.232" fill="none" opacity="1" stroke="#8b8b8b" stroke-linecap="butt" stroke-linejoin="round" stroke-width="5" vectornator:layerName="Кривая 15"/>
<path d="M441.187 628.439C440.869 628.28 438.926 627.606 439.402 626.654C439.614 626.232 444.684 627.844 445.35 627.844C450.842 627.844 456.418 628.439 462.004 628.439" fill="none" opacity="1" stroke="#8b8b8b" stroke-linecap="butt" stroke-linejoin="round" stroke-width="5" vectornator:layerName="Кривая 16"/>
<path d="M459.03 646.282C460.694 651.273 459.539 657.239 460.814 662.341C462.616 669.548 462.55 676.919 463.788 684.348C464.104 686.244 463.323 688.436 463.788 690.296C465.269 696.217 466.238 705.406 464.978 711.708C463.368 719.756 462.599 728.498 462.599 736.689" fill="none" opacity="1" stroke="#8b8b8b" stroke-linecap="butt" stroke-linejoin="round" stroke-width="5" vectornator:layerName="Кривая 17"/>
<path d="M439.997 730.741C445.177 733.331 454.931 732.525 460.814 732.525" fill="none" opacity="1" stroke="#8b8b8b" stroke-linecap="butt" stroke-linejoin="round" stroke-width="5" vectornator:layerName="Кривая 18"/>
<path d="M400.741 673.642C396.872 675.577 406.977 673.075 407.284 673.047C412.277 672.593 417.168 672.094 422.154 671.263C436.347 668.897 450.696 668.993 464.978 667.694C490.853 665.342 516.793 666.505 542.894 666.505C553.081 666.505 565.01 668.172 575.012 666.505C580.747 665.549 587.123 664.126 592.856 664.126" fill="none" opacity="1" stroke="#8b8b8b" stroke-linecap="butt" stroke-linejoin="round" stroke-width="5" vectornator:layerName="Кривая 19"/>
<path d="M402.526 689.106C411.988 689.106 421.464 691.959 431.075 690.891C452.01 688.565 476.582 684.399 497.691 687.917C501.432 688.54 505.965 687.926 509.587 687.322C516.784 686.122 524.718 687.961 531.593 689.106C540.317 690.56 550.67 689.106 559.548 689.106C561.085 689.106 567.463 688.191 568.47 689.701C570.166 692.245 567.589 699.125 567.28 701.597C566.707 706.187 567.28 711.244 567.28 715.872" fill="none" opacity="1" stroke="#8b8b8b" stroke-linecap="butt" stroke-linejoin="round" stroke-width="5" vectornator:layerName="Кривая 20"/>
<path d="M554.195 800.925C576.174 800.925 600.789 802.194 622 797.951C632.175 795.916 642.449 800.331 652.334 800.331C659.965 800.331 667.298 800.925 674.936 800.925C677.23 800.925 681.608 799.995 682.668 802.115" fill="none" opacity="1" stroke="#8b8b8b" stroke-linecap="butt" stroke-linejoin="round" stroke-width="5" vectornator:layerName="Кривая 21"/>
<path d="M679.099 612.974C679.099 608.162 687.17 610 690.4 610C700.372 610 710.206 608.331 720.139 607.621C735.623 606.515 751.021 607.621 766.532 607.621C771.296 607.621 776.672 608.297 781.402 607.621C799.73 605.003 817.993 604.053 836.716 604.053" fill="none" opacity="1" stroke="#8b8b8b" stroke-linecap="butt" stroke-linejoin="round" stroke-width="5" vectornator:layerName="Кривая 22"/>
<path d="M692.779 629.628C692.581 629.232 693.061 628.125 693.374 628.439C694.137 629.201 693.969 635.681 693.969 636.766C693.969 642.119 693.969 647.472 693.969 652.825" fill="none" opacity="1" stroke="#8b8b8b" stroke-linecap="butt" stroke-linejoin="round" stroke-width="5" vectornator:layerName="Кривая 23"/>
<path d="M696.348 630.223C695.627 629.863 694.114 628.294 695.158 627.249C695.229 627.179 705.538 627.249 706.459 627.249C718.515 627.249 730.676 627.249 742.741 627.249C757.016 627.249 771.29 627.249 785.565 627.249C787.593 627.249 796.11 623.141 796.866 624.275C797.196 624.77 796.749 625.476 796.866 626.06C797.336 628.409 798.66 630.855 799.245 633.197C800.027 636.324 799.245 640.666 799.245 643.903C799.245 650.287 799.84 656.678 799.84 662.936" fill="none" opacity="1" stroke="#8b8b8b" stroke-linecap="butt" stroke-linejoin="round" stroke-width="5" vectornator:layerName="Кривая 24"/>
<path d="M711.812 672.452C729.986 672.452 746.945 670.832 764.748 668.289C769.509 667.609 774.29 667.888 779.023 667.099C788.068 665.592 801.319 668.739 809.356 664.72" fill="none" opacity="1" stroke="#8b8b8b" stroke-linecap="butt" stroke-linejoin="round" stroke-width="5" vectornator:layerName="Кривая 25"/>
<path d="M710.623 675.426C710.988 674.695 710.852 672.316 711.218 673.047C713.475 677.561 711.812 691.004 711.812 696.244" fill="none" opacity="1" stroke="#8b8b8b" stroke-linecap="butt" stroke-linejoin="round" stroke-width="5" vectornator:layerName="Кривая 26"/>
<path d="M717.165 649.851C715.049 645.619 721.062 646.877 723.708 646.877C730.251 646.877 736.793 646.877 743.336 646.877C748.58 646.877 753.608 648.066 758.8 648.066C772.129 648.066 784.861 646.877 798.056 646.877" fill="none" opacity="1" stroke="#8b8b8b" stroke-linecap="butt" stroke-linejoin="round" stroke-width="5" vectornator:layerName="Кривая 27"/>
<path d="M630.327 429.187C632.966 423.908 633.36 430.938 633.896 433.35C635.267 439.522 635.085 445.497 635.085 451.788C635.085 461.405 634.348 471.349 635.085 480.933C635.527 486.676 636.275 492.463 636.275 498.181" fill="none" opacity="1" stroke="#8b8b8b" stroke-linecap="butt" stroke-linejoin="round" stroke-width="5" vectornator:layerName="Кривая 28"/>
<path d="M739.767 419.67C748.631 419.67 757.129 420.867 765.937 421.455C774.014 421.993 782.263 420.722 790.323 421.455C795.891 421.961 801.398 423.327 806.977 423.834C819.596 424.981 832.937 423.834 845.638 423.834" fill="none" opacity="1" stroke="#8b8b8b" stroke-linecap="butt" stroke-linejoin="round" stroke-width="5" vectornator:layerName="Кривая 29"/>
<path d="M627.948 292.982C634.256 289.828 641.989 291.137 648.765 290.008C649.4 289.902 651.591 288.67 652.334 289.413C652.624 289.703 652.334 306.366 652.334 307.257C652.334 323.465 652.334 339.946 652.334 356.029" fill="none" opacity="1" stroke="#8b8b8b" stroke-linecap="butt" stroke-linejoin="round" stroke-width="5" vectornator:layerName="Кривая 30"/>
<path d="M645.792 291.792C650.044 291.792 654.078 293.253 658.282 293.577C665.21 294.109 672.18 294.234 679.099 294.766C687.717 295.429 696.625 294.766 705.27 294.766C726.139 294.766 746.857 294.171 767.722 294.171" fill="none" opacity="1" stroke="#8b8b8b" stroke-linecap="butt" stroke-linejoin="round" stroke-width="5" vectornator:layerName="Кривая 31"/>
<path d="M673.151 299.524C673.151 296.558 673.746 303.056 673.746 304.283C673.746 307.301 674.241 310.832 673.746 313.799C673.612 314.605 672.376 315.92 673.151 316.178C674.579 316.654 677.676 314.597 679.099 314.394C682.447 313.916 685.796 313.799 689.211 313.799C706.063 313.799 722.915 313.799 739.767 313.799C742.431 313.799 757.994 312.865 759.395 313.799C759.917 314.147 759.395 319.694 759.395 320.342C759.395 326.24 757.61 331.096 757.61 336.996" fill="none" opacity="1" stroke="#8b8b8b" stroke-linecap="butt" stroke-linejoin="round" stroke-width="5" vectornator:layerName="Кривая 32"/>
<path d="M675.531 337.59C686.968 337.59 698.608 339.137 710.028 338.185C714.598 337.804 719.163 336.855 723.708 336.401C732.984 335.473 742.507 336.996 751.663 336.996C769.941 336.996 788.044 336.401 806.383 336.401" fill="none" opacity="1" stroke="#8b8b8b" stroke-linecap="butt" stroke-linejoin="round" stroke-width="5" vectornator:layerName="Кривая 33"/>
<path d="M755.826 339.97C755.826 336.922 756.421 346.95 756.421 348.296C756.421 353.382 757.61 358.661 757.61 363.761C757.61 369.739 758.805 375.702 759.395 381.604C760.447 392.129 759.99 403.138 759.99 413.722C759.99 416.234 758.534 426.808 761.774 426.808" fill="none" opacity="1" stroke="#8b8b8b" stroke-linecap="butt" stroke-linejoin="round" stroke-width="5" vectornator:layerName="Кривая 34"/>
<path d="M779.617 340.564C779.617 350.477 779.617 360.39 779.617 370.303C779.617 372.526 780.153 375.299 779.617 377.441C779.51 377.871 778.709 378.317 779.023 378.63C779.73 379.338 785.916 378.155 787.35 378.036C796.211 377.297 805.191 377.441 814.115 377.441C816.213 377.441 822.442 376.337 822.442 378.63" fill="none" opacity="1" stroke="#8b8b8b" stroke-linecap="butt" stroke-linejoin="round" stroke-width="5" vectornator:layerName="Кривая 35"/>
<path d="M758.205 398.258C756.832 395.512 761.871 396.474 763.558 396.474C770.215 396.474 777.131 397.747 783.781 398.258C790.273 398.758 796.931 397.61 803.409 398.258C813.132 399.23 822.709 400.637 832.553 400.637" fill="none" opacity="1" stroke="#8b8b8b" stroke-linecap="butt" stroke-linejoin="round" stroke-width="5" vectornator:layerName="Кривая 36"/>
<path d="M464.383 334.022C468.084 332.788 471.805 334.616 475.684 334.616C483.813 334.616 491.941 334.616 500.07 334.616C506.81 334.616 513.617 333.574 520.293 332.832C525.384 332.266 530.665 333.398 535.757 332.832C545.663 331.731 556.165 331.048 566.091 331.048" fill="none" opacity="1" stroke="#8b8b8b" stroke-linecap="butt" stroke-linejoin="round" stroke-width="5" vectornator:layerName="Кривая 37"/>
<path d="M467.357 355.434C469.669 354.278 472.504 354.839 475.089 354.839C482.252 354.839 489.371 354.72 496.501 354.244C506.45 353.581 516.406 352.5 526.24 351.27C530.145 350.782 534.232 351.758 538.136 351.27C549.039 349.908 560.418 350.081 571.444 350.081" fill="none" opacity="1" stroke="#8b8b8b" stroke-linecap="butt" stroke-linejoin="round" stroke-width="5" vectornator:layerName="Кривая 38"/>
<path d="M519.103 379.82C518.905 379.423 518.31 379.027 518.508 378.63C518.603 378.441 522.9 378.63 524.456 378.63C528.675 378.63 532.712 379.225 536.946 379.225C548.568 379.225 559.871 377.441 571.444 377.441" fill="none" opacity="1" stroke="#8b8b8b" stroke-linecap="butt" stroke-linejoin="round" stroke-width="5" vectornator:layerName="Кривая 39"/>
<path d="M526.835 397.663C541.449 397.663 556.478 397.069 570.849 397.069" fill="none" opacity="1" stroke="#8b8b8b" stroke-linecap="butt" stroke-linejoin="round" stroke-width="5" vectornator:layerName="Кривая 40"/>
<path d="M545.868 399.448C550.136 407.983 546.469 422.101 547.653 431.566C550.592 455.083 550.626 479.155 550.626 502.94" fill="none" opacity="1" stroke="#8b8b8b" stroke-linecap="butt" stroke-linejoin="round" stroke-width="5" vectornator:layerName="Кривая 41"/>
<path d="M550.032 502.345C554.029 500.346 562.078 501.75 566.686 501.75C575.428 501.75 584.312 501.186 592.856 499.966C599.821 498.971 607.722 501.455 614.268 498.181" fill="none" opacity="1" stroke="#8b8b8b" stroke-linecap="butt" stroke-linejoin="round" stroke-width="5" vectornator:layerName="Кривая 42"/>
<path d="M613.079 501.155C609.758 507.797 614.309 523.694 614.863 530.894C615.797 543.038 617.277 556.125 616.052 568.366C615.275 576.142 613.673 584.408 613.673 592.157" fill="none" opacity="1" stroke="#8b8b8b" stroke-linecap="butt" stroke-linejoin="round" stroke-width="5" vectornator:layerName="Кривая 43"/>
<path d="M551.221 526.731C551.221 522.599 565.662 524.352 569.065 524.352C576.43 524.352 584.34 525.166 591.666 524.352C599.338 523.499 607.098 521.973 614.863 521.973" fill="none" opacity="1" stroke="#8b8b8b" stroke-linecap="butt" stroke-linejoin="round" stroke-width="5" vectornator:layerName="Кривая 44"/>
<path d="M566.686 546.954C566.487 546.557 565.777 546.077 566.091 545.764C566.942 544.913 571.244 546.259 572.039 546.359C576.432 546.908 581.294 546.359 585.719 546.359C595.731 546.359 605.44 545.169 615.458 545.169" fill="none" opacity="1" stroke="#8b8b8b" stroke-linecap="butt" stroke-linejoin="round" stroke-width="5" vectornator:layerName="Кривая 45"/>
<path d="M526.835 523.757C529.519 525.099 532.769 524.675 535.757 524.947C544.648 525.755 553.607 526.731 562.522 526.731" fill="none" opacity="1" stroke="#8b8b8b" stroke-linecap="butt" stroke-linejoin="round" stroke-width="5" vectornator:layerName="Кривая 46"/>
<path d="M566.686 546.954C565.203 549.919 566.091 554.413 566.091 557.66C566.091 565.022 564.488 574.676 567.875 581.451" fill="none" opacity="1" stroke="#8b8b8b" stroke-linecap="butt" stroke-linejoin="round" stroke-width="5" vectornator:layerName="Кривая 47"/>
<path d="M589.287 549.927C589.287 546.406 589.287 555.172 589.287 555.28C589.287 559.609 589.698 564.245 591.072 568.366" fill="none" opacity="1" stroke="#8b8b8b" stroke-linecap="butt" stroke-linejoin="round" stroke-width="5" vectornator:layerName="Кривая 48"/>
<path d="M294.276 292.982C294.276 289.611 304.049 291.439 306.171 291.792C317.965 293.758 331.042 292.387 343.048 292.387C352.166 292.387 361.446 291.598 370.408 290.603C378.764 289.674 387.126 290.79 395.388 289.413C403.6 288.045 413.237 289.413 421.559 289.413C432.661 289.413 443.764 289.413 454.867 289.413C459.031 289.413 464.553 288.415 468.547 289.413C475.243 291.087 482.271 291.197 489.364 291.197" fill="none" opacity="1" stroke="#8b8b8b" stroke-linecap="butt" stroke-linejoin="round" stroke-width="5" vectornator:layerName="Кривая 49"/>
<path d="M357.917 245.994C357.917 260.135 356.166 275.401 357.917 289.413C358.646 295.243 359.252 301.927 358.512 307.851C357.271 317.778 357.917 328.121 357.917 338.185C357.917 343.768 357.225 349.898 357.917 355.434C358.825 362.696 357.484 370.244 358.512 377.441C361.041 395.144 359.702 414.056 359.702 432.161" fill="none" opacity="1" stroke="#8b8b8b" stroke-linecap="butt" stroke-linejoin="round" stroke-width="5" vectornator:layerName="Кривая 50"/>
<path d="M337.1 294.766C337.1 302.292 337.656 310.591 338.884 317.963C339.905 324.086 338.579 330.422 340.074 336.401C341.354 341.524 339.796 347.226 340.668 352.46C341.886 359.766 340.865 366.346 339.479 373.277C339.207 374.635 340.035 376.29 338.884 377.441C337.207 379.118 335.728 377.246 334.126 376.846C332.126 376.346 330.182 375.563 328.178 375.062C324.211 374.07 320.098 375.78 316.282 373.872" fill="none" opacity="1" stroke="#8b8b8b" stroke-linecap="butt" stroke-linejoin="round" stroke-width="5" vectornator:layerName="Кривая 51"/>
<path d="M319.256 353.649C325.051 355.581 332.673 354.244 338.884 354.244" fill="none" opacity="1" stroke="#8b8b8b" stroke-linecap="butt" stroke-linejoin="round" stroke-width="5" vectornator:layerName="Кривая 52"/>
<path d="M293.681 335.806C293.482 335.41 292.772 334.93 293.086 334.616C293.559 334.144 307.177 333.552 308.55 333.427C314.889 332.851 329.462 328.716 335.315 331.643" fill="none" opacity="1" stroke="#8b8b8b" stroke-linecap="butt" stroke-linejoin="round" stroke-width="5" vectornator:layerName="Кривая 53"/>
<path d="M293.086 335.211C293.086 357.662 294.276 379.921 294.276 402.422" fill="none" opacity="1" stroke="#8b8b8b" stroke-linecap="butt" stroke-linejoin="round" stroke-width="5" vectornator:layerName="Кривая 54"/>
<path d="M294.276 401.232C299.971 399.333 306.182 400.042 312.119 400.042C322.627 400.042 333.135 400.042 343.642 400.042C348.662 400.042 357.048 398.418 361.486 400.637" fill="none" opacity="1" stroke="#8b8b8b" stroke-linecap="butt" stroke-linejoin="round" stroke-width="5" vectornator:layerName="Кривая 55"/>
<path d="M216.954 420.86C224.228 417.223 233.354 420.994 240.745 422.049C249.446 423.292 259.658 423.144 268.105 421.455C272.905 420.495 278.211 421.813 282.975 420.86C285.193 420.416 295.308 420.568 296.655 419.67C298.777 418.255 296.06 403.5 296.06 401.232" fill="none" opacity="1" stroke="#8b8b8b" stroke-linecap="butt" stroke-linejoin="round" stroke-width="5" vectornator:layerName="Кривая 56"/>
<path d="M273.458 321.531C273.458 318.901 273.458 326.373 273.458 327.479C273.458 332.589 272.62 338.507 273.458 343.538C275.638 356.617 274.571 370.359 276.432 383.389C276.8 385.967 278.673 395.423 276.432 397.663C274.267 399.828 263.713 398.258 260.373 398.258C257.889 398.258 255.777 398.853 253.236 398.853C252.839 398.853 252.046 398.853 252.046 398.853C252.046 398.853 252.955 399.133 253.236 398.853C253.533 398.555 253.83 395.829 253.83 395.284C253.83 391.222 254.425 387.39 254.425 383.389C254.425 379.086 255.729 374.56 255.02 370.303C254.442 366.835 252.616 363.609 252.046 360.192C251.593 357.474 252.641 355.056 252.641 352.46" fill="none" opacity="1" stroke="#8b8b8b" stroke-linecap="butt" stroke-linejoin="round" stroke-width="5" vectornator:layerName="Кривая 57"/>
<path d="M233.608 480.933C233.608 488.508 234.34 495.574 235.392 502.94C236.711 512.168 234.203 521.329 234.203 530.3" fill="none" opacity="1" stroke="#8b8b8b" stroke-linecap="butt" stroke-linejoin="round" stroke-width="5" vectornator:layerName="Кривая 58"/>
<path d="M233.608 482.717C250.559 482.717 268.627 486.062 285.354 482.717C289.429 481.902 294.304 481.528 298.439 481.528C298.836 481.528 299.451 481.173 299.629 481.528C299.921 482.113 297.907 483.802 297.844 483.907C297.126 485.104 296.655 487.887 296.655 489.26C296.655 492.432 296.655 495.604 296.655 498.776C296.655 501.301 298.065 500.509 297.249 499.966C295.495 498.796 289.822 500.561 287.733 500.561C283.69 500.561 279.713 501.57 275.837 502.345C271.11 503.29 265.2 502.345 260.373 502.345C258.108 502.345 253.567 501.848 252.046 504.129C250.484 506.473 254.005 511.543 254.425 513.646C254.957 516.304 255.615 519.909 255.615 522.567C255.615 522.964 255.615 523.757 255.615 523.757C255.615 523.757 255.334 522.848 255.615 522.567C256.491 521.691 267.105 521.973 268.7 521.973C280.794 521.973 292.045 523.162 303.792 523.162C306.451 523.162 308.778 522.567 311.524 522.567C312.014 522.567 314.778 522.882 315.093 522.567C315.328 522.332 313.903 508.095 313.903 506.508C313.903 500.875 313.309 495.503 313.309 489.854C313.309 486.373 313.994 481.981 313.309 478.554C312.066 472.343 311.524 465.99 311.524 459.521" fill="none" opacity="1" stroke="#8b8b8b" stroke-linecap="butt" stroke-linejoin="round" stroke-width="5" vectornator:layerName="Кривая 59"/>
<path d="M338.289 460.115C335.851 467.431 337.607 478.182 338.289 485.691C340.157 506.235 340.074 526.775 340.074 547.548" fill="none" opacity="1" stroke="#8b8b8b" stroke-linecap="butt" stroke-linejoin="round" stroke-width="5" vectornator:layerName="Кривая 60"/>
<path d="M212.79 585.02C214.74 584.045 226.529 586.48 229.444 586.804C238.836 587.847 248.694 587.038 257.994 588.588C265.313 589.808 273.653 590.615 281.19 589.778C291.308 588.654 301.263 588.588 311.524 588.588C317.412 588.588 323.714 589.124 329.368 587.993C332.033 587.461 335.002 588.378 337.695 587.993C342.284 587.338 346.931 586.503 351.375 585.614C361.133 583.663 372.576 586.209 382.303 586.209C390.877 586.209 400.09 585.407 408.474 586.804C413.494 587.641 420.29 587.177 425.128 586.209C434.544 584.326 449.194 586.453 458.435 587.993C467.339 589.477 476.157 587.023 484.606 585.614C486.334 585.326 488.242 585.958 489.959 585.614C493.553 584.896 500.15 583.87 503.639 585.614" fill="none" opacity="1" stroke="#8b8b8b" stroke-linecap="butt" stroke-linejoin="round" stroke-width="5" vectornator:layerName="Кривая 61"/>
<path d="M251.451 548.738C251.451 557.369 252.046 566.634 252.046 575.503C252.046 578.75 251.158 583.244 252.641 586.209" fill="none" opacity="1" stroke="#8b8b8b" stroke-linecap="butt" stroke-linejoin="round" stroke-width="5" vectornator:layerName="Кривая 62"/>
<path d="M271.674 546.954C271.27 547.761 272.269 558.53 272.269 560.634C272.269 570.348 272.269 580.063 272.269 589.778" fill="none" opacity="1" stroke="#8b8b8b" stroke-linecap="butt" stroke-linejoin="round" stroke-width="5" vectornator:layerName="Кривая 63"/>
<path d="M296.655 545.764C294.674 549.725 295.769 553.995 295.465 558.254C294.998 564.794 294.712 571.342 294.276 577.882C293.954 582.711 292.491 587.363 292.491 592.157" fill="none" opacity="1" stroke="#8b8b8b" stroke-linecap="butt" stroke-linejoin="round" stroke-width="5" vectornator:layerName="Кривая 64"/>
<path d="M313.903 547.548C310.66 549.17 313.422 554.773 313.903 557.66C315.071 564.667 315.099 572.007 315.688 579.072C315.975 582.516 315.33 584.9 316.877 587.993" fill="none" opacity="1" stroke="#8b8b8b" stroke-linecap="butt" stroke-linejoin="round" stroke-width="5" vectornator:layerName="Кривая 65"/>
<path d="M336.505 544.574C336.505 555.763 337.363 567.327 336.505 578.477C336.095 583.808 334.721 589.221 334.721 594.536" fill="none" opacity="1" stroke="#8b8b8b" stroke-linecap="butt" stroke-linejoin="round" stroke-width="5" vectornator:layerName="Кривая 66"/>
<path d="M478.063 458.926C490.782 458.926 503.549 459.134 516.129 457.736C520.02 457.304 526.109 455.886 529.809 457.736" fill="none" opacity="1" stroke="#8b8b8b" stroke-linecap="butt" stroke-linejoin="round" stroke-width="5" vectornator:layerName="Кривая 67"/>
<path d="M504.828 195.438C504.828 194.446 504.828 192.464 504.828 192.464C504.828 192.464 504.828 195.636 504.828 197.222C504.828 200.791 504.828 204.359 504.828 207.928C504.828 217.893 505.423 227.738 505.423 237.667C505.423 268.89 508.397 299.82 508.397 331.048" fill="none" opacity="1" stroke="#8b8b8b" stroke-linecap="butt" stroke-linejoin="round" stroke-width="5" vectornator:layerName="Кривая 68"/>
<path d="M421.559 250.157C427.868 250.157 433.8 250.658 439.997 251.347C450.608 252.526 461.584 250.437 472.115 251.942C477.977 252.779 484.639 251.942 490.553 251.942C500.634 251.942 511.504 252.479 521.482 253.726C531.282 254.951 542.853 254.13 552.411 252.537C560.461 251.195 569.8 252.537 577.986 252.537" fill="none" opacity="1" stroke="#8b8b8b" stroke-linecap="butt" stroke-linejoin="round" stroke-width="5" vectornator:layerName="Кривая 69"/>
<path d="M419.18 215.065C420.201 217.109 419.958 219.941 420.369 222.203C421.629 229.13 422.154 236.554 422.154 243.615" fill="none" opacity="1" stroke="#8b8b8b" stroke-linecap="butt" stroke-linejoin="round" stroke-width="5" vectornator:layerName="Кривая 70"/>
<path d="M420.072 242.723C421.008 244.127 420.24 239.35 420.369 237.667C420.4 237.272 420.369 238.46 420.369 238.857C420.369 239.65 420.369 240.443 420.369 241.236C420.369 243.384 421.023 246.29 420.964 245.994C420.407 243.21 418.796 240.81 420.072 242.723Z" fill="none" opacity="1" stroke="#8b8b8b" stroke-linecap="butt" stroke-linejoin="round" stroke-width="5" vectornator:layerName="Кривая 71"/>
<path d="M441.187 211.497C441.187 211.1 441.187 209.911 441.187 210.307C441.187 213.601 439.568 229.588 440.592 231.124C441.088 231.868 443.722 230.639 444.161 230.53C445.859 230.105 448.975 230.283 450.703 230.53C457.237 231.463 463.761 231.657 470.331 232.314C473.866 232.668 478.623 233.81 482.227 232.909C488.851 231.253 485.856 226.2 485.2 221.608C484.417 216.121 484.342 210.509 483.416 204.954C482.911 201.925 482.671 199.451 480.442 197.222" fill="none" opacity="1" stroke="#8b8b8b" stroke-linecap="butt" stroke-linejoin="round" stroke-width="5" vectornator:layerName="Кривая 72"/>
<path d="M522.077 273.354C525.164 271.81 524.942 280.856 525.051 282.276C525.714 290.895 525.051 299.784 525.051 308.446C525.051 309.375 525.377 317.963 524.456 317.963C522.917 317.963 526.762 316.196 526.835 316.178C528.675 315.718 530.314 314.706 532.188 314.394C536.445 313.684 549.088 316.107 551.816 312.015C552.359 311.2 550.305 308.348 550.032 307.257C549.64 305.691 546.596 291.064 547.058 290.603C548.148 289.513 555.163 291.616 556.574 291.792C558.356 292.015 560.175 291.998 561.927 292.387C564.334 292.922 566.845 293.061 569.065 294.171" fill="none" opacity="1" stroke="#8b8b8b" stroke-linecap="butt" stroke-linejoin="round" stroke-width="5" vectornator:layerName="Кривая 73"/>
<path d="M589.882 208.523C589.882 208.126 589.882 207.333 589.882 207.333C589.882 207.333 589.882 210.505 589.882 212.091C589.882 215.557 589.82 218.917 590.477 222.203C591.973 229.683 591.072 238.259 591.072 245.994C591.072 247.049 590.32 252.975 591.072 253.726C591.725 254.38 594.887 252.537 595.83 252.537C603.255 252.537 612.237 249.507 610.699 260.269C610.473 261.851 610.105 263.429 610.105 265.027C610.105 266.205 610.83 272.033 610.105 272.759C609.037 273.827 607.431 271.223 605.941 270.975C602.998 270.484 599.909 270.508 597.019 269.785C595.272 269.348 592.849 266.219 591.072 266.811C589.612 267.298 589.882 271.169 589.882 272.164C589.882 276.636 590.005 281.578 591.072 285.844C591.443 287.33 590.243 290.55 591.072 291.792C591.93 293.08 595.812 292.387 597.019 292.387C599.454 292.387 609.768 293.24 611.294 294.766C613.369 296.841 611.889 304.429 611.889 307.257C611.889 308.775 613.043 312.68 612.484 313.799C610.432 317.903 599.091 316.547 595.235 315.583C594.667 315.442 590.884 313.783 590.477 314.394C589.93 315.214 590.477 323.811 590.477 325.695C590.477 327.285 590.233 333.661 591.666 334.616C595.789 337.365 602.989 334.019 607.131 333.427C613.697 332.489 627.471 334.675 633.301 337.59" fill="none" opacity="1" stroke="#8b8b8b" stroke-linecap="butt" stroke-linejoin="round" stroke-width="5" vectornator:layerName="Кривая 74"/>
<path d="M570.254 355.434C569.858 355.236 568.866 355.236 569.065 354.839C569.58 353.809 584.836 354.244 586.313 354.244C591.525 354.244 598.953 354.69 604.157 353.649C605.286 353.424 609.095 351.787 610.105 352.46C610.912 352.999 613.387 362.615 613.673 363.761C614.114 365.523 617.647 379.022 616.052 379.82C615.108 380.292 611.365 377.179 610.699 376.846C607.734 375.363 593.336 372.798 590.477 375.656C590.041 376.092 592.585 390.685 592.856 392.31C593.228 394.54 592.856 397.169 592.856 399.448C592.856 399.844 592.856 400.637 592.856 400.637C592.856 400.637 594.056 398.135 595.235 397.663C596.902 396.997 610.054 394.639 611.294 395.879C611.73 396.315 611.466 401.14 611.294 401.827C610.603 404.591 611.412 420.147 610.105 421.455C609.265 422.294 606.445 419.295 605.346 419.075C603.739 418.754 593.574 417.011 592.261 417.886C591.022 418.712 592.67 423.315 592.856 424.429C593.581 428.778 594.046 433.67 594.046 438.108C594.046 438.733 593.58 442.996 594.046 443.462C594.176 443.592 605.649 443.462 606.536 443.462C613.582 443.462 620.839 445.836 627.948 444.651C632.176 443.946 637.46 443.262 641.628 444.651" fill="none" opacity="1" stroke="#8b8b8b" stroke-linecap="butt" stroke-linejoin="round" stroke-width="5" vectornator:layerName="Кривая 75"/>
<path d="M651.145 251.347C651.145 247.862 651.719 255.344 651.739 255.51C652.255 259.634 651.814 263.841 652.334 268.001C652.439 268.837 651.794 271.625 652.334 272.164C653.233 273.063 659.452 272.164 660.661 272.164C666.807 272.164 672.953 272.164 679.099 272.164C681.85 272.164 684.719 273.498 687.426 273.949C691.091 274.56 695.062 273.338 698.727 273.949C705.171 275.023 712.392 275.138 718.95 275.138C724.501 275.138 730.052 275.138 735.604 275.138C736.85 275.138 739.219 274.681 740.362 275.138C742.215 275.88 743.772 277.517 745.715 277.517" fill="none" opacity="1" stroke="#8b8b8b" stroke-linecap="butt" stroke-linejoin="round" stroke-width="5" vectornator:layerName="Кривая 76"/>
<path d="M674.341 231.124C674.341 238.288 676.125 245.241 676.125 252.537" fill="none" opacity="1" stroke="#8b8b8b" stroke-linecap="butt" stroke-linejoin="round" stroke-width="5" vectornator:layerName="Кривая 77"/>
<path d="M736.198 438.108C736.397 437.712 736.35 436.919 736.793 436.919C737.19 436.919 736.793 437.712 736.793 438.108C736.793 439.1 736.793 440.091 736.793 441.082C736.793 442.464 737.388 443.269 737.388 444.651C737.388 449.899 738.577 454.787 738.577 460.115C738.577 463.875 738.87 469.019 739.767 472.606C741.349 478.935 739.172 487.003 739.172 493.423C739.172 494.569 739.284 505.207 739.172 505.319C738.555 505.936 737.202 504.806 736.793 504.724C733.451 504.056 729.94 504.349 726.682 503.534C719.587 501.761 710.754 504.129 703.485 504.129C702.027 504.129 696.831 503.321 695.753 504.129C693.993 505.449 697.758 522.028 699.917 522.567C701.447 522.95 707.579 520.783 710.028 520.783C721.448 520.783 733.435 519.755 744.525 521.973C746.39 522.346 757.026 524.336 758.205 522.567C759.264 520.979 757.823 516.749 758.205 514.835C759.242 509.653 758.8 504.114 758.8 498.776C758.8 480.756 756.421 463.135 756.421 445.246C756.421 439.328 758.873 426.954 756.421 422.049" fill="none" opacity="1" stroke="#8b8b8b" stroke-linecap="butt" stroke-linejoin="round" stroke-width="5" vectornator:layerName="Кривая 78"/>
<path d="M779.023 439.298C779.023 436.522 779.617 446.886 779.617 448.22C779.617 454.127 779.97 460.8 780.807 466.658C783.452 485.172 782.591 503.219 782.591 521.973" fill="none" opacity="1" stroke="#8b8b8b" stroke-linecap="butt" stroke-linejoin="round" stroke-width="5" vectornator:layerName="Кривая 79"/>
<path d="M777.833 440.488C777.833 440.091 777.553 439.578 777.833 439.298C778.226 438.905 796.371 437.976 797.461 438.703C799.07 439.776 798.056 447.127 798.056 448.815C798.056 451.133 799.302 453.204 799.84 455.357C801.183 460.728 802.219 466.471 802.219 472.011C802.219 474.858 801.624 477.898 801.624 480.933C801.624 482.122 801.624 484.501 801.624 484.501C801.624 484.501 801.404 483.642 801.624 483.312C802.378 482.181 805.833 481.756 806.977 481.528C809.465 481.03 819.374 483.091 820.063 480.338C820.664 477.932 820.027 474.841 819.468 472.606C818.471 468.618 819.268 464.076 818.278 460.115C817.698 457.794 816.494 455.417 816.494 452.978C816.494 449.236 816.026 445.88 815.304 442.272C815.032 440.911 815.304 438.108 815.304 438.108C815.304 438.108 815.084 438.968 815.304 439.298C816.431 440.988 820.778 441.261 822.442 441.677C828.537 443.201 836.934 441.677 843.259 441.677" fill="none" opacity="1" stroke="#8b8b8b" stroke-linecap="butt" stroke-linejoin="round" stroke-width="5" vectornator:layerName="Кривая 80"/>
<path d="M782.591 520.783C787.149 518.504 794.763 520.783 799.84 520.783C800.558 520.783 804.328 520.728 804.598 520.188C804.797 519.792 804.269 519.353 804.003 518.999C802.391 516.849 801.596 513.505 801.03 510.672C800.468 507.865 799.939 505.119 799.245 502.345C799.149 501.96 799.245 501.155 799.245 501.155C799.245 501.155 801.296 503.826 802.814 504.129C804.42 504.45 806.525 504.129 808.167 504.129C809.842 504.129 821.168 502.884 821.252 502.94C822.15 503.539 821.847 519.566 821.847 521.973" fill="none" opacity="1" stroke="#8b8b8b" stroke-linecap="butt" stroke-linejoin="round" stroke-width="5" vectornator:layerName="Кривая 81"/>
<path d="M848.612 482.717C846.083 483.982 842.303 481.586 839.69 480.933C839.306 480.837 838.721 480.603 838.501 480.933C837.767 482.033 840.285 494.882 840.285 497.587C840.285 498.128 839.963 501.589 840.285 501.75C840.541 501.878 847.2 499.854 849.802 501.155" fill="none" opacity="1" stroke="#8b8b8b" stroke-linecap="butt" stroke-linejoin="round" stroke-width="5" vectornator:layerName="Кривая 82"/>
<path d="M821.847 521.378C826.102 519.959 831.643 520.783 836.122 520.783C841.72 520.783 847.271 520.188 852.776 520.188" fill="none" opacity="1" stroke="#8b8b8b" stroke-linecap="butt" stroke-linejoin="round" stroke-width="5" vectornator:layerName="Кривая 83"/>
<path d="M696.348 439.893C696.348 444.249 697.664 448.167 698.132 452.383C698.761 458.043 697.924 464.013 698.727 469.632C699.679 476.297 700.511 482.382 700.511 489.26" fill="none" opacity="1" stroke="#8b8b8b" stroke-linecap="butt" stroke-linejoin="round" stroke-width="5" vectornator:layerName="Кривая 84"/>
<path d="M696.943 441.082C698.846 440.131 700.412 441.206 702.296 441.677C706.976 442.847 712.521 441.082 717.165 441.082" fill="none" opacity="1" stroke="#8b8b8b" stroke-linecap="butt" stroke-linejoin="round" stroke-width="5" vectornator:layerName="Кривая 85"/>
<path d="M715.381 440.488C715.381 437.894 716.224 444.628 716.571 445.841C717.473 449 717.76 452.678 717.76 455.952C717.76 464.269 721.579 480.433 717.76 488.07" fill="none" opacity="1" stroke="#8b8b8b" stroke-linecap="butt" stroke-linejoin="round" stroke-width="5" vectornator:layerName="Кривая 86"/>
<path d="M680.289 485.096C689.054 482.905 698.708 485.495 707.649 484.501C711.447 484.079 715.816 482.043 719.544 483.907" fill="none" opacity="1" stroke="#8b8b8b" stroke-linecap="butt" stroke-linejoin="round" stroke-width="5" vectornator:layerName="Кривая 87"/>
<path d="M586.908 460.115C591.883 457.628 601.237 460.775 606.536 461.305C614.064 462.058 621.71 460.71 629.138 460.71C635.575 460.71 644.283 459.144 650.55 460.71C651.989 461.07 652.544 461.9 654.118 461.9" fill="none" opacity="1" stroke="#8b8b8b" stroke-linecap="butt" stroke-linejoin="round" stroke-width="5" vectornator:layerName="Кривая 88"/>
<path d="M654.118 461.9C654.118 471.682 654.529 482.025 655.903 491.639C656.794 497.877 655.607 504.439 656.498 510.672C657.081 514.759 656.506 519.057 657.092 523.162C657.467 525.783 658.228 528.786 657.687 531.489C656.149 539.182 657.791 547.52 656.498 555.28C655.664 560.283 655.353 565.808 654.118 570.745C651.843 579.847 655.664 590.619 654.118 599.889C652.53 609.42 653.524 619.892 653.524 629.628C653.524 644.704 652.929 659.864 652.929 674.832" fill="none" opacity="1" stroke="#8b8b8b" stroke-linecap="butt" stroke-linejoin="round" stroke-width="5" vectornator:layerName="Кривая 89"/>
<path d="M636.275 673.047C635.636 672.728 634.491 671.659 635.085 671.263C637.307 669.782 650.224 672.146 652.929 673.047" fill="none" opacity="1" stroke="#8b8b8b" stroke-linecap="butt" stroke-linejoin="round" stroke-width="5" vectornator:layerName="Кривая 90"/>
<path d="M503.044 585.614C510.331 585.614 517.59 585.087 524.456 586.804C525.09 586.963 527.589 586.368 528.025 586.804C528.488 587.267 528.025 590.836 528.025 591.562C528.025 596.12 528.141 600.352 529.214 604.647C529.467 605.656 529.131 610.171 530.404 610.595C531.579 610.987 537.152 610 538.731 610C546.112 610 553.541 609.415 560.738 608.216C567.07 607.161 574.074 609.474 580.366 608.216C587.2 606.849 594.33 608.169 601.183 607.026C608.87 605.745 617.363 607.359 624.974 605.837C627.022 605.427 629.4 604.647 631.517 604.647" fill="none" opacity="1" stroke="#8b8b8b" stroke-linecap="butt" stroke-linejoin="round" stroke-width="5" vectornator:layerName="Кривая 91"/>
<path d="M693.374 546.954C693.374 543.549 704.841 545.169 707.054 545.169C721.184 545.169 735.159 545.764 749.284 545.764C757.749 545.764 766.461 547.122 774.859 546.359C779.986 545.893 785.18 544.574 790.323 544.574C798.354 544.574 806.864 545.287 814.71 543.98C819.344 543.207 824.331 544.644 828.984 543.98C837.811 542.719 846.814 540.411 855.749 540.411" fill="none" opacity="1" stroke="#8b8b8b" stroke-linecap="butt" stroke-linejoin="round" stroke-width="5" vectornator:layerName="Кривая 92"/>
<path d="M652.334 568.366C660.929 565.501 675.047 568.555 684.452 567.771C693.049 567.054 701.355 566.581 710.028 566.581C715.202 566.581 720.974 567.312 726.087 566.581C751.26 562.985 777.166 564.202 802.814 564.202C814.313 564.202 825.812 564.202 837.311 564.202C841.21 564.202 847.499 563.051 850.991 564.797" fill="none" opacity="1" stroke="#8b8b8b" stroke-linecap="butt" stroke-linejoin="round" stroke-width="5" vectornator:layerName="Кривая 93"/>
<path d="M252.641 607.621C252.641 616.427 252.744 625.104 253.83 633.792C254.308 637.609 253.671 641.323 254.425 645.093C255.751 651.72 253.677 659.179 254.425 665.91C255.553 676.061 256.209 686.625 256.209 696.839" fill="none" opacity="1" stroke="#8b8b8b" stroke-linecap="butt" stroke-linejoin="round" stroke-width="5" vectornator:layerName="Кривая 94"/>
<path d="M216.359 605.837C216.359 603.294 221.97 604.053 224.091 604.053C232.239 604.053 240.471 604.647 248.477 604.647C252.21 604.647 257.349 605.552 260.968 604.647C265.033 603.631 270.275 602.583 274.648 603.458C277.32 603.992 279.695 605.39 282.38 605.837C285.651 606.382 289.996 606.015 293.086 605.242C293.516 605.135 293.962 604.334 294.276 604.647C294.589 604.961 293.788 605.407 293.681 605.837C293.427 606.851 293.681 608.357 293.681 609.406C293.681 613.371 293.681 617.336 293.681 621.301C293.681 628.796 294.657 635.105 296.06 642.119C296.912 646.38 295.866 651.222 294.87 655.204C293.744 659.711 295.465 665.111 295.465 669.479" fill="none" opacity="1" stroke="#8b8b8b" stroke-linecap="butt" stroke-linejoin="round" stroke-width="5" vectornator:layerName="Кривая 95"/>
<path d="M240.15 671.858C241.261 669.636 253.754 671.263 256.804 671.263C272.034 671.263 287.445 671.263 302.602 671.263" fill="none" opacity="1" stroke="#8b8b8b" stroke-linecap="butt" stroke-linejoin="round" stroke-width="5" vectornator:layerName="Кривая 96"/>
<path d="M292.491 670.073C295.243 668.697 298.965 669.479 302.008 669.479C309.145 669.479 316.282 669.479 323.42 669.479" fill="none" opacity="1" stroke="#8b8b8b" stroke-linecap="butt" stroke-linejoin="round" stroke-width="5" vectornator:layerName="Кривая 97"/>
<path d="M296.655 694.459C296.655 692.326 305.969 692.675 307.956 692.675C319.349 692.675 330.3 692.442 341.263 689.701" fill="none" opacity="1" stroke="#8b8b8b" stroke-linecap="butt" stroke-linejoin="round" stroke-width="5" vectornator:layerName="Кривая 98"/>
<path d="M315.688 695.054C315.688 704.76 316.877 714.391 316.877 724.198C316.877 738.275 315.688 752.242 315.688 766.428" fill="none" opacity="1" stroke="#8b8b8b" stroke-linecap="butt" stroke-linejoin="round" stroke-width="5" vectornator:layerName="Кривая 99"/>
<path d="M340.074 715.872C340.074 714.88 340.074 712.898 340.074 712.898C340.074 712.898 340.074 717.656 340.074 720.035C340.074 725.19 340.074 730.345 340.074 735.499C340.074 742.083 338.521 753.08 340.074 759.291C340.935 762.735 341.275 767.546 340.668 771.186C340.204 773.971 338.289 776.025 338.289 778.918" fill="none" opacity="1" stroke="#8b8b8b" stroke-linecap="butt" stroke-linejoin="round" stroke-width="5" vectornator:layerName="Кривая 100"/>
<path d="M342.453 756.317C350.664 756.317 358.733 754.838 366.839 753.938C370.148 753.57 372.925 752.153 376.355 752.153" fill="none" opacity="1" stroke="#8b8b8b" stroke-linecap="butt" stroke-linejoin="round" stroke-width="5" vectornator:layerName="Кривая 101"/>
<path d="M375.166 752.748C380.054 767.414 381.114 782.013 381.114 797.357" fill="none" opacity="1" stroke="#8b8b8b" stroke-linecap="butt" stroke-linejoin="round" stroke-width="5" vectornator:layerName="Кривая 102"/>
<path d="M400.741 756.317C400.741 773.527 401.336 791.019 401.336 808.063" fill="none" opacity="1" stroke="#8b8b8b" stroke-linecap="butt" stroke-linejoin="round" stroke-width="5" vectornator:layerName="Кривая 103"/>
<path d="M397.768 755.722C405.139 755.722 413.263 754.895 420.369 756.317C420.725 756.388 425.722 756.483 425.722 756.911C425.722 757.472 424.687 757.562 424.533 758.101C424.016 759.91 424.533 763.947 424.533 765.833C424.533 772.243 424.673 778.502 425.128 784.866C425.955 796.449 425.128 808.326 425.128 819.958" fill="none" opacity="1" stroke="#8b8b8b" stroke-linecap="butt" stroke-linejoin="round" stroke-width="5" vectornator:layerName="Кривая 104"/>
<path d="M485.2 716.466C487.515 714.151 500.699 714.5 504.828 714.087C512.8 713.29 521.267 712.303 529.214 712.303C534.081 712.303 540.549 713.484 545.273 712.303C547.077 711.852 547.391 711.113 549.437 711.113" fill="none" opacity="1" stroke="#8b8b8b" stroke-linecap="butt" stroke-linejoin="round" stroke-width="5" vectornator:layerName="Кривая 105"/>
<path d="M546.653 713.821C546.653 724.019 547.842 733.97 547.842 744.14C547.842 747.947 545.345 751.63 547.247 755.435" fill="none" opacity="1" stroke="#8b8b8b" stroke-linecap="butt" stroke-linejoin="round" stroke-width="5" vectornator:layerName="Кривая 106"/>
<path d="M461.641 756.03C464.164 754.769 467.221 755.74 469.964 755.435C474.307 754.953 478.726 754.316 483.043 753.652C498.007 751.35 513.648 751.274 528.818 751.274C534.584 751.274 542.57 749.827 547.842 752.463" fill="none" opacity="1" stroke="#8b8b8b" stroke-linecap="butt" stroke-linejoin="round" stroke-width="5" vectornator:layerName="Кривая 107"/>
<path d="M485.421 712.038C487.505 718.292 486.272 725.723 487.204 732.25C489.382 747.492 488.393 763.667 488.393 779.215" fill="none" opacity="1" stroke="#8b8b8b" stroke-linecap="butt" stroke-linejoin="round" stroke-width="5" vectornator:layerName="Кривая 108"/>
<path d="M461.641 779.809C469.032 777.962 477.259 779.797 484.826 779.215C490.184 778.803 496.677 776.948 502.066 778.026C503.828 778.378 504.871 779.215 506.822 779.215" fill="none" opacity="1" stroke="#8b8b8b" stroke-linecap="butt" stroke-linejoin="round" stroke-width="5" vectornator:layerName="Кривая 109"/>
<path d="M462.236 778.026C460.386 781.725 461.839 787.728 462.236 791.699C463.438 803.721 463.425 815.82 463.425 827.962" fill="none" opacity="1" stroke="#8b8b8b" stroke-linecap="butt" stroke-linejoin="round" stroke-width="5" vectornator:layerName="Кривая 110"/>
<path d="M484.232 782.187C484.232 785.579 485.066 788.92 485.421 792.293C485.977 797.58 485.067 803.038 485.421 808.344C485.976 816.67 486.015 824.95 486.015 833.313" fill="none" opacity="1" stroke="#8b8b8b" stroke-linecap="butt" stroke-linejoin="round" stroke-width="5" vectornator:layerName="Кривая 111"/>
<path d="M505.039 780.404C505.039 799.843 509.2 818.726 509.2 838.069" fill="none" opacity="1" stroke="#8b8b8b" stroke-linecap="butt" stroke-linejoin="round" stroke-width="5" vectornator:layerName="Кривая 112"/>
<path d="M465.208 734.628C471.412 731.526 482.067 733.439 488.988 733.439C498.019 733.439 506.305 732.761 515.145 731.656C523.473 730.615 532.43 733.035 540.708 731.656C548.367 730.379 557.166 728.553 565.082 729.872C570.704 730.809 576.567 731.656 582.322 731.656C593.234 731.656 603.552 730.467 614.424 730.467C617.752 730.467 621.907 729.823 625.125 730.467C627.06 730.854 629.214 730.597 631.07 731.061C633.667 731.711 636.137 733.59 638.798 734.034C643.176 734.763 647.573 734.362 651.877 735.223C661.141 737.076 670.616 732.719 679.818 734.034C692.279 735.814 705.428 733.446 717.865 735.223C724.68 736.196 732.894 738.4 739.861 737.006C743.63 736.252 748.362 735.914 752.345 736.412C758.392 737.168 763.979 738.195 770.179 738.195" fill="none" opacity="1" stroke="#8b8b8b" stroke-linecap="butt" stroke-linejoin="round" stroke-width="5" vectornator:layerName="Кривая 113"/>
<path d="M591.834 734.628C591.834 734.246 592.156 730.195 592.428 730.467C593.217 731.256 592.428 735.741 592.428 737.006C592.428 743.937 594.212 751.042 594.212 757.813" fill="none" opacity="1" stroke="#8b8b8b" stroke-linecap="butt" stroke-linejoin="round" stroke-width="5" vectornator:layerName="Кривая 114"/>
<path d="M597.778 754.841C600.438 756.17 603.767 755.435 606.696 755.435C614.622 755.435 622.549 755.435 630.475 755.435C637.127 755.435 643.2 754.911 649.499 753.652C654.251 752.701 659.541 753.66 664.361 753.057C669.719 752.388 675.109 751.437 680.412 750.679C693.723 748.778 706.985 753.762 720.243 751.868C730.831 750.356 748.549 746.403 758.29 751.274" fill="none" opacity="1" stroke="#8b8b8b" stroke-linecap="butt" stroke-linejoin="round" stroke-width="5" vectornator:layerName="Кривая 115"/>
<path d="M632.853 762.569C632.853 761.975 632.951 761.372 632.853 760.786C632.75 760.167 632.457 758.408 632.259 759.002C630.52 764.218 633.357 772.906 634.637 778.026" fill="none" opacity="1" stroke="#8b8b8b" stroke-linecap="butt" stroke-linejoin="round" stroke-width="5" vectornator:layerName="Кривая 116"/>
<path d="M635.231 778.026C637.963 776.66 642.305 777.431 645.337 777.431C652.075 777.431 658.812 777.431 665.55 777.431C672.146 777.431 678.645 776.3 685.168 775.648C695.94 774.57 707.696 774.459 718.459 774.459" fill="none" opacity="1" stroke="#8b8b8b" stroke-linecap="butt" stroke-linejoin="round" stroke-width="5" vectornator:layerName="Кривая 117"/>
<path d="M675.062 712.632C675.062 729.009 676.826 745.752 678.629 761.975C680.32 777.199 678.629 793.617 678.629 808.939" fill="none" opacity="1" stroke="#8b8b8b" stroke-linecap="butt" stroke-linejoin="round" stroke-width="5" vectornator:layerName="Кривая 118"/>
<path d="M739.861 694.203C740.237 693.451 741.05 691.825 741.644 692.42C742.433 693.209 741.644 697.694 741.644 698.959C741.644 704.573 741.684 710.057 742.239 715.605C743.328 726.495 745.236 741.02 743.427 751.868C742.783 755.733 741.644 759.847 741.644 763.758" fill="none" opacity="1" stroke="#8b8b8b" stroke-linecap="butt" stroke-linejoin="round" stroke-width="5" vectornator:layerName="Кривая 119"/>
<path d="M745.211 693.014C744.616 693.014 743.427 693.014 743.427 693.014C743.427 693.014 748.572 692.42 751.156 692.42C754.812 692.42 758.23 692.052 761.857 691.825C769.185 691.367 776.541 691.246 783.853 690.636C788.624 690.239 793.35 688.853 798.12 688.853" fill="none" opacity="1" stroke="#8b8b8b" stroke-linecap="butt" stroke-linejoin="round" stroke-width="5" vectornator:layerName="Кривая 120"/>
<path d="M483.637 608.003C486.355 602.568 485.421 622.265 485.421 623.459C485.421 631.615 486.564 639.83 485.421 647.833C485.047 650.451 486.045 653.124 484.826 655.562" fill="none" opacity="1" stroke="#8b8b8b" stroke-linecap="butt" stroke-linejoin="round" stroke-width="5" vectornator:layerName="Кривая 121"/>
<path d="M482.448 653.184C489.188 649.814 502.187 652.628 510.389 650.806C530.922 646.243 551.032 647.239 572.216 647.239C581.796 647.239 590.568 645.321 600.156 647.239C606.636 648.535 612.297 644.266 618.585 644.266" fill="none" opacity="1" stroke="#8b8b8b" stroke-linecap="butt" stroke-linejoin="round" stroke-width="5" vectornator:layerName="Кривая 122"/>
<path d="M614.424 609.786C614.622 609.39 615.019 608.597 615.019 608.597C615.019 608.597 613.483 611.27 613.235 612.759C612.731 615.786 612.33 619.163 612.641 622.27C613.468 630.546 615.613 638.304 615.613 646.644" fill="none" opacity="1" stroke="#8b8b8b" stroke-linecap="butt" stroke-linejoin="round" stroke-width="5" vectornator:layerName="Кривая 123"/>
<path d="M479.476 462.948C479.343 462.683 478.293 460.27 477.692 460.57C476.893 460.97 478.245 466.138 478.287 466.515C478.722 470.433 478.489 474.476 478.881 478.405C479.17 481.296 478.881 484.413 478.881 487.322C478.881 487.718 478.497 488.415 478.881 488.511C480.682 488.961 488.27 485.842 489.582 485.539C496.1 484.034 501.946 483.755 508.606 483.755" fill="none" opacity="1" stroke="#8b8b8b" stroke-linecap="butt" stroke-linejoin="round" stroke-width="5" vectornator:layerName="Кривая 124"/>
<path d="M506.822 457.598C506.822 469.027 508.85 480.144 509.795 491.484C510.324 497.833 509.436 504.912 510.984 511.102" fill="none" opacity="1" stroke="#8b8b8b" stroke-linecap="butt" stroke-linejoin="round" stroke-width="5" vectornator:layerName="Кривая 125"/>
<path d="M377.224 480.783C377.026 480.386 376.261 479.84 376.63 479.594C378.096 478.616 391.327 479.789 393.87 479.594C401.709 478.991 413.753 475.862 421.216 479.594" fill="none" opacity="1" stroke="#8b8b8b" stroke-linecap="butt" stroke-linejoin="round" stroke-width="5" vectornator:layerName="Кривая 126"/>
</g>
<g id="Слой-2-скопировать-скопировать" vectornator:layerName="Слой 2 скопировать скопировать">
<path d="M202.704 515.675C202.704 336.933 349.688 192.035 531.003 192.035C712.318 192.035 859.303 336.933 859.303 515.675C859.303 694.416 712.318 839.315 531.003 839.315C349.688 839.315 202.704 694.416 202.704 515.675Z" fill="#8b8b8b" fill-rule="nonzero" opacity="1" stroke="#000000" stroke-linecap="butt" stroke-linejoin="round" stroke-width="10" vectornator:layerName="Овал 1"/>
</g>
<g id="x6" vectornator:layerName="x6" visibility="hidden">
<path d="M524.456 776.539C532.174 773.967 546.695 777.299 554.79 778.918C561.996 780.36 570.382 777.541 577.392 776.539C581.666 775.929 586.202 777.15 590.477 776.539C596.31 775.706 602.464 775.35 608.32 775.35C609.422 775.35 611.57 774.146 612.484 774.755C613.883 775.688 611.889 778.212 611.889 779.513C611.889 784.877 611.294 790.293 611.294 795.572" fill="none" opacity="1" stroke="#000000" stroke-linecap="butt" stroke-linejoin="round" stroke-width="5" vectornator:layerName="Кривая 9"/>
<path d="M589.882 779.513C589.882 785.659 589.882 791.805 589.882 797.951" fill="none" opacity="1" stroke="#000000" stroke-linecap="butt" stroke-linejoin="round" stroke-width="5" vectornator:layerName="Кривая 10"/>
<path d="M573.228 778.918C571.547 782.281 572.16 797.004 573.823 800.331" fill="none" opacity="1" stroke="#000000" stroke-linecap="butt" stroke-linejoin="round" stroke-width="5" vectornator:layerName="Кривая 11"/>
<path d="M551.221 780.703C547.86 787.426 553.006 796.335 553.006 803.304" fill="none" opacity="1" stroke="#000000" stroke-linecap="butt" stroke-linejoin="round" stroke-width="5" vectornator:layerName="Кривая 12"/>
<path d="M525.646 774.755C521.421 772.643 525.051 788.399 525.051 789.624" fill="none" opacity="1" stroke="#000000" stroke-linecap="butt" stroke-linejoin="round" stroke-width="5" vectornator:layerName="Кривая 13"/>
<path d="M525.051 785.461C525.051 783.875 525.051 780.703 525.051 780.703C525.051 780.703 525.051 781.496 525.051 781.892C525.051 783.482 525.28 785.643 525.051 787.245C524.4 791.802 524.456 796.278 524.456 800.925C524.456 813.056 526.24 824.539 526.24 836.612" fill="none" opacity="1" stroke="#000000" stroke-linecap="butt" stroke-linejoin="round" stroke-width="5" vectornator:layerName="Кривая 29"/>
<path d="M534.492 877.096C534.492 875.18 534.217 869.986 535.632 871.4C537.301 873.069 534.78 879.926 534.492 881.652C533.161 889.64 533.101 901.906 539.049 907.854C551.676 920.48 576.204 920.034 591.452 912.41" fill="none" opacity="1" stroke="#000000" stroke-linecap="butt" stroke-linejoin="round" stroke-width="5" vectornator:layerName="Кривая 30"/>
<path d="M520.822 894.183C520.822 890.587 528.148 882.705 529.936 878.235C530.842 875.969 531.628 873.746 532.214 871.4C532.398 870.663 532.214 868.362 532.214 869.121C532.214 882.849 540.413 884.081 550.441 890.766" fill="none" opacity="1" stroke="#000000" stroke-linecap="butt" stroke-linejoin="round" stroke-width="5" vectornator:layerName="Кривая 31"/>
<path d="M637.019 896.462C637.398 895.323 639.007 892.195 638.158 893.044C635.909 895.293 633.299 903.925 632.462 906.714C631.906 908.569 631.703 910.512 631.323 912.41C629.104 923.504 625.792 934.699 622.209 945.447" fill="none" opacity="1" stroke="#000000" stroke-linecap="butt" stroke-linejoin="round" stroke-width="5" vectornator:layerName="Кривая 32"/>
<path d="M615.374 907.854C611.874 900.852 620.591 903.267 623.349 906.714C630.305 915.409 637.999 926.734 647.271 932.916" fill="none" opacity="1" stroke="#000000" stroke-linecap="butt" stroke-linejoin="round" stroke-width="5" vectornator:layerName="Кривая 33"/>
<path d="M673.473 918.106C668.924 918.106 669.418 922.567 668.916 926.081C668.047 932.162 665.076 955.249 674.612 956.838C686.965 958.897 683.894 930.033 672.333 945.447" fill="none" opacity="1" stroke="#000000" stroke-linecap="butt" stroke-linejoin="round" stroke-width="5" vectornator:layerName="Кривая 34"/>
</g>
<g id="x5" vectornator:layerName="x5" visibility="hidden">
<path d="M160.841 326.871C153.942 333.77 154.006 345.091 154.006 354.212C154.006 370.895 158.405 385.14 166.537 399.779C168.806 403.864 172.504 408.295 174.511 412.31C177.124 417.535 157.122 416.221 155.145 415.727C154.321 415.521 153.691 414.794 152.867 414.588C152.13 414.404 150.051 414.051 150.588 414.588C152.287 416.286 155.275 415.793 157.424 416.867C163.547 419.928 169.812 423.678 176.79 424.841C177.811 425.011 182.86 426.745 183.625 425.98C186.384 423.22 180.224 402.124 179.068 397.5" fill="none" opacity="1" stroke="#000000" stroke-linecap="butt" stroke-linejoin="round" stroke-width="5" vectornator:layerName="Кривая 18"/>
<path d="M157.424 260.799C157.424 259.28 158.498 255.168 157.424 256.242C155.282 258.383 152.837 266.185 151.728 268.773C148.194 277.019 142.882 283.449 139.197 291.557C137.742 294.756 136.272 307.353 133.501 301.809" fill="none" opacity="1" stroke="#000000" stroke-linecap="butt" stroke-linejoin="round" stroke-width="5" vectornator:layerName="Кривая 19"/>
<path d="M131.222 269.912C130.843 269.153 130.289 268.458 130.083 267.634C129.899 266.897 129.546 264.818 130.083 265.355C132.345 267.618 133.991 272.748 135.779 275.608C141.044 284.032 148.414 295.026 157.424 299.531" fill="none" opacity="1" stroke="#000000" stroke-linecap="butt" stroke-linejoin="round" stroke-width="5" vectornator:layerName="Кривая 20"/>
<path d="M175.081 290.987C171.85 289.372 175.654 283.592 174.511 280.165C174.13 279.023 171.852 282.068 171.094 285.861C169.752 292.569 175.502 294.9 180.207 297.253C180.587 297.442 184.764 298.961 183.625 300.67C183.448 300.935 175.702 302.738 175.65 301.809C175.271 294.974 177.892 292.393 175.081 290.987Z" fill="none" opacity="1" stroke="#000000" stroke-linecap="butt" stroke-linejoin="round" stroke-width="5" vectornator:layerName="Кривая 21"/>
<path d="M181.916 277.886C184.368 276.251 176.32 280.165 173.372 280.165C172.523 280.165 173.911 278.487 174.511 277.886C175.479 276.918 176.755 276.313 177.929 275.608C180.816 273.875 182.517 273.33 185.903 273.33C187.042 273.33 190.268 272.698 189.321 273.33C183.949 276.911 178.366 280.253 181.916 277.886Z" fill="none" opacity="1" stroke="#000000" stroke-linecap="butt" stroke-linejoin="round" stroke-width="5" vectornator:layerName="Кривая 22"/>
<path d="M466.762 460.115C463.786 460.115 469.919 460.115 470.926 460.115C474.494 460.115 478.063 460.115 481.632 460.115C482.821 460.115 485.2 460.115 485.2 460.115C485.2 460.115 483.275 460.201 482.821 459.521C482.368 458.84 482.425 457.935 482.227 457.142C481.181 452.958 482.481 448.3 481.632 444.056C481.535 443.571 480.216 439.709 481.037 439.298C482.291 438.671 483.799 439.893 485.2 439.893C487.804 439.893 504.428 440.358 506.018 439.298C506.64 438.884 506.918 425.359 506.613 423.834C504.281 412.177 503.639 400.884 503.639 388.742C503.639 387.228 503.115 378.226 503.639 377.441C505.059 375.311 516.746 377.441 519.698 377.441C520.458 377.441 523.384 376.963 523.861 377.441C524.474 378.054 524.311 381.327 524.456 382.199C525.584 388.965 526.091 395.728 527.43 402.422C528.925 409.895 528.332 417.637 529.809 425.023C531.98 435.878 532.783 446.266 532.783 457.736C532.783 464.415 533.781 472.181 532.188 478.554C531.632 480.777 532.188 483.994 532.188 486.286C532.188 493.581 532.235 501.343 533.973 508.293C535.014 512.458 535.329 516.691 536.352 520.783C536.368 520.849 537.584 524.352 536.946 524.352C535.677 524.352 535.204 522.281 533.973 521.973C530.8 521.18 527.033 522.766 523.861 521.973C521.519 521.387 518.049 520.28 515.534 520.783C513.678 521.154 509.634 524.947 508.992 524.947C507.556 524.947 507.872 521.902 506.613 523.162C504.8 524.975 506.195 530.591 506.613 532.679C507.95 539.368 506.613 547.864 506.613 554.686C506.613 558.254 506.613 561.823 506.613 565.392C506.613 566.978 506.613 570.15 506.613 570.15C506.613 570.15 507.101 568.506 507.802 568.366C509.25 568.076 511.072 568.366 512.56 568.366C515.836 568.366 525.24 568.582 526.835 565.392C527.49 564.083 527.306 550.027 526.835 548.143C526.525 546.901 525.394 544.06 526.24 542.79C526.541 542.339 538.66 543.98 540.515 543.98C542.853 543.98 546.01 544.539 548.247 543.98C548.677 543.872 549.123 543.071 549.437 543.385C549.75 543.698 548.95 544.144 548.842 544.574C548.273 546.852 548.842 549.915 548.842 552.307C548.842 553.496 548.842 554.686 548.842 555.875C548.842 566.879 550.626 577.965 550.626 589.183" fill="none" opacity="1" stroke="#000000" stroke-linecap="butt" stroke-linejoin="round" stroke-width="5" vectornator:layerName="Кривая 23"/>
<path d="M506.018 568.96C505.246 567.416 505.423 568.214 505.423 566.581C505.423 566.185 505.423 564.995 505.423 565.392C505.423 572.985 506.862 581.066 507.802 588.588C508.576 594.777 509.947 604.396 508.397 610.595C506.944 616.409 506.018 621.623 506.018 627.844" fill="none" opacity="1" stroke="#000000" stroke-linecap="butt" stroke-linejoin="round" stroke-width="5" vectornator:layerName="Кривая 24"/>
<path d="M464.383 627.844C463.987 627.646 463.194 627.692 463.194 627.249C463.194 626.456 464.78 627.249 465.573 627.249C469.591 627.249 473.389 628.439 477.468 628.439C487.679 628.439 497.21 632.007 507.207 632.007C520.953 632.007 533.389 633.556 546.463 636.171C552.406 637.359 559.935 635.182 565.496 633.792C568.975 632.922 572.82 634.386 576.202 634.386C581.929 634.386 587.518 633.197 593.451 633.197" fill="none" opacity="1" stroke="#000000" stroke-linecap="butt" stroke-linejoin="round" stroke-width="5" vectornator:layerName="Кривая 25"/>
<path d="M400.147 272.759C402.43 271.617 404.247 272.759 406.689 272.759C411.051 272.759 415.413 272.759 419.774 272.759C435.764 272.759 452.09 272.759 467.952 272.759C472.661 272.759 477.758 273.281 482.227 272.164C482.613 272.068 486.881 271.957 486.985 272.164C487.35 272.896 486.39 273.726 486.39 274.544C486.39 277.121 486.39 279.698 486.39 282.276C486.39 289.873 488.174 296.848 488.174 304.283C488.174 305.878 489.061 311.622 487.58 312.61C486.781 313.142 481.034 311.023 479.847 310.825C475.002 310.018 469.295 310.825 464.383 310.825C452.935 310.825 441.556 311.953 430.481 313.799C418.86 315.736 406.41 313.053 394.794 314.989C390.182 315.757 385.187 316.773 380.519 316.773C379.793 316.773 376.224 316.31 375.761 316.773C375.492 317.042 376.355 327.722 376.355 329.263C376.355 338.944 374.571 347.973 374.571 357.813C374.571 367.315 374.102 376.756 376.355 385.768C376.923 388.039 376.355 391.166 376.355 393.5C376.355 400.241 376.355 406.982 376.355 413.722C376.355 415.751 376.751 418.289 376.355 420.265C376.221 420.939 375.191 421.789 375.761 422.644C376.914 424.375 380.399 422.377 381.708 422.049C386.783 420.781 392.014 420.365 397.173 419.075C397.776 418.925 401.082 419.456 401.336 419.075C401.97 418.125 399.746 414.694 399.552 413.722C398.875 410.338 398.957 405.851 398.957 402.422C398.957 385.173 398.957 367.924 398.957 350.676C398.957 345.898 397.751 343.008 398.957 338.185C399.116 337.551 398.521 335.053 398.957 334.616C400.372 333.202 403.785 333.641 405.5 333.427C409.127 332.973 420.671 328.989 421.559 333.427C422.247 336.87 421.656 340.65 422.154 344.133C424.211 358.536 424.533 372.694 424.533 387.552C424.533 395.206 423.343 402.55 423.343 410.154C423.343 412.504 422.312 418.202 423.343 420.265C423.541 420.662 423.569 419.321 423.938 419.075C424.322 418.82 437.277 418.842 438.213 419.075C439.153 419.311 443.804 421.217 444.755 420.265C445.371 419.649 444.161 417.002 444.161 416.102C444.161 411.131 443.566 406.285 443.566 401.232C443.566 387.443 444.613 373.02 442.376 359.597C441.8 356.142 443.063 352.324 442.376 348.891C441.329 343.654 442.465 337.946 441.187 332.832C441.031 332.211 439.874 329.981 440.592 329.263C441.791 328.064 446.547 330.811 447.729 331.048C449.748 331.452 462.562 330.416 463.194 331.048C464.03 331.885 465.717 336.239 466.167 337.59C468.43 344.378 467.207 361.24 466.167 368.519C463.867 384.622 468.747 402.012 465.573 417.886C464.532 423.088 466.167 428.799 466.167 433.945C466.167 434.287 466.457 439.153 466.167 439.298C465.436 439.664 464.606 438.703 463.788 438.703C461.409 438.703 459.03 438.703 456.651 438.703C446.47 438.703 436.927 436.324 426.912 436.324C416.353 436.324 406.698 435.969 396.578 433.945C393.485 433.326 389.63 433.945 386.467 433.945C379.523 433.945 372.039 433.945 365.055 433.945C358.485 433.945 350.655 432.661 344.237 433.945C335.189 435.755 326.106 438.703 316.877 438.703" fill="none" opacity="1" stroke="#000000" stroke-linecap="butt" stroke-linejoin="round" stroke-width="5" vectornator:layerName="Кривая 26"/>
<path d="M213.385 441.677C213.187 441.281 212.477 440.801 212.79 440.488C212.861 440.417 223.73 440.488 224.091 440.488C232.713 440.488 241.099 439.536 249.667 440.488C258.873 441.511 268.703 440.19 277.622 438.703C282.799 437.84 288.691 439.061 293.681 439.893C302.824 441.417 312.521 439.893 321.635 439.893" fill="none" opacity="1" stroke="#000000" stroke-linecap="butt" stroke-linejoin="round" stroke-width="5" vectornator:layerName="Кривая 27"/>
<path d="M272.863 443.462C272.935 443.318 274.052 439.893 273.458 439.893C272.417 439.893 272.863 445.367 272.863 445.841C272.863 451.729 275.243 457.406 275.243 463.089" fill="none" opacity="1" stroke="#000000" stroke-linecap="butt" stroke-linejoin="round" stroke-width="5" vectornator:layerName="Кривая 28"/>
<path d="M274.053 460.115C285.848 460.115 297.864 461.624 309.74 460.71C334.008 458.843 358.261 457.768 382.303 454.762C391.331 453.634 402.045 454.484 410.853 455.952C418.249 457.185 427.099 455.952 434.644 455.952C444.745 455.952 454.214 457.142 464.383 457.142" fill="none" opacity="1" stroke="#000000" stroke-linecap="butt" stroke-linejoin="round" stroke-width="5" vectornator:layerName="Кривая 29"/>
</g>
<g id="x4" vectornator:layerName="x4" visibility="hidden">
<path d="M954.85 522.81C954.081 525.117 952.013 526.787 950.294 528.506C939.278 539.522 927.454 549.561 914.979 559.264C912.151 561.464 908.846 562.973 905.865 564.96C905.352 565.303 900.997 570.345 900.17 569.517C899.201 568.549 901.836 567.324 902.448 566.099C904.507 561.981 906.474 557.743 908.144 553.568C908.459 552.78 908.968 552.078 909.283 551.29C909.729 550.175 910.422 546.672 910.422 547.872C910.422 553.508 899.895 565.418 896.752 570.656C896.23 571.526 891.9 574.44 893.335 576.352C894.534 577.952 902.63 577.491 903.587 577.491C905.865 577.491 908.15 577.653 910.422 577.491C913.476 577.273 916.498 576.732 919.536 576.352C924.12 575.779 928.724 575.194 933.206 574.074" fill="none" opacity="1" stroke="#000000" stroke-linecap="butt" stroke-linejoin="round" stroke-width="5" vectornator:layerName="Кривая 14"/>
<path d="M1016.37 471.547C1016.75 470.408 1017.27 469.307 1017.51 468.13C1017.65 467.385 1018.04 465.314 1017.51 465.851C1015.37 467.982 1014.38 475.529 1012.95 478.382C1006.03 492.217 1000.75 508.153 995.861 522.81" fill="none" opacity="1" stroke="#000000" stroke-linecap="butt" stroke-linejoin="round" stroke-width="5" vectornator:layerName="Кривая 15"/>
<path d="M995.861 478.382C993.145 489.248 997.523 505.984 1008.39 511.419" fill="none" opacity="1" stroke="#000000" stroke-linecap="butt" stroke-linejoin="round" stroke-width="5" vectornator:layerName="Кривая 16"/>
<path d="M1033.45 489.774C1031.84 494.604 1038.49 509.405 1044.85 506.862C1051.39 504.242 1051.83 497.987 1052.82 492.053C1053.14 490.143 1053.62 486.357 1051.68 486.357C1047.75 486.357 1047.39 493.06 1047.12 495.47C1045.92 506.291 1046.49 518.988 1048.26 529.645" fill="none" opacity="1" stroke="#000000" stroke-linecap="butt" stroke-linejoin="round" stroke-width="5" vectornator:layerName="Кривая 17"/>
<path d="M654.713 436.919C652.17 431.832 653.904 420.765 652.929 414.912C652.051 409.644 651.016 404.156 649.955 398.853C648.926 393.706 650.984 387.941 649.955 382.794C649.261 379.326 648.765 375.609 648.765 372.088C648.765 369.956 648.457 354.252 649.36 353.649C650.487 352.898 653.084 353.986 654.118 354.244C658.269 355.282 664.12 354.244 668.393 354.244C676.328 354.244 686.241 355.79 693.969 354.244C702.768 352.484 711.563 352.46 720.734 352.46C725.889 352.46 731.044 352.46 736.198 352.46C736.683 352.46 740.808 352.163 740.957 352.46C741.098 352.743 739.868 355.623 739.767 356.029C738.87 359.616 739.767 364.817 739.767 368.519C739.767 371.65 740.22 374.495 740.957 377.441C742.589 383.972 739.324 391.727 740.957 398.258C741.617 400.902 742.146 403.809 742.146 406.585C742.146 410.071 744.534 416.687 741.551 419.67C739.867 421.354 733.643 420.265 731.44 420.265C726.015 420.265 721.202 421.004 715.976 422.049C712.923 422.66 709.533 421.537 706.459 422.049C699.506 423.208 691.466 426.182 684.452 424.429C682.695 423.989 680.064 424.874 678.505 423.834C678.016 423.508 676.262 421.544 676.125 420.86C675.493 417.699 676.875 414.421 677.315 411.343C677.984 406.658 677.91 401.858 677.91 397.069C677.91 390.077 676.125 383.724 676.125 376.846C676.125 376.118 675.751 371.68 676.125 371.493C676.857 371.127 677.687 372.088 678.505 372.088C680.685 372.088 682.866 372.088 685.047 372.088C693.176 372.088 701.304 372.088 709.433 372.088C711.273 372.088 717.959 369.312 719.544 370.898C720.706 372.059 720.734 387.429 720.734 389.931C720.734 390.58 721.143 395.879 720.139 395.879C719.743 395.879 720.42 394.97 720.139 394.689C719.57 394.12 715.594 394.689 714.786 394.689C709.024 394.689 703.379 395.284 697.538 395.284" fill="none" opacity="1" stroke="#000000" stroke-linecap="butt" stroke-linejoin="round" stroke-width="5" vectornator:layerName="Кривая 18"/>
<path d="M635.085 441.082C638.113 439.569 641.403 440.293 644.602 439.893C651.865 438.985 659.664 438.308 666.609 436.324C667.663 436.023 675.268 434.277 676.125 435.135C677.214 436.223 675.531 442.401 675.531 444.056C675.531 452.546 675.264 462.023 677.315 470.227C681.323 486.257 675.531 501.101 675.531 517.214C675.531 526.334 675.531 535.454 675.531 544.574C675.531 547.977 674.713 552.604 675.531 555.875C676.543 559.924 679.816 563.502 680.884 567.771C682.233 573.167 680.289 579.612 680.289 585.02" fill="none" opacity="1" stroke="#000000" stroke-linecap="butt" stroke-linejoin="round" stroke-width="5" vectornator:layerName="Кривая 19"/>
<path d="M682.668 586.804C682.668 584.513 687.24 585.614 689.211 585.614C696.878 585.614 704.842 586.28 712.407 585.02C719.692 583.805 727.172 584.865 734.414 583.83C747.102 582.017 761.486 582.64 774.264 582.64C784.792 582.64 795.56 582.902 805.788 580.856C810.337 579.946 815.446 581.369 820.063 580.856C826.256 580.168 832.231 579.667 838.501 579.667C842.069 579.667 845.638 579.667 849.207 579.667C850.595 579.667 853.37 579.667 853.37 579.667C853.37 579.667 852.577 579.667 852.181 579.667" fill="none" opacity="1" stroke="#000000" stroke-linecap="butt" stroke-linejoin="round" stroke-width="5" vectornator:layerName="Кривая 20"/>
</g>
<g id="x3" vectornator:layerName="x3" visibility="hidden">
<path d="M382.981 923.802C380.027 929.711 387.644 926.148 389.816 924.941C396.823 921.049 403.026 917.619 409.183 912.41C422.827 900.865 431.614 886.679 442.219 872.539C445 868.831 447.177 864.666 450.193 861.147C451.517 859.602 457.076 857.754 454.75 856.59C452.403 855.417 450.312 859.253 449.054 860.008C442.496 863.942 435.852 867.607 429.688 872.539C429.515 872.677 423.992 875.996 423.992 877.096C423.992 877.444 425.361 878.423 429.688 874.817C430.925 873.786 431.882 872.448 433.105 871.4C435.302 869.517 452.058 857.316 454.75 860.008C457.172 862.43 455.889 880.235 455.889 883.931" fill="none" opacity="1" stroke="#000000" stroke-linecap="butt" stroke-linejoin="round" stroke-width="5" vectornator:layerName="Кривая 10"/>
<path d="M340.832 946.586C334.377 956.268 337.414 980.269 337.414 992.153C337.414 996.252 338.022 998.912 336.275 1002.41" fill="none" opacity="1" stroke="#000000" stroke-linecap="butt" stroke-linejoin="round" stroke-width="5" vectornator:layerName="Кривая 11"/>
<path d="M319.187 963.673C328.13 975.597 340.96 986.163 353.363 994.431" fill="none" opacity="1" stroke="#000000" stroke-linecap="butt" stroke-linejoin="round" stroke-width="5" vectornator:layerName="Кривая 12"/>
<path d="M364.754 977.344C364.754 974.645 366.334 969.178 370.45 971.648C377.586 975.929 372.444 987.597 375.007 991.014C378.083 995.115 394.32 987.969 393.234 995.571C392.489 1000.79 376.23 1011.84 371.59 1014.94" fill="none" opacity="1" stroke="#000000" stroke-linecap="butt" stroke-linejoin="round" stroke-width="5" vectornator:layerName="Кривая 13"/>
<path d="M317.472 605.837C315.922 602.738 317.268 610.951 317.472 612.38C318.175 617.298 317.472 622.862 317.472 627.844C317.472 636.48 318.551 646.24 316.877 654.609C315.957 659.21 315.688 663.517 315.688 668.289C315.688 669.479 314.498 671.858 315.688 671.858C316.131 671.858 315.914 670.914 316.282 670.668C318.178 669.404 323.517 669.21 325.799 668.884C330.739 668.178 338.732 667.902 343.642 668.884C345.47 669.249 347.067 670.347 348.995 670.668C351.777 671.132 354.541 670.707 357.322 671.263C363.75 672.548 372.441 669.728 377.545 674.832C379.555 676.841 379.329 688.079 379.329 690.891C379.329 703.135 375.4 718.602 382.303 728.957C382.852 729.78 381.754 731.702 382.303 732.525C382.382 732.644 393.853 731.931 395.388 731.931C402.919 731.931 411.001 734.637 418.585 733.12C424.219 731.993 429.733 730.928 435.239 729.552C438.378 728.767 442.672 728.954 444.161 731.931" fill="none" opacity="1" stroke="#000000" stroke-linecap="butt" stroke-linejoin="round" stroke-width="5" vectornator:layerName="Кривая 14"/>
<path d="M444.161 730.146C444.161 744.887 444.73 760.331 447.134 774.755C448.329 781.925 446.533 789.587 447.729 796.762C448.946 804.062 447.729 812.533 447.729 819.958C447.729 822.292 447.273 824.995 448.324 827.096" fill="none" opacity="1" stroke="#000000" stroke-linecap="butt" stroke-linejoin="round" stroke-width="5" vectornator:layerName="Кривая 15"/>
</g>
<g id="x2" vectornator:layerName="x2">
<path d="M126.666 650.399C126.666 646.287 125.666 640.727 126.666 636.729C131.782 616.261 143.538 595.201 156.284 578.63C158.093 576.28 159.996 574 161.98 571.795C163.143 570.503 174.333 561.103 175.65 561.543C178.952 562.643 174.761 566.988 174.511 567.238C170.613 571.137 160.142 572.934 155.145 572.934C154.196 572.934 149.764 573.953 150.588 570.656C151.218 568.139 170.574 557.422 174.511 555.847C175.654 555.39 179.033 553.498 180.207 555.847C182.806 561.044 178.346 571.684 176.79 576.352" fill="none" opacity="1" stroke="#000000" stroke-linecap="butt" stroke-linejoin="round" stroke-width="5" vectornator:layerName="Кривая 6"/>
<path d="M118.691 701.662C113.027 693.165 113.752 706.994 112.995 710.775C110.982 720.841 110.695 730.343 109.578 740.394C109.488 741.205 108.439 754.573 108.439 748.368" fill="none" opacity="1" stroke="#000000" stroke-linecap="butt" stroke-linejoin="round" stroke-width="5" vectornator:layerName="Кривая 7"/>
<path d="M93.6294 715.332C92.8699 714.573 90.3904 712.573 91.351 713.054C93.0492 713.903 94.3627 715.368 95.9077 716.471C98.1359 718.063 100.515 719.436 102.743 721.028C104.288 722.131 105.781 723.306 107.3 724.445C114.873 730.126 124.597 733.768 131.222 740.394" fill="none" opacity="1" stroke="#000000" stroke-linecap="butt" stroke-linejoin="round" stroke-width="5" vectornator:layerName="Кривая 8"/>
<path d="M139.197 724.445C139.197 722.385 140.422 714.63 144.893 717.61C148.786 720.206 145.409 734.076 149.449 738.116C154.417 743.084 171.373 728.437 175.65 725.585" fill="none" opacity="1" stroke="#000000" stroke-linecap="butt" stroke-linejoin="round" stroke-width="5" vectornator:layerName="Кривая 9"/>
<path d="M360.296 524.352C360.098 523.955 359.503 523.559 359.702 523.162C359.879 522.808 360.495 523.162 360.891 523.162C364.658 523.162 368.425 523.162 372.192 523.162C379.809 523.162 387.264 521.973 394.794 521.973" fill="none" opacity="1" stroke="#000000" stroke-linecap="butt" stroke-linejoin="round" stroke-width="5" vectornator:layerName="Кривая 10"/>
<path d="M394.199 522.567C395.549 525.267 394.98 527.441 395.388 530.3C396.57 538.571 395.997 547.052 397.173 555.28C397.299 556.167 399.428 563.787 397.768 564.202C396.31 564.567 391.584 562.017 390.035 561.823C387.647 561.525 376.063 560.988 373.976 561.823C372.026 562.603 370.165 563.668 368.028 564.202C365.481 564.839 362.973 565.392 360.296 565.392C359.9 565.392 359.284 565.037 359.107 565.392C358.908 565.788 359.503 566.185 359.702 566.581" fill="none" opacity="1" stroke="#000000" stroke-linecap="butt" stroke-linejoin="round" stroke-width="5" vectornator:layerName="Кривая 11"/>
<path d="M359.107 562.418C357.057 556.27 359.702 549.967 359.702 543.98" fill="none" opacity="1" stroke="#000000" stroke-linecap="butt" stroke-linejoin="round" stroke-width="5" vectornator:layerName="Кривая 12"/>
<path d="M206.248 546.359C206.248 543.209 213.411 542.79 215.764 542.79C219.151 542.79 223.787 541.97 227.065 542.79C232.593 544.172 237.902 545.169 243.719 545.169C249.821 545.169 256.707 546.973 262.752 545.764C279.038 542.507 296.427 542.79 313.309 542.79C318.728 542.79 325.923 544.097 331.152 542.79C333.203 542.277 336.068 541.64 338.289 542.195C345.665 544.039 354.318 545.764 362.081 545.764" fill="none" opacity="1" stroke="#000000" stroke-linecap="butt" stroke-linejoin="round" stroke-width="5" vectornator:layerName="Кривая 13"/>
</g>
<g id="x1" vectornator:layerName="x1">
<path d="M663.123 100.319C654.835 98.2474 644.765 104.023 636.965 107.143C614.391 116.173 601.667 121.976 585.787 140.125C584.123 142.026 578.541 150.069 577.826 151.497C576.208 154.734 577.251 158.896 574.414 161.733C573.815 162.333 573.397 160.298 573.277 159.459C573.009 157.582 573.277 155.668 573.277 153.772C573.277 151.466 572.466 149.231 572.14 146.948C571.925 145.447 573.656 142.399 572.14 142.399C570.577 142.399 571.432 145.445 571.002 146.948C570.287 149.451 567.535 164.25 568.728 165.145C571.359 167.118 575.96 163.617 577.826 162.87C586.889 159.245 595.489 154.24 605.121 152.635" fill="none" opacity="1" stroke="#000000" stroke-linecap="butt" stroke-linejoin="round" stroke-width="5" vectornator:layerName="Кривая 1"/>
<path d="M710.889 65.0634C706.74 73.3614 704.984 87.3115 702.928 96.9075C702.786 97.5695 700.654 116.5 700.654 109.418" fill="none" opacity="1" stroke="#000000" stroke-linecap="butt" stroke-linejoin="round" stroke-width="5" vectornator:layerName="Кривая 2"/>
<path d="M691.555 71.8871C691.555 82.2094 704.526 98.2749 713.164 102.594" fill="none" opacity="1" stroke="#000000" stroke-linecap="butt" stroke-linejoin="round" stroke-width="5" vectornator:layerName="Кривая 3"/>
<path d="M734.772 105.437C734.772 106.006 734.772 103.163 734.772 103.731C734.772 105.248 734.772 109.797 734.772 108.28C734.772 104.869 734.772 101.457 734.772 105.437Z" fill="none" opacity="1" stroke="#000000" stroke-linecap="butt" stroke-linejoin="round" stroke-width="5" vectornator:layerName="Кривая 4"/>
<path d="M734.204 116.241C736.399 116.973 730.65 112.829 730.223 110.555C730.154 110.188 735.91 99.2257 735.91 95.7702C735.91 93.4956 738.184 88.9465 735.91 88.9465C734.011 88.9465 734.772 95.8114 734.772 96.9075C734.772 101.481 734.936 105.037 735.91 109.418C736.41 111.669 739.109 115.21 737.047 116.241C734.465 117.533 731.022 115.181 734.204 116.241Z" fill="none" opacity="1" stroke="#000000" stroke-linecap="butt" stroke-linejoin="round" stroke-width="5" vectornator:layerName="Кривая 5"/>
<path d="M592.856 693.27C595.21 692.093 597.552 693.163 599.993 692.675C607.963 691.081 617.154 694.035 624.974 692.08C631.702 690.398 638.459 689.859 645.197 688.512C649.63 687.625 655.81 689.445 660.066 690.296C662.547 690.792 665.301 689.88 667.798 690.296C673.228 691.201 678.879 690.891 684.452 690.891C691.543 690.891 698.939 690.331 705.864 691.486C706.421 691.578 711.812 691.664 711.812 692.08C711.812 692.524 710.869 692.306 710.623 692.675C710.478 692.892 710.071 696.625 710.028 696.839C709.368 700.14 711.368 713.937 709.433 715.872C708.224 717.081 703.505 714.682 701.701 714.682C693.513 714.682 685.008 712.898 676.72 712.898C663.393 712.898 649.981 710.275 636.87 712.898C634.094 713.453 631.284 712.807 628.543 713.492C624.17 714.586 618.188 713.492 613.673 713.492C605.47 713.492 597.719 714.304 589.882 715.872C586.224 716.603 578.595 716.767 575.012 715.872C574.607 715.77 571.727 714.541 571.444 714.682C570.904 714.952 572.633 722.977 572.633 724.198C572.633 726.578 572.633 728.957 572.633 731.336C572.633 732.129 571.84 733.715 572.633 733.715C574.232 733.715 573.228 728.957 573.228 728.957C573.228 728.957 573.42 730.567 573.228 731.336C572.546 734.063 572.633 736.76 572.633 739.663C572.633 744.181 569.708 748.78 570.849 753.343C571.298 755.138 572.633 756.153 572.633 758.101C572.633 763.633 572.754 768.815 573.823 774.16C574.19 775.998 574.588 780.491 572.633 779.513" fill="none" opacity="1" stroke="#000000" stroke-linecap="butt" stroke-linejoin="round" stroke-width="5" vectornator:layerName="Кривая 6"/>
<path d="M632.112 627.249C631.715 627.051 631.087 626.243 630.922 626.654C629.217 630.916 631.517 642.76 631.517 647.472C631.517 652.714 630.938 658.32 631.517 663.531C632.154 669.263 634.476 675.502 633.301 681.374C632.85 683.63 631.517 685.451 631.517 687.917" fill="none" opacity="1" stroke="#000000" stroke-linecap="butt" stroke-linejoin="round" stroke-width="5" vectornator:layerName="Кривая 7"/>
<path d="M672.557 607.621C672.557 617.29 674.06 627.135 674.936 636.766C675.79 646.166 673.765 655.951 674.936 665.315C676.091 674.56 676.125 683.824 676.125 693.27" fill="none" opacity="1" stroke="#000000" stroke-linecap="butt" stroke-linejoin="round" stroke-width="5" vectornator:layerName="Кривая 8"/>
<path d="M569.065 230.53C569.065 243.507 569.428 256.401 570.849 269.19C571.703 276.875 570.849 285.248 570.849 292.982C570.849 301.875 571.351 310.974 570.254 319.747C569.357 326.924 570.059 335.243 570.849 342.349C571.642 349.483 570.849 357.192 570.849 364.356C570.849 377.388 572.039 390.453 572.039 403.611C572.039 407.193 572.626 411.386 572.039 414.912C570.962 421.372 571.663 428.028 570.849 434.54C569.472 445.557 567.28 455.948 567.28 467.253C567.28 471.654 565.9 479.362 567.875 483.312" fill="none" opacity="1" stroke="#000000" stroke-linecap="butt" stroke-linejoin="round" stroke-width="5" vectornator:layerName="Кривая 9"/>
<path d="M570.849 482.122C570.849 479.948 575.992 480.933 577.986 480.933C583.979 480.933 590.097 480.976 595.83 482.122C607.577 484.472 621.088 477.205 632.112 482.717" fill="none" opacity="1" stroke="#000000" stroke-linecap="butt" stroke-linejoin="round" stroke-width="5" vectornator:layerName="Кривая 10"/>
<path d="M630.922 485.691C630.922 499.944 633.312 513.775 634.491 527.921C635.391 538.719 634.028 549.462 632.706 560.039C631.943 566.148 632.706 572.904 632.706 579.072C632.706 585.712 632.01 592.838 633.301 599.294C633.926 602.42 633.293 606.473 632.706 609.406C631.946 613.205 632.39 618.847 633.301 622.491C634.521 627.37 632.112 632.61 632.112 637.36" fill="none" opacity="1" stroke="#000000" stroke-linecap="butt" stroke-linejoin="round" stroke-width="5" vectornator:layerName="Кривая 11"/>
<path d="M567.875 199.601C567.875 198.808 567.875 198.015 567.875 197.222C567.875 196.825 568.155 195.752 567.875 196.032C566.544 197.364 567.28 213.015 567.28 215.065C567.28 226.127 568.47 237.508 568.47 248.373" fill="none" opacity="1" stroke="#000000" stroke-linecap="butt" stroke-linejoin="round" stroke-width="5" vectornator:layerName="Кривая 12"/>
</g>
<g id="Слой-2" vectornator:layerName="Слой 2" visibility="hidden">
<path d="M202.704 515.675C202.704 336.933 349.688 192.035 531.003 192.035C712.318 192.035 859.303 336.933 859.303 515.675C859.303 694.416 712.318 839.315 531.003 839.315C349.688 839.315 202.704 694.416 202.704 515.675Z" fill="#000000" fill-rule="nonzero" opacity="1" stroke="#000000" stroke-linecap="butt" stroke-linejoin="round" stroke-width="10" vectornator:layerName="Овал 1"/>
</g>
<g id="Слой-4" vectornator:layerName="Слой 4" visibility="hidden">
<path d="M202.704 515.675C202.704 336.933 349.688 192.035 531.003 192.035C712.318 192.035 859.303 336.933 859.303 515.675C859.303 694.416 712.318 839.315 531.003 839.315C349.688 839.315 202.704 694.416 202.704 515.675Z" fill="none" opacity="1" stroke="#000000" stroke-linecap="butt" stroke-linejoin="round" stroke-width="10" vectornator:layerName="Овал 1"/>
</g>
<g id="Слой-1" vectornator:layerName="Слой 1" visibility="hidden">
<path d="M548.417 579.496C546.334 580.289 543.849 583.998 543.237 585.324C542.695 586.5 543.237 587.914 543.237 589.209C543.237 597.208 554.097 595.017 557.482 590.504C560.362 586.663 558.688 582.662 555.54 580.144C554.805 579.556 552.7 576.496 551.007 577.554C549.687 578.379 549.426 579.113 548.417 579.496Z" fill="#e94420" fill-rule="nonzero" opacity="1" stroke="#e94420" stroke-linecap="round" stroke-linejoin="round" stroke-width="5" vectornator:layerName="Кривая 2"/>
</g>
<g id="x2err" vectornator:layerName="x2err">
<path d="M355.791 514.101C354.265 515.385 353.986 512.532 352.878 514.748C352.186 516.131 351.743 521.057 352.23 522.518C354.766 530.126 364.741 525.129 366.475 519.928C367.978 515.42 364.239 514.572 361.295 512.806C360.216 512.158 358.789 509.839 358.058 510.863C356.986 512.364 356.553 513.46 355.791 514.101Z" fill="#e94420" fill-rule="nonzero" opacity="1" stroke="#e94420" stroke-linecap="round" stroke-linejoin="round" stroke-width="5" vectornator:layerName="Кривая 1"/>
</g>
<g id="Слой-1-copy-copy" vectornator:layerName="Слой 1 copy copy" visibility="hidden">
<path d="M691.187 394.317C690.446 394.465 692.698 394.317 693.453 394.317C694.231 394.317 691.639 394.844 691.511 395.612C691.079 398.2 691.185 401.68 693.453 403.381C698.073 406.846 705.455 404.434 707.05 398.849C708.863 392.506 700.607 389.784 696.043 389.784C695.662 389.784 690.677 389.398 690.863 391.079C691.068 392.924 692.998 393.954 691.187 394.317Z" fill="#e94420" fill-rule="nonzero" opacity="1" stroke="#e94420" stroke-linecap="round" stroke-linejoin="round" stroke-width="5" vectornator:layerName="Кривая 3"/>
</g>
<g id="Слой-5" vectornator:layerName="Слой 5" visibility="hidden">
<path d="M517.014 266.439C517.735 270.507 521.257 274.33 525.108 275.827C526.572 276.397 528.15 275.029 529.64 274.532C531.859 273.793 533.237 269.565 532.878 267.41C532.131 262.929 524.512 260.288 520.576 260.288C519.183 260.288 515.812 259.459 516.043 262.23C516.213 264.271 516.935 265.988 517.014 266.439Z" fill="#e94420" fill-rule="nonzero" opacity="1" stroke="#e94420" stroke-linecap="round" stroke-linejoin="round" stroke-width="5" vectornator:layerName="Кривая 1"/>
<path d="M340.252 687.626C339.717 688.188 338.633 690.634 338.633 691.511C338.633 696.029 345.45 701.415 348.993 696.691C352.022 692.651 351.564 686.312 348.345 683.094C346.602 681.35 339.928 680.522 339.928 684.388C339.928 686.129 340.418 687.451 340.252 687.626Z" fill="#e94420" fill-rule="nonzero" opacity="1" stroke="#e94420" stroke-linecap="round" stroke-linejoin="round" stroke-width="5" vectornator:layerName="Кривая 2"/>
<path d="M709.64 641.978C700.742 652.725 725.834 657.23 722.59 641.007C722.023 638.171 712.035 634.276 710.288 637.77C709.318 639.71 709.794 641.793 709.64 641.978Z" fill="#e94420" fill-rule="nonzero" opacity="1" stroke="#e94420" stroke-linecap="round" stroke-linejoin="round" stroke-width="5" vectornator:layerName="Кривая 3"/>
<path d="M308.849 371.978C309.29 375.91 309.374 377.92 312.734 380.719C316.388 383.764 321.526 381.945 320.504 376.835C319.911 373.87 316.627 367.771 313.381 367.122C312.41 366.928 308.201 368.501 308.201 369.712C308.201 370.971 308.776 371.326 308.849 371.978Z" fill="#e94420" fill-rule="nonzero" opacity="1" stroke="#e94420" stroke-linecap="round" stroke-linejoin="round" stroke-width="5" vectornator:layerName="Кривая 4"/>
<path d="M647.158 243.453C645.773 245.576 646.014 251.801 649.424 253.165C653.724 254.885 657.842 249.898 657.842 246.043C657.842 240.665 648.542 238.978 648.129 240.216C647.515 242.059 647.796 242.476 647.158 243.453Z" fill="#e94420" fill-rule="nonzero" opacity="1" stroke="#e94420" stroke-linecap="round" stroke-linejoin="round" stroke-width="5" vectornator:layerName="Кривая 5"/>
<path d="M807.41 222.734C807.842 222.518 808.784 221.61 808.705 222.086C808.435 223.708 807.395 225.101 806.763 226.619C804.986 230.882 803.219 232.814 800.288 236.331C794.211 243.623 788.036 250.775 780.863 257.05C780.44 257.421 775.241 262.515 774.388 262.23C772.461 261.588 776.74 253.301 776.978 251.871C777.12 251.019 776.836 250.132 776.978 249.281C777.058 248.805 777.842 247.554 777.626 247.986C775.587 252.064 774.125 256.09 772.446 260.288C772.014 261.367 770.221 262.828 771.151 263.525C774.502 266.038 789.739 258.345 795.108 258.345" fill="none" opacity="1" stroke="#000000" stroke-linecap="round" stroke-linejoin="round" stroke-width="5" vectornator:layerName="Кривая 6"/>
<path d="M833.309 163.165C833.309 162.518 833.309 161.871 833.309 161.223C833.309 160.791 833.394 162.095 833.309 162.518C833.176 163.187 832.827 163.798 832.662 164.46C832.115 166.646 831.586 168.855 830.719 170.935C828.402 176.498 826.301 182.114 824.245 187.77C823.542 189.702 822.608 194.892 820.36 194.892" fill="none" opacity="1" stroke="#000000" stroke-linecap="round" stroke-linejoin="round" stroke-width="5" vectornator:layerName="Кривая 7"/>
<path d="M815.18 167.05C814.964 166.619 814.532 165.273 814.532 165.755C814.532 166.856 814.688 168.008 815.18 168.993C816.416 171.465 818.609 173.328 820.36 175.468C825.743 182.048 832.097 186.962 839.137 191.655" fill="none" opacity="1" stroke="#000000" stroke-linecap="round" stroke-linejoin="round" stroke-width="5" vectornator:layerName="Кривая 8"/>
<path d="M853.027 183.662C847.775 181.943 854.38 172.063 858.896 176.26C862.514 179.623 859.901 185.883 858.694 189.57C857.974 191.77 858.278 194.108 858.608 196.332" fill="none" opacity="1" stroke="#000000" stroke-linecap="round" stroke-linejoin="round" stroke-width="5" vectornator:layerName="Кривая 9"/>
<path d="M860.172 203.937L861.033 205.334" fill="none" opacity="1" stroke="#000000" stroke-linecap="round" stroke-linejoin="round" stroke-width="5" vectornator:layerName="Кривая 10"/>
<path d="M871.244 178.782C870.256 178.459 868.72 175.54 869.515 174.467C871.78 171.412 877.158 171.436 879.504 174.291C882.929 178.461 878.58 183.653 877.077 187.278C876.189 189.418 877.821 192.362 878.759 194.213" fill="none" opacity="1" stroke="#000000" stroke-linecap="round" stroke-linejoin="round" stroke-width="5" vectornator:layerName="Кривая 11"/>
<path d="M879.344 201.093L880.377 200.722" fill="none" opacity="1" stroke="#000000" stroke-linecap="round" stroke-linejoin="round" stroke-width="5" vectornator:layerName="Кривая 12"/>
<path d="M893.43 175.708C892.326 175.347 890.687 172.421 891.243 171.243C892.946 167.632 900.421 165.965 902.202 170.27C903.26 172.827 903.832 178.552 902.046 180.961C900.278 183.346 894.559 185.547 896.912 188.907" fill="none" opacity="1" stroke="#000000" stroke-linecap="round" stroke-linejoin="round" stroke-width="5" vectornator:layerName="Кривая 13"/>
<path d="M898.421 197.609C897.67 197.99 897.683 197.731 898.09 198.311" fill="none" opacity="1" stroke="#000000" stroke-linecap="round" stroke-linejoin="round" stroke-width="5" vectornator:layerName="Кривая 14"/>
<path d="M410.52 153.821C425.088 153.821 441.417 160.038 454.246 166.453C458.852 168.756 463.958 171.114 468.336 173.741C470.11 174.805 472.069 176.617 474.166 177.141C476.187 177.647 474.53 176.656 474.166 176.17C472.745 174.275 471.482 173.001 469.793 171.311C469.145 170.664 467.85 169.368 467.85 169.368C467.85 169.368 469.399 171.064 470.279 171.797C471.279 172.63 480.116 178.033 477.081 180.057C476.29 180.583 473.159 180.057 472.222 180.057C466.156 180.057 460.23 178.599 454.246 178.599" fill="none" opacity="1" stroke="#000000" stroke-linecap="round" stroke-linejoin="round" stroke-width="5" vectornator:layerName="Кривая 15"/>
<path d="M353.191 110.581C350.137 110.581 349.299 114.129 347.847 116.411C343.207 123.702 340.458 132.11 335.701 139.246" fill="none" opacity="1" stroke="#000000" stroke-linecap="round" stroke-linejoin="round" stroke-width="5" vectornator:layerName="Кривая 16"/>
<path d="M336.186 113.982C338.227 117.043 339.247 120.553 341.045 123.699C343.95 128.783 348.092 133.661 352.219 137.788" fill="none" opacity="1" stroke="#000000" stroke-linecap="round" stroke-linejoin="round" stroke-width="5" vectornator:layerName="Кривая 17"/>
<path d="M361.682 131.288C359.219 126.361 365.773 121.801 368.502 127.258C370.501 131.256 365.092 136.209 365.092 140.278" fill="none" opacity="1" stroke="#000000" stroke-linecap="round" stroke-linejoin="round" stroke-width="5" vectornator:layerName="Кривая 18"/>
<path d="M363.542 150.197C363.749 150.301 363.955 150.404 364.162 150.507" fill="none" opacity="1" stroke="#000000" stroke-linecap="round" stroke-linejoin="round" stroke-width="5" vectornator:layerName="Кривая 19"/>
<path d="M378.732 128.188C377.18 125.084 382.134 122.601 384.311 124.778C385.561 126.028 384.888 128.392 384.311 129.738C382.378 134.249 380.282 136.999 380.282 142.138" fill="none" opacity="1" stroke="#000000" stroke-linecap="round" stroke-linejoin="round" stroke-width="5" vectornator:layerName="Кривая 20"/>
<path d="M379.042 148.337L379.972 149.887" fill="none" opacity="1" stroke="#000000" stroke-linecap="round" stroke-linejoin="round" stroke-width="5" vectornator:layerName="Кривая 21"/>
<path d="M395.781 127.878C395.345 127.006 394.646 126.116 394.851 125.088C395.209 123.3 399.497 122.915 400.741 123.848C401.911 124.726 401.361 127.88 401.361 129.118C401.361 134.521 395.471 138.137 395.471 143.378" fill="none" opacity="1" stroke="#000000" stroke-linecap="round" stroke-linejoin="round" stroke-width="5" vectornator:layerName="Кривая 22"/>
<path d="M394.231 150.817L394.851 151.127" fill="none" opacity="1" stroke="#000000" stroke-linecap="round" stroke-linejoin="round" stroke-width="5" vectornator:layerName="Кривая 23"/>
<path d="M833.237 678.511C836.303 683.11 840.856 686.557 844.27 690.881C848.486 696.222 851.488 701.956 854.634 707.931C856.529 711.533 858.755 715.215 860.317 718.964C860.57 719.572 862.439 724.879 861.654 723.31" fill="none" opacity="1" stroke="#000000" stroke-linecap="round" stroke-linejoin="round" stroke-width="5" vectornator:layerName="Кривая 24"/>
<path d="M837.583 690.212C837.36 690.324 837.151 690.625 836.914 690.547C836.26 690.328 836.58 687.885 836.58 687.538C836.58 683.723 836.339 680.493 835.243 676.839C834.788 675.323 833.941 673.902 833.237 672.493C833.125 672.27 832.824 671.588 832.903 671.825C834.699 677.214 841.327 680.984 845.607 684.195" fill="none" opacity="1" stroke="#000000" stroke-linecap="round" stroke-linejoin="round" stroke-width="5" vectornator:layerName="Кривая 25"/>
<path d="M886.394 718.63C884.251 719.701 881.49 729.339 880.376 731.668C876.402 739.979 872.114 748.194 868.006 756.408" fill="none" opacity="1" stroke="#000000" stroke-linecap="round" stroke-linejoin="round" stroke-width="5" vectornator:layerName="Кривая 26"/>
<path d="M869.009 727.991C869.009 727.322 868.411 725.686 869.009 725.985C869.202 726.081 872.456 733.237 872.687 733.674C873.224 734.688 873.801 735.68 874.359 736.683C877.597 742.512 881.268 748.386 883.385 754.737" fill="none" opacity="1" stroke="#000000" stroke-linecap="round" stroke-linejoin="round" stroke-width="5" vectornator:layerName="Кривая 27"/>
<path d="M896.09 752.731C892.946 748.016 892.766 743.363 898.764 741.364C900.336 740.84 901.997 740.793 903.445 741.698C908.073 744.591 905.004 751.732 903.779 755.405C902.989 757.775 902.902 760.377 902.107 762.76" fill="none" opacity="1" stroke="#000000" stroke-linecap="round" stroke-linejoin="round" stroke-width="5" vectornator:layerName="Кривая 28"/>
<path d="M901.104 778.808L898.43 777.805" fill="none" opacity="1" stroke="#000000" stroke-linecap="round" stroke-linejoin="round" stroke-width="5" vectornator:layerName="Кривая 29"/>
<path d="M919.827 747.716C919.112 746.286 917.408 745.433 917.821 743.37C918.344 740.752 923.041 739.898 924.841 741.698C926.033 742.89 926.847 746.101 926.847 747.716C926.847 753.113 921.498 757.422 921.498 763.095" fill="none" opacity="1" stroke="#000000" stroke-linecap="round" stroke-linejoin="round" stroke-width="5" vectornator:layerName="Кривая 30"/>
<path d="M918.824 777.471L919.492 777.471" fill="none" opacity="1" stroke="#000000" stroke-linecap="round" stroke-linejoin="round" stroke-width="5" vectornator:layerName="Кривая 31"/>
<path d="M941.892 747.047C941.256 745.775 939.151 742.967 940.22 741.364C941.706 739.136 947.277 738.719 949.247 740.361C954.991 745.148 949.624 754.275 947.91 759.417C947.38 761.006 947.29 762.998 946.572 764.432" fill="none" opacity="1" stroke="#000000" stroke-linecap="round" stroke-linejoin="round" stroke-width="5" vectornator:layerName="Кривая 32"/>
<path d="M943.898 777.471L943.229 775.465" fill="none" opacity="1" stroke="#000000" stroke-linecap="round" stroke-linejoin="round" stroke-width="5" vectornator:layerName="Кривая 33"/>
</g>
</svg>
