<?xml version="1.0" encoding="UTF-8" standalone="no"?>
<!DOCTYPE svg PUBLIC "-//W3C//DTD SVG 1.1//EN" "http://www.w3.org/Graphics/SVG/1.1/DTD/svg11.dtd">
<!-- Created with Vectornator (http://vectornator.io/) -->
<svg height="100%" stroke-miterlimit="10" style="fill-rule:nonzero;clip-rule:evenodd;stroke-linecap:round;stroke-linejoin:round;" version="1.1" viewBox="0 0 1920 1080" width="100%" xml:space="preserve" xmlns="http://www.w3.org/2000/svg" xmlns:vectornator="http://vectornator.io" xmlns:xlink="http://www.w3.org/1999/xlink">
<defs/>
<g id="Слой-1" vectornator:layerName="Слой 1">
<path d="M1262.31 226.432C1239.44 221.052 1215.76 220.125 1192.36 218.392C1153.51 215.514 1114.58 213.678 1075.78 210.352C1028.69 206.315 981.505 205.018 934.271 203.92C884.175 202.755 833.809 199.68 783.92 206.332C748.637 211.036 713.839 219.23 679.397 228.04C668.375 230.86 657.17 233.126 646.432 236.884C629.762 242.719 613.703 250.291 597.387 256.985C564.417 270.511 532.392 286.395 502.513 306.03C464.55 330.977 429.212 360.734 404.422 399.296C390.802 420.483 382.122 445.965 375.477 470.05C365.393 506.607 359.471 546.22 364.221 584.221C367.059 606.922 374.99 627.879 384.322 648.543C389.856 660.796 395.77 673.737 403.618 684.724C410.613 694.516 414.668 696.722 422.915 705.628C429.482 712.721 435.568 720.369 443.015 726.533C468.581 747.691 496.106 763.616 525.025 779.598C546.4 791.411 568.44 799.922 590.955 809.347C640.11 829.923 691.895 844.797 744.523 853.568C827.491 867.396 912.882 874.107 996.985 871.256C1037.36 869.888 1077.36 865.821 1117.59 862.412C1169.88 857.981 1221.73 852.213 1273.57 843.92C1352.76 831.248 1431.08 818.543 1500.3 775.578C1511.64 768.539 1522.94 762.477 1533.27 753.869C1549.19 740.599 1563.57 726.504 1577.49 711.256C1582.73 705.517 1588.68 700.413 1593.57 694.372C1600.42 685.91 1605.43 676.191 1611.26 667.035C1618.57 655.539 1626.17 644.336 1631.36 631.658C1640.07 610.364 1644.24 587.64 1646.63 564.925C1647.92 552.679 1648.8 538.624 1647.44 526.332C1646.61 518.912 1643.79 511.744 1641.81 504.623C1638.61 493.111 1635.12 481.599 1629.75 470.854C1624.38 460.126 1615.73 450.878 1608.04 441.91C1602.14 435.026 1597.29 426.845 1591.16 420.201C1584.48 412.968 1576.69 406.787 1569.45 400.101C1542.34 375.078 1516.76 347.884 1487.44 325.327C1481.57 320.815 1475.08 317.359 1468.94 313.266C1463.23 309.454 1457.95 304.741 1452.06 301.206C1445.42 297.221 1445.45 298.51 1438.39 294.774C1403.55 276.327 1367.41 260.828 1330.65 246.533C1303.12 235.823 1276.07 221.398 1247.04 215.176C1232.72 212.108 1218.09 212.879 1203.62 213.568" fill="none" opacity="1" stroke="#FFFFFF" stroke-linecap="round" stroke-linejoin="round" stroke-width="5" vectornator:layerName="Кривая 1"/>
<path d="M821.375 130.754C812.867 122.246 806.495 128.353 802.078 137.186C794.313 152.716 795.029 188.364 821.375 177.387C826.091 175.422 830.671 172.774 835.043 170.151" fill="none" opacity="1" stroke="#FFFFFF" stroke-linecap="round" stroke-linejoin="round" stroke-width="5" vectornator:layerName="Кривая 2"/>
<path d="M853.536 124.322C853.536 136.152 853.554 147.919 854.34 159.698C854.624 163.96 855.948 168.377 855.948 172.563" fill="none" opacity="1" stroke="#FFFFFF" stroke-linecap="round" stroke-linejoin="round" stroke-width="5" vectornator:layerName="Кривая 3"/>
<path d="M831.023 133.97C827.712 127.348 837.256 128.342 841.475 128.342C847.569 128.342 853.897 128.809 859.968 128.342C867.422 127.768 875.01 125.126 882.48 125.126" fill="none" opacity="1" stroke="#FFFFFF" stroke-linecap="round" stroke-linejoin="round" stroke-width="5" vectornator:layerName="Кривая 4"/>
<path d="M894.541 122.714C894.541 132.842 895.693 143.188 896.953 153.266C897.459 157.315 897.562 158.615 898.561 162.111C898.936 163.425 897.998 166.131 899.365 166.131C899.964 166.131 899.901 165.059 900.169 164.523" fill="none" opacity="1" stroke="#FFFFFF" stroke-linecap="round" stroke-linejoin="round" stroke-width="5" vectornator:layerName="Кривая 5"/>
<path d="M899.365 138.392C896.988 136.016 896.44 132.323 895.345 129.146C894.696 127.264 894.647 122.608 896.149 121.106C901.585 115.669 911.724 114.765 914.641 123.518C917.09 130.864 914.479 137.026 908.209 141.206C906.909 142.073 905.249 144.766 904.189 143.618C901.061 140.23 901.02 140.047 899.365 138.392Z" fill="none" opacity="1" stroke="#FFFFFF" stroke-linecap="round" stroke-linejoin="round" stroke-width="5" vectornator:layerName="Кривая 6"/>
<path d="M928.309 131.558C926.453 138.814 927.425 145.098 931.526 151.658C940.606 166.187 957.476 155.476 961.274 142.814C962.271 139.49 963.279 132.354 961.274 129.146C957.501 123.108 946.432 118.776 939.566 120.302C932.824 121.8 929.158 128.24 928.309 131.558Z" fill="none" opacity="1" stroke="#FFFFFF" stroke-linecap="round" stroke-linejoin="round" stroke-width="5" vectornator:layerName="Кривая 7"/>
<path d="M974.943 114.673C974.675 114.137 974.562 112.642 974.139 113.065C973.314 113.89 974.139 121.745 974.139 122.714C974.139 124.59 974.005 126.47 974.139 128.342C974.866 138.531 976.551 148.653 976.551 158.894" fill="none" opacity="1" stroke="#FFFFFF" stroke-linecap="round" stroke-linejoin="round" stroke-width="5" vectornator:layerName="Кривая 8"/>
<path d="M992.631 121.106C989.333 121.106 987.61 123.715 985.395 125.93C979.812 131.512 972.497 140.095 978.963 147.638C984.772 154.416 994.898 153.596 1002.28 157.286" fill="none" opacity="1" stroke="#FFFFFF" stroke-linecap="round" stroke-linejoin="round" stroke-width="5" vectornator:layerName="Кривая 9"/>
<path d="M1013.54 117.889C1013.54 117.085 1014.1 116.046 1013.54 115.477C1012.57 114.511 1012.73 118.131 1012.73 119.497C1012.73 121.374 1012.89 123.256 1012.73 125.126C1012.1 132.666 1009.84 146.054 1019.16 150.05C1031.22 155.219 1047.45 131.604 1045.7 121.106C1045.34 118.965 1042.71 113.27 1040.07 117.889C1038.27 121.031 1038.46 127.476 1038.46 130.754C1038.46 132.362 1038.46 133.97 1038.46 135.578C1038.46 139.062 1038.46 142.546 1038.46 146.03C1038.46 151.43 1039.83 155.298 1040.87 160.503" fill="none" opacity="1" stroke="#FFFFFF" stroke-linecap="round" stroke-linejoin="round" stroke-width="5" vectornator:layerName="Кривая 10"/>
<path d="M685.949 511.658C683.218 513.634 675.76 512.33 673.889 512.864C667.006 514.831 659.674 521.186 655.396 526.533C654.313 527.887 651.121 531.651 652.18 533.769C654.176 537.76 661.587 536.985 665.044 536.985C673.525 536.985 696.705 534.664 698.813 524.121C700.154 517.416 691.117 507.919 685.949 511.658Z" fill="none" opacity="1" stroke="#FFFFFF" stroke-linecap="round" stroke-linejoin="round" stroke-width="5" vectornator:layerName="Кривая 11"/>
<path d="M782.648 368.342C776.173 370.5 770.708 377.516 765.764 382.01C760.573 386.729 754.987 391.082 749.683 395.678C722.603 419.148 697.236 444.353 682.95 477.688C680.044 484.468 676.518 491.08 676.518 498.593C676.518 499.129 676.518 497.521 676.518 496.985C676.518 495.645 676.518 494.305 676.518 492.965C676.518 488.821 677.322 484.996 677.322 480.905C677.322 479.274 677.806 477.679 678.126 476.08C678.231 475.555 678.126 473.936 678.126 474.472C678.126 478.248 677.106 481.906 676.518 485.729C676.153 488.096 674.933 492.317 675.714 492.161C678.809 491.542 686.807 482.635 690.186 480.101" fill="none" opacity="1" stroke="#FFFFFF" stroke-linecap="round" stroke-linejoin="round" stroke-width="5" vectornator:layerName="Кривая 12"/>
<path d="M809.985 358.693C809.985 354.325 809.277 363.972 809.181 365.126C808.979 367.544 808.563 369.942 808.377 372.362C807.623 382.163 804.763 392.454 800.337 401.307" fill="none" opacity="1" stroke="#FFFFFF" stroke-linecap="round" stroke-linejoin="round" stroke-width="5" vectornator:layerName="Кривая 13"/>
<path d="M812.397 375.578C809.289 378.686 805.267 381.48 804.357 386.03C802.176 396.936 816.394 402.987 825.261 398.894C830.581 396.439 836.284 389.142 838.126 383.618C838.483 382.546 839.912 379.866 838.126 378.794C833.056 375.752 829.879 381.721 828.477 385.226C826.273 390.736 828.361 396.169 833.301 399.698C834.519 400.568 837.663 400.848 838.93 400.503C840.899 399.965 842.836 399.186 844.558 398.09C858.849 388.996 852.878 356.002 834.91 373.97C832.066 376.813 831.815 381.766 830.085 385.226" fill="none" opacity="1" stroke="#FFFFFF" stroke-linecap="round" stroke-linejoin="round" stroke-width="5" vectornator:layerName="Кривая 14"/>
<path d="M864.658 360.302C867.245 383.578 866.266 406.24 866.266 429.447" fill="none" opacity="1" stroke="#FFFFFF" stroke-linecap="round" stroke-linejoin="round" stroke-width="5" vectornator:layerName="Кривая 15"/>
<path d="M865.462 371.558C868.674 365.135 883.14 362.148 886.367 370.754C890.412 381.54 872.981 386.563 865.462 388.442" fill="none" opacity="1" stroke="#FFFFFF" stroke-linecap="round" stroke-linejoin="round" stroke-width="5" vectornator:layerName="Кривая 16"/>
<path d="M899.231 359.497C899.231 357.889 899.431 356.269 899.231 354.673C899.157 354.079 898.76 352.567 898.427 353.065C896.072 356.599 897.872 369.738 897.623 373.97C896.687 389.881 893.603 406.333 893.603 422.211C893.603 422.747 893.603 421.139 893.603 420.603C893.603 419.799 893.603 418.995 893.603 418.191" fill="none" opacity="1" stroke="#FFFFFF" stroke-linecap="round" stroke-linejoin="round" stroke-width="5" vectornator:layerName="Кривая 17"/>
<path d="M899.231 370.754C899.231 368.342 898.932 365.911 899.231 363.518C899.834 358.693 907.322 358.493 910.487 360.302C918.563 364.916 919.241 378.259 912.095 383.618C909.464 385.592 908.592 385.054 905.663 386.03C901.899 387.285 899.305 387.638 895.211 387.638" fill="none" opacity="1" stroke="#FFFFFF" stroke-linecap="round" stroke-linejoin="round" stroke-width="5" vectornator:layerName="Кривая 18"/>
<path d="M924.96 386.03C927.6 383.39 930.965 381.964 933.804 379.598C936.821 377.084 940.834 374.382 942.648 370.754C944.612 366.827 941.188 363.131 937.02 364.322C924.581 367.876 921.648 389.75 934.608 394.07C937.753 395.119 940.986 395.937 944.256 396.482" fill="none" opacity="1" stroke="#FFFFFF" stroke-linecap="round" stroke-linejoin="round" stroke-width="5" vectornator:layerName="Кривая 19"/>
<path d="M961.141 361.106C961.141 371.658 961.945 381.999 961.945 392.462C961.945 394.093 962.233 389.185 962.749 387.638C963.471 385.471 964.313 383.325 965.161 381.206C966.473 377.926 969.572 374.481 972.397 372.362C972.723 372.117 976.061 370.845 975.613 369.95C974.432 367.588 967.5 373.343 966.769 373.97C959.613 380.103 958.32 393.08 969.985 394.874C971.839 395.16 973.737 394.874 975.613 394.874" fill="none" opacity="1" stroke="#FFFFFF" stroke-linecap="round" stroke-linejoin="round" stroke-width="5" vectornator:layerName="Кривая 20"/>
<path d="M998.126 375.578C997.708 373.07 996.851 370.616 995.714 368.342C995.446 367.806 994.251 366.956 994.106 367.538C993.774 368.863 994.774 370.198 994.91 371.558C995.426 376.723 996.749 381.681 997.322 386.834C997.836 391.46 996.576 388.589 998.126 392.462C998.348 393.019 998.506 394.494 998.93 394.07C1000.07 392.933 998.665 390.832 998.93 389.246C999.4 386.422 1000.29 387.349 999.734 384.422C998.809 379.568 998.284 376.531 998.126 375.578Z" fill="none" opacity="1" stroke="#FFFFFF" stroke-linecap="round" stroke-linejoin="round" stroke-width="5" vectornator:layerName="Кривая 21"/>
<path d="M982.045 361.106C990.889 361.106 999.734 361.106 1008.58 361.106" fill="none" opacity="1" stroke="#FFFFFF" stroke-linecap="round" stroke-linejoin="round" stroke-width="5" vectornator:layerName="Кривая 22"/>
<path d="M1019.83 357.889C1019.83 368.586 1018.23 379.44 1018.23 390.05" fill="none" opacity="1" stroke="#FFFFFF" stroke-linecap="round" stroke-linejoin="round" stroke-width="5" vectornator:layerName="Кривая 23"/>
<path d="M1019.83 374.774C1024.42 376.303 1034.56 379.43 1039.13 376.382C1042.11 374.395 1050.55 359.578 1045.56 357.085C1042.49 355.548 1041.26 361.451 1040.74 363.518C1039.49 368.504 1034.98 389.183 1039.93 391.658" fill="none" opacity="1" stroke="#FFFFFF" stroke-linecap="round" stroke-linejoin="round" stroke-width="5" vectornator:layerName="Кривая 24"/>
<path d="M1059.23 363.518C1059.23 361.374 1059.23 359.229 1059.23 357.085C1059.23 356.549 1059.23 358.157 1059.23 358.693C1059.23 360.302 1059.23 361.91 1059.23 363.518C1059.23 364.858 1059.36 366.204 1059.23 367.538C1058.72 372.691 1058.43 377.586 1058.43 382.814C1058.43 382.956 1057.95 387.125 1059.23 387.638C1064.37 389.696 1073.31 374.803 1072.1 369.95C1071.33 366.907 1069.75 364.57 1067.27 362.714C1066.31 361.994 1065.13 361.642 1064.06 361.106C1063.52 360.838 1061.95 360.634 1062.45 360.302C1064.52 358.917 1073.63 358.669 1076.12 359.497C1082.96 361.778 1077.72 379.131 1077.72 384.422C1077.72 387.006 1077.09 390.854 1080.94 390.854C1089.46 390.854 1101.91 376.272 1105.86 369.95C1106.6 368.767 1109.54 363.175 1108.28 361.91C1106.01 359.645 1103.33 365.077 1102.65 365.93C1099.69 369.621 1096.65 378.673 1098.63 383.618C1100.55 388.42 1111.7 379.393 1113.1 377.99C1117.07 374.019 1119.23 369.08 1121.94 364.322C1122.42 363.483 1122.59 361.91 1123.55 361.91C1124.4 361.91 1122.91 363.491 1122.75 364.322C1122.38 366.18 1122.23 368.077 1121.94 369.95C1121.7 371.561 1121.43 373.17 1121.14 374.774C1120.13 380.329 1119.53 385.199 1119.53 390.854" fill="none" opacity="1" stroke="#FFFFFF" stroke-linecap="round" stroke-linejoin="round" stroke-width="5" vectornator:layerName="Кривая 25"/>
<path d="M1103.45 345.829C1110.21 342.452 1113.79 341.809 1121.14 341.809" fill="none" opacity="1" stroke="#FFFFFF" stroke-linecap="round" stroke-linejoin="round" stroke-width="5" vectornator:layerName="Кривая 26"/>
<path d="M1198.33 358.693C1198.06 357.621 1197.87 356.526 1197.52 355.477C1197.33 354.909 1197.14 353.446 1196.72 353.869C1194.96 355.63 1195.91 362.247 1195.91 364.322C1195.91 370.754 1195.91 377.186 1195.91 383.618C1195.91 385.317 1196.7 390.87 1195.11 392.462C1193.79 393.788 1190.08 391.135 1188.68 390.854C1183.49 389.816 1179.04 388.445 1174.21 386.03" fill="none" opacity="1" stroke="#FFFFFF" stroke-linecap="round" stroke-linejoin="round" stroke-width="5" vectornator:layerName="Кривая 27"/>
<path d="M1228.08 361.91C1228.08 351.403 1206.35 356.366 1204.76 364.322C1203.41 371.044 1217.01 380.448 1221.64 384.422C1222.26 384.955 1228.43 388.182 1228.08 389.246C1227.55 390.82 1221.94 389.893 1220.84 390.05C1216.26 390.704 1204.05 393.457 1201.54 388.442" fill="none" opacity="1" stroke="#FFFFFF" stroke-linecap="round" stroke-linejoin="round" stroke-width="5" vectornator:layerName="Кривая 28"/>
<path d="M1241.34 375.98C1244.08 380.425 1236.91 387.636 1248.18 389.246C1260.06 390.944 1271.86 369.517 1262.65 360.302C1255.95 353.607 1246.15 357.276 1241.74 364.322C1240.91 365.662 1237.86 371.401 1239.33 373.166C1240.33 374.366 1240.62 374.806 1241.34 375.98Z" fill="none" opacity="1" stroke="#FFFFFF" stroke-linecap="round" stroke-linejoin="round" stroke-width="5" vectornator:layerName="Кривая 29"/>
<path d="M1277.12 389.246C1275.03 385.067 1273.31 380.939 1272.3 376.382C1271.77 374.013 1271.76 371.558 1271.49 369.146C1271.04 365.078 1270.69 361.237 1270.69 357.085C1270.69 355.98 1271 359.313 1271.49 360.302C1272.62 362.563 1274.17 364.59 1275.51 366.734C1278.55 371.597 1281.56 376.548 1285.96 380.402C1302.97 395.281 1302.44 373.946 1299.63 362.714C1298.39 357.735 1295.47 353.586 1293.2 349.045" fill="none" opacity="1" stroke="#FFFFFF" stroke-linecap="round" stroke-linejoin="round" stroke-width="5" vectornator:layerName="Кривая 30"/>
<path d="M603.819 136.382C603.819 134.774 603.819 131.558 603.819 131.558C603.819 131.558 603.819 138.526 603.819 142.01C603.819 146.298 603.819 150.586 603.819 154.874C603.819 165.863 603.819 176.851 603.819 187.839" fill="none" opacity="1" stroke="#FFFFFF" stroke-linecap="round" stroke-linejoin="round" stroke-width="5" vectornator:layerName="Кривая 31"/>
<path d="M607.035 142.01C608.693 139.523 610.845 137.652 614.271 138.794C616.862 139.658 617.705 143.976 618.291 146.03C620.417 153.468 621.709 160.422 613.467 163.719C612.34 164.169 609.144 166.632 607.839 165.327C604.987 162.475 614.035 158.611 615.075 158.09C622.562 154.347 636.579 153.253 639.196 163.719C642.092 175.304 631.184 183.008 621.508 185.427C617.579 186.409 611.077 189.511 609.447 184.623" fill="none" opacity="1" stroke="#FFFFFF" stroke-linecap="round" stroke-linejoin="round" stroke-width="5" vectornator:layerName="Кривая 32"/>
<path d="M665.729 141.206C665.729 135.903 661.543 134.939 657.688 138.794C645.415 151.068 642.712 171.95 664.925 174.171C669.295 174.608 668.877 174.198 672.965 172.563" fill="none" opacity="1" stroke="#FFFFFF" stroke-linecap="round" stroke-linejoin="round" stroke-width="5" vectornator:layerName="Кривая 33"/>
<path d="M694.673 131.558C691.495 136.325 692.14 142.754 691.457 148.442C691.009 152.177 691.028 155.956 690.653 159.698C690.412 162.113 689.581 164.523 689.849 166.935C691.279 179.801 710.692 165.327 716.382 165.327" fill="none" opacity="1" stroke="#FFFFFF" stroke-linecap="round" stroke-linejoin="round" stroke-width="5" vectornator:layerName="Кривая 34"/>
<path d="M701.106 152.462C707.498 148.201 713.304 150.05 720.402 150.05" fill="none" opacity="1" stroke="#FFFFFF" stroke-linecap="round" stroke-linejoin="round" stroke-width="5" vectornator:layerName="Кривая 35"/>
<path d="M697.085 129.95C706.697 129.95 717.757 128.151 726.834 125.126" fill="none" opacity="1" stroke="#FFFFFF" stroke-linecap="round" stroke-linejoin="round" stroke-width="5" vectornator:layerName="Кривая 36"/>
<path d="M1116.78 157.286C1116.78 151.836 1118.01 146.605 1118.39 141.206C1118.66 137.463 1118.39 133.702 1118.39 129.95C1118.39 128.342 1118.39 126.734 1118.39 125.126C1118.39 124.322 1118.39 121.91 1118.39 122.714C1118.39 129.688 1116.76 150.85 1126.43 152.462C1135.72 154.011 1143.17 138.578 1144.92 131.558C1145.32 129.967 1146.8 124.318 1145.73 122.714C1145.4 122.215 1144.48 123.038 1144.12 123.518C1141.99 126.359 1141.31 131.502 1140.9 134.774C1140.57 137.433 1141.28 140.161 1140.9 142.814C1140.19 147.785 1138.39 157.079 1140.9 162.111" fill="none" opacity="1" stroke="#FFFFFF" stroke-linecap="round" stroke-linejoin="round" stroke-width="5" vectornator:layerName="Кривая 37"/>
<path d="M1163.42 124.322C1161.58 127.989 1161.43 132.305 1161.01 136.382C1160.36 142.497 1159.44 165.312 1172.26 160.503C1176.53 158.9 1179.64 155.035 1182.71 151.658C1187.94 145.91 1192.36 135.21 1192.36 127.538C1192.36 125.907 1193.1 123.229 1191.56 122.714C1189.2 121.928 1187.96 128.886 1187.54 129.95C1184.22 138.245 1184.32 148.415 1184.32 157.286" fill="none" opacity="1" stroke="#FFFFFF" stroke-linecap="round" stroke-linejoin="round" stroke-width="5" vectornator:layerName="Кривая 38"/>
<path d="M1212.46 125.126C1211.26 128.73 1211.91 131.779 1211.66 135.578C1211.06 144.521 1209.25 153.131 1209.25 162.111" fill="none" opacity="1" stroke="#FFFFFF" stroke-linecap="round" stroke-linejoin="round" stroke-width="5" vectornator:layerName="Кривая 39"/>
<path d="M1215.68 122.714C1215.68 107.38 1243.65 125.967 1234.97 136.382C1232.84 138.949 1229.02 141.209 1226.13 142.814C1223.82 144.096 1221.32 144.99 1218.89 146.03C1215.97 147.284 1211.62 147.638 1208.44 147.638" fill="none" opacity="1" stroke="#FFFFFF" stroke-linecap="round" stroke-linejoin="round" stroke-width="5" vectornator:layerName="Кривая 40"/>
<path d="M1242.21 162.111C1242.21 151.679 1251.59 136.976 1255.88 127.538C1256.61 125.933 1258.57 118.6 1260.7 117.889C1261.06 117.769 1263.02 127.884 1263.12 128.342C1265.6 140.765 1268.74 152.472 1268.74 165.327" fill="none" opacity="1" stroke="#FFFFFF" stroke-linecap="round" stroke-linejoin="round" stroke-width="5" vectornator:layerName="Кривая 41"/>
<path d="M1250.25 143.618C1255.91 143.618 1261 146.03 1266.33 146.03" fill="none" opacity="1" stroke="#FFFFFF" stroke-linecap="round" stroke-linejoin="round" stroke-width="5" vectornator:layerName="Кривая 42"/>
</g>
</svg>
