<svg id="Layer_2" data-name="Layer 2" xmlns="http://www.w3.org/2000/svg" viewBox="0 0 2228.464 800"><defs><style>.cls-1{fill:#020502;}.cls-2{fill:#2e7327;}.cls-3{fill:#4de012;}.cls-4{fill:#fff;}</style></defs><path id="_Outline_" data-name="&lt;Outline&gt;" class="cls-1" d="M120.884,94.062a19.879,19.879,0,0,0,19.906,19.852h.094l65.469-.485a20.238,20.238,0,0,0,20-20.148V20a20.059,20.059,0,0,1,20-20h81.094a20.059,20.059,0,0,1,20,20V94.062a19.892,19.892,0,0,0,19.921,19.863h.079l73.282-.506a19.892,19.892,0,0,1,20,19.783h0v73.359a20.059,20.059,0,0,0,20,20H554.01a20.059,20.059,0,0,1,20,20v73.282a20.059,20.059,0,0,0,20,20h74.6a20.059,20.059,0,0,1,20,20v81.094a20.223,20.223,0,0,1-20,20.136l-74.6.508a20.226,20.226,0,0,0-20,20.137v72.5a20.227,20.227,0,0,1-20,20.138l-73.283.5a20.227,20.227,0,0,0-20,20.143v72.5a20.059,20.059,0,0,1-20,20h-73.28a20.059,20.059,0,0,0-20,20V780a20.059,20.059,0,0,1-20,20H246.353a20.059,20.059,0,0,1-20-20V708.281a20.059,20.059,0,0,0-20-20H140.884a20.059,20.059,0,0,0-20,20V780a20.059,20.059,0,0,1-20,20H20A20.059,20.059,0,0,1,0,780V20A20.059,20.059,0,0,1,20,0h80.884a20.059,20.059,0,0,1,20,20Z"/><rect id="_Outline_2" data-name="&lt;Outline&gt;" class="cls-2" x="8.384" y="8.594" width="105.469" height="105.469" rx="15"/><rect id="_Outline_3" data-name="&lt;Outline&gt;" class="cls-2" x="121.665" y="348.438" width="105.469" height="105.469" rx="15"/><rect id="_Outline_4" data-name="&lt;Outline&gt;" class="cls-2" x="121.665" y="235.156" width="105.469" height="105.469" rx="15"/><rect id="_Outline_5" data-name="&lt;Outline&gt;" class="cls-2" x="121.665" y="121.875" width="105.469" height="105.469" rx="15"/><rect id="_Outline_6" data-name="&lt;Outline&gt;" class="cls-2" x="8.384" y="688.281" width="105.469" height="105.469" rx="15"/><rect id="_Outline_7" data-name="&lt;Outline&gt;" class="cls-2" x="8.384" y="575" width="105.469" height="105.469" rx="15"/><rect id="_Outline_8" data-name="&lt;Outline&gt;" class="cls-2" x="8.384" y="461.719" width="105.469" height="105.469" rx="15"/><rect id="_Outline_9" data-name="&lt;Outline&gt;" class="cls-2" x="8.384" y="348.438" width="105.469" height="105.469" rx="15"/><rect id="_Outline_10" data-name="&lt;Outline&gt;" class="cls-2" x="8.384" y="235.156" width="105.469" height="105.469" rx="15"/><rect id="_Outline_11" data-name="&lt;Outline&gt;" class="cls-2" x="8.384" y="121.875" width="105.469" height="105.469" rx="15"/><rect id="_Outline_12" data-name="&lt;Outline&gt;" class="cls-2" x="234.947" y="347.656" width="105.469" height="105.469" rx="15"/><rect id="_Outline_13" data-name="&lt;Outline&gt;" class="cls-2" x="234.947" y="234.375" width="105.469" height="105.469" rx="15"/><rect id="_Outline_14" data-name="&lt;Outline&gt;" class="cls-2" x="121.665" y="575" width="105.469" height="105.469" rx="15"/><rect id="_Outline_15" data-name="&lt;Outline&gt;" class="cls-2" x="121.665" y="461.719" width="105.469" height="105.469" rx="15"/><rect id="_Outline_16" data-name="&lt;Outline&gt;" class="cls-2" x="348.228" y="347.656" width="105.469" height="105.469" rx="15"/><rect id="_Outline_17" data-name="&lt;Outline&gt;" class="cls-2" x="234.947" y="460.938" width="105.469" height="105.469" rx="15"/><rect id="_Outline_18" data-name="&lt;Outline&gt;" class="cls-3" x="234.947" y="121.094" width="105.469" height="105.469" rx="15"/><rect id="_Outline_19" data-name="&lt;Outline&gt;" class="cls-3" x="348.228" y="460.938" width="105.469" height="105.469" rx="15"/><rect id="_Outline_20" data-name="&lt;Outline&gt;" class="cls-3" x="348.228" y="121.094" width="105.469" height="105.469" rx="15"/><rect id="_Outline_21" data-name="&lt;Outline&gt;" class="cls-3" x="348.228" y="234.375" width="105.469" height="105.469" rx="15"/><rect id="_Outline_22" data-name="&lt;Outline&gt;" class="cls-3" x="234.947" y="687.5" width="105.469" height="105.469" rx="15"/><rect id="_Outline_23" data-name="&lt;Outline&gt;" class="cls-3" x="234.947" y="574.219" width="105.469" height="105.469" rx="15"/><rect id="_Outline_24" data-name="&lt;Outline&gt;" class="cls-3" x="234.947" y="7.813" width="105.469" height="105.469" rx="15"/><rect id="_Outline_25" data-name="&lt;Outline&gt;" class="cls-3" x="461.509" y="347.656" width="105.469" height="105.469" rx="15"/><rect id="_Outline_26" data-name="&lt;Outline&gt;" class="cls-3" x="461.509" y="460.938" width="105.469" height="105.469" rx="15"/><rect id="_Outline_27" data-name="&lt;Outline&gt;" class="cls-3" x="348.228" y="574.219" width="105.469" height="105.469" rx="15"/><rect id="_Outline_28" data-name="&lt;Outline&gt;" class="cls-3" x="574.79" y="347.656" width="105.469" height="105.469" rx="15"/><rect id="_Outline_29" data-name="&lt;Outline&gt;" class="cls-3" x="461.509" y="234.375" width="105.469" height="105.469" rx="15"/><path id="_Outline_30" data-name="&lt;Outline&gt;" class="cls-4" d="M962.543,290.225a77.96,77.96,0,0,1-18.911,27.67,87.261,87.261,0,0,1-29.67,17.983,110.038,110.038,0,0,1-38.584,6.456q-21.525,0-38.739-6.456A84.133,84.133,0,0,1,807.431,317.9a78.1,78.1,0,0,1-18.444-27.67,95.668,95.668,0,0,1-6.456-35.818V118.82H834.8V250.1a60.685,60.685,0,0,0,2.3,16.91,43.29,43.29,0,0,0,7.077,14.3,33.132,33.132,0,0,0,12.606,9.993,50.294,50.294,0,0,0,37.822,0,34.5,34.5,0,0,0,12.762-9.993,39.788,39.788,0,0,0,7.07-14.3,64.9,64.9,0,0,0,2.152-16.91V118.82h52.576V254.406A93.706,93.706,0,0,1,962.543,290.225Z"/><path id="_Outline_31" data-name="&lt;Outline&gt;" class="cls-4" d="M1149.933,336.5l-87.625-142.35h-.928l1.23,142.35h-51.03V118.82h59.954l87.315,142.042h.928l-1.23-142.042h51.036V336.5Z"/><path id="_Outline_32" data-name="&lt;Outline&gt;" class="cls-4" d="M1254.464,336.5V118.82h52.88V336.5Z"/><path id="_Outline_33" data-name="&lt;Outline&gt;" class="cls-4" d="M1445.387,163.707V336.5h-52.573V163.707h-61.49V118.82h175.554v44.887Z"/><path id="_Outline_34" data-name="&lt;Outline&gt;" class="cls-4" d="M1624.018,163.707V336.5h-52.574V163.707h-61.491V118.82h175.555v44.887Z"/><path id="_Outline_35" data-name="&lt;Outline&gt;" class="cls-4" d="M1709.486,336.5V118.82h146.346v44.273h-95.617v41.2h90.391v42.115h-90.391V291.6h101.15v44.888Z"/><path id="_Outline_36" data-name="&lt;Outline&gt;" class="cls-4" d="M2011.093,175.391a47.529,47.529,0,0,0-17.678-13.681,49.879,49.879,0,0,0-21.061-5.074,62.645,62.645,0,0,0-10.607.928,27.416,27.416,0,0,0-9.685,3.535,23.9,23.9,0,0,0-7.224,6.764,17.982,17.982,0,0,0-2.922,10.608,17.1,17.1,0,0,0,2.306,9.223,20.511,20.511,0,0,0,6.764,6.457,60.043,60.043,0,0,0,10.607,5.073q6.149,2.305,13.835,4.765,11.068,3.69,23.059,8.147a86.331,86.331,0,0,1,21.829,11.834,62.216,62.216,0,0,1,16.3,18.293q6.456,10.918,6.457,27.21,0,18.757-6.918,32.435a64.664,64.664,0,0,1-18.6,22.6,79.668,79.668,0,0,1-26.748,13.22,112.56,112.56,0,0,1-31.053,4.3,128.261,128.261,0,0,1-45.195-8.148q-21.834-8.142-36.279-23.212l34.434-35.049a63.524,63.524,0,0,0,21.061,16.448,57.088,57.088,0,0,0,25.979,6.613,52.177,52.177,0,0,0,11.376-1.23,28.3,28.3,0,0,0,9.685-4,20.041,20.041,0,0,0,6.613-7.378,23.251,23.251,0,0,0,2.46-11.069,17.535,17.535,0,0,0-3.075-10.453,30.119,30.119,0,0,0-8.761-7.84,70.97,70.97,0,0,0-14.144-6.457q-8.46-2.916-19.215-6.3a182.85,182.85,0,0,1-20.445-7.994,68.381,68.381,0,0,1-17.832-11.834A54.738,54.738,0,0,1,1893.8,206.61q-4.77-10.3-4.765-25.06,0-18.137,7.379-31.052a64.146,64.146,0,0,1,19.375-21.215,83.289,83.289,0,0,1,27.047-12.158,122.643,122.643,0,0,1,30.437-3.843,113.086,113.086,0,0,1,37.663,6.764A97.116,97.116,0,0,1,2044.6,140.03Z"/><path id="_Outline_37" data-name="&lt;Outline&gt;" class="cls-4" d="M2166.972,163.707V336.5H2114.4V163.707h-61.491V118.82h175.555v44.887Z"/><path id="_Integral_outline_" data-name="&lt;Integral outline&gt;" class="cls-4" d="M1370.832,611.136q0,17.835-7.078,29.977A56.146,56.146,0,0,1,1345,660.636a81.806,81.806,0,0,1-26.6,10.606,144.232,144.232,0,0,1-30.591,3.229h-86.7V456.8h86.7a133.476,133.476,0,0,1,25.825,2.613,76.568,76.568,0,0,1,23.981,8.916,50.8,50.8,0,0,1,17.525,17.064q6.76,10.766,6.764,27.362,0,18.145-9.839,29.977a54.872,54.872,0,0,1-25.824,17.063v.616a59.767,59.767,0,0,1,17.37,5.685,50.236,50.236,0,0,1,14.149,10.6,49.634,49.634,0,0,1,9.531,15.065A50.662,50.662,0,0,1,1370.832,611.136Zm-59.646-91.313q0-11.067-8.454-16.141t-25.06-5.073h-25.827V543.5h28.286q14.758,0,22.9-5.994t8.151-17.678Zm7.077,86.394q0-13.525-10.147-18.755t-27.054-5.227h-29.209v49.808h29.515a79.206,79.206,0,0,0,12.762-1.077,40.092,40.092,0,0,0,11.99-3.844,23.057,23.057,0,0,0,8.762-7.839q3.374-5.073,3.382-13.066Z"/><path id="_Integral_outline_2" data-name="&lt;Integral outline&gt;" class="cls-4" d="M1632.471,564.71a121.378,121.378,0,0,1-8.917,47.194,107.458,107.458,0,0,1-24.749,36.587,110.177,110.177,0,0,1-37.664,23.52,138.74,138.74,0,0,1-94.54,0,110.4,110.4,0,0,1-37.508-23.52,107.363,107.363,0,0,1-24.751-36.587q-8.921-21.365-8.916-47.194,0-26.127,8.916-47.194a103.3,103.3,0,0,1,24.751-35.817,110.276,110.276,0,0,1,37.508-22.751,143.751,143.751,0,0,1,94.54,0,110.052,110.052,0,0,1,37.664,22.751,103.4,103.4,0,0,1,24.749,35.817Q1632.47,538.581,1632.471,564.71Zm-56.263,0a74.713,74.713,0,0,0-4.613-26.44,63.036,63.036,0,0,0-12.762-21.06,58.923,58.923,0,0,0-19.677-13.836,62.28,62.28,0,0,0-25.364-5.074,60.509,60.509,0,0,0-44.889,18.911,59.837,59.837,0,0,0-12.762,21.06,76.97,76.97,0,0,0-4.459,26.44,77.784,77.784,0,0,0,4.612,27.211,64.4,64.4,0,0,0,12.762,21.367,58.165,58.165,0,0,0,19.525,13.984,65.167,65.167,0,0,0,50.42,0,59.93,59.93,0,0,0,19.679-13.988,63.076,63.076,0,0,0,12.911-21.368A77.763,77.763,0,0,0,1576.208,564.71Z"/><path id="_Outline_38" data-name="&lt;Outline&gt;" class="cls-4" d="M1751.147,501.683V674.471h-52.571V501.683h-61.491V456.8h175.556v44.888Z"/></svg>